<svg viewBox="0 0 60 60" xmlns="http://www.w3.org/2000/svg">
  <style>
    svg * { transition: all .1s ease-out; }
    .i24, .i32, .i40, .i60 { opacity: 0; }
    @media all and (min-width: 17px) {
      .i24 { opacity: 1 }
      .i16, .i32, .i40, .i60 { opacity: 0 }
    }
    @media all and (min-width: 25px) {
      .i32 { opacity: 1 }
      .i16, .i24, .i40, .i60 { opacity: 0 }
    }
    @media all and (min-width: 33px) {
      .i40 { opacity: 1 }
      .i16, .i24, .i32, .i60 { opacity: 0 }
    }
    @media all and (min-width: 41px) {
      .i60 { opacity: 1 }
      .i16, .i24, .i32, .i40 { opacity: 0 }
    }
  </style>
  <g class="i16" transform="scale(3.75)">
    <rect width="16" height="16" rx="4" fill="#000E2B" />
    <path d="M6.2 9.63a3.44 3.44 0 1 0 6.87 0 3.44 3.44 0 0 0-6.88 0Z" fill="#0051FF" />
    <path d="M4.89 8.32a3.44 3.44 0 1 0 6.87 0 3.44 3.44 0 0 0-6.87 0Z" fill="#3D79FC" />
    <path d="M2.93 6.37a3.44 3.44 0 1 0 6.88 0 3.44 3.44 0 0 0-6.88 0Z" fill="#fff" />
  </g>
  <g class="i24" transform="scale(2.5)">
    <rect width="24" height="24" rx="4" fill="#000E2B" />
    <path d="M9.29 14.44a5.16 5.16 0 1 0 10.31 0 5.16 5.16 0 0 0-10.31 0Z" fill="#0051FF" />
    <path d="M7.33 12.48a5.16 5.16 0 1 0 10.31 0 5.16 5.16 0 0 0-10.31 0Z" fill="#3D79FC" />
    <path d="M4.4 9.56a5.16 5.16 0 1 0 10.31 0 5.16 5.16 0 0 0-10.3 0Z" fill="#fff" />
  </g>
  <g class="i32" transform="scale(1.875)">
    <rect width="32" height="32" rx="4" fill="#000E2B" />
    <path d="M12.38 19.26a6.88 6.88 0 1 0 13.75 0 6.88 6.88 0 0 0-13.75 0Z" fill="#0051FF" />
    <path d="M9.77 16.64a6.88 6.88 0 1 0 13.75 0 6.88 6.88 0 0 0-13.75 0Z" fill="#3D79FC" />
    <path d="M5.87 12.74a6.88 6.88 0 1 0 13.75 0 6.88 6.88 0 0 0-13.75 0Z" fill="#fff" />
  </g>
  <g class="i40" transform="scale(1.5)">
    <rect width="40" height="40" rx="8" fill="#000E2B" />
    <path d="M15.48 24.07a8.6 8.6 0 1 0 17.19 0 8.6 8.6 0 0 0-17.2 0Z" fill="#0051FF" />
    <path d="M12.21 20.8a8.6 8.6 0 1 0 17.2 0 8.6 8.6 0 0 0-17.2 0Z" fill="#3D79FC" />
    <path d="M7.34 15.93a8.6 8.6 0 1 0 17.18 0 8.6 8.6 0 0 0-17.18 0Z" fill="#fff" />
  </g>
  <g class="i60">
    <rect width="60" height="60" rx="8" fill="#000E2B" />
    <path d="M23.22 36.1a12.9 12.9 0 1 0 25.78 0 12.9 12.9 0 0 0-25.78 0Z" fill="#0051FF" />
    <path d="M18.32 31.2a12.9 12.9 0 1 0 25.78 0 12.9 12.9 0 0 0-25.78 0Z" fill="#3D79FC" />
    <path d="M11 23.9a12.9 12.9 0 1 0 25.78 0 12.9 12.9 0 0 0-25.78 0Z" fill="#fff" />
  </g>
</svg>