<svg width="60" height="61" fill="none" xmlns="http://www.w3.org/2000/svg">
  <g clip-path="url(#a)">
    <rect y=".81" width="60" height="60" rx="8" fill="#000E2B"/>
    <path d="m50.84 43-11.03-6.94a3.41 3.41 0 0 0-1.77-.57c-1.43 0-2.39.8-2.39 2.5v3.27c0 .35-.2.55-.48.55-.17 0-.34-.08-.55-.3l-4.71-5.23c-.42-.46-.99-.8-1.63-.8-.94 0-1.72.63-1.72 1.9v4.13c0 .2-.1.3-.25.3-.09 0-.18-.04-.26-.15l-4.02-5.34c-.51-.68-1.01-.83-1.45-.83-.98 0-1.6.61-1.6 1.75v5.77h1.33v-5.96c0-.21.1-.3.23-.3.1 0 .17.05.25.15l4.12 5.47c.34.46.84.7 1.41.7 1 0 1.59-.56 1.59-1.7v-4.15c0-.32.18-.47.41-.47.13 0 .25.05.4.22l4.66 5.17c.56.62 1.15.94 1.85.94 1.14 0 1.77-.7 1.77-2.04v-3.18c0-.74.47-1.1 1.02-1.1.35 0 .62.14.9.32L48.33 43h2.52ZM11.6 38.61H9.81v1.2h1.8v-1.2Z" fill="#fff"/>
    <path d="M11.75 36.83v-1.27H8.92V43h2.83v-1.27h-1.49v-4.91h1.49ZM16.04 38.84c1.31.26 1.97.95 1.97 1.93 0 1.23-.88 2.24-2.47 2.24H12.8v-7.45h2.71c1.48 0 2.26.8 2.26 1.9 0 .9-.7 1.63-1.72 1.87v-.49Zm-.85 2.9c1.03 0 1.44-.46 1.44-1.02s-.42-.91-1.44-.91h-1.37v-1.2h1.28c.85 0 1.34-.37 1.34-.92 0-.52-.36-.86-1.21-.86h-1.1v4.91h1.06ZM24.56 41.3h-4.62v-1.2h3.65l.97 1.2ZM48.3 35.56l-4.86 3.21-.25.02-6.36 4.22h2.29l4.68-3.1.2.01 6.59-4.36h-2.3Z" fill="#fff"/>
    <path fill-rule="evenodd" clip-rule="evenodd" d="M8.93 52.6v-7.29h2.29a1.95 1.95 0 0 1 1.08 3.64c.52.22.91.61.91 1.44v.67c0 .53.02 1.14.2 1.54h-1.19c-.08-.22-.1-.82-.1-1.3v-.83c0-.44-.05-1.05-.93-1.05h-1.17v3.19h-1.1Zm1.1-4h.93c.77 0 1.22-.5 1.22-1.24s-.45-1.23-1.22-1.23h-.94v2.46Zm3.9 1.3c0-1.7.9-2.92 2.3-2.92s2.18 1.2 2.2 2.77v.27H15c0 1.54.63 2.08 1.27 2.08.6 0 1.1-.46 1.06-1.39h1.01c0 1.2-.86 2.1-2.03 2.1-1.45 0-2.38-1.25-2.38-2.91Zm3.43-.52c0-1.13-.5-1.69-1.13-1.69-.66 0-1.17.62-1.21 1.69h2.34Zm2.57 1.42h-1c-.15 1.2.7 2.01 1.94 2.01 1.16 0 2.04-.65 2.04-1.7 0-1.03-.94-1.43-1.59-1.68l-.17-.06c-.61-.24-1.11-.43-1.11-.98 0-.38.3-.7.88-.7.7 0 .95.55.84 1.09h.96c.12-1.02-.67-1.8-1.79-1.8-1.11 0-1.9.66-1.9 1.55 0 .83.64 1.28 1.6 1.65l.16.06c.58.22 1.12.41 1.12 1 0 .6-.5.86-1.01.86-.57 0-1.15-.39-.97-1.3Zm3.48-.9c0-1.66.85-2.92 2.24-2.92 1.39 0 2.23 1.24 2.23 2.91 0 1.67-.85 2.92-2.23 2.92-1.39 0-2.24-1.26-2.24-2.92Zm3.43 0c0-1.68-.64-2.2-1.2-2.2-.55 0-1.2.52-1.2 2.2 0 1.66.65 2.2 1.2 2.2.56 0 1.2-.53 1.2-2.2Zm1.84-2.76v3.84c0 1.44.99 1.82 1.68 1.82.7 0 1.25-.36 1.58-.92v.73h1.01v-5.47h-1v3.12c0 1.25-.67 1.78-1.29 1.78-.47 0-.98-.31-.98-1.2v-3.7h-1Zm5.36 5.47v-5.47h1v.63c.26-.44.72-.79 1.31-.79.3 0 .55.08.68.19l-.12.96a1.44 1.44 0 0 0-.76-.22c-.53 0-1.1.38-1.1 1.44v3.26h-1Zm5.55-5.63c-1.46 0-2.35 1.24-2.35 2.91 0 1.68.91 2.92 2.36 2.92 1.14 0 1.99-.9 1.99-2.1h-1c.03.86-.4 1.39-1.01 1.39-.62 0-1.28-.54-1.28-2.2 0-1.68.65-2.2 1.26-2.2.62 0 1.05.57 1.01 1.42h1c0-1.22-.83-2.14-1.98-2.14Zm2.5 2.91c0-1.69.91-2.9 2.31-2.9s2.18 1.19 2.19 2.76v.27h-3.42c0 1.54.63 2.08 1.27 2.08.6 0 1.1-.46 1.06-1.39h1c0 1.2-.86 2.1-2.03 2.1-1.45 0-2.37-1.25-2.37-2.91Zm3.44-.51c0-1.13-.5-1.69-1.13-1.69-.66 0-1.18.62-1.22 1.69h2.35Zm2.57 1.42h-1c-.15 1.2.7 2.01 1.93 2.01 1.17 0 2.05-.65 2.05-1.7 0-1.03-.94-1.43-1.6-1.68l-.16-.06c-.61-.24-1.12-.43-1.12-.98 0-.38.31-.7.89-.7.7 0 .94.55.84 1.09h.96c.12-1.02-.68-1.8-1.79-1.8-1.11 0-1.9.66-1.9 1.55 0 .83.63 1.28 1.59 1.65l.16.06c.6.22 1.12.41 1.12 1 0 .6-.5.86-1 .86-.57 0-1.15-.39-.97-1.3Z" fill="#0051FF"/>
  </g>
  <defs>
    <clipPath id="a">
      <path fill="#fff" transform="translate(0 .81)" d="M0 0h60v60H0z"/>
    </clipPath>
  </defs>
</svg>
