<svg width="60" height="61" fill="none" xmlns="http://www.w3.org/2000/svg">
  <g clip-path="url(#a)">
    <rect y=".99" width="60" height="60" rx="8" fill="#0051FF"/>
    <path fill-rule="evenodd" clip-rule="evenodd" d="m45.15 27.63 5.93 3.73h-2.53l-4.75-2.99-4.51 3h-2.3l5.63-3.74-3.53-2.23a1.66 1.66 0 0 0-.9-.33c-.56 0-1.04.37-1.04 1.11v3.2c0 1.36-.63 2.05-1.78 2.05-.7 0-1.29-.32-1.85-.95l-4.69-5.2c-.15-.16-.27-.21-.4-.21-.24 0-.42.15-.42.47v4.17c0 1.15-.6 1.72-1.6 1.72-.57 0-1.07-.25-1.41-.7l-.82-1.1h-3.8v1.73h-1.35v-5.8c0-1.14.63-1.76 1.61-1.76.44 0 .94.15 1.46.84L26.14 30c.08.1.18.15.27.15.14 0 .25-.1.25-.3V25.7c0-1.27.78-1.9 1.73-1.9.64 0 1.21.33 1.64.8l4.73 5.26c.2.22.39.3.56.3.27 0 .48-.2.48-.55v-3.3c0-1.7.97-2.51 2.4-2.51.58 0 1.2.2 1.78.57l3.98 2.51 4.55-3h2.31l-5.67 3.75Zm-24.3-2.41 2.43 3.22h-2.9v-3.07c0-.21.1-.3.22-.3.1 0 .17.05.25.15Zm-10.58 4.87v-1.95h1.34v-1.2h-1.34v-1.8h1.5v-1.27H8.91v7.5h2.84v-1.28h-1.5Zm6.54-2.7c.83.34 1.25.94 1.25 1.72 0 1.24-.89 2.25-2.48 2.25H12.8v-7.49h2.73c1.48 0 2.27.8 2.27 1.9 0 .69-.38 1.26-1 1.62Zm-.14 1.67c0 .57-.41 1.03-1.44 1.03h-1.07v-1.95h1.07c1.02 0 1.44.36 1.44.92Zm-2.51-2.12v-1.8h1.1c.85 0 1.22.35 1.22.87 0 .56-.5.93-1.35.93h-.97Z" fill="#fff"/>
    <path fill-rule="evenodd" clip-rule="evenodd" d="M10.09 37.9v3.29H8.92v-7.76h2.23c1.36 0 2.28.97 2.28 2.24 0 1.26-.92 2.23-2.28 2.23H10.1Zm.81-.88c.84 0 1.34-.54 1.34-1.36 0-.82-.5-1.37-1.34-1.37h-.81v2.73h.81Zm2.83 2.85c0-1.2.95-1.64 2.28-2.06l1.23-.36v-.3c0-.78-.45-1.18-1.17-1.18-.67 0-1.17.46-1.07 1.36h-1.05c-.08-1.33.74-2.12 2.16-2.12 1.64 0 2.2.97 2.2 1.86v4.13h-1.07v-.73c-.34.57-.9.94-1.72.94-.98 0-1.78-.59-1.78-1.54Zm3.5-.82v-.86l-.42.12c-1.37.4-1.98.59-1.98 1.4 0 .51.33.93.97.93.98 0 1.43-.89 1.43-1.6Zm2.4 3.24v.87c.2.05.39.08.56.07.6-.03.98-.35 1.17-.97l2.14-6.89h-.92l-1.39 4.46-1.39-4.46h-1.08l1.88 6.07-.15.5c-.1.3-.29.42-.5.42-.11 0-.21-.02-.32-.07Zm4.4-1.1v-5.82h1.07v.76a1.9 1.9 0 0 1 1.6-.92c.62 0 1.3.23 1.6 1.04.36-.6.99-1.04 1.74-1.04.76 0 1.74.4 1.74 1.93v4.05h-1.07v-3.9c0-.93-.42-1.29-.96-1.29-.61 0-1.3.57-1.3 1.9v3.3h-1.09v-3.91c0-.93-.4-1.28-.95-1.28-.6 0-1.31.57-1.31 1.9v3.29h-1.07Zm11.06-5.98c-1.49 0-2.45 1.3-2.45 3.1 0 1.77.98 3.1 2.53 3.1 1.24 0 2.16-.95 2.16-2.23h-1.07c.04.99-.5 1.48-1.13 1.48-.68 0-1.36-.58-1.36-2.22h3.65v-.29c-.01-1.67-.84-2.94-2.33-2.94Zm0 .75c.66 0 1.2.6 1.2 1.8h-2.5c.04-1.14.6-1.8 1.3-1.8Zm3.18 5.23v-5.82h1.07v.76c.36-.57.95-.92 1.7-.92s1.78.4 1.78 1.93v4.05h-1.07v-3.9c0-.91-.5-1.29-1.04-1.29-.65 0-1.37.59-1.37 1.9v3.3h-1.07Zm7.21.22c.18 0 .38-.03.6-.09v-.82c-.13.04-.25.06-.34.06-.28 0-.42-.18-.42-.5v-3.94h1v-.75h-1V33.9h-.71c0 .96-.3 1.5-1.18 1.57v.65h.8v3.96c0 .82.48 1.32 1.25 1.32Zm1.37-2.14h1.06c-.2.97.43 1.38 1.03 1.38.54 0 1.07-.28 1.07-.9 0-.63-.57-.84-1.2-1.07l-.17-.07c-1.02-.4-1.7-.88-1.7-1.75 0-.95.85-1.65 2.03-1.65 1.19 0 2.04.83 1.9 1.9h-1.01c.1-.56-.14-1.15-.9-1.15-.61 0-.94.34-.94.74 0 .58.53.79 1.19 1.04l.18.07c.69.26 1.7.69 1.7 1.8 0 1.1-.95 1.8-2.19 1.8-1.31 0-2.22-.86-2.05-2.14Zm-14.16 3.96c-.4 0-.7.34-.7.74 0 .4.3.74.7.74.4 0 .72-.33.72-.74 0-.4-.32-.74-.72-.74Zm-.53 2.12v5.82h1.08v-5.82h-1.08ZM8.92 43.41v7.76h4.05v-.87h-2.88v-2.58h2.6v-.85h-2.6v-2.6h2.88v-.86H8.92Zm6.28 4.82-1.94 2.94h1.03l1.43-2.11 1.35 2.11h1.18l-1.93-3.04 1.84-2.78H17.1l-1.3 1.95-1.26-1.95h-1.17l1.82 2.88Zm3.61 4.76v-7.64h1.07v.73c.4-.66 1.03-.9 1.53-.9 1.28 0 2.07 1.34 2.07 3.17 0 1.82-.87 3.04-2.07 3.04-.5 0-1.11-.25-1.53-.9v2.5h-1.07Zm3.56-4.67c0-1.88-.65-2.38-1.2-2.38-.58 0-1.3.63-1.3 2.33 0 1.7.76 2.33 1.3 2.33.49 0 1.2-.4 1.2-2.28Zm1.96-4.9v7.75h1.07V43.4h-1.07Zm1.92 6.43c0-1.2.95-1.64 2.28-2.06l1.23-.36v-.3c0-.78-.45-1.18-1.17-1.18-.67 0-1.18.46-1.08 1.36h-1.05c-.07-1.33.75-2.12 2.17-2.12 1.64 0 2.2.97 2.2 1.86v4.13h-1.07v-.73c-.34.57-.9.94-1.72.94-.98 0-1.78-.59-1.78-1.54Zm3.5-.82v-.86l-.42.12c-1.37.4-1.98.59-1.98 1.4 0 .51.32.93.97.93.98 0 1.43-.89 1.43-1.59Zm4.81 2.14v-5.82h1.07v.76c.36-.57.95-.92 1.7-.92s1.78.4 1.78 1.93v4.05h-1.07v-3.9c0-.91-.5-1.29-1.04-1.29-.65 0-1.37.59-1.37 1.9v3.3h-1.07Zm7.86-5.98c-1.49 0-2.45 1.3-2.45 3.1 0 1.77.98 3.1 2.53 3.1 1.24 0 2.16-.95 2.16-2.23H43.6c.04.99-.5 1.48-1.13 1.48-.68 0-1.36-.58-1.36-2.22h3.65v-.29c-.01-1.67-.84-2.94-2.33-2.94Zm0 .75c.66 0 1.2.6 1.2 1.8h-2.5c.05-1.14.6-1.8 1.3-1.8Zm2.88 2.28c0-1.86.88-3.03 2.12-3.03.44 0 1.02.21 1.46.86v-2.64h1.07v7.76h-1.07v-.73c-.36.7-.97.95-1.49.95-1.24 0-2.1-1.32-2.1-3.17Zm0 0Zm3.62.05c0-1.73-.77-2.34-1.3-2.34-.49 0-1.2.42-1.2 2.3s.66 2.37 1.2 2.37c.6 0 1.28-.64 1.3-2.33Z" fill="#000E2B"/>
  </g>
  <defs>
    <clipPath id="a">
      <path fill="#fff" transform="translate(0 .99)" d="M0 0h60v60H0z"/>
    </clipPath>
  </defs>
</svg>
