<svg width="60" height="61" fill="none" xmlns="http://www.w3.org/2000/svg">
  <g clip-path="url(#a)">
    <rect y=".72" width="60" height="60" rx="8" fill="#0051FF"/>
    <path d="m51.08 41.4-11.1-6.99a3.43 3.43 0 0 0-1.78-.57c-1.43 0-2.4.8-2.4 2.51v3.3c0 .35-.2.55-.48.55-.17 0-.35-.09-.56-.3l-4.73-5.26c-.43-.47-1-.8-1.64-.8-.94 0-1.73.63-1.73 1.9v4.15c0 .2-.1.3-.25.3-.1 0-.19-.04-.27-.15l-4.04-5.36c-.51-.69-1.01-.84-1.46-.84-.98 0-1.61.61-1.61 1.76v5.8h1.35v-6c0-.2.1-.29.22-.29.1 0 .17.04.25.15l4.15 5.5c.34.46.84.7 1.42.7 1 0 1.6-.56 1.6-1.71v-4.17c0-.32.18-.47.4-.47.14 0 .26.05.41.21l4.69 5.2c.56.63 1.15.95 1.85.95 1.15 0 1.78-.7 1.78-2.05v-3.2c0-.75.48-1.11 1.04-1.11.34 0 .61.15.9.33l9.46 5.96h2.53ZM11.62 36.98h-1.8v1.2h1.8v-1.2Z" fill="#fff"/>
    <path d="M11.76 35.18v-1.27H8.92v7.49h2.84v-1.27h-1.5v-4.95h1.5ZM16.08 37.21c1.32.26 1.98.95 1.98 1.94 0 1.24-.89 2.25-2.48 2.25h-2.76v-7.5h2.72c1.49 0 2.27.8 2.27 1.91 0 .92-.7 1.65-1.73 1.9v-.5Zm-.85 2.91c1.03 0 1.44-.45 1.44-1.02 0-.56-.42-.92-1.44-.92h-1.38v-1.2h1.29c.85 0 1.34-.37 1.34-.93 0-.52-.36-.87-1.22-.87h-1.1v4.95h1.07ZM24.64 39.67H20v-1.2h3.67l.97 1.2ZM48.51 33.9l-4.88 3.24-.25.02-6.4 4.24h2.3L44 38.28l.2.01 6.62-4.38h-2.3Z" fill="#fff"/>
    <path d="M8.93 51.05v-7.33h2.15c1.2 0 2.06.77 2.06 1.83 0 .82-.52 1.3-1 1.62.78.29 1.35.94 1.35 1.84 0 1.16-.95 2.04-2.22 2.04H8.93Zm1.97-4.18c.7 0 1.15-.48 1.15-1.18s-.44-1.15-1.15-1.15h-.87v2.33h.87Zm.15 3.35c.85 0 1.3-.57 1.3-1.31 0-.74-.45-1.26-1.3-1.26h-1.02v2.57h1.01ZM14.44 51.05v-7.33h1v7.33h-1ZM16.25 48.32c0-1.66.86-2.93 2.26-2.93s2.24 1.25 2.24 2.93c0 1.68-.85 2.93-2.24 2.93-1.4 0-2.26-1.26-2.26-2.93Zm3.45 0c0-1.68-.63-2.21-1.2-2.21-.56 0-1.2.53-1.2 2.21s.65 2.22 1.2 2.22c.56 0 1.2-.54 1.2-2.22ZM22.38 52.71c-.75 0-1.27-.36-1.27-.97 0-.49.34-.8.7-.97-.28-.14-.43-.37-.43-.64 0-.33.18-.6.63-.77l.44-.14a1.92 1.92 0 0 1-1.14-1.8c0-1.14.78-2.02 2.14-2.02.38 0 .7.06 1 .18h1.6v.75h-.81A1.95 1.95 0 0 1 24 49.4l-1.66.35c-.08.02-.12.07-.12.13 0 .09.06.14.15.14h2.22c1.05.01 1.48.58 1.48 1.2 0 .75-.61 1.5-1.65 1.49h-2.05Zm1.96-.57c.54 0 .83-.3.83-.66 0-.36-.24-.55-.71-.55H22.5c-.25.12-.5.34-.5.66 0 .38.28.55.75.55h1.59Zm.27-4.7c0-.97-.58-1.41-1.15-1.41s-1.16.44-1.16 1.4.59 1.4 1.16 1.4 1.15-.44 1.15-1.4Z" fill="#000E2B"/>
  </g>
  <defs>
    <clipPath id="a">
      <path fill="#fff" transform="translate(0 .72)" d="M0 0h60v60H0z"/>
    </clipPath>
  </defs>
</svg>
