<svg viewBox="0 0 60 60" xmlns="http://www.w3.org/2000/svg">
  <style>
    svg * { transition: all .1s ease-out; }
    .i24, .i32, .i40, .i60 { opacity: 0; }
    @media all and (min-width: 17px) {
      .i24 { opacity: 1 }
      .i16, .i32, .i40, .i60 { opacity: 0 }
    }
    @media all and (min-width: 25px) {
      .i32 { opacity: 1 }
      .i16, .i24, .i40, .i60 { opacity: 0 }
    }
    @media all and (min-width: 33px) {
      .i40 { opacity: 1 }
      .i16, .i24, .i32, .i60 { opacity: 0 }
    }
    @media all and (min-width: 41px) {
      .i60 { opacity: 1 }
      .i16, .i24, .i32, .i40 { opacity: 0 }
    }
  </style>
  <g class="i16" transform="scale(3.75)">
    <rect width="16" height="16" rx="8" fill="#0051FF"/>
    <rect width="16" height="16" rx="4" fill="#000E2B"/>
    <path d="M2.28 3.5h11.18a.4.4 0 0 1 .41.41v-.83a.41.41 0 0 0-.4-.41H2.26a.4.4 0 0 0-.4.4v.84a.4.4 0 0 1 .4-.4Z" fill="#fff"/>
    <path d="M2.28 5h11.18a.4.4 0 0 1 .41.41v-1.5a.4.4 0 0 0-.4-.4H2.26a.4.4 0 0 0-.4.4v1.5a.4.4 0 0 1 .4-.4Z" fill="#B6CAF5"/>
    <path d="M2.28 7.17h11.18a.4.4 0 0 1 .41.4V5.42a.4.4 0 0 0-.4-.4H2.26a.4.4 0 0 0-.4.4v2.17a.4.4 0 0 1 .4-.41Z" fill="#79A1F9"/>
    <path d="M3.62 10.17a3 3 0 0 1 2.12.87 3 3 0 0 0 4.25 0 3 3 0 0 1 2.12-.87h1.75v-2.6a.4.4 0 0 0-.4-.4H2.27a.4.4 0 0 0-.41.4v2.6h1.75Z" fill="#3D79FC"/>
  </g>
  <g class="i24" transform="scale(2.5)">
    <rect width="24" height="24" rx="8" fill="#0051FF"/>
    <rect width="24" height="24" rx="4" fill="#000E2B"/>
    <path d="M3.41 5.25H20.2a.61.61 0 0 1 .62.62V4.6a.61.61 0 0 0-.62-.61H3.41a.61.61 0 0 0-.61.61v1.26a.61.61 0 0 1 .61-.62Z" fill="#fff"/>
    <path d="M3.41 7.5H20.2a.61.61 0 0 1 .62.62V5.87a.61.61 0 0 0-.62-.62H3.41a.61.61 0 0 0-.61.62v2.25a.61.61 0 0 1 .61-.61Z" fill="#B6CAF5"/>
    <path d="M3.41 10.75H20.2a.61.61 0 0 1 .62.61V8.12a.61.61 0 0 0-.62-.61H3.41a.61.61 0 0 0-.61.61v3.25a.61.61 0 0 1 .61-.62Z" fill="#79A1F9"/>
    <path d="M5.44 15.25a4.5 4.5 0 0 1 3.18 1.32 4.5 4.5 0 0 0 6.36 0 4.5 4.5 0 0 1 3.18-1.32h2.63v-3.88a.61.61 0 0 0-.61-.62H3.4a.61.61 0 0 0-.61.62v3.88h2.63Z" fill="#3D79FC"/>
  </g>
  <g class="i32" transform="scale(1.875)">
    <rect width="32" height="32" rx="8" fill="#0051FF"/>
    <rect width="32" height="32" rx="4" fill="#000E2B"/>
    <path d="M4.55 7h22.37a.82.82 0 0 1 .82.82V6.15a.82.82 0 0 0-.82-.82H4.55a.82.82 0 0 0-.82.82v1.67A.82.82 0 0 1 4.55 7Z" fill="#fff"/>
    <path d="M4.55 10.01h22.37a.82.82 0 0 1 .82.82v-3a.82.82 0 0 0-.82-.83H4.55a.82.82 0 0 0-.82.82v3a.82.82 0 0 1 .82-.8Z" fill="#B6CAF5"/>
    <path d="M4.55 14.33h22.37a.82.82 0 0 1 .82.82v-4.32a.82.82 0 0 0-.82-.82H4.55a.82.82 0 0 0-.82.82v4.33a.82.82 0 0 1 .82-.83Z" fill="#79A1F9"/>
    <path d="M7.25 20.33a6 6 0 0 1 4.24 1.76 6 6 0 0 0 8.48 0 6 6 0 0 1 4.24-1.76h3.51v-5.17a.82.82 0 0 0-.82-.82H4.55a.82.82 0 0 0-.82.82v5.18h3.51Z" fill="#3D79FC"/>
  </g>
  <g class="i40" transform="scale(1.5)">
    <rect width="40" height="40" rx="8" fill="#0051FF"/>
    <rect width="40" height="40" rx="8" fill="#000E2B"/>
    <path d="M5.69 8.75h27.97a1.02 1.02 0 0 1 1.02 1.03v-2.1a1.02 1.02 0 0 0-1.02-1.01H5.69a1.02 1.02 0 0 0-1.02 1.02v2.09a1.02 1.02 0 0 1 1.02-1.03Z" fill="#fff"/>
    <path d="M5.69 12.51h27.97a1.02 1.02 0 0 1 1.02 1.03V9.78a1.02 1.02 0 0 0-1.02-1.03H5.69a1.02 1.02 0 0 0-1.02 1.03v3.76a1.02 1.02 0 0 1 1.02-1.03Z" fill="#B6CAF5"/>
    <path d="M5.69 17.92h27.97a1.02 1.02 0 0 1 1.02 1.02v-5.4a1.02 1.02 0 0 0-1.02-1.03H5.69a1.02 1.02 0 0 0-1.02 1.03v5.4a1.02 1.02 0 0 1 1.02-1.02Z" fill="#79A1F9"/>
    <path d="M9.06 25.42a7.5 7.5 0 0 1 5.3 2.2 7.5 7.5 0 0 0 10.6 0 7.5 7.5 0 0 1 5.3-2.2h4.4v-6.47a1.02 1.02 0 0 0-1.03-1.03H5.69a1.02 1.02 0 0 0-1.02 1.03v6.47h4.39Z" fill="#3D79FC"/>
  </g>
  <g class="i60">
    <rect width="60" height="60" rx="8" fill="#0051FF"/>
    <rect width="60" height="60" rx="8" fill="#000E2B"/>
    <path d="M8.53 13.13h41.95a1.53 1.53 0 0 1 1.54 1.53v-3.13A1.54 1.54 0 0 0 50.48 10H8.53A1.54 1.54 0 0 0 7 11.53v3.13a1.53 1.53 0 0 1 1.53-1.53Z" fill="#fff"/>
    <path d="M8.53 18.77h41.95a1.53 1.53 0 0 1 1.54 1.53v-5.64a1.53 1.53 0 0 0-1.54-1.53H8.53A1.53 1.53 0 0 0 7 14.66v5.64a1.53 1.53 0 0 1 1.53-1.53Z" fill="#B6CAF5"/>
    <path d="M8.53 26.88h41.95a1.53 1.53 0 0 1 1.54 1.53v-8.1a1.53 1.53 0 0 0-1.54-1.54H8.53A1.53 1.53 0 0 0 7 20.3v8.12a1.53 1.53 0 0 1 1.53-1.54Z" fill="#79A1F9"/>
    <path d="M13.6 38.13a11.24 11.24 0 0 1 7.94 3.29 11.24 11.24 0 0 0 15.9 0 11.24 11.24 0 0 1 7.96-3.3h6.58v-9.7a1.53 1.53 0 0 0-1.53-1.53H8.53A1.53 1.53 0 0 0 7 28.42v9.72h6.58l.01-.01Z" fill="#3D79FC"/>
  </g>
</svg>