<svg xmlns="http://www.w3.org/2000/svg" width="96" height="96" fill="none" viewBox="0 0 96 96"><path fill="#000E2B" d="M86.4 0H9.6A9.6 9.6 0 0 0 0 9.6v76.8A9.6 9.6 0 0 0 9.6 96h76.8a9.6 9.6 0 0 0 9.6-9.6V9.6A9.6 9.6 0 0 0 86.4 0Z"/><path fill="#F2F2F2" d="M78.6 12H17.4a5.4 5.4 0 0 0-5.4 5.4v34.2a5.4 5.4 0 0 0 5.4 5.4h61.2a5.4 5.4 0 0 0 5.4-5.4V17.4a5.4 5.4 0 0 0-5.4-5.4Z"/><path fill="#79A1F9" d="M78.6 21H17.4a5.4 5.4 0 0 0-5.4 5.4v34.2a5.4 5.4 0 0 0 5.4 5.4h61.2a5.4 5.4 0 0 0 5.4-5.4V26.4a5.4 5.4 0 0 0-5.4-5.4Z"/><path fill="#0051FF" d="M78.6 39H17.4a5.4 5.4 0 0 0-5.4 5.4v34.2a5.4 5.4 0 0 0 5.4 5.4h61.2a5.4 5.4 0 0 0 5.4-5.4V44.4a5.4 5.4 0 0 0-5.4-5.4Z"/><path fill="#030E2B" d="M0 60h20.85a19.191 19.191 0 0 1 13.57 5.62 19.21 19.21 0 0 0 27.16 0A19.191 19.191 0 0 1 75.15 60H96v26H0V60Z"/></svg>