<svg viewBox="0 0 60 60" xmlns="http://www.w3.org/2000/svg">
  <style>
    svg * { transition: all .1s ease-out; }
    .i24, .i32, .i40, .i60 { opacity: 0; }
    @media all and (min-width: 17px) {
      .i24 { opacity: 1 }
      .i16, .i32, .i40, .i60 { opacity: 0 }
    }
    @media all and (min-width: 25px) {
      .i32 { opacity: 1 }
      .i16, .i24, .i40, .i60 { opacity: 0 }
    }
    @media all and (min-width: 33px) {
      .i40 { opacity: 1 }
      .i16, .i24, .i32, .i60 { opacity: 0 }
    }
    @media all and (min-width: 41px) {
      .i60 { opacity: 1 }
      .i16, .i24, .i32, .i40 { opacity: 0 }
    }
  </style>
  <g class="i16" transform="scale(3.75)">
    <rect width="16" height="16" rx="4" fill="#000E2B" />
    <path d="M10.2 4H5.8a4.17 4.17 0 0 0-4.2 4.13 4.17 4.17 0 0 0 4.2 4.14h4.4c2.32 0 4.2-1.85 4.2-4.14A4.17 4.17 0 0 0 10.2 4Z" fill="#0051FF" />
    <path d="M10.2 4H7.42a4.17 4.17 0 0 0-4.2 4.13 4.17 4.17 0 0 0 4.2 4.14h2.78c2.32 0 4.2-1.85 4.2-4.14A4.17 4.17 0 0 0 10.2 4Z" fill="#79A1F9" />
    <path d="M11.42 12.09a4.12 4.12 0 0 0 2.8-5.16 4.2 4.2 0 0 0-5.23-2.75 4.12 4.12 0 0 0-2.8 5.15 4.2 4.2 0 0 0 5.23 2.76Z" fill="#fff" />
  </g>
  <g class="i24" transform="scale(2.5)">
    <rect width="24" height="24" rx="4" fill="#000E2B" />
    <path d="M15.3 6H8.7a6.25 6.25 0 0 0-6.3 6.2c0 3.42 2.82 6.2 6.3 6.2h6.6c3.48 0 6.3-2.78 6.3-6.2 0-3.42-2.82-6.2-6.3-6.2Z" fill="#0051FF" />
    <path d="M15.3 6h-4.17a6.25 6.25 0 0 0-6.3 6.2c0 3.42 2.83 6.2 6.3 6.2h4.17c3.48 0 6.3-2.78 6.3-6.2 0-3.42-2.82-6.2-6.3-6.2Z" fill="#79A1F9" />
    <path d="M17.13 18.13c3.33-1 5.2-4.45 4.2-7.73a6.31 6.31 0 0 0-7.85-4.14A6.18 6.18 0 0 0 9.28 14a6.31 6.31 0 0 0 7.85 4.14Z" fill="#fff" />
  </g>
  <g class="i32" transform="scale(1.875)">
    <rect width="32" height="32" rx="4" fill="#000E2B" />
    <path d="M20.4 8h-8.8c-4.64 0-8.4 3.7-8.4 8.27a8.33 8.33 0 0 0 8.4 8.26h8.8c4.64 0 8.4-3.7 8.4-8.26A8.33 8.33 0 0 0 20.4 8Z" fill="#0051FF" />
    <path d="M20.4 8h-5.55c-4.64 0-8.4 3.7-8.4 8.27a8.33 8.33 0 0 0 8.4 8.26h5.55c4.64 0 8.4-3.7 8.4-8.26A8.33 8.33 0 0 0 20.4 8Z" fill="#79A1F9" />
    <path d="M22.84 24.18a8.25 8.25 0 0 0 5.6-10.31 8.42 8.42 0 0 0-10.47-5.52 8.25 8.25 0 0 0-5.6 10.31 8.42 8.42 0 0 0 10.47 5.52Z" fill="#fff" />
  </g>
  <g class="i40" transform="scale(1.5)">
    <rect width="40" height="40" rx="8" fill="#000E2B" />
    <path d="M25.5 10h-11C8.7 10 4 14.63 4 20.33s4.7 10.33 10.5 10.33h11c5.8 0 10.5-4.62 10.5-10.33C36 14.63 31.3 10 25.5 10Z" fill="#0051FF" />
    <path d="M25.5 10h-6.94c-5.8 0-10.5 4.63-10.5 10.33s4.7 10.33 10.5 10.33h6.94c5.8 0 10.5-4.62 10.5-10.33C36 14.63 31.3 10 25.5 10Z" fill="#79A1F9" />
    <path d="M28.55 30.22a10.3 10.3 0 0 0 7-12.88 10.52 10.52 0 0 0-13.08-6.9 10.3 10.3 0 0 0-7 12.88 10.52 10.52 0 0 0 13.08 6.9Z" fill="#fff" />
  </g>
  <g class="i60">
    <rect width="60" height="60" rx="8" fill="#000E2B" />
    <path d="M38.26 15H21.74C13.04 15 6 21.94 6 30.5 6 39.06 13.05 46 21.74 46h16.52C46.95 46 54 39.06 54 30.5 54 21.94 46.95 15 38.26 15Z" fill="#0051FF" />
    <path d="M38.26 15H27.83c-8.7 0-15.74 6.94-15.74 15.5 0 8.56 7.05 15.5 15.74 15.5h10.43C46.95 46 54 39.06 54 30.5 54 21.94 46.95 15 38.26 15Z" fill="#79A1F9" />
    <path d="M42.82 45.33A15.46 15.46 0 0 0 53.32 26 15.78 15.78 0 0 0 33.7 15.66 15.46 15.46 0 0 0 23.2 35a15.78 15.78 0 0 0 19.62 10.34Z" fill="#fff" />
  </g>
</svg>