<svg width="60" height="61" fill="none" xmlns="http://www.w3.org/2000/svg">
  <rect y=".5" width="60" height="60" rx="8" fill="#001F60"/>
  <path d="M50.02 42.99c-.59-.39-1.2-.83-1.86-1.3-2.88-2.08-6.46-4.67-10.65-4.5-4.46.19-6.85.8-8.6 1.24l-.42.1a2.62 2.62 0 0 0-2.07 2.37c-.06.72.17 1.42.58 1.93h-.16c-8.52-3.35-13.62-4.97-15.6-4.97-1.03 0-1.43.45-1.6.83-.37.92.47 1.76.83 2.11 2.32 2.32 12.9 10.65 15.9 11.65 1.81.6 5.63-.27 8.87-1.07 1.45-.36 2.94-.73 3.55-.73 1.3.28 4.69 1.96 5.88 2.58a.96.96 0 0 0 .73.06.95.95 0 0 0 .56-.48l4.38-8.6a.95.95 0 0 0-.32-1.22Zm-5.33 8.11c-1.4-.7-4.13-2.01-5.5-2.31a2.03 2.03 0 0 0-.44-.04c-.8 0-2.2.34-3.97.78-2.22.55-5 1.23-6.78 1.23-.55 0-.87-.06-1.03-.12-2.31-.77-11.7-8-14.7-10.75 1.74.33 5.58 1.45 14.05 4.78.1.05.22.07.34.07.22 0 5.34-.01 9.2-.94a.95.95 0 0 0 .73-1.05.96.96 0 0 0-.97-.83s-1.02.02-2.3.02c-3.99 0-4.7-.23-4.76-.25-.11-.05-.26-.32-.24-.64.03-.35.23-.57.63-.67l.43-.1c1.76-.45 3.94-1 8.2-1.19 3.53-.14 6.68 2.14 9.47 4.15l1.21.86-3.57 7ZM21.68 27c.24.08 1.56.5 3.08.66v1.52a.95.95 0 1 0 1.9 0v-1.51a4.66 4.66 0 0 0 1.75-.51 2.92 2.92 0 0 0 1.46-1.94c.74-3.25-2.8-4.22-4.31-4.63l-.17-.05c-.9-.25-1.54-.81-1.69-1.5-.13-.6.12-1.19.69-1.68.82-.7 3.26-.08 4.72.57a.95.95 0 0 0 .78-1.74c-.26-.11-1.67-.72-3.23-.95V13.7a.95.95 0 1 0-1.9 0v1.54c-.6.1-1.15.3-1.6.68a3.61 3.61 0 0 0-1.32 3.54c.3 1.4 1.44 2.48 3.04 2.93l.18.04c2.43.67 3.2 1.29 2.95 2.37a1 1 0 0 1-.53.7c-1.2.67-3.76.19-5.19-.3a.95.95 0 1 0-.61 1.81Z" fill="#9BE9D6"/>
  <path d="M25.75 35.6c7.7 0 13.97-6.26 13.97-13.96 0-7.7-6.26-13.97-13.97-13.97-7.7 0-13.97 6.27-13.97 13.97 0 7.7 6.27 13.97 13.97 13.97Zm0-26.02c6.65 0 12.07 5.4 12.07 12.06a12.08 12.08 0 0 1-24.13 0c0-6.65 5.41-12.06 12.06-12.06Z" fill="#9BE9D6"/>
</svg>
