<svg viewBox="0 0 60 60" xmlns="http://www.w3.org/2000/svg">
  <style>
    svg * { transition: all .1s ease-out; }
    .i24, .i32, .i40, .i60 { opacity: 0; }
    @media all and (min-width: 17px) {
      .i24 { opacity: 1 }
      .i16, .i32, .i40, .i60 { opacity: 0 }
    }
    @media all and (min-width: 25px) {
      .i32 { opacity: 1 }
      .i16, .i24, .i40, .i60 { opacity: 0 }
    }
    @media all and (min-width: 33px) {
      .i40 { opacity: 1 }
      .i16, .i24, .i32, .i60 { opacity: 0 }
    }
    @media all and (min-width: 41px) {
      .i60 { opacity: 1 }
      .i16, .i24, .i32, .i40 { opacity: 0 }
    }
  </style>
  <g class="i16" transform="scale(3.75)">
    <rect width="16" height="16" rx="4" fill="#000E2B" />
    <path d="M6.13 3.47H3.47v9.06h2.66V3.47Z" fill="#0051FF" />
    <path d="M7.47 3.47H4.8v9.06h2.67V3.47Z" fill="#3D79FC" />
    <path d="M9.02 12.53V3.47l4.7 4.19c.2.18.2.5 0 .68l-4.7 4.2Z" fill="#fff" />
    <path d="M9.02 3.47H6.35v9.06h2.67V3.47Z" fill="#B6CAF5" />
  </g>
  <g class="i24" transform="scale(2.5)">
    <rect width="24" height="24" rx="4" fill="#000E2B" />
    <path d="M9.2 5.2h-4v13.6h4V5.2Z" fill="#0051FF" />
    <path d="M11.2 5.2h-4v13.6h4V5.2Z" fill="#3D79FC" />
    <path d="M13.53 18.8V5.2l7.04 6.28c.3.28.3.76 0 1.04l-7.04 6.28Z" fill="#fff" />
    <path d="M13.53 5.2h-4v13.6h4V5.2Z" fill="#B6CAF5" />
  </g>
  <g class="i32" transform="scale(1.875)">
    <rect width="32" height="32" rx="4" fill="#000E2B" />
    <path d="M12.27 6.93H6.93v18.14h5.34V6.93Z" fill="#0051FF" />
    <path d="M14.94 6.93H9.6v18.14h5.34V6.93Z" fill="#3D79FC" />
    <path d="M18.04 25.07V6.93l9.39 8.38c.4.36.4 1.02 0 1.38l-9.39 8.38Z" fill="#fff" />
    <path d="M18.04 6.93h-5.33v18.14h5.33V6.93Z" fill="#B6CAF5" />
  </g>
  <g class="i40" transform="scale(1.5)">
    <rect width="40" height="40" rx="8" fill="#000E2B" />
    <path d="M15.33 8.67H8.67v22.66h6.66V8.67Z" fill="#0051FF" />
    <path d="M18.67 8.67H12v22.66h6.67V8.67Z" fill="#3D79FC" />
    <path d="M22.55 31.33V8.67L34.3 19.14c.5.45.5 1.27 0 1.72L22.55 31.33Z" fill="#fff" />
    <path d="M22.55 8.67h-6.67v22.66h6.67V8.67Z" fill="#B6CAF5" />
  </g>
  <g class="i60">
    <rect width="60" height="60" rx="8" fill="#000E2B" />
    <path d="M23 13H13v34h10V13Z" fill="#0051FF" />
    <path d="M28 13H18v34h10V13Z" fill="#3D79FC" />
    <path d="M33.83 47V13l17.6 15.71c.76.68.76 1.9 0 2.58L33.83 47Z" fill="#fff" />
    <path d="M33.83 13h-10v34h10V13Z" fill="#B6CAF5" />
  </g>
</svg>