<svg viewBox="0 0 60 60" xmlns="http://www.w3.org/2000/svg">
  <style>
    svg * { transition: all .1s ease-out; }
    .i24, .i32, .i40, .i60 { opacity: 0; }
    @media all and (min-width: 17px) {
      .i24 { opacity: 1 }
      .i16, .i32, .i40, .i60 { opacity: 0 }
    }
    @media all and (min-width: 25px) {
      .i32 { opacity: 1 }
      .i16, .i24, .i40, .i60 { opacity: 0 }
    }
    @media all and (min-width: 33px) {
      .i40 { opacity: 1 }
      .i16, .i24, .i32, .i60 { opacity: 0 }
    }
    @media all and (min-width: 41px) {
      .i60 { opacity: 1 }
      .i16, .i24, .i32, .i40 { opacity: 0 }
    }
  </style>
  <g class="i16" transform="scale(3.75)">
    <rect width="16" height="16" rx="4" fill="#000E2B" />
    <path d="M13.6 10.67 5.33 2.4h8.27v8.27Z" fill="#0051FF" />
    <path d="M12 12.53 3.47 4H12v8.53Z" fill="#79A1F9" />
    <path d="M10.4 14.13 1.87 5.6h8.53v8.53Z" fill="#fff" />
  </g>
  <g class="i24" transform="scale(2.5)">
    <rect width="24" height="24" rx="4" fill="#000E2B" />
    <path d="M20.4 16 8 3.6h12.4V16Z" fill="#0051FF" />
    <path d="M18 18.8 5.2 6H18v12.8Z" fill="#79A1F9" />
    <path d="M15.6 21.2 2.8 8.4h12.8v12.8Z" fill="#fff" />
  </g>
  <g class="i32" transform="scale(1.875)">
    <rect width="32" height="32" rx="4" fill="#000E2B" />
    <path d="M27.2 21.33 10.67 4.8H27.2v16.53Z" fill="#0051FF" />
    <path d="M24 25.07 6.93 8H24v17.07Z" fill="#79A1F9" />
    <path d="M20.8 28.27 3.73 11.2H20.8v17.07Z" fill="#fff" />
  </g>
  <g class="i40" transform="scale(1.5)">
    <rect width="40" height="40" rx="8" fill="#000E2B" />
    <path d="M34 26.67 13.33 6H34v20.67Z" fill="#0051FF" />
    <path d="M30 31.33 8.67 10H30v21.33Z" fill="#79A1F9" />
    <path d="M26 35.33 4.67 14H26v21.33Z" fill="#fff" />
  </g>
  <g class="i60">
    <rect width="60" height="60" rx="8" fill="#000E2B" />
    <path d="M51 40 20 9h31v31Z" fill="#0051FF" />
    <path d="M45 47 13 15h32v32Z" fill="#79A1F9" />
    <path d="M39 53 7 21h32v32Z" fill="#fff" />
  </g>
</svg>