<svg viewBox="0 0 60 60" xmlns="http://www.w3.org/2000/svg">
  <style>
    svg * { transition: all .1s ease-out; }
    .i24, .i32, .i40, .i60 { opacity: 0; }
    @media all and (min-width: 17px) {
      .i24 { opacity: 1 }
      .i16, .i32, .i40, .i60 { opacity: 0 }
    }
    @media all and (min-width: 25px) {
      .i32 { opacity: 1 }
      .i16, .i24, .i40, .i60 { opacity: 0 }
    }
    @media all and (min-width: 33px) {
      .i40 { opacity: 1 }
      .i16, .i24, .i32, .i60 { opacity: 0 }
    }
    @media all and (min-width: 41px) {
      .i60 { opacity: 1 }
      .i16, .i24, .i32, .i40 { opacity: 0 }
    }
  </style>
  <g class="i16" transform="scale(3.75)">
    <rect width="16" height="16" rx="4" fill="#000E2B"/>
    <path d="M9.05 13.6h3.76c.59 0 1.06-.47 1.06-1.05V8.79c0-.59-.47-1.06-1.06-1.06H9.05C8.47 7.73 8 8.2 8 8.8v3.76c0 .58.47 1.05 1.05 1.05Z" fill="#fff"/>
    <path d="M6.39 11.2h3.76c.58 0 1.05-.47 1.05-1.05V6.39c0-.59-.47-1.06-1.05-1.06H6.39c-.59 0-1.06.47-1.06 1.06v3.76c0 .58.47 1.05 1.06 1.05Z" fill="#B6CAF5"/>
    <path d="M3.45 8.27h3.76c.59 0 1.06-.47 1.06-1.06V3.45c0-.58-.47-1.05-1.06-1.05H3.45c-.58 0-1.05.47-1.05 1.05v3.76c0 .59.47 1.06 1.05 1.06Z" fill="#3D79FC"/>
  </g>
  <g class="i24" transform="scale(2.5)">
    <rect width="24" height="24" rx="4" fill="#000E2B"/>
    <path d="M13.58 20.4h5.64c.87 0 1.58-.7 1.58-1.58v-5.64c0-.87-.7-1.58-1.58-1.58h-5.64c-.87 0-1.58.7-1.58 1.58v5.64c0 .87.7 1.58 1.58 1.58Z" fill="#fff"/>
    <path d="M9.58 16.8h5.64c.87 0 1.58-.7 1.58-1.58V9.58c0-.87-.7-1.58-1.58-1.58H9.58C8.7 8 8 8.7 8 9.58v5.64c0 .87.7 1.58 1.58 1.58Z" fill="#B6CAF5"/>
    <path d="M5.18 12.4h5.64c.87 0 1.58-.7 1.58-1.58V5.18c0-.87-.7-1.58-1.58-1.58H5.18c-.87 0-1.58.7-1.58 1.58v5.64c0 .87.7 1.58 1.58 1.58Z" fill="#3D79FC"/>
  </g>
  <g class="i32" transform="scale(1.875)">
    <rect width="32" height="32" rx="4" fill="#000E2B"/>
    <path d="M18.1 27.2h7.53a2.1 2.1 0 0 0 2.1-2.1v-7.53a2.1 2.1 0 0 0-2.1-2.1H18.1a2.1 2.1 0 0 0-2.1 2.1v7.53c0 1.16.94 2.1 2.1 2.1Z" fill="#fff"/>
    <path d="M12.77 22.4h7.53a2.1 2.1 0 0 0 2.1-2.1v-7.53a2.1 2.1 0 0 0-2.1-2.1h-7.53a2.1 2.1 0 0 0-2.1 2.1v7.53c0 1.16.94 2.1 2.1 2.1Z" fill="#B6CAF5"/>
    <path d="M6.9 16.53h7.53a2.1 2.1 0 0 0 2.1-2.1V6.9a2.1 2.1 0 0 0-2.1-2.1H6.9a2.1 2.1 0 0 0-2.1 2.1v7.53c0 1.16.94 2.1 2.1 2.1Z" fill="#3D79FC"/>
  </g>
  <g class="i40" transform="scale(1.5)">
    <rect width="40" height="40" rx="8" fill="#000E2B"/>
    <path d="M22.63 34h9.4a2.63 2.63 0 0 0 2.64-2.63v-9.4a2.63 2.63 0 0 0-2.63-2.64h-9.4A2.63 2.63 0 0 0 20 21.96v9.4A2.63 2.63 0 0 0 22.63 34Z" fill="#fff"/>
    <path d="M15.96 28h9.4A2.63 2.63 0 0 0 28 25.37v-9.4a2.63 2.63 0 0 0-2.63-2.64h-9.4a2.63 2.63 0 0 0-2.64 2.63v9.4A2.63 2.63 0 0 0 15.96 28Z" fill="#B6CAF5"/>
    <path d="M8.63 20.67h9.4a2.63 2.63 0 0 0 2.64-2.63v-9.4A2.63 2.63 0 0 0 18.04 6h-9.4A2.63 2.63 0 0 0 6 8.63v9.4a2.63 2.63 0 0 0 2.63 2.64Z" fill="#3D79FC"/>
  </g>
  <g class="i60">
    <rect width="60" height="60" rx="8" fill="#000E2B"/>
    <path d="M33.95 51h14.1A3.95 3.95 0 0 0 52 47.05v-14.1A3.95 3.95 0 0 0 48.05 29h-14.1A3.95 3.95 0 0 0 30 32.95v14.1A3.95 3.95 0 0 0 33.95 51Z" fill="#fff"/>
    <path d="M23.95 42h14.1A3.95 3.95 0 0 0 42 38.05v-14.1A3.95 3.95 0 0 0 38.05 20h-14.1A3.95 3.95 0 0 0 20 23.95v14.1A3.95 3.95 0 0 0 23.95 42Z" fill="#B6CAF5"/>
    <path d="M12.95 31h14.1A3.95 3.95 0 0 0 31 27.05v-14.1A3.95 3.95 0 0 0 27.05 9h-14.1A3.95 3.95 0 0 0 9 12.95v14.1A3.95 3.95 0 0 0 12.95 31Z" fill="#3D79FC"/>
  </g>
</svg>