<svg viewBox="0 0 60 60" xmlns="http://www.w3.org/2000/svg">
  <style>
    svg * { transition: all .1s ease-out; }
    .i24, .i32, .i40, .i60 { opacity: 0; }
    @media all and (min-width: 17px) {
      .i24 { opacity: 1 }
      .i16, .i32, .i40, .i60 { opacity: 0 }
    }
    @media all and (min-width: 25px) {
      .i32 { opacity: 1 }
      .i16, .i24, .i40, .i60 { opacity: 0 }
    }
    @media all and (min-width: 33px) {
      .i40 { opacity: 1 }
      .i16, .i24, .i32, .i60 { opacity: 0 }
    }
    @media all and (min-width: 41px) {
      .i60 { opacity: 1 }
      .i16, .i24, .i32, .i40 { opacity: 0 }
    }
  </style>
  <g class="i16" transform="scale(3.75)">
    <rect width="16" height="16" rx="4" fill="#0051FF"/>
    <path d="M7.83 3.63 3.12 5.6v4.7c0 2.22 4.45 4.64 4.7 4.7.27-.06 4.72-2.65 4.72-4.45V5.61l-4.7-1.98h-.01Z" fill="#3D79FC"/>
    <path d="M7.83 2.82 3.12 4.8v4.71c0 2.21 4.45 4.64 4.7 4.7.27-.06 4.72-2.66 4.72-4.45V4.8l-4.7-1.98h-.01Z" fill="#79A1F9"/>
    <path d="m7.91 1.4-4.71 2v4.7c0 2.21 4.45 4.63 4.7 4.7.27-.07 4.71-2.66 4.71-4.45V3.39l-4.7-1.98Z" fill="#fff"/>
  </g>
  <g class="i24" transform="scale(2.5)">
    <rect width="24" height="24" rx="4" fill="#0051FF"/>
    <path d="M11.75 5.44 4.68 8.41v7.06c0 3.32 6.67 6.96 7.06 7.06.4-.1 7.06-4 7.06-6.69V8.41l-7.05-2.97Z" fill="#3D79FC"/>
    <path d="M11.75 4.23 4.68 7.2v7.07c0 3.32 6.67 6.95 7.06 7.05.4-.1 7.06-3.99 7.06-6.68V7.2l-7.05-2.97Z" fill="#79A1F9"/>
    <path d="M11.86 2.11 4.8 5.1v7.06c0 3.32 6.67 6.95 7.06 7.05.4-.1 7.06-3.99 7.06-6.68V5.09l-7.05-2.97Z" fill="#fff"/>
  </g>
  <g class="i32" transform="scale(1.875)">
    <rect width="32" height="32" rx="4" fill="#0051FF"/>
    <path d="m15.66 7.25-9.42 3.97v9.41c0 4.43 8.9 9.27 9.42 9.4.52-.13 9.41-5.31 9.41-8.9v-9.91l-9.4-3.97Z" fill="#3D79FC"/>
    <path d="M15.66 5.64 6.24 9.61v9.41c0 4.43 8.9 9.27 9.42 9.4.52-.13 9.41-5.31 9.41-8.9V9.6l-9.4-3.97Z" fill="#79A1F9"/>
    <path d="M15.82 2.82 6.4 6.78v9.42c0 4.42 8.9 9.27 9.41 9.4.53-.13 9.42-5.31 9.42-8.9V6.77l-9.4-3.96h-.01Z" fill="#fff"/>
  </g>
  <g class="i40" transform="scale(1.5)">
    <rect width="40" height="40" rx="8" fill="#0051FF"/>
    <path d="M19.58 9.07 7.8 14.02v11.77c0 5.53 11.12 11.58 11.77 11.76.65-.18 11.77-6.65 11.77-11.14V14.02L19.58 9.07Z" fill="#3D79FC"/>
    <path d="M19.58 7.05 7.8 12.01v11.77c0 5.53 11.12 11.58 11.77 11.76.65-.18 11.77-6.65 11.77-11.14V12L19.58 7.06Z" fill="#79A1F9"/>
    <path d="M19.77 3.52 8 8.48v11.77C8 25.78 19.11 31.83 19.77 32c.65-.18 11.77-6.65 11.77-11.14V8.48L19.78 3.53Z" fill="#fff"/>
  </g>
  <g class="i60">
    <rect width="60" height="60" rx="8" fill="#0051FF"/>
    <path d="M29.36 13.6 11.7 21.03v17.65c0 8.3 16.67 17.38 17.65 17.64.99-.26 17.66-9.97 17.66-16.7V21.02L29.37 13.6Z" fill="#3D79FC"/>
    <path d="M29.36 10.58 11.7 18.01v17.66c0 8.3 16.67 17.37 17.65 17.63.99-.26 17.66-9.97 17.66-16.7V18l-17.64-7.43Z" fill="#79A1F9"/>
    <path d="M29.66 5.29 12 12.72v17.65c0 8.3 16.67 17.38 17.65 17.64.98-.26 17.66-9.97 17.66-16.71V12.72L29.66 5.29Z" fill="#fff"/>
  </g>
</svg>