<svg viewBox="0 0 60 60" xmlns="http://www.w3.org/2000/svg">
  <style>
    svg * { transition: all .1s ease-out; }
    .i24, .i32, .i40, .i60 { opacity: 0; }
    @media all and (min-width: 17px) {
      .i24 { opacity: 1 }
      .i16, .i32, .i40, .i60 { opacity: 0 }
    }
    @media all and (min-width: 25px) {
      .i32 { opacity: 1 }
      .i16, .i24, .i40, .i60 { opacity: 0 }
    }
    @media all and (min-width: 33px) {
      .i40 { opacity: 1 }
      .i16, .i24, .i32, .i60 { opacity: 0 }
    }
    @media all and (min-width: 41px) {
      .i60 { opacity: 1 }
      .i16, .i24, .i32, .i40 { opacity: 0 }
    }
  </style>
  <g class="i16" transform="scale(3.75)">
    <rect width="16" height="16" rx="4" fill="#0051FF" />
    <path d="M14 2.25H2v3.6h12v-3.6Z" fill="#0051FF" />
    <path d="M14 5.85H2v3h12v-3Z" fill="#3D79FC" />
    <path d="M14 8.85H2v2.4h12v-2.4Z" fill="#79A1F9" />
    <path d="M14 11.25H2v1.8h12v-1.8Z" fill="#B6CAF5" />
    <path d="M14 13.05H2v1.2h12v-1.2Z" fill="#fff" />
  </g>
  <g class="i24" transform="scale(2.5)">
    <rect width="24" height="24" rx="4" fill="#0051FF" />
    <path d="M21 3.25H3v5.4h18v-5.4Z" fill="#0051FF" />
    <path d="M21 8.65H3v4.5h18v-4.5Z" fill="#3D79FC" />
    <path d="M21 13.15H3v3.6h18v-3.6Z" fill="#79A1F9" />
    <path d="M21 16.75H3v2.7h18v-2.7Z" fill="#B6CAF5" />
    <path d="M21 19.45H3v1.8h18v-1.8Z" fill="#fff" />
  </g>
  <g class="i32" transform="scale(1.875)">
    <rect width="32" height="32" rx="4" fill="#0051FF" />
    <path d="M28 4.25H4v7.2h24v-7.2Z" fill="#0051FF" />
    <path d="M28 11.45H4v6h24v-6Z" fill="#3D79FC" />
    <path d="M28 17.45H4v4.8h24v-4.8Z" fill="#79A1F9" />
    <path d="M28 22.25H4v3.6h24v-3.6Z" fill="#B6CAF5" />
    <path d="M28 25.85H4v2.4h24v-2.4Z" fill="#fff" />
  </g>
  <g class="i40" transform="scale(1.5)">
    <rect width="40" height="40" rx="8" fill="#0051FF" />
    <path d="M35 5.25H5v9h30v-9Z" fill="#0051FF" />
    <path d="M35 14.25H5v7.5h30v-7.5Z" fill="#3D79FC" />
    <path d="M35 21.75H5v6h30v-6Z" fill="#79A1F9" />
    <path d="M35 27.75H5v4.5h30v-4.5Z" fill="#B6CAF5" />
    <path d="M35 32.25H5v3h30v-3Z" fill="#fff" />
  </g>
  <g class="i60">
    <rect width="60" height="60" rx="8" fill="#0051FF" />
    <path d="M52.5 7.75h-45v13.5h45V7.75Z" fill="#0051FF" />
    <path d="M52.5 21.25h-45V32.5h45V21.25Z" fill="#3D79FC" />
    <path d="M52.5 32.5h-45v9h45v-9Z" fill="#79A1F9" />
    <path d="M52.5 41.5h-45v6.75h45V41.5Z" fill="#B6CAF5" />
    <path d="M52.5 48.25h-45v4.5h45v-4.5Z" fill="#fff" />
  </g>
</svg>