  <svg width="8" height="6" viewBox="0 0 8 6" fill="none" xmlns="http://www.w3.org/2000/svg" className=''>
    <path d="M1.42426 1.07574C1.18995 0.841421 0.810051 0.841421 0.575736 1.07574C0.341421 1.31005 0.341421 1.68995 0.575736 1.92426L1.42426 1.07574ZM4 4.5L3.57574 4.92426C3.81005 5.15858 4.18995 5.15858 4.42426 4.92426L4 4.5ZM7.42426 1.92427C7.65858 1.68995 7.65858 1.31005 7.42426 1.07574C7.18995 0.841422 6.81005 0.841422 6.57574 1.07574L7.42426 1.92427ZM0.575736 1.92426L3.57574 4.92426L4.42426 4.07574L1.42426 1.07574L0.575736 1.92426ZM4.42426 4.92426L7.42426 1.92427L6.57574 1.07574L3.57574 4.07574L4.42426 4.92426Z" fill="#000E2B" />
  </svg>