<svg width="11" height="16" viewBox="0 0 11 16" fill="none" xmlns="http://www.w3.org/2000/svg">
<path d="M1.16789 14.5485C0.918503 14.7667 0.893233 15.1457 1.11144 15.3951C1.32965 15.6445 1.70871 15.6698 1.95809 15.4515L1.16789 14.5485ZM9.56299 8L9.95809 8.45155C10.0883 8.33761 10.163 8.17302 10.163 8C10.163 7.82698 10.0883 7.66239 9.95809 7.54845L9.56299 8ZM1.95809 0.548453C1.70871 0.330244 1.32965 0.355515 1.11144 0.604897C0.893232 0.854279 0.918503 1.23334 1.16788 1.45154L1.95809 0.548453ZM1.95809 15.4515L9.95809 8.45155L9.16788 7.54845L1.16789 14.5485L1.95809 15.4515ZM9.95809 7.54845L1.95809 0.548453L1.16788 1.45154L9.16788 8.45155L9.95809 7.54845Z" fill="#000E2B"/>
</svg>
