<svg
  width="33"
  height="33"
  viewBox="0 0 33 33"
  fill="none"
  xmlns="http://www.w3.org/2000/svg"
  className='justify-self-start w-[32px] cursor-pointer'
>
  <circle cx="16.063" cy="16.5" r="16" fill="white" />
  <path d="M17.7325 9.46395C18.0449 9.15153 18.5514 9.15153 18.8639 9.46395C19.1763 9.77637 19.1763 10.2829 18.8639 10.5953L17.7325 9.46395ZM11.8281 16.4997L11.2624 17.0654C10.95 16.7529 10.95 16.2464 11.2624 15.934L11.8281 16.4997ZM18.8639 22.404C19.1763 22.7165 19.1763 23.223 18.8639 23.5354C18.5514 23.8478 18.0449 23.8478 17.7325 23.5354L18.8639 22.404ZM18.8639 10.5953L12.3938 17.0654L11.2624 15.934L17.7325 9.46395L18.8639 10.5953ZM12.3938 15.934L18.8639 22.404L17.7325 23.5354L11.2624 17.0654L12.3938 15.934Z" fill="#000E2B" />
</svg>