<svg width="26" height="26" fill="none" xmlns="http://www.w3.org/2000/svg">
  <path d="M24.35 12.88a.65.65 0 0 0 1.3 0h-1.3ZM16.7 25v.65c.17 0 .34-.07.46-.18L16.7 25Zm7.98-7.69.45.47a.65.65 0 0 0-.45-1.12v.65ZM7.07 1a.65.65 0 1 0-1.3 0h1.3Zm-1.3 5.9a.65.65 0 0 0 1.3 0h-1.3ZM13.65 1a.65.65 0 1 0-1.3 0h1.3Zm-1.3 5.9a.65.65 0 1 0 1.3 0h-1.3ZM20.23 1a.65.65 0 1 0-1.3 0h1.3Zm-1.3 5.9a.65.65 0 1 0 1.3 0h-1.3ZM6.14 11.32l-.01.02a.07.07 0 0 1-.05.02v1.3c.73 0 1.36-.58 1.36-1.34h-1.3Zm-.06-.04.05.02.01.02h1.3c0-.76-.63-1.34-1.36-1.34v1.3Zm-.06.04.01-.02a.07.07 0 0 1 .05-.02v-1.3c-.73 0-1.36.58-1.36 1.34h1.3Zm.06.04c-.02 0-.04 0-.05-.02v-.02h-1.3c0 .76.62 1.34 1.35 1.34v-1.3Zm.06 4.29-.01.02a.07.07 0 0 1-.05.02v1.3c.73 0 1.36-.59 1.36-1.34h-1.3Zm-.06-.04c.02 0 .04 0 .05.02l.01.02h1.3c0-.76-.63-1.34-1.36-1.34v1.3Zm-.06.04.01-.02a.07.07 0 0 1 .05-.02v-1.3c-.73 0-1.36.58-1.36 1.34h1.3Zm.06.04-.05-.02v-.02h-1.3c0 .75.62 1.34 1.35 1.34v-1.3Zm0 5.62c.73 0 1.36-.58 1.36-1.34h-1.3l-.01.03a.07.07 0 0 1-.05.01v1.3Zm-1.36-1.34c0 .76.63 1.34 1.36 1.34v-1.3L6.03 20v-.03h-1.3Zm1.36-1.34c-.73 0-1.36.59-1.36 1.34h1.3l.01-.02a.07.07 0 0 1 .05-.02v-1.3Zm1.36 1.34c0-.75-.63-1.34-1.36-1.34v1.3l.05.02.01.02h1.3Zm3.15-8.65-.01.02a.07.07 0 0 1-.05.02v1.3c.73 0 1.36-.58 1.36-1.34h-1.3Zm-.06-.04.05.02v.02h1.3c0-.76-.62-1.34-1.35-1.34v1.3Zm-.06.04.01-.02a.07.07 0 0 1 .05-.02v-1.3c-.73 0-1.36.58-1.36 1.34h1.3Zm.06.04c-.02 0-.04 0-.05-.02v-.02h-1.3c0 .76.62 1.34 1.35 1.34v-1.3Zm.06 4.29-.01.02a.07.07 0 0 1-.05.02v1.3c.73 0 1.36-.59 1.36-1.34h-1.3Zm-.06-.04c.02 0 .04 0 .05.02v.02h1.3c0-.76-.62-1.34-1.35-1.34v1.3Zm-.06.04.01-.02a.07.07 0 0 1 .05-.02v-1.3c-.73 0-1.36.58-1.36 1.34h1.3Zm.06.04-.05-.02v-.02h-1.3c0 .75.62 1.34 1.35 1.34v-1.3Zm0 5.62c.73 0 1.36-.58 1.36-1.34h-1.3l-.01.03a.07.07 0 0 1-.05.01v1.3Zm-1.36-1.34c0 .76.63 1.34 1.36 1.34v-1.3l-.05-.01v-.03h-1.3Zm1.36-1.34c-.73 0-1.36.59-1.36 1.34h1.3l.01-.02a.07.07 0 0 1 .05-.02v-1.3Zm1.36 1.34c0-.75-.63-1.34-1.36-1.34v1.3l.05.02v.02h1.3Zm3.15-8.65-.01.02a.07.07 0 0 1-.05.02v1.3c.73 0 1.36-.58 1.36-1.34h-1.3Zm-.06-.04.05.02v.02h1.3c0-.76-.62-1.34-1.35-1.34v1.3Zm-.06.04.01-.02a.07.07 0 0 1 .05-.02v-1.3c-.73 0-1.36.58-1.36 1.34h1.3Zm.06.04c-.02 0-.04 0-.05-.02l-.01-.02h-1.3c0 .76.63 1.34 1.36 1.34v-1.3Zm.06 4.29-.01.02a.07.07 0 0 1-.05.02v1.3c.73 0 1.36-.59 1.36-1.34h-1.3Zm-.06-.04c.02 0 .04 0 .05.02v.02h1.3c0-.76-.62-1.34-1.35-1.34v1.3Zm-.06.04.01-.02a.07.07 0 0 1 .05-.02v-1.3c-.73 0-1.36.58-1.36 1.34h1.3Zm.06.04-.05-.02-.01-.02h-1.3c0 .75.63 1.34 1.36 1.34v-1.3Zm4.5-4.37v.02a.07.07 0 0 1-.05.02v1.3c.73 0 1.36-.58 1.36-1.34h-1.3Zm-.05-.04.05.02v.02h1.3c0-.76-.62-1.34-1.35-1.34v1.3Zm-.06.04.01-.02a.07.07 0 0 1 .05-.02v-1.3c-.74 0-1.36.58-1.36 1.34h1.3Zm.06.04c-.02 0-.04 0-.05-.02l-.01-.02h-1.3c0 .76.62 1.34 1.36 1.34v-1.3Zm6.22 1.52V6.23h-1.3v6.65h1.3Zm-2.83-9.42H3.18v1.3h19.64v-1.3ZM.35 6.23v16.65h1.3V6.23H.35Zm2.83 19.42H16.7v-1.3H3.18v1.3Zm13.98-.18 7.97-7.7-.9-.93-7.98 7.7.9.93Zm7.52-8.8h-5.8v1.3h5.8v-1.3Zm-8.63 2.76V25h1.3v-5.57h-1.3ZM.35 22.88a2.8 2.8 0 0 0 2.83 2.77v-1.3a1.5 1.5 0 0 1-1.53-1.47H.35ZM3.18 3.46A2.8 2.8 0 0 0 .35 6.23h1.3c0-.8.67-1.47 1.53-1.47v-1.3Zm15.7 13.2a2.8 2.8 0 0 0-2.83 2.77h1.3c0-.8.67-1.47 1.54-1.47v-1.3Zm6.77-10.43a2.8 2.8 0 0 0-2.83-2.77v1.3c.86 0 1.53.67 1.53 1.47h1.3ZM5.77 1v5.9h1.3V1h-1.3Zm6.58 0v5.9h1.3V1h-1.3Zm6.58 0v5.9h1.3V1h-1.3Z" fill="#0051FF"/>
</svg>
