<svg width="26" height="26" fill="none" xmlns="http://www.w3.org/2000/svg">
  <path d="M6.24 3.18c1.04-1.01 4.18-2.66 8.7-2.02 4.54.64 7.53 4.09 8.5 5.84 1.12 1.99 2.52 6.1.63 10.4m-4.31 5.44c-1.04 1-4.18 2.65-8.7 2.02-4.54-.64-7.53-4.1-8.5-5.84-1.12-2-2.52-6.1-.63-10.41m11.29-7.6c-2.03.27-6.1 3-6.14 11.84-.04 8.84 3.8 11.79 5.72 12.15m.18-24c2.03.26 6.1 3 6.13 11.84.05 8.84-3.79 11.78-5.71 12.14m-.44-15.33V1.02m0 23.98v-8.64M1 13h8.65m6.7 0H25M8.08 6.56c2.62.42 9.1.77 14-1.22m-4.35 13.92c-2.63-.43-9.1-.78-14 1.22" stroke="#0051FF" stroke-width="1.3" stroke-linecap="round" stroke-linejoin="round"/>
  <ellipse cx="3.69" cy="5.52" rx=".7" ry=".71" fill="#0051FF"/>
  <ellipse cx="13" cy="13.01" rx=".7" ry=".71" fill="#0051FF"/>
  <ellipse cx="22.36" cy="20.48" rx=".7" ry=".71" fill="#0051FF"/>
</svg>
