<svg width="26" height="26" fill="none" xmlns="http://www.w3.org/2000/svg">
  <path d="m9.05 20.68-.52.4.52-.4Zm2.98 3.9-.52.39.52-.4Zm1.7 0 .52.4-.52-.4Zm3.1-3.91-.52-.4.51.4Zm8.82-7.98V3.2h-1.3v9.5h1.3ZM22.83.35H3.17v1.3h19.66V.35ZM.35 3.2v14.85h1.3V3.2H.35Zm2.82 17.7H8.2v-1.3H3.17v1.3Zm5.36.18 2.98 3.89 1.03-.8-2.97-3.88-1.04.79Zm5.72 3.9 3.08-3.91-1.02-.8-3.09 3.91 1.03.8Zm3.42-4.08h5.16v-1.3h-5.16v1.3Zm7.98-2.85v-.57h-1.3v.57h1.3Zm-2.82 2.85a2.84 2.84 0 0 0 2.82-2.85h-1.3c0 .87-.69 1.55-1.52 1.55v1.3Zm-5.5.17c.09-.1.21-.17.34-.17v-1.3c-.53 0-1.03.25-1.36.67l1.02.8Zm-5.82 3.9c.69.9 2.03.9 2.74.02l-1.03-.8a.43.43 0 0 1-.68-.01l-1.03.79ZM8.19 20.9c.13 0 .26.07.34.18l1.04-.8a1.73 1.73 0 0 0-1.38-.68v1.3ZM.35 18.05a2.84 2.84 0 0 0 2.82 2.85v-1.3c-.83 0-1.52-.68-1.52-1.55H.35ZM3.17.35A2.84 2.84 0 0 0 .35 3.2h1.3c0-.86.69-1.55 1.52-1.55V.35ZM25.65 3.2A2.84 2.84 0 0 0 22.83.35v1.3c.83 0 1.52.69 1.52 1.55h1.3Zm-12 13.11V9.33h-1.3v6.98h1.3Zm0-8.96V5.92h-1.3v1.43h1.3Z" fill="#0051FF"/>
</svg>
