<svg width="22" height="15" fill="none" xmlns="http://www.w3.org/2000/svg">
  <g clip-path="url(#a)">
    <path d="M19.5 0h-17a2 2 0 0 0-2 2v11c0 1.1.9 2 2 2h17a2 2 0 0 0 2-2V2a2 2 0 0 0-2-2Z" fill="#FFDA2C"/>
    <path fill-rule="evenodd" clip-rule="evenodd" d="M.5 10h21v5H.5v-5Z" fill="#249F58"/>
    <path fill-rule="evenodd" clip-rule="evenodd" d="M9.5 7h1v1h-1V7Zm2 0h1v1h-1V7Z" fill="#03BCDB"/>
    <path fill-rule="evenodd" clip-rule="evenodd" d="M12.5 7h1v2h-1V7Zm-1-1h1v1h-1V6Zm-2 0h1v1h-1V6Zm-1 1h1v2h-1V7Z" fill="#AF010D"/>
    <path fill-rule="evenodd" clip-rule="evenodd" d="M10.5 8h1v1h-1V8Z" fill="#249F58"/>
    <path fill-rule="evenodd" clip-rule="evenodd" d="M11.5 8h1v1h-1V8Zm-2 0h1v1h-1V8Z" fill="#D4AF2C"/>
    <path fill-rule="evenodd" clip-rule="evenodd" d="M10.5 7h1v1h-1V7Z" fill="#249F58"/>
    <path fill-rule="evenodd" clip-rule="evenodd" d="M10.5 6h1v1h-1V6Z" fill="#151515"/>
    <path fill-rule="evenodd" clip-rule="evenodd" d="M.5 0h21v5H.5V0Z" fill="#F93939"/>
  </g>
  <defs>
    <clipPath id="a">
      <rect x=".5" width="21" height="15" rx="3" fill="#fff"/>
    </clipPath>
  </defs>
</svg>
