<svg width="49" height="35" viewBox="0 0 49 35" fill="none" xmlns="http://www.w3.org/2000/svg">
<g clip-path="url(#clip0_4338_87954)">
<rect x="0.75" y="0.11084" width="48" height="34.2857" rx="3" fill="white"/>
<path fill-rule="evenodd" clip-rule="evenodd" d="M0.75 22.968H48.75V34.3966H0.75V22.968ZM0.75 0.11084H48.75V11.5394H0.75V0.11084Z" fill="#1A47B8"/>
<path d="M24.7489 20.6823C26.6424 20.6823 28.1775 19.1473 28.1775 17.2538C28.1775 15.3602 26.6424 13.8252 24.7489 13.8252C22.8553 13.8252 21.3203 15.3602 21.3203 17.2538C21.3203 19.1473 22.8553 20.6823 24.7489 20.6823Z" fill="#1A47B8"/>
<path d="M24.7522 18.3966C25.3834 18.3966 25.8951 17.8849 25.8951 17.2537C25.8951 16.6225 25.3834 16.1108 24.7522 16.1108C24.121 16.1108 23.6094 16.6225 23.6094 17.2537C23.6094 17.8849 24.121 18.3966 24.7522 18.3966Z" fill="#FFDA2C"/>
<path fill-rule="evenodd" clip-rule="evenodd" d="M19.0391 16.1108L21.3248 18.3966L24.7533 20.6823L28.1819 18.3966L30.4676 16.1108L28.1819 20.6823H21.3248L19.0391 16.1108Z" fill="#249F58"/>
</g>
<defs>
<clipPath id="clip0_4338_87954">
<rect x="0.75" y="0.11084" width="48" height="34.2857" rx="3" fill="white"/>
</clipPath>
</defs>
</svg>
