<svg width="22" height="15" fill="none" xmlns="http://www.w3.org/2000/svg">
  <g clip-path="url(#a)">
    <path d="M19.5 0h-17a2 2 0 0 0-2 2v11c0 1.1.9 2 2 2h17a2 2 0 0 0 2-2V2a2 2 0 0 0-2-2Z" fill="#1A47B8"/>
    <path fill-rule="evenodd" clip-rule="evenodd" d="M.5 11h21v4H.5v-4Z" fill="#F93939"/>
    <path fill-rule="evenodd" clip-rule="evenodd" d="M.5 0h21v8H.5V0Z" fill="#FFDA2C"/>
    <path d="M11 10c.83 0 1.5-.9 1.5-2s-.67-2-1.5-2-1.5.9-1.5 2 .67 2 1.5 2Z" fill="#3ECBF8"/>
    <path fill-rule="evenodd" clip-rule="evenodd" d="M8.5 7v2l2 1h1l2-1V7l1 2-1 1-2 1h-1l-2-1-1-1 1-2Z" fill="#FFDA2C"/>
    <path fill-rule="evenodd" clip-rule="evenodd" d="M6.5 4h3L11 5l1.5-1h3l-3 1-1 1h-1l-1-1-3-1Z" fill="#151515"/>
  </g>
  <defs>
    <clipPath id="a">
      <rect x=".5" width="21" height="15" rx="3" fill="#fff"/>
    </clipPath>
  </defs>
</svg>
