<svg width="49" height="35" viewBox="0 0 49 35" fill="none" xmlns="http://www.w3.org/2000/svg">
<g clip-path="url(#clip0_4338_88155)">
<rect x="0.75" y="0.11084" width="48" height="34.2857" rx="3" fill="white"/>
<path d="M24.7522 18.3966C25.3834 18.3966 25.8951 17.3733 25.8951 16.1109C25.8951 14.8485 25.3834 13.8252 24.7522 13.8252C24.121 13.8252 23.6094 14.8485 23.6094 16.1109C23.6094 17.3733 24.121 18.3966 24.7522 18.3966Z" fill="#FFDA2C"/>
<path fill-rule="evenodd" clip-rule="evenodd" d="M30.4676 17.2538C30.4676 14.0996 27.9076 11.5396 24.7533 11.5396C21.5991 11.5396 19.0391 14.0996 19.0391 17.2538C19.0391 20.4081 21.5991 22.9681 24.7533 22.9681C27.9076 22.9681 30.4676 20.4081 30.4676 17.2538ZM24.7533 20.6824C26.6459 20.6824 28.1819 18.6367 28.1819 16.111C28.1819 13.5853 26.6459 11.5396 24.7533 11.5396C22.8608 11.5396 21.3248 13.5853 21.3248 16.111C21.3248 18.6367 22.8608 20.6824 24.7533 20.6824Z" fill="#249F58"/>
<rect x="35.0391" y="0.11084" width="13.7143" height="34.2857" fill="#3ECBF8"/>
<rect x="0.75" y="0.11084" width="13.7143" height="34.2857" fill="#3ECBF8"/>
</g>
<defs>
<clipPath id="clip0_4338_88155">
<rect x="0.75" y="0.11084" width="48" height="34.2857" rx="3" fill="white"/>
</clipPath>
</defs>
</svg>
