<svg width="49" height="35" viewBox="0 0 49 35" fill="none" xmlns="http://www.w3.org/2000/svg">
  <g clip-path="url(#clip0_4338_87719)">
    <rect x="0.75" y="0.11084" width="48" height="34.2857" rx="3" fill="white"/>
    <path d="M44.1786 0.11084H5.32143C2.7967 0.11084 0.75 2.15754 0.75 4.68227V29.8251C0.75 32.3499 2.7967 34.3966 5.32143 34.3966H44.1786C46.7033 34.3966 48.75 32.3499 48.75 29.8251V4.68227C48.75 2.15754 46.7033 0.11084 44.1786 0.11084Z" fill="white"/>
    <path fill-rule="evenodd" clip-rule="evenodd" d="M37.262 27.4798C37.1111 28.8421 36.6814 29.8249 36.1786 29.8249C35.6757 29.8249 35.246 28.8421 35.0951 27.4798C33.7329 27.3289 32.75 26.8992 32.75 26.3963C32.75 25.8935 33.7329 25.4638 35.0951 25.3129C35.246 23.9506 35.6734 22.9678 36.1786 22.9678C36.6814 22.9678 37.1111 23.9506 37.262 25.3129C38.6243 25.4638 39.6071 25.8912 39.6071 26.3963C39.6071 26.8992 38.6243 27.3289 37.262 27.4798Z" fill="#F93939"/>
    <path fill-rule="evenodd" clip-rule="evenodd" d="M0.75 18.3965H23.6071V34.3965H0.75V18.3965Z" fill="#1A47B8"/>
    <path fill-rule="evenodd" clip-rule="evenodd" d="M14.4026 11.4798C14.2518 12.8421 13.8221 13.8249 13.3192 13.8249C12.8163 13.8249 12.3866 12.8421 12.2358 11.4798C10.8735 11.3289 9.89062 10.8992 9.89062 10.3963C9.89062 9.89349 10.8735 9.46377 12.2358 9.31292C12.3866 7.95063 12.8163 6.96777 13.3192 6.96777C13.8221 6.96777 14.2518 7.95063 14.4026 9.31292C15.7649 9.46377 16.7478 9.89349 16.7478 10.3963C16.7478 10.8992 15.7649 11.3289 14.4026 11.4798Z" fill="#1A47B8"/>
    <path fill-rule="evenodd" clip-rule="evenodd" d="M23.6094 0.11084H48.7522V18.3966H23.6094V0.11084Z" fill="#F93939"/>
  </g>
  <defs>
  <clipPath id="clip0_4338_87719">
    <rect x="0.75" y="0.11084" width="48" height="34.2857" rx="3" fill="white"/>
    </clipPath>
  </defs>
</svg>
