<svg width="49" height="35" viewBox="0 0 49 35" fill="none" xmlns="http://www.w3.org/2000/svg">
<g clip-path="url(#clip0_4338_87153)">
<rect x="0.75" y="0.11084" width="48" height="34.2857" rx="3" fill="white"/>
<path fill-rule="evenodd" clip-rule="evenodd" d="M0.75 22.9678H48.75V34.3963H0.75V22.9678Z" fill="#1A47B8"/>
<path fill-rule="evenodd" clip-rule="evenodd" d="M28.1089 16.5684C28.1546 16.7901 28.1775 17.0186 28.1775 17.2541C28.1775 19.1466 26.6415 20.6826 24.7489 20.6826C22.8563 20.6826 21.3203 19.1466 21.3203 17.2541C21.3203 17.0186 21.3432 16.7901 21.3889 16.5684C21.7089 17.6106 23.0895 18.3969 24.7489 18.3969C26.4083 18.3969 27.7889 17.6106 28.1089 16.5684Z" fill="#249F58"/>
<path d="M24.7522 16.1109C25.3834 16.1109 25.8951 15.5992 25.8951 14.9681C25.8951 14.3369 25.3834 13.8252 24.7522 13.8252C24.121 13.8252 23.6094 14.3369 23.6094 14.9681C23.6094 15.5992 24.121 16.1109 24.7522 16.1109Z" fill="#FFDA2C"/>
<path fill-rule="evenodd" clip-rule="evenodd" d="M0.75 0.11084H48.75V11.5394H0.75V0.11084Z" fill="#F93939"/>
</g>
<defs>
<clipPath id="clip0_4338_87153">
<rect x="0.75" y="0.11084" width="48" height="34.2857" rx="3" fill="white"/>
</clipPath>
</defs>
</svg>
