<svg width="22" height="15" fill="none" xmlns="http://www.w3.org/2000/svg">
  <g clip-path="url(#a)">
    <rect x=".5" width="21" height="15" rx="3" fill="#fff"/>
    <path d="M19.5 0h-17a2 2 0 0 0-2 2v11c0 1.1.9 2 2 2h17a2 2 0 0 0 2-2V2a2 2 0 0 0-2-2Z" fill="#fff"/>
    <path fill-rule="evenodd" clip-rule="evenodd" d="M.5 10h21v5H.5v-5Z" fill="#1A47B8"/>
    <path fill-rule="evenodd" clip-rule="evenodd" d="M.5 0h21v5H.5V0Z" fill="#F93939"/>
    <path fill-rule="evenodd" clip-rule="evenodd" d="M8.51 10 2.5 15.03h-2V0h2l6 5h13v5H8.51Z" fill="#fff"/>
    <path fill-rule="evenodd" clip-rule="evenodd" d="M8.2 9 1 15l-.5.03V0H1l7.2 6h13.3v3H8.2Z" fill="#249F58"/>
    <path fill-rule="evenodd" clip-rule="evenodd" d="m.5 3 6 4.5-6 4.5V3Z" fill="#FFDA2C"/>
    <path fill-rule="evenodd" clip-rule="evenodd" d="m.5 4 4.75 3.5L.5 11V4Z" fill="#151515"/>
  </g>
  <defs>
    <clipPath id="a">
      <rect x=".5" width="21" height="15" rx="3" fill="#fff"/>
    </clipPath>
  </defs>
</svg>
