<svg width="22" height="15" fill="none" xmlns="http://www.w3.org/2000/svg">
  <g clip-path="url(#a)">
    <rect x=".5" width="21" height="15" rx="3" fill="#fff"/>
    <path fill-rule="evenodd" clip-rule="evenodd" d="M10.5 3h11v2h-11V3Zm0 4h11v2h-11V7Zm-10 4h21v2H.5v-2Z" fill="#3A99FF"/>
    <path fill-rule="evenodd" clip-rule="evenodd" d="M7.38 6.88C7.15 8.13 6.62 9 6 9c-.62 0-1.15-.87-1.38-2.12C3.37 6.65 2.5 6.12 2.5 5.5c0-.62.87-1.15 2.12-1.38C4.85 2.87 5.38 2 6 2c.62 0 1.15.87 1.38 2.12 1.25.23 2.12.76 2.12 1.38 0 .62-.87 1.15-2.12 1.38Z" fill="#D4AF2C"/>
    <path fill-rule="evenodd" clip-rule="evenodd" d="M6.69 6.19C6.62 7.79 6.34 9 6 9c-.34 0-.62-1.21-.69-2.81-1.6-.07-2.81-.35-2.81-.69 0-.34 1.21-.62 2.81-.69C5.38 3.21 5.66 2 6 2c.34 0 .62 1.21.69 2.81 1.6.07 2.81.35 2.81.69 0 .34-1.21.62-2.81.69Z" fill="#FFDA2C"/>
    <path d="M6 7a1.5 1.5 0 1 0 0-3 1.5 1.5 0 0 0 0 3Z" fill="#FFDA2C"/>
  </g>
  <defs>
    <clipPath id="a">
      <rect x=".5" width="21" height="15" rx="3" fill="#fff"/>
    </clipPath>
  </defs>
</svg>
