<svg width="370" height="54" fill="none" xmlns="http://www.w3.org/2000/svg">
  <g clip-path="url(#a)" fill="#fff">
    <path d="m250.43 44.44-65.9-41.5c-3.47-2.2-7.17-3.44-10.6-3.44-8.5 0-14.25 4.8-14.25 14.95v19.57c0 2.09-1.24 3.28-2.87 3.28-1 0-2.07-.5-3.28-1.77L125.39 4.27c-2.53-2.8-5.9-4.77-9.74-4.77-5.6 0-10.25 3.75-10.25 11.32v24.66c0 1.21-.66 1.82-1.5 1.82-.54 0-1.1-.29-1.59-.92l-24-31.89C75.24.42 72.27-.5 69.64-.5c-5.84 0-9.59 3.68-9.59 10.5v34.44h8.01V8.82c0-1.24.63-1.75 1.34-1.75.58 0 1.02.27 1.48.88l24.64 32.69a10.24 10.24 0 0 0 8.42 4.2c5.94 0 9.5-3.4 9.5-10.21V9.87c0-1.92 1.06-2.82 2.45-2.82.78 0 1.49.31 2.41 1.29l27.83 30.89c3.36 3.72 6.86 5.62 11.02 5.62 6.82 0 10.57-4.14 10.57-12.2V13.67c0-4.43 2.82-6.6 6.13-6.6 2.05 0 3.65.88 5.36 1.95l56.23 35.42h15.02-.03ZM16.02 18.17H5.33v7.1h10.69v-7.1Z"/>
    <path d="M16.9 7.5V-.05H0v44.5h16.9v-7.57H8V7.5h8.9ZM42.53 19.56c7.83 1.53 11.75 5.65 11.75 11.51 0 7.35-5.26 13.37-14.72 13.37H23.15V-.06H39.3c8.84 0 13.51 4.74 13.51 11.32 0 5.45-4.14 9.78-10.3 11.22v-2.95.03Zm-5.04 17.3c6.1 0 8.54-2.72 8.54-6.08s-2.46-5.48-8.54-5.48h-8.2v-7.1h7.64c5.06 0 8-2.24 8-5.56 0-3.06-2.19-5.13-7.25-5.13h-6.55v29.36h6.36ZM93.4 34.19H65.82v-7.11h21.81l5.77 7.1ZM235.2-.06l-29.02 19.2-1.49.13-38 25.17h13.7l27.98-18.53 1.2.07L248.9-.06h-13.7Z"/>
    <path fill-rule="evenodd" clip-rule="evenodd" d="M267.4.41v43.52h13.93c7.55 0 13.2-5.2 13.2-12.1 0-5.35-3.4-9.2-8-10.92 2.83-1.85 5.9-4.73 5.9-9.64C292.43 5 287.34.4 280.16.4H267.4Zm18.55 11.68c0 4.17-2.65 7.06-6.81 7.06h-5.19V5.28h5.19c4.19 0 6.81 2.65 6.81 6.81Zm1.83 19.16c0 4.4-2.7 7.8-7.79 7.8H273.95v-15.3H280c5.09 0 7.79 3.1 7.79 7.5ZM300.12.41v43.52h6.01V.41h-6Zm10.8 27.34c0-9.89 5.1-17.38 13.4-17.38s13.31 7.42 13.31 17.38c0 9.95-5.04 17.42-13.31 17.42-8.28 0-13.4-7.5-13.4-17.42Zm20.5 0c0-9.96-3.8-13.15-7.13-13.15s-7.18 3.19-7.18 13.15c0 9.95 3.87 13.19 7.18 13.19 3.31 0 7.13-3.19 7.13-13.2Zm8.35 20.32c0 3.63 3.12 5.77 7.55 5.77l.03.03h12.14c6.16.07 9.84-4.36 9.84-8.84 0-3.7-2.58-7.06-8.84-7.13h-13.14c-.56 0-.93-.32-.93-.8 0-.37.24-.69.73-.81l9.83-2.1a11.57 11.57 0 0 0 9.52-11.53c0-2.44-.8-4.85-2.21-6.74h4.84v-4.43h-9.56a14.79 14.79 0 0 0-5.9-1.1c-8.1 0-12.7 5.26-12.7 12.03 0 4.67 2.43 8.71 6.74 10.68l-2.58.85c-2.7 1-3.75 2.58-3.75 4.56 0 1.58.9 2.94 2.5 3.8-2.08 1.04-4.1 2.87-4.1 5.76Zm24.13-1.53c0 2.14-1.7 3.92-4.97 3.92h-9.4c-2.82 0-4.42-1.05-4.42-3.26 0-1.9 1.4-3.24 2.9-3.92h11.65c2.83 0 4.24 1.12 4.24 3.26ZM353.72 14.1c3.39 0 6.82 2.63 6.82 8.35 0 5.68-3.43 8.3-6.82 8.3-3.38 0-6.89-2.58-6.89-8.3 0-5.72 3.5-8.35 6.9-8.35Z"/>
  </g>
  <defs>
    <clipPath id="a">
      <path fill="#fff" transform="translate(0 .41)" d="M0 0h370v53.55H0z"/>
    </clipPath>
  </defs>
</svg>
