<svg width="370" height="167" fill="none" xmlns="http://www.w3.org/2000/svg">
  <g clip-path="url(#a)" fill="#fff">
    <path d="M370 66.73 272.64 5.41C267.5 2.18 262.04.34 256.96.34c-12.55 0-21.03 7.09-21.03 22.08v28.92c0 3.1-1.84 4.86-4.25 4.86-1.47 0-3.06-.76-4.85-2.63L185.25 7.39c-3.74-4.13-8.7-7.05-14.38-7.05-8.28 0-15.15 5.54-15.15 16.73V53.5c0 1.8-.97 2.7-2.22 2.7-.8 0-1.62-.44-2.34-1.37L115.7 7.72C111.17 1.7 106.78.34 102.9.34c-8.64 0-14.18 5.43-14.18 15.5v50.9h11.84V14.11c0-1.84.93-2.6 1.97-2.6.87 0 1.52.4 2.2 1.3l36.4 48.3a15.12 15.12 0 0 0 12.44 6.22c8.77 0 14.02-5.03 14.02-15.1V15.66c0-2.84 1.59-4.17 3.64-4.17 1.15 0 2.19.47 3.56 1.9l41.1 45.65c4.97 5.5 10.15 8.3 16.3 8.3 10.06 0 15.6-6.11 15.6-18.01V21.27c0-6.54 4.18-9.74 9.07-9.74 3.02 0 5.4 1.3 7.9 2.87l83.09 52.33h22.19-.04ZM23.66 27.93H7.88v10.5h15.78v-10.5Z"/>
    <path d="M24.96 12.17V1H0v65.74h24.96V55.55H11.83V12.17h13.13ZM62.83 29.98c11.58 2.26 17.37 8.34 17.37 17 0 10.87-7.77 19.75-21.76 19.75H34.2V1h23.88C71.14.99 78.04 8 78.04 17.71c0 8.06-6.11 14.46-15.21 16.58v-4.35.04Zm-7.45 25.57c9.03 0 12.63-4.03 12.63-9 0-4.96-3.63-8.09-12.63-8.09H43.27v-10.5h11.3c7.48 0 11.83-3.3 11.83-8.2 0-4.53-3.24-7.59-10.72-7.59H46v43.38H55.38ZM138 51.6H97.25V41.08h32.22l8.53 10.5ZM347.49.99l-42.87 28.38-2.2.18-56.14 37.18h20.25l41.32-27.37 1.77.11L367.73 1H347.5ZM.07 151.43V87.09h18.85c10.6 0 18.12 6.8 18.12 16.04 0 7.26-4.53 11.5-8.7 14.24 6.8 2.55 11.8 8.24 11.8 16.15 0 10.18-8.35 17.87-19.5 17.87H.07v.04Zm17.34-36.65c6.15 0 10.07-4.28 10.07-10.43 0-6.15-3.89-10.07-10.07-10.07H9.75v20.5h7.66Zm1.26 29.38c7.51 0 11.5-5 11.5-11.5 0-6.51-3.99-11.08-11.5-11.08H9.75v22.58h8.92ZM48.4 151.43V87.09h8.9v64.3h-8.9v.04ZM64.38 127.48c0-14.6 7.51-25.68 19.78-25.68 12.26 0 19.67 10.97 19.67 25.68 0 14.7-7.45 25.75-19.67 25.75-12.23 0-19.78-11.08-19.78-25.75Zm30.28 0c0-14.71-5.61-19.42-10.54-19.42-4.93 0-10.6 4.7-10.6 19.42 0 14.7 5.7 19.49 10.6 19.49 4.9 0 10.54-4.71 10.54-19.5ZM118.14 166.03c-6.54 0-11.15-3.16-11.15-8.52 0-4.28 2.99-6.98 6.08-8.53-2.37-1.26-3.7-3.27-3.7-5.6 0-2.92 1.54-5.26 5.54-6.73l3.8-1.26c-6.36-2.91-9.95-8.88-9.95-15.79 0-10 6.8-17.77 18.77-17.77 3.34 0 6.15.54 8.7 1.62h14.14V110h-7.16a16.87 16.87 0 0 1 3.27 9.96 17.1 17.1 0 0 1-14.06 17.05l-14.53 3.09c-.72.18-1.08.65-1.08 1.19 0 .72.54 1.18 1.37 1.18h19.42c9.24.11 13.05 5.07 13.05 10.54 0 6.62-5.43 13.16-14.53 13.06h-17.94l-.04-.04Zm17.16-5c4.82 0 7.33-2.63 7.33-5.79s-2.08-4.82-6.25-4.82h-17.23c-2.2 1-4.28 2.99-4.28 5.8 0 3.26 2.37 4.81 6.55 4.81h13.88Zm2.37-41.36c0-8.45-5.07-12.33-10.07-12.33s-10.18 3.88-10.18 12.33 5.18 12.27 10.18 12.27 10.07-3.89 10.07-12.27Z"/>
  </g>
  <defs>
    <clipPath id="a">
      <path fill="#fff" transform="translate(0 .34)" d="M0 0h370v165.69H0z"/>
    </clipPath>
  </defs>
</svg>
