<svg width="370" height="29" fill="none" xmlns="http://www.w3.org/2000/svg">
  <g clip-path="url(#a)">
    <path d="M125.22 22.88 92.27 2.13a10.2 10.2 0 0 0-5.3-1.71c-4.26 0-7.13 2.4-7.13 7.47v9.78c0 1.05-.62 1.65-1.43 1.65-.5 0-1.04-.26-1.65-.9L62.7 2.8A6.63 6.63 0 0 0 57.82.42c-2.8 0-5.12 1.87-5.12 5.65V18.4c0 .61-.33.92-.75.92-.27 0-.55-.15-.8-.47l-12-15.94C37.62.88 36.14.41 34.82.41c-2.92 0-4.8 1.84-4.8 5.25v17.22h4.01V5.08c0-.62.32-.88.67-.88.3 0 .51.13.74.44l12.32 16.34a5.12 5.12 0 0 0 4.21 2.11c2.97 0 4.75-1.7 4.75-5.11V5.6c0-.96.53-1.41 1.23-1.41.39 0 .74.16 1.2.64l13.91 15.45c1.68 1.86 3.44 2.81 5.52 2.81 3.4 0 5.28-2.07 5.28-6.1V7.5c0-2.2 1.41-3.29 3.07-3.29 1.02 0 1.82.44 2.67.97l28.12 17.71h7.5ZM8 9.75H2.68v3.55H8V9.75Z" fill="#fff"/>
    <path d="M8.45 4.42V.63H0v22.25h8.45V19.1H4V4.42h4.45ZM21.26 10.44c3.92.77 5.88 2.83 5.88 5.76 0 3.68-2.63 6.68-7.36 6.68h-8.2V.63h8.08c4.41 0 6.75 2.38 6.75 5.66 0 2.73-2.07 4.9-5.15 5.61v-1.47.01Zm-2.52 8.66c3.06 0 4.28-1.37 4.28-3.05 0-1.67-1.23-2.73-4.28-2.73h-4.1V9.76h3.82c2.54 0 4-1.12 4-2.77 0-1.54-1.09-2.57-3.62-2.57h-3.27V19.1h3.17ZM46.7 17.76H32.91V14.2h10.9l2.89 3.55ZM117.6.63l-14.51 9.6-.74.07-19 12.58h6.85l13.98-9.26.6.04L124.45.63h-6.85Z" fill="#fff"/>
    <path d="M132.74 13.45v9.24h-3.28V.93h6.26c3.8 0 6.39 2.72 6.39 6.26 0 3.55-2.58 6.26-6.4 6.26h-2.97ZM135 11c2.36 0 3.78-1.5 3.78-3.8s-1.42-3.84-3.78-3.84h-2.27v7.64H135ZM142.96 18.99c0-3.39 2.66-4.6 6.39-5.77l3.44-1.01v-.87c0-2.17-1.25-3.3-3.28-3.3-1.88 0-3.29 1.3-3 3.83h-2.95c-.22-3.75 2.08-5.95 6.07-5.95 4.6 0 6.17 2.72 6.17 5.22V22.7h-3v-2.03a5.29 5.29 0 0 1-4.83 2.64c-2.73 0-5-1.65-5-4.33h-.01Zm9.82-2.3v-2.42c-4.7 1.4-6.75 1.77-6.75 4.3 0 1.4.92 2.57 2.72 2.57 2.77 0 4.02-2.48 4.02-4.45h.01ZM159.5 28.23v-2.46c.3.16.58.22.89.22.6 0 1.13-.34 1.41-1.17l.43-1.41-5.29-17.04H160l3.9 12.52 3.89-12.52h2.58l-6 19.34c-.54 1.71-1.62 2.64-3.28 2.7a5.06 5.06 0 0 1-1.6-.18h.02ZM171.84 22.7V6.37h3v2.11a5.35 5.35 0 0 1 4.52-2.58c1.72 0 3.65.67 4.48 2.93a5.8 5.8 0 0 1 4.88-2.93c2.12 0 4.88 1.14 4.88 5.43V22.7h-3V11.73c0-2.6-1.17-3.59-2.7-3.59-1.72 0-3.66 1.6-3.66 5.35v9.21h-3.04V11.75c0-2.6-1.13-3.6-2.66-3.6-1.72 0-3.7 1.6-3.7 5.35v9.21h-3ZM196 14.6c0-5.04 2.7-8.7 6.88-8.7 4.17 0 6.5 3.57 6.53 8.27v.8H199.2c0 4.6 1.9 6.23 3.8 6.23 1.79 0 3.3-1.37 3.17-4.15h3.01c0 3.6-2.58 6.27-6.07 6.27-4.34 0-7.1-3.75-7.1-8.71v-.02Zm10.25-1.54c0-3.37-1.51-5.04-3.38-5.04-1.96 0-3.51 1.84-3.63 5.04h7ZM211.81 22.7V6.37h3v2.11a5.45 5.45 0 0 1 4.77-2.58c2.09 0 5 1.14 5 5.43V22.7h-3V11.73c0-2.54-1.4-3.59-2.93-3.59-1.81 0-3.83 1.63-3.83 5.35v9.21h-3ZM233.7 23.07c-.61.15-1.17.24-1.66.24-2.18 0-3.5-1.41-3.5-3.71V8.48h-2.25v-1.8c2.46-.23 3.3-1.73 3.3-4.4h1.99v4.07h2.8v2.12h-2.8v11.05c0 .9.4 1.42 1.19 1.42.24 0 .58-.07.92-.19v2.32ZM235.87 17.3h2.98c-.54 2.74 1.2 3.9 2.89 3.9 1.5 0 3-.81 3-2.55 0-1.94-1.9-2.46-3.83-3.2-2.86-1.1-4.76-2.45-4.76-4.9 0-2.67 2.36-4.65 5.69-4.65 3.32 0 5.7 2.34 5.34 5.37h-2.86c.3-1.6-.4-3.25-2.52-3.25-1.72 0-2.64.95-2.64 2.08 0 1.78 1.78 2.3 3.83 3.1 1.94.75 4.76 1.94 4.76 5.05 0 3.1-2.64 5.06-6.1 5.06-3.7 0-6.24-2.42-5.78-6.01ZM255.24 22.7V.93h11.35v2.42h-8.07v7.28h7.28v2.4h-7.28v7.21h8.07v2.46h-11.35ZM267.4 22.7l5.46-8.26-5.12-8.07h3.28l3.53 5.46 3.65-5.46h2.95l-5.16 7.8 5.43 8.53h-3.31l-3.81-5.93-4 5.93h-2.92.02ZM282.99 27.79V6.37h3v2.05a4.98 4.98 0 0 1 4.28-2.52c3.59 0 5.8 3.75 5.8 8.88 0 5.12-2.42 8.53-5.8 8.53-1.38 0-3.1-.7-4.28-2.54v7.03h-3v-.01Zm9.98-13.09c0-5.28-1.82-6.69-3.35-6.69-1.66 0-3.69 1.78-3.69 6.54 0 4.75 2.16 6.53 3.7 6.53 1.34 0 3.34-1.1 3.34-6.39v.01ZM298.46 22.7V.93h3v21.76h-3v.01ZM303.86 18.99c0-3.39 2.67-4.6 6.4-5.77l3.44-1.01v-.87c0-2.17-1.26-3.3-3.3-3.3-1.87 0-3.28 1.3-3 3.83h-2.94c-.22-3.75 2.08-5.95 6.07-5.95 4.6 0 6.17 2.72 6.17 5.22V22.7h-3v-2.03a5.29 5.29 0 0 1-4.82 2.64c-2.74 0-5-1.65-5-4.33h-.02Zm9.82-2.3v-2.42c-4.7 1.4-6.75 1.77-6.75 4.3 0 1.4.92 2.57 2.72 2.57 2.77 0 4.02-2.48 4.02-4.45h.01ZM319.94 2.5c0-1.14.89-2.08 2-2.08 1.1 0 2 .94 2 2.08 0 1.13-.9 2.08-2 2.08-1.11 0-2-.95-2-2.08Zm.49 20.2V6.37h3.04V22.7h-3.04ZM327.18 22.7V6.37h3v2.11a5.45 5.45 0 0 1 4.77-2.58c2.09 0 5 1.14 5 5.43V22.7h-3V11.73c0-2.54-1.4-3.59-2.93-3.59-1.81 0-3.83 1.63-3.83 5.35v9.21h-3ZM342.35 14.6c0-5.04 2.7-8.7 6.87-8.7 4.18 0 6.51 3.57 6.54 8.27v.8h-10.23c0 4.6 1.9 6.23 3.81 6.23 1.78 0 3.29-1.37 3.17-4.15h3c0 3.6-2.58 6.27-6.07 6.27-4.33 0-7.1-3.75-7.1-8.71v-.02Zm10.24-1.54c0-3.37-1.5-5.04-3.38-5.04-1.96 0-3.5 1.84-3.63 5.04h7.01ZM357.3 14.41c0-5.22 2.47-8.5 5.94-8.5 1.26 0 2.89.6 4.12 2.42V.93h3v21.76h-3v-2.03a4.63 4.63 0 0 1-4.18 2.64c-3.5 0-5.89-3.7-5.89-8.9v.01Zm10.15.16c0-4.88-2.15-6.57-3.65-6.57-1.35 0-3.34 1.17-3.34 6.45s1.83 6.63 3.37 6.63c1.65 0 3.59-1.78 3.63-6.51Z" fill="#000E2B"/>
  </g>
  <defs>
    <clipPath id="a">
      <path fill="#fff" transform="translate(0 .78)" d="M0 0h370v27.99H0z"/>
    </clipPath>
  </defs>
</svg>
