<svg width="370" height="54" fill="none" xmlns="http://www.w3.org/2000/svg">
  <g clip-path="url(#a)">
    <path d="m250.43 44.06-65.9-41.5c-3.47-2.2-7.17-3.43-10.6-3.43-8.5 0-14.25 4.8-14.25 14.94v19.57c0 2.1-1.24 3.29-2.87 3.29-1 0-2.07-.51-3.28-1.78L125.39 3.9c-2.53-2.8-5.9-4.77-9.74-4.77-5.6 0-10.25 3.74-10.25 11.31V35.1c0 1.22-.66 1.83-1.5 1.83-.54 0-1.1-.3-1.59-.93l-24-31.88c-3.07-4.07-6.04-5-8.67-5-5.84 0-9.59 3.68-9.59 10.5v34.44h8.01V8.45c0-1.24.63-1.75 1.34-1.75.58 0 1.02.26 1.48.87l24.64 32.7a10.24 10.24 0 0 0 8.42 4.2c5.94 0 9.5-3.4 9.5-10.22V9.5c0-1.93 1.06-2.83 2.45-2.83.78 0 1.49.32 2.41 1.3l27.83 30.88c3.36 3.73 6.86 5.62 11.02 5.62 6.82 0 10.57-4.13 10.57-12.2V13.3c0-4.43 2.82-6.6 6.13-6.6 2.05 0 3.65.88 5.36 1.95l56.23 35.42h15.02-.03ZM16.02 17.8H5.33v7.1h10.69v-7.1Z" fill="#000E2B"/>
    <path d="M16.9 7.13V-.44H0v44.5h16.9V36.5H8V7.13h8.9ZM42.53 19.18c7.83 1.54 11.75 5.65 11.75 11.52 0 7.35-5.26 13.36-14.72 13.36H23.15V-.44H39.3c8.84 0 13.51 4.75 13.51 11.32 0 5.46-4.14 9.79-10.3 11.22v-2.94.02ZM37.49 36.5c6.1 0 8.54-2.73 8.54-6.08 0-3.36-2.46-5.48-8.54-5.48h-8.2v-7.11h7.64c5.06 0 8-2.24 8-5.55 0-3.07-2.19-5.14-7.25-5.14h-6.55V36.5h6.36ZM93.4 33.81H65.82v-7.1h21.81l5.77 7.1ZM235.2-.44l-29.02 19.21-1.49.12-38 25.17h13.7l27.98-18.52 1.2.07L248.9-.44h-13.7Z" fill="#000E2B"/>
    <path fill-rule="evenodd" clip-rule="evenodd" d="M267.4.04v43.52h13.93c7.55 0 13.2-5.21 13.2-12.1 0-5.35-3.4-9.2-8-10.93 2.83-1.85 5.9-4.72 5.9-9.64 0-6.25-5.09-10.85-12.27-10.85H267.4Zm18.55 11.68c0 4.16-2.65 7.06-6.81 7.06h-5.19V4.9h5.19c4.19 0 6.81 2.66 6.81 6.82Zm1.83 19.16c0 4.4-2.7 7.79-7.79 7.79H273.95V23.38H280c5.09 0 7.79 3.1 7.79 7.5ZM300.12.04v43.52h6.01V.04h-6Zm10.8 27.33c0-9.88 5.1-17.38 13.4-17.38s13.31 7.43 13.31 17.38c0 9.96-5.04 17.43-13.31 17.43-8.28 0-13.4-7.5-13.4-17.43Zm20.5 0c0-9.95-3.8-13.14-7.13-13.14s-7.18 3.19-7.18 13.14c0 9.96 3.87 13.2 7.18 13.2 3.31 0 7.13-3.2 7.13-13.2Zm8.35 20.33c0 3.62 3.12 5.77 7.55 5.77l.03.02h12.14c6.16.07 9.84-4.36 9.84-8.84 0-3.7-2.58-7.05-8.84-7.13h-13.14c-.56 0-.93-.31-.93-.8 0-.37.24-.68.73-.8l9.83-2.1a11.57 11.57 0 0 0 9.52-11.54c0-2.43-.8-4.84-2.21-6.74h4.84v-4.43h-9.56a14.79 14.79 0 0 0-5.9-1.1c-8.1 0-12.7 5.26-12.7 12.03 0 4.67 2.43 8.72 6.74 10.69l-2.58.85c-2.7 1-3.75 2.58-3.75 4.55 0 1.58.9 2.95 2.5 3.8-2.08 1.05-4.1 2.87-4.1 5.77Zm24.13-1.54c0 2.15-1.7 3.92-4.97 3.92h-9.4c-2.82 0-4.42-1.04-4.42-3.26 0-1.9 1.4-3.24 2.9-3.92h11.65c2.83 0 4.24 1.12 4.24 3.26Zm-10.18-32.42c3.39 0 6.82 2.63 6.82 8.35 0 5.67-3.43 8.3-6.82 8.3-3.38 0-6.89-2.58-6.89-8.3 0-5.72 3.5-8.35 6.9-8.35Z" fill="#0051FF"/>
  </g>
  <defs>
    <clipPath id="a">
      <path fill="#fff" transform="translate(0 .04)" d="M0 0h370v53.55H0z"/>
    </clipPath>
  </defs>
</svg>
