<svg width="370" height="29" fill="none" xmlns="http://www.w3.org/2000/svg">
  <g clip-path="url(#a)" fill="#fff">
    <path d="M125.22 22.17 92.27 1.42a10.2 10.2 0 0 0-5.3-1.72c-4.26 0-7.13 2.4-7.13 7.47v9.79c0 1.05-.62 1.64-1.43 1.64-.5 0-1.04-.25-1.65-.89L62.7 2.1A6.63 6.63 0 0 0 57.82-.3c-2.8 0-5.12 1.87-5.12 5.66v12.33c0 .6-.33.91-.75.91-.27 0-.55-.14-.8-.46l-12-15.94C37.62.16 36.14-.3 34.82-.3c-2.92 0-4.8 1.84-4.8 5.25v17.22h4.01V4.37c0-.63.32-.88.67-.88.3 0 .51.13.74.43l12.32 16.35a5.12 5.12 0 0 0 4.21 2.1c2.97 0 4.75-1.7 4.75-5.1V4.88c0-.97.53-1.42 1.23-1.42.39 0 .74.16 1.2.65l13.91 15.44c1.68 1.87 3.44 2.82 5.52 2.82 3.4 0 5.28-2.07 5.28-6.1v-9.5c0-2.21 1.41-3.3 3.07-3.3 1.02 0 1.82.44 2.67.98l28.12 17.7h7.5ZM8 9.04H2.68v3.55H8V9.04Z"/>
    <path d="M8.45 3.7V-.08H0v22.25h8.45v-3.79H4V3.7h4.45ZM21.26 9.73c3.92.77 5.88 2.82 5.88 5.76 0 3.67-2.63 6.68-7.36 6.68h-8.2V-.08h8.08c4.41 0 6.75 2.37 6.75 5.66 0 2.73-2.07 4.9-5.15 5.61V9.72Zm-2.52 8.65c3.06 0 4.28-1.36 4.28-3.04s-1.23-2.74-4.28-2.74h-4.1V9.05h3.82c2.54 0 4-1.12 4-2.78 0-1.53-1.09-2.57-3.62-2.57h-3.27v14.68h3.17ZM46.7 17.04H32.91V13.5h10.9l2.89 3.55ZM117.6-.08l-14.51 9.6-.74.06-19 12.59h6.85l13.98-9.26.6.03L124.45-.08h-6.85ZM132.74 12.74v9.23h-3.28V.21h6.26c3.8 0 6.39 2.73 6.39 6.27 0 3.54-2.58 6.26-6.4 6.26h-2.97Zm2.27-2.46c2.36 0 3.78-1.51 3.78-3.81s-1.42-3.84-3.78-3.84h-2.27v7.65H135ZM142.96 18.27c0-3.38 2.66-4.6 6.39-5.77l3.44-1v-.87c0-2.18-1.25-3.31-3.28-3.31-1.88 0-3.29 1.31-3 3.83h-2.95c-.22-3.75 2.08-5.95 6.07-5.95 4.6 0 6.17 2.73 6.17 5.22V22h-3v-2.03a5.29 5.29 0 0 1-4.83 2.64c-2.73 0-5-1.66-5-4.34h-.01Zm9.82-2.3v-2.42c-4.7 1.41-6.75 1.78-6.75 4.3 0 1.4.92 2.58 2.72 2.58 2.77 0 4.02-2.49 4.02-4.46h.01ZM159.5 27.51v-2.46c.3.16.58.22.89.22.6 0 1.13-.34 1.41-1.17l.43-1.4-5.29-17.05H160l3.9 12.53 3.89-12.53h2.58l-6 19.34c-.54 1.72-1.62 2.64-3.28 2.7a5.05 5.05 0 0 1-1.6-.18h.02ZM171.84 21.99V5.65h3v2.12a5.35 5.35 0 0 1 4.52-2.58c1.72 0 3.65.67 4.48 2.92a5.8 5.8 0 0 1 4.88-2.92c2.12 0 4.88 1.13 4.88 5.43v11.35h-3V11.02c0-2.6-1.17-3.6-2.7-3.6-1.72 0-3.66 1.6-3.66 5.35V22h-3.04V11.03c0-2.6-1.13-3.59-2.66-3.59-1.72 0-3.7 1.6-3.7 5.34V22h-3v-.01ZM196 13.88c0-5.04 2.7-8.69 6.88-8.69 4.17 0 6.5 3.57 6.53 8.26v.8H199.2c0 4.6 1.9 6.24 3.8 6.24 1.79 0 3.3-1.38 3.17-4.15h3.01c0 3.59-2.58 6.27-6.07 6.27-4.34 0-7.1-3.75-7.1-8.72v-.01Zm10.25-1.53c0-3.38-1.51-5.04-3.38-5.04-1.96 0-3.51 1.84-3.63 5.04h7ZM211.81 21.99V5.65h3v2.12a5.45 5.45 0 0 1 4.77-2.58c2.09 0 5 1.13 5 5.43v11.35h-3V11.02c0-2.54-1.4-3.6-2.93-3.6-1.81 0-3.83 1.64-3.83 5.35V22h-3ZM233.7 22.35c-.61.16-1.17.24-1.66.24-2.18 0-3.5-1.4-3.5-3.7V7.76h-2.25V5.96c2.46-.22 3.3-1.72 3.3-4.4h1.99v4.08h2.8v2.12h-2.8V18.8c0 .89.4 1.41 1.19 1.41.24 0 .58-.06.92-.18V22.35ZM235.87 16.58h2.98c-.54 2.74 1.2 3.9 2.89 3.9 1.5 0 3-.8 3-2.55 0-1.93-1.9-2.46-3.83-3.19-2.86-1.1-4.76-2.45-4.76-4.91 0-2.67 2.36-4.64 5.69-4.64 3.32 0 5.7 2.34 5.34 5.37h-2.86c.3-1.6-.4-3.25-2.52-3.25-1.72 0-2.64.95-2.64 2.08 0 1.78 1.78 2.3 3.83 3.1 1.94.74 4.76 1.94 4.76 5.04s-2.64 5.06-6.1 5.06c-3.7 0-6.24-2.42-5.78-6ZM255.24 21.99V.2h11.35v2.42h-8.07v7.28h7.28v2.4h-7.28v7.22h8.07v2.46h-11.35ZM267.4 21.99l5.46-8.27-5.12-8.07h3.28l3.53 5.47 3.65-5.47h2.95l-5.16 7.8 5.43 8.54h-3.31l-3.81-5.93-4 5.93h-2.92.02ZM282.99 27.07V5.65h3v2.06a4.98 4.98 0 0 1 4.28-2.52c3.59 0 5.8 3.75 5.8 8.87 0 5.13-2.42 8.53-5.8 8.53-1.38 0-3.1-.7-4.28-2.54v7.04h-3v-.02ZM292.97 14c0-5.28-1.82-6.7-3.35-6.7-1.66 0-3.69 1.78-3.69 6.54s2.16 6.54 3.7 6.54c1.34 0 3.34-1.11 3.34-6.4V14ZM298.46 21.99V.2h3v21.76h-3V22ZM303.86 18.27c0-3.38 2.67-4.6 6.4-5.77l3.44-1v-.87c0-2.18-1.26-3.31-3.3-3.31-1.87 0-3.28 1.31-3 3.83h-2.94c-.22-3.75 2.08-5.95 6.07-5.95 4.6 0 6.17 2.73 6.17 5.22V22h-3v-2.03a5.29 5.29 0 0 1-4.82 2.64c-2.74 0-5-1.66-5-4.34h-.02Zm9.82-2.3v-2.42c-4.7 1.41-6.75 1.78-6.75 4.3 0 1.4.92 2.58 2.72 2.58 2.77 0 4.02-2.49 4.02-4.46h.01ZM319.94 1.78c0-1.13.89-2.08 2-2.08 1.1 0 2 .95 2 2.08 0 1.13-.9 2.08-2 2.08-1.11 0-2-.95-2-2.08Zm.49 20.2V5.66h3.04V22h-3.04ZM327.18 21.99V5.65h3v2.12a5.45 5.45 0 0 1 4.77-2.58c2.09 0 5 1.13 5 5.43v11.35h-3V11.02c0-2.54-1.4-3.6-2.93-3.6-1.81 0-3.83 1.64-3.83 5.35V22h-3ZM342.35 13.88c0-5.04 2.7-8.69 6.87-8.69 4.18 0 6.51 3.57 6.54 8.26v.8h-10.23c0 4.6 1.9 6.24 3.81 6.24 1.78 0 3.29-1.38 3.17-4.15h3c0 3.59-2.58 6.27-6.07 6.27-4.33 0-7.1-3.75-7.1-8.72v-.01Zm10.24-1.53c0-3.38-1.5-5.04-3.38-5.04-1.96 0-3.5 1.84-3.63 5.04h7.01ZM357.3 13.7c0-5.22 2.47-8.51 5.94-8.51 1.26 0 2.89.6 4.12 2.42V.21h3v21.76h-3v-2.03a4.63 4.63 0 0 1-4.18 2.64c-3.5 0-5.89-3.69-5.89-8.9v.02Zm10.15.16c0-4.89-2.15-6.58-3.65-6.58-1.35 0-3.34 1.17-3.34 6.45 0 5.29 1.83 6.64 3.37 6.64 1.65 0 3.59-1.78 3.63-6.51Z"/>
  </g>
  <defs>
    <clipPath id="a">
      <path fill="#fff" transform="translate(0 .07)" d="M0 0h370v27.99H0z"/>
    </clipPath>
  </defs>
</svg>
