<svg width="370" height="55" fill="none" xmlns="http://www.w3.org/2000/svg">
  <g clip-path="url(#a)">
    <path d="m250.43 44.75-65.9-41.5c-3.47-2.2-7.17-3.44-10.6-3.44-8.5 0-14.25 4.8-14.25 14.95v19.57c0 2.1-1.24 3.29-2.87 3.29-1 0-2.07-.52-3.28-1.78L125.39 4.58c-2.53-2.8-5.9-4.77-9.74-4.77-5.6 0-10.25 3.75-10.25 11.32V35.8c0 1.22-.66 1.83-1.5 1.83-.54 0-1.1-.3-1.59-.93l-24-31.89C75.24.74 72.27-.19 69.64-.19c-5.84 0-9.59 3.68-9.59 10.5v34.44h8.01V9.14c0-1.25.63-1.76 1.34-1.76.58 0 1.02.27 1.48.88l24.64 32.7a10.24 10.24 0 0 0 8.42 4.2c5.94 0 9.5-3.4 9.5-10.22V10.18c0-1.92 1.06-2.82 2.45-2.82.78 0 1.49.32 2.41 1.29l27.83 30.89c3.36 3.72 6.86 5.62 11.02 5.62 6.82 0 10.57-4.14 10.57-12.2V13.99c0-4.43 2.82-6.6 6.13-6.6 2.05 0 3.65.88 5.36 1.95l56.23 35.42h15.02-.03ZM16.02 18.48H5.33v7.11h10.69v-7.1Z" fill="#fff"/>
    <path d="M16.9 7.82V.25H0v44.5h16.9v-7.57H8V7.82h8.9ZM42.53 19.87c7.83 1.53 11.75 5.65 11.75 11.51 0 7.36-5.26 13.37-14.72 13.37H23.15V.25H39.3C48.15.25 52.82 5 52.82 11.57c0 5.45-4.14 9.79-10.3 11.22v-2.94.02Zm-5.04 17.3c6.1 0 8.54-2.72 8.54-6.08s-2.46-5.47-8.54-5.47h-8.2V18.5h7.64c5.06 0 8-2.24 8-5.55 0-3.07-2.19-5.14-7.25-5.14h-6.55v29.36h6.36ZM93.4 34.5H65.82v-7.1h21.81l5.77 7.1ZM235.2.25l-29.02 19.2-1.49.13-38 25.17h13.7l27.98-18.53 1.2.08L248.9.25h-13.7Z" fill="#fff"/>
    <path fill-rule="evenodd" clip-rule="evenodd" d="M267.4.72v43.53h13.93c7.55 0 13.2-5.21 13.2-12.1 0-5.36-3.4-9.2-8-10.93 2.83-1.85 5.9-4.72 5.9-9.64 0-6.26-5.09-10.86-12.27-10.86H267.4Zm18.55 11.69c0 4.16-2.65 7.06-6.81 7.06h-5.19V5.59h5.19c4.19 0 6.81 2.65 6.81 6.82Zm1.83 19.15c0 4.41-2.7 7.8-7.79 7.8H273.95v-15.3H280c5.09 0 7.79 3.1 7.79 7.5ZM300.12.72v43.53h6.01V.72h-6Zm10.8 27.34c0-9.88 5.1-17.38 13.4-17.38s13.31 7.42 13.31 17.38c0 9.95-5.04 17.43-13.31 17.43-8.28 0-13.4-7.5-13.4-17.43Zm20.5 0c0-9.96-3.8-13.15-7.13-13.15s-7.18 3.2-7.18 13.15 3.87 13.2 7.18 13.2c3.31 0 7.13-3.2 7.13-13.2Zm8.35 20.32c0 3.63 3.12 5.77 7.55 5.77l.03.03h12.14c6.16.07 9.84-4.36 9.84-8.84 0-3.7-2.58-7.06-8.84-7.13h-13.14c-.56 0-.93-.32-.93-.8 0-.37.24-.69.73-.8l9.83-2.1a11.57 11.57 0 0 0 9.52-11.54c0-2.43-.8-4.84-2.21-6.74h4.84V11.8h-9.56a14.79 14.79 0 0 0-5.9-1.1c-8.1 0-12.7 5.26-12.7 12.03 0 4.67 2.43 8.71 6.74 10.68l-2.58.86c-2.7 1-3.75 2.58-3.75 4.55 0 1.58.9 2.94 2.5 3.8-2.08 1.04-4.1 2.87-4.1 5.76Zm24.13-1.53c0 2.14-1.7 3.92-4.97 3.92h-9.4c-2.82 0-4.42-1.05-4.42-3.26 0-1.9 1.4-3.24 2.9-3.92h11.65c2.83 0 4.24 1.12 4.24 3.26Zm-10.18-32.42c3.39 0 6.82 2.63 6.82 8.35 0 5.67-3.43 8.3-6.82 8.3-3.38 0-6.89-2.58-6.89-8.3 0-5.72 3.5-8.35 6.9-8.35Z" fill="#000E2B"/>
  </g>
  <defs>
    <clipPath id="a">
      <path fill="#fff" transform="translate(0 .72)" d="M0 0h370v53.55H0z"/>
    </clipPath>
  </defs>
</svg>
