<svg width="370" height="34" fill="none" xmlns="http://www.w3.org/2000/svg">
  <g clip-path="url(#a)" fill="#fff">
    <path d="m180.4 31.63-47.46-29.9a14.68 14.68 0 0 0-7.65-2.48c-6.12 0-10.26 3.46-10.26 10.77v14.1c0 1.5-.9 2.37-2.07 2.37-.71 0-1.49-.37-2.36-1.28L90.33 2.69C88.5.68 86.08-.75 83.3-.75c-4.03 0-7.38 2.7-7.38 8.16v17.76c0 .88-.47 1.32-1.09 1.32-.38 0-.79-.21-1.14-.67L56.41 2.85c-2.2-2.93-4.35-3.6-6.24-3.6-4.2 0-6.91 2.65-6.91 7.56v24.82h5.77V5.97c0-.9.46-1.26.96-1.26.42 0 .74.2 1.07.63l17.75 23.55a7.37 7.37 0 0 0 6.07 3.03c4.28 0 6.84-2.45 6.84-7.36V6.73c0-1.39.77-2.04 1.77-2.04.56 0 1.07.23 1.73.93l20.05 22.25c2.42 2.69 4.94 4.05 7.94 4.05 4.9 0 7.61-2.98 7.61-8.78V9.46c0-3.2 2.03-4.75 4.42-4.75 1.47 0 2.63.63 3.86 1.4l40.5 25.52h10.82-.01ZM11.54 12.7h-7.7v5.13h7.7V12.7Z"/>
    <path d="M12.17 5.02V-.43H0v32.06h12.17v-5.46h-6.4V5.02h6.4ZM30.63 13.7c5.65 1.1 8.47 4.07 8.47 8.3 0 5.3-3.78 9.63-10.6 9.63H16.68V-.43h11.64c6.37 0 9.73 3.42 9.73 8.15 0 3.93-2.98 7.05-7.42 8.09v-2.12.01ZM27 26.17c4.4 0 6.16-1.96 6.16-4.38s-1.77-3.95-6.16-3.95h-5.9v-5.12h5.5c3.65 0 5.77-1.61 5.77-4 0-2.2-1.58-3.7-5.22-3.7h-4.72v21.15H27ZM67.28 24.24H47.42v-5.12h15.7l4.16 5.12ZM169.43-.43l-20.9 13.84-1.07.08-27.38 18.14h9.88l20.14-13.35.86.05L179.3-.43h-9.87ZM187.86 31.49V.1h9.86c5.48 0 8.89 3.84 8.89 8.32a8.4 8.4 0 0 1-4.25 7.34c2.26.93 3.95 2.62 3.95 6.2v2.87c0 2.3.09 4.9.88 6.63h-5.14c-.35-.97-.44-3.54-.44-5.61v-3.58c0-1.9-.23-4.5-4.02-4.5h-5.01v13.7h-4.72Zm4.73-17.26h4.04c3.28 0 5.22-2.12 5.22-5.31 0-3.2-1.94-5.32-5.22-5.32h-4.05v10.61l.01.02ZM209.4 19.8c0-7.25 3.89-12.51 9.9-12.51 6.02 0 9.38 5.13 9.42 11.9v1.16h-14.73c0 6.63 2.73 8.98 5.49 8.98 2.56 0 4.73-2 4.56-5.98h4.33c0 5.17-3.72 9.03-8.75 9.03-6.25 0-10.22-5.4-10.22-12.56v-.01Zm14.76-2.2c0-4.86-2.17-7.26-4.88-7.26-2.82 0-5.05 2.65-5.22 7.26h10.1ZM230.93 23.7h4.3c-.8 3.94 1.71 5.61 4.15 5.61 2.18 0 4.33-1.16 4.33-3.66 0-2.8-2.73-3.55-5.52-4.6-4.12-1.6-6.86-3.54-6.86-7.08 0-3.84 3.4-6.68 8.2-6.68 4.78 0 8.22 3.36 7.69 7.73h-4.12c.44-2.3-.58-4.68-3.63-4.68-2.47 0-3.8 1.37-3.8 3.01 0 2.56 2.55 3.32 5.52 4.47 2.78 1.07 6.85 2.8 6.85 7.26 0 4.48-3.8 7.3-8.8 7.3-5.31 0-8.98-3.49-8.31-8.66v-.02ZM250.16 19.8c0-7.11 3.67-12.51 9.65-12.51s9.6 5.34 9.6 12.52c0 7.17-3.64 12.55-9.6 12.55-5.96 0-9.65-5.4-9.65-12.55Zm14.77 0c0-7.17-2.74-9.46-5.14-9.46-2.4 0-5.17 2.3-5.17 9.47 0 7.17 2.79 9.5 5.17 9.5 2.39 0 5.14-2.3 5.14-9.5ZM272.84 24.49V7.95h4.33v15.92c0 3.85 2.17 5.18 4.2 5.18 2.66 0 5.53-2.3 5.53-7.65V7.95h4.33V31.5h-4.33v-3.1a7.76 7.76 0 0 1-6.8 3.94c-3 0-7.26-1.63-7.26-7.82v-.02ZM295.93 31.49V7.95h4.33v2.74a6.44 6.44 0 0 1 5.62-3.4c1.24 0 2.35.35 2.92.79l-.52 4.15a6.18 6.18 0 0 0-3.28-.93c-2.3 0-4.74 1.63-4.74 6.16v14.03h-4.33ZM309.68 19.8c0-7.17 3.84-12.51 10.14-12.51 4.94 0 8.54 3.94 8.54 9.2h-4.34c.18-3.66-1.68-6.15-4.33-6.15-2.64 0-5.43 2.3-5.43 9.47 0 7.17 2.82 9.5 5.49 9.5 2.66 0 4.47-2.3 4.33-5.98h4.33c0 5.17-3.67 9.03-8.54 9.03-6.24 0-10.17-5.35-10.17-12.55h-.02ZM330.6 19.8c0-7.25 3.9-12.51 9.9-12.51 6.02 0 9.39 5.13 9.42 11.9v1.16H335.2c0 6.63 2.74 8.98 5.5 8.98 2.55 0 4.73-2 4.55-5.98h4.33c0 5.17-3.71 9.03-8.75 9.03-6.24 0-10.22-5.4-10.22-12.56v-.01Zm14.76-2.2c0-4.86-2.17-7.26-4.87-7.26-2.82 0-5.05 2.65-5.23 7.26h10.1ZM352.13 23.7h4.3c-.79 3.94 1.72 5.61 4.16 5.61 2.17 0 4.33-1.16 4.33-3.66 0-2.8-2.74-3.55-5.53-4.6-4.12-1.6-6.85-3.54-6.85-7.08 0-3.84 3.4-6.68 8.19-6.68 4.78 0 8.22 3.36 7.7 7.73h-4.13c.44-2.3-.57-4.68-3.63-4.68-2.47 0-3.8 1.37-3.8 3.01 0 2.56 2.56 3.32 5.52 4.47 2.79 1.07 6.86 2.8 6.86 7.26 0 4.48-3.8 7.3-8.8 7.3-5.32 0-8.98-3.49-8.32-8.66v-.02Z"/>
  </g>
  <defs>
    <clipPath id="a">
      <path fill="#fff" transform="translate(0 .11)" d="M0 0h370v33.32H0z"/>
    </clipPath>
  </defs>
</svg>
