<svg width="370" height="88" fill="none" xmlns="http://www.w3.org/2000/svg">
  <g clip-path="url(#a)" fill="#fff">
    <path d="m192.29 34.92-50.6-31.86c-2.67-1.69-5.51-2.64-8.15-2.64-6.52 0-10.93 3.68-10.93 11.48v15.02c0 1.61-.95 2.53-2.2 2.53-.77 0-1.6-.4-2.53-1.37l-21.6-24C94.33 1.93 91.75.42 88.8.42c-4.3 0-7.87 2.88-7.87 8.7v18.92c0 .94-.5 1.4-1.16 1.4-.4 0-.84-.22-1.21-.7L60.13 4.25C57.77 1.13 55.49.42 53.47.42c-4.48 0-7.36 2.82-7.36 8.06v26.44h6.15V7.58c0-.96.48-1.35 1.03-1.35.45 0 .78.2 1.14.68L73.34 32a7.86 7.86 0 0 0 6.47 3.23c4.56 0 7.29-2.62 7.29-7.85v-19c0-1.48.82-2.18 1.89-2.18.6 0 1.14.25 1.85 1l21.36 23.71c2.58 2.86 5.27 4.32 8.47 4.32 5.23 0 8.1-3.18 8.1-9.36V11.3c0-3.4 2.18-5.07 4.72-5.07 1.57 0 2.8.68 4.11 1.5l43.18 27.2h11.53-.02ZM12.3 14.76H4.1v5.45h8.2v-5.45Z"/>
    <path d="M12.97 6.57V.76H0v34.16h12.97v-5.81H6.15V6.57h6.82ZM32.65 15.82c6.02 1.18 9.03 4.34 9.03 8.84 0 5.65-4.04 10.26-11.3 10.26h-12.6V.76h12.4c6.79 0 10.38 3.64 10.38 8.69 0 4.18-3.18 7.51-7.9 8.61V15.8v.02Zm-3.87 13.29c4.7 0 6.56-2.1 6.56-4.67 0-2.58-1.88-4.2-6.56-4.2h-6.3v-5.47h5.87c3.9 0 6.15-1.72 6.15-4.26 0-2.35-1.68-3.94-5.57-3.94h-5.02V29.1H28.78ZM71.72 27.05H50.54V21.6h16.75l4.43 5.45ZM180.59.76 158.3 15.5l-1.14.1-29.18 19.32h10.53l21.47-14.22.92.06 30.2-20H180.6ZM5.07 64.73v14.19H.04V45.5h9.6c5.85 0 9.82 4.19 9.82 9.63s-3.97 9.6-9.82 9.6H5.07Zm3.49-3.77c3.63 0 5.8-2.32 5.8-5.85s-2.17-5.89-5.8-5.89h-3.5v11.74h3.5ZM20.77 73.24c0-5.2 4.09-7.07 9.8-8.86l5.3-1.55V61.5c0-3.34-1.93-5.08-5.05-5.08-2.88 0-5.05 2.02-4.62 5.88h-4.52c-.34-5.75 3.2-9.14 9.33-9.14 7.06 0 9.47 4.2 9.47 8.02v17.78h-4.61v-3.12c-1.46 2.44-3.87 4.05-7.4 4.05-4.21 0-7.69-2.54-7.69-6.65h-.01Zm15.08-3.53v-3.72c-7.22 2.16-10.37 2.73-10.37 6.6 0 2.16 1.42 3.96 4.18 3.96 4.24 0 6.17-3.82 6.17-6.84h.02ZM46.17 87.42v-3.77c.46.24.9.34 1.36.34.93 0 1.74-.53 2.17-1.8l.65-2.17-8.1-26.16h4.66l5.98 19.23 5.99-19.23h3.96l-9.2 29.7c-.84 2.63-2.5 4.05-5.04 4.14a7.77 7.77 0 0 1-2.45-.28h.02ZM65.12 78.94V53.86h4.61v3.25a8.21 8.21 0 0 1 6.94-3.96c2.63 0 5.6 1.02 6.88 4.48 1.55-2.54 4.24-4.48 7.5-4.48 3.24 0 7.49 1.73 7.49 8.33v17.44h-4.62V62.1c0-4-1.8-5.51-4.15-5.51-2.63 0-5.6 2.44-5.6 8.2v14.15h-4.68V62.12c0-4-1.74-5.52-4.1-5.52-2.63 0-5.66 2.45-5.66 8.2v14.16h-4.61v-.02ZM102.22 66.5c0-7.75 4.15-13.35 10.56-13.35s10 5.47 10.04 12.69v1.23h-15.7c0 7.07 2.91 9.57 5.85 9.57 2.72 0 5.04-2.11 4.86-6.37h4.61c0 5.51-3.96 9.62-9.32 9.62-6.66 0-10.9-5.75-10.9-13.38v-.02Zm15.74-2.36c0-5.18-2.32-7.74-5.2-7.74-3 0-5.38 2.82-5.57 7.74h10.77ZM126.5 78.94V53.86h4.62v3.25a8.37 8.37 0 0 1 7.3-3.96c3.22 0 7.69 1.73 7.69 8.33v17.44h-4.62V62.1c0-3.9-2.13-5.51-4.49-5.51-2.78 0-5.88 2.5-5.88 8.2v14.15h-4.62ZM160.1 79.5c-.93.24-1.79.37-2.54.37-3.34 0-5.38-2.16-5.38-5.7V57.11h-3.44v-2.79c3.78-.33 5.05-2.63 5.05-6.74h3.06v6.26h4.3v3.25h-4.3v16.97c0 1.37.62 2.17 1.83 2.17.38 0 .9-.1 1.42-.28v3.55ZM163.45 70.64h4.58c-.84 4.2 1.83 5.98 4.43 5.98 2.32 0 4.61-1.23 4.61-3.9 0-2.98-2.91-3.78-5.88-4.9-4.4-1.7-7.31-3.78-7.31-7.55 0-4.1 3.63-7.12 8.73-7.12 5.1 0 8.76 3.58 8.2 8.24h-4.39c.47-2.45-.62-5-3.87-5-2.63 0-4.05 1.47-4.05 3.2 0 2.73 2.72 3.54 5.88 4.77 2.97 1.14 7.31 2.97 7.31 7.74 0 4.76-4.05 7.77-9.38 7.77-5.66 0-9.57-3.72-8.86-9.23ZM193.19 78.94V45.5h17.44v3.72h-12.4V60.4h11.18v3.68h-11.18v11.08h12.4v3.78h-17.44ZM211.86 78.94l8.4-12.7-7.88-12.38h5.05l5.42 8.39 5.6-8.4h4.53l-7.93 11.99 8.34 13.1h-5.08l-5.85-9.1-6.14 9.1h-4.48.02ZM235.8 86.75v-32.9h4.62v3.16a7.64 7.64 0 0 1 6.56-3.86c5.51 0 8.91 5.75 8.91 13.62 0 7.87-3.72 13.1-8.91 13.1-2.11 0-4.77-1.08-6.56-3.9v10.8h-4.62v-.02Zm15.33-20.1c0-8.1-2.79-10.27-5.14-10.27-2.54 0-5.67 2.73-5.67 10.04 0 7.3 3.31 10.03 5.67 10.03 2.07 0 5.14-1.7 5.14-9.8ZM259.56 78.94V45.5h4.61v33.42h-4.61v.02ZM267.86 73.24c0-5.2 4.09-7.07 9.8-8.86l5.3-1.55V61.5c0-3.34-1.93-5.08-5.05-5.08-2.88 0-5.05 2.02-4.62 5.88h-4.52c-.33-5.75 3.2-9.14 9.33-9.14 7.06 0 9.47 4.2 9.47 8.02v17.78h-4.61v-3.12c-1.46 2.44-3.87 4.05-7.4 4.05-4.2 0-7.69-2.54-7.69-6.65h-.01Zm15.08-3.53v-3.72c-7.22 2.16-10.37 2.73-10.37 6.6 0 2.16 1.42 3.96 4.18 3.96 4.25 0 6.17-3.82 6.17-6.84h.02ZM292.55 47.91c0-1.74 1.36-3.2 3.06-3.2s3.07 1.46 3.07 3.2c0 1.74-1.37 3.2-3.07 3.2a3.14 3.14 0 0 1-3.06-3.2Zm.74 31.03V53.86h4.68v25.08h-4.68ZM303.67 78.94V53.86h4.61v3.25a8.37 8.37 0 0 1 7.31-3.96c3.22 0 7.68 1.73 7.68 8.33v17.44h-4.61V62.1c0-3.9-2.13-5.51-4.49-5.51-2.78 0-5.89 2.5-5.89 8.2v14.15h-4.61ZM326.95 66.5c0-7.75 4.16-13.35 10.57-13.35 6.4 0 10 5.47 10.03 12.69v1.23h-15.7c0 7.07 2.92 9.57 5.85 9.57 2.73 0 5.05-2.11 4.86-6.37h4.62c0 5.51-3.96 9.62-9.33 9.62-6.65 0-10.9-5.75-10.9-13.38v-.02Zm15.74-2.36c0-5.18-2.31-7.74-5.2-7.74-3 0-5.38 2.82-5.56 7.74h10.76ZM349.9 66.21c0-8.02 3.82-13.06 9.15-13.06 1.92 0 4.43.93 6.31 3.72V45.5h4.62v33.42h-4.62V75.8a7.11 7.11 0 0 1-6.4 4.05c-5.39 0-9.05-5.66-9.05-13.66v.02Zm15.61.24c0-7.5-3.3-10.09-5.6-10.09-2.08 0-5.14 1.8-5.14 9.9 0 8.12 2.82 10.2 5.17 10.2 2.55 0 5.52-2.74 5.57-10Z"/>
  </g>
  <defs>
    <clipPath id="a">
      <path fill="#fff" transform="translate(0 .42)" d="M0 0h370v87.29H0z"/>
    </clipPath>
  </defs>
</svg>
