<svg width="370" height="34" fill="none" xmlns="http://www.w3.org/2000/svg">
  <g clip-path="url(#a)">
    <path d="M180.4 31.6 132.95 1.7a14.68 14.68 0 0 0-7.65-2.47c-6.12 0-10.26 3.45-10.26 10.76v14.1c0 1.51-.9 2.37-2.07 2.37-.71 0-1.49-.37-2.36-1.28L90.33 2.66C88.5.65 86.08-.77 83.3-.77c-4.03 0-7.38 2.7-7.38 8.15v17.77c0 .87-.47 1.31-1.09 1.31-.38 0-.79-.21-1.14-.67L56.41 2.82c-2.2-2.93-4.35-3.6-6.24-3.6-4.2 0-6.91 2.66-6.91 7.57v24.8h5.77V5.95c0-.89.46-1.26.96-1.26.42 0 .74.2 1.07.63l17.75 23.55a7.37 7.37 0 0 0 6.07 3.04c4.28 0 6.84-2.46 6.84-7.37V6.7c0-1.39.77-2.04 1.77-2.04.56 0 1.07.23 1.73.93l20.05 22.26c2.42 2.68 4.94 4.05 7.94 4.05 4.9 0 7.61-2.98 7.61-8.79V9.43c0-3.19 2.03-4.75 4.42-4.75 1.47 0 2.63.63 3.86 1.4l40.5 25.52h10.82-.01ZM11.54 12.68h-7.7v5.12h7.7v-5.12Z" fill="#fff"/>
    <path d="M12.17 5V-.46H0V31.6h12.17v-5.46h-6.4V5h6.4ZM30.63 13.68c5.65 1.1 8.47 4.07 8.47 8.3 0 5.29-3.78 9.62-10.6 9.62H16.68V-.46h11.64c6.37 0 9.73 3.42 9.73 8.16 0 3.93-2.98 7.05-7.42 8.08v-2.12.02ZM27 26.14c4.4 0 6.16-1.96 6.16-4.38s-1.77-3.94-6.16-3.94h-5.9V12.7h5.5c3.65 0 5.77-1.62 5.77-4 0-2.21-1.58-3.7-5.22-3.7h-4.72v21.14H27ZM67.28 24.22H47.42V19.1h15.7l4.16 5.12ZM169.43-.46l-20.9 13.84-1.07.09-27.38 18.13h9.88l20.14-13.35.86.06L179.3-.46h-9.87Z" fill="#fff"/>
    <path d="M187.86 31.46V.09h9.86c5.48 0 8.89 3.84 8.89 8.3a8.4 8.4 0 0 1-4.25 7.36c2.26.93 3.95 2.6 3.95 6.19v2.87c0 2.3.09 4.91.88 6.63h-5.14c-.35-.96-.44-3.54-.44-5.61v-3.58c0-1.9-.23-4.5-4.02-4.5h-5.01v13.7h-4.72Zm4.73-17.26h4.04c3.28 0 5.22-2.12 5.22-5.31 0-3.2-1.94-5.31-5.22-5.31h-4.05v10.6l.01.02ZM209.4 19.78c0-7.26 3.89-12.52 9.9-12.52 6.02 0 9.38 5.14 9.42 11.9v1.16h-14.73c0 6.63 2.73 8.98 5.49 8.98 2.56 0 4.73-2 4.56-5.98h4.33c0 5.17-3.72 9.03-8.75 9.03-6.25 0-10.22-5.4-10.22-12.55v-.02Zm14.76-2.21c0-4.86-2.17-7.26-4.88-7.26-2.82 0-5.05 2.65-5.22 7.26h10.1ZM230.93 23.67h4.3c-.8 3.95 1.71 5.61 4.15 5.61 2.18 0 4.33-1.15 4.33-3.66 0-2.79-2.73-3.54-5.52-4.6-4.12-1.6-6.86-3.54-6.86-7.08 0-3.84 3.4-6.68 8.2-6.68 4.78 0 8.22 3.37 7.69 7.73h-4.12c.44-2.3-.58-4.68-3.63-4.68-2.47 0-3.8 1.37-3.8 3.02 0 2.56 2.55 3.31 5.52 4.47 2.78 1.07 6.85 2.79 6.85 7.26s-3.8 7.3-8.8 7.3c-5.31 0-8.98-3.5-8.31-8.67v-.02ZM250.16 19.78c0-7.12 3.67-12.52 9.65-12.52s9.6 5.35 9.6 12.52-3.64 12.56-9.6 12.56c-5.96 0-9.65-5.4-9.65-12.56Zm14.77 0c0-7.17-2.74-9.47-5.14-9.47-2.4 0-5.17 2.3-5.17 9.47 0 7.17 2.79 9.5 5.17 9.5 2.39 0 5.14-2.3 5.14-9.5ZM272.84 24.46V7.93h4.33v15.92c0 3.84 2.17 5.17 4.2 5.17 2.66 0 5.53-2.3 5.53-7.64V7.93h4.33v23.53h-4.33v-3.1a7.76 7.76 0 0 1-6.8 3.94c-3 0-7.26-1.63-7.26-7.82v-.02ZM295.93 31.46V7.93h4.33v2.73a6.44 6.44 0 0 1 5.62-3.4c1.24 0 2.35.35 2.92.79l-.52 4.15a6.18 6.18 0 0 0-3.28-.93c-2.3 0-4.74 1.64-4.74 6.16v14.03h-4.33ZM309.68 19.78c0-7.17 3.84-12.52 10.14-12.52 4.94 0 8.54 3.94 8.54 9.2h-4.34c.18-3.66-1.68-6.15-4.33-6.15-2.64 0-5.43 2.3-5.43 9.47 0 7.17 2.82 9.5 5.49 9.5 2.66 0 4.47-2.3 4.33-5.98h4.33c0 5.18-3.67 9.04-8.54 9.04-6.24 0-10.17-5.35-10.17-12.56h-.02ZM330.6 19.78c0-7.26 3.9-12.52 9.9-12.52 6.02 0 9.39 5.14 9.42 11.9v1.16H335.2c0 6.63 2.74 8.98 5.5 8.98 2.55 0 4.73-2 4.55-5.98h4.33c0 5.17-3.71 9.03-8.75 9.03-6.24 0-10.22-5.4-10.22-12.55v-.02Zm14.76-2.21c0-4.86-2.17-7.26-4.87-7.26-2.82 0-5.05 2.65-5.23 7.26h10.1ZM352.13 23.67h4.3c-.79 3.95 1.72 5.61 4.16 5.61 2.17 0 4.33-1.15 4.33-3.66 0-2.79-2.74-3.54-5.53-4.6-4.12-1.6-6.85-3.54-6.85-7.08 0-3.84 3.4-6.68 8.19-6.68 4.78 0 8.22 3.37 7.7 7.73h-4.13c.44-2.3-.57-4.68-3.63-4.68-2.47 0-3.8 1.37-3.8 3.02 0 2.56 2.56 3.31 5.52 4.47 2.79 1.07 6.86 2.79 6.86 7.26s-3.8 7.3-8.8 7.3c-5.32 0-8.98-3.5-8.32-8.67v-.02Z" fill="#000E2B"/>
  </g>
  <defs>
    <clipPath id="a">
      <path fill="#fff" transform="translate(0 .09)" d="M0 0h370v33.32H0z"/>
    </clipPath>
  </defs>
</svg>
