<svg width="370" height="153" fill="none" xmlns="http://www.w3.org/2000/svg">
  <g clip-path="url(#a)" fill="#fff">
    <path d="M367.93 66.78 271.12 5.8C266 2.58 260.57.76 255.52.76c-12.48 0-20.92 7.04-20.92 21.96v28.75c0 3.08-1.82 4.83-4.22 4.83-1.46 0-3.04-.75-4.82-2.61L184.2 7.77c-3.72-4.11-8.65-7.01-14.3-7.01-8.23 0-15.06 5.5-15.06 16.63v36.23c0 1.79-.96 2.68-2.22 2.68-.78 0-1.6-.43-2.32-1.36L115.05 8.09c-4.5-5.97-8.87-7.33-12.73-7.33-8.59 0-14.1 5.4-14.1 15.41v50.6H100V14.47c0-1.83.93-2.58 1.97-2.58.86 0 1.5.4 2.18 1.29l36.2 48.03c3 4 7.32 6.19 12.37 6.19 8.72 0 13.94-5.01 13.94-15.02V15.99c0-2.82 1.58-4.14 3.62-4.14 1.14 0 2.18.46 3.54 1.9l40.87 45.37c4.94 5.48 10.09 8.27 16.2 8.27 10.02 0 15.52-6.08 15.52-17.92v-27.9c0-6.5 4.15-9.69 9.02-9.69 3 0 5.36 1.29 7.86 2.86l82.62 52.04h22.06-.03ZM23.53 28.19H7.83v10.44h15.7V28.2Z"/>
    <path d="M24.82 12.53V1.4H0v65.38h24.82V55.66H11.77V12.53h13.05ZM62.48 30.23c11.51 2.25 17.27 8.3 17.27 16.91 0 10.8-7.72 19.64-21.64 19.64h-24.1V1.4h23.75c12.98 0 19.84 6.98 19.84 16.63 0 8.01-6.07 14.38-15.12 16.49v-4.33.04Zm-7.4 25.43c8.97 0 12.55-4.01 12.55-8.95 0-4.93-3.61-8.04-12.56-8.04H43.02V28.23h11.23c7.44 0 11.77-3.3 11.77-8.16 0-4.5-3.22-7.54-10.66-7.54h-9.62v43.13h9.33ZM137.22 51.72H96.7V41.28h32.05l8.47 10.44ZM345.54 1.4 302.9 29.62l-2.18.18-55.83 36.98h20.14l41.09-27.22 1.75.1 57.8-38.26h-20.14ZM.07 151V87.02h20.1c11.2 0 18.13 7.83 18.13 16.95 0 6.33-3.15 11.62-8.65 14.98 4.61 1.9 8.04 5.33 8.04 12.63v5.86c0 4.69.18 10.02 1.8 13.52H29c-.71-1.96-.9-7.22-.9-11.44v-7.3c0-3.86-.46-9.19-8.18-9.19H9.69V151H.07Zm9.66-35.2h8.22c6.69 0 10.66-4.32 10.66-10.83 0-6.5-3.97-10.83-10.66-10.83H9.7v21.63l.04.04ZM43.99 127.18c0-14.8 7.94-25.53 20.2-25.53 12.27 0 19.14 10.47 19.2 24.28v2.36H53.37c0 13.52 5.58 18.31 11.2 18.31 5.21 0 9.65-4.08 9.29-12.2h8.83c0 10.56-7.58 18.42-17.84 18.42-12.73 0-20.85-11.01-20.85-25.6v-.04Zm30.11-4.5c0-9.91-4.43-14.81-9.94-14.81-5.76 0-10.3 5.4-10.66 14.8H74.1ZM87.9 135.12h8.77c-1.61 8.05 3.5 11.44 8.47 11.44 4.44 0 8.83-2.36 8.83-7.47 0-5.69-5.57-7.22-11.26-9.37-8.4-3.25-13.98-7.22-13.98-14.45 0-7.83 6.94-13.62 16.7-13.62 9.76 0 16.77 6.86 15.7 15.77h-8.4c.89-4.69-1.19-9.55-7.4-9.55-5.05 0-7.77 2.79-7.77 6.15 0 5.22 5.22 6.76 11.27 9.12 5.68 2.18 13.98 5.69 13.98 14.8 0 9.13-7.76 14.88-17.95 14.88-10.84 0-18.31-7.11-16.96-17.66v-.04ZM127.14 127.18c0-14.52 7.47-25.53 19.67-25.53 12.2 0 19.56 10.9 19.56 25.53s-7.4 25.6-19.56 25.6c-12.16 0-19.67-11-19.67-25.6Zm30.1 0c0-14.63-5.57-19.31-10.47-19.31s-10.55 4.68-10.55 19.31c0 14.63 5.69 19.38 10.55 19.38s10.48-4.68 10.48-19.38ZM173.38 136.73V103h8.83v32.47c0 7.83 4.44 10.55 8.58 10.55 5.4 0 11.27-4.69 11.27-15.6V103h8.83v48h-8.83v-6.33c-2.9 4.86-7.76 8.05-13.88 8.05-6.11 0-14.8-3.33-14.8-15.96v-.03ZM220.48 151v-48h8.83v5.58c2.18-3.86 6.22-6.93 11.44-6.93 2.54 0 4.8.71 5.98 1.6l-1.08 8.48a12.61 12.61 0 0 0-6.68-1.9c-4.69 0-9.66 3.33-9.66 12.56v28.6h-8.83ZM248.51 127.18c0-14.63 7.84-25.53 20.68-25.53 10.08 0 17.41 8.04 17.41 18.77h-8.83c.36-7.47-3.44-12.55-8.83-12.55-5.4 0-11.1 4.68-11.1 19.31 0 14.63 5.77 19.38 11.2 19.38 5.44 0 9.12-4.68 8.84-12.2h8.83c0 10.56-7.47 18.43-17.42 18.43-12.73 0-20.74-10.91-20.74-25.6h-.04ZM291.18 127.18c0-14.8 7.94-25.53 20.2-25.53 12.27 0 19.14 10.47 19.21 24.28v2.36h-30.04c0 13.52 5.58 18.31 11.2 18.31 5.21 0 9.65-4.08 9.3-12.2h8.82c0 10.56-7.58 18.42-17.84 18.42-12.73 0-20.85-11.01-20.85-25.6v-.04Zm30.11-4.5c0-9.91-4.43-14.81-9.94-14.81-5.76 0-10.3 5.4-10.66 14.8h20.6ZM335.1 135.12h8.76c-1.61 8.05 3.5 11.44 8.47 11.44 4.44 0 8.84-2.36 8.84-7.47 0-5.69-5.58-7.22-11.27-9.37-8.4-3.25-13.98-7.22-13.98-14.45 0-7.83 6.94-13.62 16.7-13.62 9.76 0 16.77 6.86 15.7 15.77h-8.4c.89-4.69-1.19-9.55-7.4-9.55-5.05 0-7.77 2.79-7.77 6.15 0 5.22 5.22 6.76 11.27 9.12 5.68 2.18 13.98 5.69 13.98 14.8 0 9.13-7.76 14.88-17.95 14.88-10.84 0-18.31-7.11-16.95-17.66v-.04Z"/>
  </g>
  <defs>
    <clipPath id="a">
      <path fill="#fff" transform="translate(0 .76)" d="M0 0h370v152.03H0z"/>
    </clipPath>
  </defs>
</svg>
