<svg width="370" height="67" fill="none" xmlns="http://www.w3.org/2000/svg">
  <path fill-rule="evenodd" clip-rule="evenodd" d="M0 .05v65.52h24.92V54.42H11.81V37.36h11.8v-10.5h-11.8V11.2h13.11V.05H0ZM69.2 30.8c5.39-3.06 8.74-8.09 8.74-14.06 0-9.7-6.92-16.7-19.9-16.7H34.3v65.53h24.2c13.91 0 21.71-8.9 21.71-19.68-.07-6.85-3.72-12.1-11-15.09ZM55.7 11.2c7.44 0 10.72 3.06 10.72 7.58 0 4.88-4.3 8.16-11.8 8.16h-8.54V11.2h9.62Zm-.29 43.22H46.1V37.36h9.33c8.97 0 12.61 3.14 12.61 8.1 0 4.95-3.64 8.96-12.6 8.96Zm262.7-20.77L370 66.3h-22.08l-41.54-26.17-39.5 26.17h-20.19l49.34-32.65-30.97-19.54c-2.48-1.53-4.89-2.84-7.88-2.84-4.88 0-9.03 3.2-9.03 9.7v27.98c0 11.88-5.54 18-15.6 18-6.12 0-11.3-2.84-16.25-8.3l-40.96-45.56c-1.38-1.45-2.4-1.9-3.57-1.9-2.04 0-3.64 1.32-3.64 4.16v37.17c0 10.13-5.83 14.43-13.41 14.43-6.34 0-10.42-2.91-14.29-8.02l-5.83-7.72h-33.3v15.01H89.56V15.5C89.56 5.44 94.88.05 103.48.05c4.96 0 9.26 2.4 13.78 8.38l34.62 45.99c.72.94 1.53 1.38 2.33 1.38 1.24 0 2.18-.95 2.18-2.7V16.81c0-11.15 6.86-16.69 15.09-16.69 5.68 0 10.64 2.92 14.36 7.07l41.47 46.06c1.74 1.9 3.35 2.62 4.8 2.62 2.4 0 4.23-1.82 4.23-4.88V22.13c0-14.94 8.45-22 20.99-22 5.03 0 10.5 1.81 15.6 5.02l34.83 21.94L347.56.78h20.18l-49.63 32.87ZM101.3 13.82v26.9h25.36l-21.2-28.14c-.66-.94-1.32-1.3-2.2-1.3-1.01 0-1.96.72-1.96 2.54Z" fill="#000E2B"/>
</svg>
