<svg width="370" height="88" fill="none" xmlns="http://www.w3.org/2000/svg">
  <g clip-path="url(#a)">
    <path d="m192.29 34.64-50.6-31.87c-2.67-1.68-5.51-2.64-8.15-2.64-6.52 0-10.93 3.69-10.93 11.48v15.03c0 1.6-.95 2.52-2.2 2.52-.77 0-1.6-.4-2.53-1.36l-21.6-24C94.33 1.65 91.75.13 88.8.13c-4.3 0-7.87 2.88-7.87 8.7v18.93c0 .93-.5 1.4-1.16 1.4-.4 0-.84-.22-1.21-.7L60.13 3.95C57.77.85 55.49.14 53.47.14c-4.48 0-7.36 2.83-7.36 8.06v26.45h6.15V7.29c0-.95.48-1.34 1.03-1.34.45 0 .78.2 1.14.67l18.91 25.1a7.86 7.86 0 0 0 6.47 3.24c4.56 0 7.29-2.62 7.29-7.85V8.1c0-1.48.82-2.17 1.89-2.17.6 0 1.14.24 1.85.99l21.36 23.72c2.58 2.86 5.27 4.32 8.47 4.32 5.23 0 8.1-3.18 8.1-9.37V11.01c0-3.4 2.18-5.06 4.72-5.06 1.57 0 2.8.67 4.11 1.5l43.18 27.19h11.53-.02ZM12.3 14.47H4.1v5.46h8.2v-5.46Z" fill="#fff"/>
    <path d="M12.97 6.28V.48H0v34.16h12.97v-5.82H6.15V6.28h6.82ZM32.65 15.54c6.02 1.17 9.03 4.33 9.03 8.84 0 5.64-4.04 10.26-11.3 10.26h-12.6V.47h12.4c6.79 0 10.38 3.65 10.38 8.7 0 4.18-3.18 7.5-7.9 8.6v-2.25.02Zm-3.87 13.28c4.7 0 6.56-2.09 6.56-4.67s-1.88-4.2-6.56-4.2h-6.3v-5.46h5.87c3.9 0 6.15-1.72 6.15-4.26 0-2.36-1.68-3.95-5.57-3.95h-5.02v22.54H28.78ZM71.72 26.77H50.54V21.3h16.75l4.43 5.46ZM180.59.47 158.3 15.22l-1.14.1-29.18 19.32h10.53l21.47-14.23.92.06 30.2-20H180.6Z" fill="#fff"/>
    <path d="M5.07 64.45v14.19H.04V45.22h9.6c5.85 0 9.82 4.18 9.82 9.62 0 5.44-3.97 9.6-9.82 9.6H5.07Zm3.49-3.78c3.63 0 5.8-2.31 5.8-5.85 0-3.53-2.17-5.88-5.8-5.88h-3.5v11.73h3.5ZM20.77 72.95c0-5.2 4.09-7.06 9.8-8.86l5.3-1.55v-1.32c0-3.35-1.93-5.09-5.05-5.09-2.88 0-5.05 2.02-4.62 5.89h-4.52c-.34-5.76 3.2-9.14 9.33-9.14 7.06 0 9.47 4.19 9.47 8.02v17.77h-4.61v-3.12C34.4 78 32 79.61 28.47 79.61c-4.21 0-7.69-2.54-7.69-6.66h-.01Zm15.08-3.53V65.7c-7.22 2.17-10.37 2.73-10.37 6.6 0 2.17 1.42 3.96 4.18 3.96 4.24 0 6.17-3.81 6.17-6.84h.02ZM46.17 87.14v-3.78c.46.25.9.34 1.36.34.93 0 1.74-.52 2.17-1.8l.65-2.16-8.1-26.17h4.66L52.9 72.8l5.99-19.23h3.96l-9.2 29.7c-.84 2.64-2.5 4.06-5.04 4.15a7.77 7.77 0 0 1-2.45-.28h.02ZM65.12 78.65V53.57h4.61v3.25a8.21 8.21 0 0 1 6.94-3.96c2.63 0 5.6 1.03 6.88 4.49 1.55-2.55 4.24-4.49 7.5-4.49 3.24 0 7.49 1.74 7.49 8.34v17.44h-4.62V61.8c0-4-1.8-5.51-4.15-5.51-2.63 0-5.6 2.45-5.6 8.2v14.15h-4.68V61.83c0-4-1.74-5.51-4.1-5.51-2.63 0-5.66 2.45-5.66 8.2v14.15h-4.61v-.02ZM102.22 66.2c0-7.73 4.15-13.34 10.56-13.34s10 5.48 10.04 12.7v1.23h-15.7c0 7.06 2.91 9.56 5.85 9.56 2.72 0 5.04-2.1 4.86-6.37h4.61c0 5.52-3.96 9.63-9.32 9.63-6.66 0-10.9-5.76-10.9-13.39v-.01Zm15.74-2.35c0-5.18-2.32-7.74-5.2-7.74-3 0-5.38 2.83-5.57 7.74h10.77ZM126.5 78.65V53.57h4.62v3.25a8.37 8.37 0 0 1 7.3-3.96c3.22 0 7.69 1.74 7.69 8.34v17.44h-4.62V61.8c0-3.9-2.13-5.51-4.49-5.51-2.78 0-5.88 2.5-5.88 8.2v14.15h-4.62ZM160.1 79.21c-.93.25-1.79.38-2.54.38-3.34 0-5.38-2.17-5.38-5.7V56.82h-3.44v-2.78c3.78-.34 5.05-2.64 5.05-6.75h3.06v6.26h4.3v3.25h-4.3v16.98c0 1.36.62 2.16 1.83 2.16.38 0 .9-.09 1.42-.28v3.55ZM163.45 70.36h4.58c-.84 4.2 1.83 5.98 4.43 5.98 2.32 0 4.61-1.24 4.61-3.91 0-2.97-2.91-3.78-5.88-4.9-4.4-1.7-7.31-3.77-7.31-7.55 0-4.1 3.63-7.12 8.73-7.12 5.1 0 8.76 3.59 8.2 8.24h-4.39c.47-2.45-.62-4.99-3.87-4.99-2.63 0-4.05 1.46-4.05 3.2 0 2.73 2.72 3.53 5.88 4.77 2.97 1.14 7.31 2.97 7.31 7.73 0 4.77-4.05 7.78-9.38 7.78-5.66 0-9.57-3.72-8.86-9.23ZM193.19 78.65V45.22h17.44v3.72h-12.4V60.1h11.18v3.68h-11.18v11.09h12.4v3.77h-17.44ZM211.86 78.65l8.4-12.69-7.88-12.39h5.05l5.42 8.4 5.6-8.4h4.53l-7.93 11.98 8.34 13.1h-5.08l-5.85-9.1-6.14 9.1h-4.48.02ZM235.8 86.47v-32.9h4.62v3.16a7.64 7.64 0 0 1 6.56-3.87c5.51 0 8.91 5.76 8.91 13.63 0 7.87-3.72 13.1-8.91 13.1-2.11 0-4.77-1.09-6.56-3.9v10.8h-4.62v-.02Zm15.33-20.1c0-8.1-2.79-10.28-5.14-10.28-2.54 0-5.67 2.73-5.67 10.04 0 7.3 3.31 10.04 5.67 10.04 2.07 0 5.14-1.7 5.14-9.81v.01ZM259.56 78.65V45.22h4.61v33.42h-4.61v.01ZM267.86 72.95c0-5.2 4.09-7.06 9.8-8.86l5.3-1.55v-1.32c0-3.35-1.93-5.09-5.05-5.09-2.88 0-5.05 2.02-4.62 5.89h-4.52c-.33-5.76 3.2-9.14 9.33-9.14 7.06 0 9.47 4.19 9.47 8.02v17.77h-4.61v-3.12c-1.46 2.45-3.87 4.06-7.4 4.06-4.2 0-7.69-2.54-7.69-6.66h-.01Zm15.08-3.53V65.7c-7.22 2.17-10.37 2.73-10.37 6.6 0 2.17 1.42 3.96 4.18 3.96 4.25 0 6.17-3.81 6.17-6.84h.02ZM292.55 47.63c0-1.74 1.36-3.2 3.06-3.2s3.07 1.46 3.07 3.2c0 1.74-1.37 3.2-3.07 3.2a3.14 3.14 0 0 1-3.06-3.2Zm.74 31.02V53.57h4.68v25.08h-4.68ZM303.67 78.65V53.57h4.61v3.25a8.37 8.37 0 0 1 7.31-3.96c3.22 0 7.68 1.74 7.68 8.34v17.44h-4.61V61.8c0-3.9-2.13-5.51-4.49-5.51-2.78 0-5.89 2.5-5.89 8.2v14.15h-4.61ZM326.95 66.2c0-7.73 4.16-13.34 10.57-13.34 6.4 0 10 5.48 10.03 12.7v1.23h-15.7c0 7.06 2.92 9.56 5.85 9.56 2.73 0 5.05-2.1 4.86-6.37h4.62c0 5.52-3.96 9.63-9.33 9.63-6.65 0-10.9-5.76-10.9-13.39v-.01Zm15.74-2.35c0-5.18-2.31-7.74-5.2-7.74-3 0-5.38 2.83-5.56 7.74h10.76ZM349.9 65.93c0-8.02 3.82-13.07 9.15-13.07 1.92 0 4.43.94 6.31 3.72V45.22h4.62v33.42h-4.62V75.5a7.11 7.11 0 0 1-6.4 4.06c-5.39 0-9.05-5.66-9.05-13.66v.02Zm15.61.24c0-7.5-3.3-10.1-5.6-10.1-2.08 0-5.14 1.8-5.14 9.91s2.82 10.19 5.17 10.19c2.55 0 5.52-2.73 5.57-10Z" fill="#000E2B"/>
  </g>
  <defs>
    <clipPath id="a">
      <path fill="#fff" transform="translate(0 .13)" d="M0 0h370v87.29H0z"/>
    </clipPath>
  </defs>
</svg>
