<svg width="25" height="24" viewBox="0 0 25 24" fill="none" xmlns="http://www.w3.org/2000/svg">
<g clip-path="url(#clip0_3637_59523)">
<path d="M12.563 2.16094C15.7692 2.16094 16.1489 2.175 17.4099 2.23125C18.5817 2.28281 19.2146 2.47969 19.6364 2.64375C20.1942 2.85938 20.5974 3.12188 21.0146 3.53906C21.4364 3.96094 21.6942 4.35938 21.9099 4.91719C22.0739 5.33906 22.2708 5.97656 22.3224 7.14375C22.3786 8.40937 22.3927 8.78906 22.3927 11.9906C22.3927 15.1969 22.3786 15.5766 22.3224 16.8375C22.2708 18.0094 22.0739 18.6422 21.9099 19.0641C21.6942 19.6219 21.4317 20.025 21.0146 20.4422C20.5927 20.8641 20.1942 21.1219 19.6364 21.3375C19.2146 21.5016 18.5771 21.6984 17.4099 21.75C16.1442 21.8062 15.7646 21.8203 12.563 21.8203C9.35674 21.8203 8.97705 21.8062 7.71611 21.75C6.54424 21.6984 5.91143 21.5016 5.48955 21.3375C4.93174 21.1219 4.52861 20.8594 4.11143 20.4422C3.68955 20.0203 3.43174 19.6219 3.21611 19.0641C3.05205 18.6422 2.85518 18.0047 2.80361 16.8375C2.74736 15.5719 2.7333 15.1922 2.7333 11.9906C2.7333 8.78438 2.74736 8.40469 2.80361 7.14375C2.85518 5.97187 3.05205 5.33906 3.21611 4.91719C3.43174 4.35938 3.69424 3.95625 4.11143 3.53906C4.5333 3.11719 4.93174 2.85938 5.48955 2.64375C5.91143 2.47969 6.54893 2.28281 7.71611 2.23125C8.97705 2.175 9.35674 2.16094 12.563 2.16094ZM12.563 0C9.30518 0 8.89736 0.0140625 7.61768 0.0703125C6.34268 0.126563 5.46611 0.332812 4.70674 0.628125C3.91455 0.9375 3.24424 1.34531 2.57861 2.01562C1.9083 2.68125 1.50049 3.35156 1.19111 4.13906C0.895801 4.90313 0.689551 5.775 0.633301 7.05C0.577051 8.33437 0.562988 8.74219 0.562988 12C0.562988 15.2578 0.577051 15.6656 0.633301 16.9453C0.689551 18.2203 0.895801 19.0969 1.19111 19.8563C1.50049 20.6484 1.9083 21.3188 2.57861 21.9844C3.24424 22.65 3.91455 23.0625 4.70205 23.3672C5.46611 23.6625 6.33799 23.8687 7.61299 23.925C8.89268 23.9812 9.30049 23.9953 12.5583 23.9953C15.8161 23.9953 16.2239 23.9812 17.5036 23.925C18.7786 23.8687 19.6552 23.6625 20.4146 23.3672C21.2021 23.0625 21.8724 22.65 22.538 21.9844C23.2036 21.3188 23.6161 20.6484 23.9208 19.8609C24.2161 19.0969 24.4224 18.225 24.4786 16.95C24.5349 15.6703 24.5489 15.2625 24.5489 12.0047C24.5489 8.74688 24.5349 8.33906 24.4786 7.05938C24.4224 5.78438 24.2161 4.90781 23.9208 4.14844C23.6255 3.35156 23.2177 2.68125 22.5474 2.01562C21.8817 1.35 21.2114 0.9375 20.4239 0.632812C19.6599 0.3375 18.788 0.13125 17.513 0.075C16.2286 0.0140625 15.8208 0 12.563 0Z" fill="#000E2B"/>
<path d="M12.563 5.83594C9.15986 5.83594 6.39893 8.59688 6.39893 12C6.39893 15.4031 9.15986 18.1641 12.563 18.1641C15.9661 18.1641 18.7271 15.4031 18.7271 12C18.7271 8.59688 15.9661 5.83594 12.563 5.83594ZM12.563 15.9984C10.3552 15.9984 8.56455 14.2078 8.56455 12C8.56455 9.79219 10.3552 8.00156 12.563 8.00156C14.7708 8.00156 16.5614 9.79219 16.5614 12C16.5614 14.2078 14.7708 15.9984 12.563 15.9984Z" fill="#000E2B"/>
<path d="M20.4099 5.59214C20.4099 6.38902 19.763 7.0312 18.9708 7.0312C18.1739 7.0312 17.5317 6.38433 17.5317 5.59214C17.5317 4.79526 18.1786 4.15308 18.9708 4.15308C19.763 4.15308 20.4099 4.79995 20.4099 5.59214Z" fill="#000E2B"/>
</g>
<defs>
<clipPath id="clip0_3637_59523">
<rect width="24" height="24" fill="white" transform="translate(0.562988)"/>
</clipPath>
</defs>
</svg>
