<svg width="25" height="24" viewBox="0 0 25 24" fill="none" xmlns="http://www.w3.org/2000/svg">
<g clip-path="url(#clip0_3637_59522)">
<path d="M22.7864 0H2.33486C1.35518 0 0.562988 0.773438 0.562988 1.72969V22.2656C0.562988 23.2219 1.35518 24 2.33486 24H22.7864C23.7661 24 24.563 23.2219 24.563 22.2703V1.72969C24.563 0.773438 23.7661 0 22.7864 0ZM7.6833 20.4516H4.1208V8.99531H7.6833V20.4516ZM5.90205 7.43438C4.7583 7.43438 3.83486 6.51094 3.83486 5.37187C3.83486 4.23281 4.7583 3.30937 5.90205 3.30937C7.04111 3.30937 7.96455 4.23281 7.96455 5.37187C7.96455 6.50625 7.04111 7.43438 5.90205 7.43438ZM21.0145 20.4516H17.4567V14.8828C17.4567 13.5562 17.4333 11.8453 15.6052 11.8453C13.7536 11.8453 13.4724 13.2937 13.4724 14.7891V20.4516H9.91924V8.99531H13.3317V10.5609H13.3786C13.852 9.66094 15.0146 8.70938 16.7442 8.70938C20.3489 8.70938 21.0145 11.0813 21.0145 14.1656V20.4516Z" fill="#000E2B"/>
</g>
<defs>
<clipPath id="clip0_3637_59522">
<rect width="24" height="24" fill="white" transform="translate(0.562988)"/>
</clipPath>
</defs>
</svg>
