<svg width="25" height="24" viewBox="0 0 25 24" fill="none" xmlns="http://www.w3.org/2000/svg">
<g clip-path="url(#clip0_3637_59524)">
<path d="M8.11314 21.75C17.1675 21.75 22.1213 14.2467 22.1213 7.74186C22.1213 7.53092 22.1166 7.3153 22.1072 7.10436C23.0709 6.40746 23.9025 5.54425 24.563 4.5553C23.6655 4.9546 22.7126 5.21538 21.7369 5.32874C22.7643 4.71291 23.5335 3.74547 23.9021 2.60577C22.9355 3.17856 21.8786 3.58261 20.7764 3.80061C20.0338 3.01156 19.052 2.48912 17.9827 2.31405C16.9134 2.13899 15.8162 2.32105 14.8607 2.8321C13.9053 3.34314 13.1448 4.15471 12.6968 5.14131C12.2489 6.12792 12.1384 7.23462 12.3825 8.2903C10.4255 8.19209 8.51092 7.6837 6.76297 6.7981C5.01502 5.91249 3.47268 4.66944 2.23596 3.14952C1.60739 4.23324 1.41504 5.51565 1.69802 6.73609C1.98099 7.95654 2.71805 9.02345 3.75939 9.71999C2.97762 9.69517 2.21296 9.48468 1.52861 9.10592V9.16686C1.52791 10.3041 1.92109 11.4066 2.6413 12.2868C3.36151 13.167 4.36431 13.7706 5.47924 13.995C4.75504 14.1931 3.99497 14.222 3.25783 14.0794C3.57244 15.0574 4.18456 15.9129 5.00876 16.5263C5.83296 17.1398 6.82811 17.4806 7.85533 17.5012C6.11141 18.8711 3.95716 19.6141 1.73955 19.6106C1.34628 19.61 0.953387 19.5859 0.562988 19.5384C2.81584 20.9837 5.43652 21.7514 8.11314 21.75Z" fill="#000E2B"/>
</g>
<defs>
<clipPath id="clip0_3637_59524">
<rect width="24" height="24" fill="white" transform="translate(0.562988)"/>
</clipPath>
</defs>
</svg>
