<svg width="51" height="30" viewBox="0 0 51 30" fill="none" xmlns="http://www.w3.org/2000/svg">
<g clip-path="url(#clip0_4500_38279)">
<rect x="0.664062" width="50" height="30" rx="4" fill="#E8E8E8"/>
<rect x="0.664062" width="50" height="30" fill="white"/>
<path fill-rule="evenodd" clip-rule="evenodd" d="M50.3127 0H0.664062V11.1945L2.35816 7.46078H5.987L6.48512 8.38088V7.46078H10.7252L11.6805 9.45394L12.6142 7.46078H26.1285C26.759 7.46078 27.3028 7.56508 27.7143 7.90113V7.46078H31.4298V7.90113C32.0386 7.56508 32.8423 7.46078 33.7568 7.46078H39.1254L39.6236 8.38088V7.46078H43.5773L44.1644 8.38088V7.46078H48.0339V15.3245H44.1235L43.3607 14.1309V15.3245H38.495L37.9487 14.0451H36.7527L36.2137 15.3245H33.6677C32.6691 15.3245 31.9303 15.095 31.4298 14.8401V15.3245H25.3921V13.5214C25.3921 13.2711 25.3464 13.2293 25.1756 13.2293H24.9807V15.3245H13.3097V14.3186L12.8958 15.3245H10.4436L10.0297 14.358V15.3245H5.31562L4.81509 14.0451H3.62152L3.07527 15.3245H0.664062V30H50.3127V24.6575C49.7906 24.8846 49.0325 25.0144 48.2914 25.0144H44.6625V24.5324C44.251 24.8452 43.4906 25.0144 42.7952 25.0144H31.3889V23.2113C31.3889 22.9564 31.3432 22.9564 31.1266 22.9564H30.9317V25.0144H27.1753V22.8753C26.5424 23.1673 25.847 23.1673 25.2165 23.1673H24.8026V25.0144H20.2184L19.1331 23.7977L17.9371 25.0144H10.5712V17.1299H18.0695L19.1331 18.3443L20.305 17.1299H25.3464C25.9336 17.1299 26.8913 17.2133 27.3028 17.6096V17.1299H31.8028C32.2552 17.1299 33.1263 17.2133 33.7135 17.6096V17.1299H40.4923V17.6096C40.8821 17.2968 41.5775 17.1299 42.2104 17.1299H45.9885V17.6096C46.4024 17.3385 46.9871 17.1299 47.7499 17.1299H50.3127V0ZM3.23328 11.7585L4.21268 9.53592L5.1632 11.7585H3.23328ZM26.2167 10.8605C26.0002 10.9833 25.8052 10.9833 25.5213 10.9833H23.8055V9.75032H25.5213C25.7643 9.75032 26.0435 9.75032 26.2167 9.83144C26.3924 9.93805 26.479 10.1049 26.479 10.3575C26.479 10.5893 26.3924 10.7956 26.2167 10.8605ZM38.2961 11.7585L37.3384 9.53592L36.3831 11.7585H38.2961ZM15.723 8.57603H13.4441L11.726 12.3955L9.89952 8.57603H7.66157V13.8811L5.27202 8.57603H3.20975L0.711912 14.1986H2.21109L2.73087 12.961H5.66186L6.18405 14.1986H9.03321V9.7951L11.0738 14.1986H12.2674L14.3104 9.7951V14.1986H15.723V8.57603ZM21.4337 13.0444H18.1755V11.9134H21.3904V10.7592H18.1755V9.75338H21.4337V8.57603H16.7629V14.1986H21.4337V13.0444ZM27.3036 8.82865C26.8464 8.57603 26.3483 8.57603 25.6312 8.57603H22.4355V14.1986H23.8047V12.1637H25.3039C25.8044 12.1637 26.1293 12.2054 26.3483 12.3955C26.5889 12.6875 26.5432 13.1696 26.5432 13.4848V14.1986H27.9774V13.0861C27.9774 12.6041 27.9317 12.3514 27.7151 12.0803C27.5876 11.9134 27.3469 11.7234 27.0413 11.5982C27.4336 11.429 28.0424 10.9864 28.0424 10.108C28.0424 9.45904 27.7584 9.10213 27.3036 8.82865ZM28.8424 14.1986H30.255V8.57603H28.8424V14.1986ZM46.79 14.1986H44.7927L42.1625 9.98283V14.1986H39.3374L38.796 12.961H35.8843L35.3404 14.1986H33.7113C33.0375 14.1986 32.1664 14.0502 31.6683 13.5682C31.211 13.0861 30.9487 12.4349 30.9487 11.429C30.9752 10.5924 31.0835 9.8345 31.7116 9.22728C32.1231 8.78693 32.8859 8.57603 33.8412 8.57603H35.1647V9.7951H33.8412C33.3407 9.7951 33.0375 9.87853 32.7535 10.108C32.4961 10.3606 32.3878 10.7986 32.3878 11.3873C32.3878 11.9968 32.4961 12.4349 32.7535 12.7269C32.9485 12.9169 33.3407 13.0027 33.7113 13.0027H34.3394L36.3391 8.57603H38.4062L40.75 13.8811V8.57603H42.9013L45.3558 12.4789V8.57603H46.79V14.1986ZM16.6366 22.7267H13.181V21.5957H16.2684V20.4624H13.181V19.4357H16.6775L18.2224 21.072L16.6366 22.7267ZM20.0264 21.0733L22.1801 18.8692V23.4002L20.0264 21.0733ZM25.3924 20.8611H23.5419V19.4357H25.3924C25.8929 19.4357 26.2154 19.6235 26.2154 20.1055C26.2154 20.5876 25.8929 20.8611 25.3924 20.8611ZM32.1698 20.5876C31.9532 20.6733 31.7583 20.6733 31.5008 20.6733L29.8043 20.7151V19.4357H31.5008C31.7583 19.4357 31.9989 19.4357 32.1698 19.54C32.3454 19.6235 32.4537 19.7926 32.4537 20.0221C32.4537 20.2747 32.3454 20.4624 32.1698 20.5876ZM25.3927 18.2634H20.936L19.1336 20.1082L17.4395 18.2634H11.811V23.8836H17.3529L19.1336 22.0388L20.8518 23.8836H23.5421V21.9948H25.3036C26.4996 21.9948 27.7148 21.6819 27.7148 20.1082C27.7148 18.5786 26.4779 18.2634 25.3927 18.2634ZM33.3037 18.5369C32.8441 18.3051 32.305 18.2634 31.5855 18.2634H28.3922V23.8836H29.8048V21.8279H31.304C31.8045 21.8279 32.086 21.8719 32.305 22.0805C32.5408 22.3517 32.5408 22.8338 32.5408 23.2138V23.8836H33.9317V22.792C33.9317 22.2868 33.8908 22.0388 33.7152 21.7653C33.5852 21.5985 33.3446 21.3876 32.9981 21.2833C33.3903 21.1581 33.9991 20.6761 33.9991 19.7954C33.9991 19.1441 33.7585 18.7872 33.3037 18.5369ZM39.4478 22.7295H36.1679V21.5985H39.3829V20.4651H36.1679V19.4384H39.4478V18.2634H34.8011V23.8836H39.4478V22.7295ZM44.7939 20.9055C44.445 20.6343 43.9445 20.4651 43.1624 20.4651H42.4044C42.2094 20.4651 42.0362 20.4234 41.8605 20.3817C41.7089 20.3191 41.5766 20.1917 41.5766 19.9831C41.5766 19.7954 41.6223 19.6679 41.7931 19.5427C41.9014 19.4593 42.0771 19.4593 42.3394 19.4593H44.9022V18.2634H42.1228C40.6236 18.2634 40.1231 19.1441 40.1231 19.9414C40.1231 21.7236 41.7498 21.6402 43.0348 21.6819C43.2923 21.6819 43.4463 21.7236 43.5354 21.8047C43.622 21.8719 43.7062 22.0388 43.7062 22.2057C43.7062 22.3517 43.622 22.4768 43.5354 22.5626C43.4006 22.646 43.249 22.6877 42.9891 22.6877H40.294V23.8836H42.9891C44.4017 23.8836 45.2054 23.3181 45.2054 22.1222C45.2054 21.5567 45.0346 21.1998 44.7939 20.9055ZM50.6641 22.1222C50.6641 23.3181 49.8579 23.8836 48.4478 23.8836H45.7502V22.6877H48.4478C48.7053 22.6877 48.9002 22.646 48.9868 22.5626C49.0734 22.4768 49.1601 22.3517 49.1601 22.2057C49.1601 22.0388 49.0734 21.8719 48.9868 21.8047C48.9002 21.7236 48.751 21.6819 48.4887 21.6819C47.2061 21.6402 45.577 21.7236 45.577 19.9414C45.577 19.1441 46.1208 18.2634 47.5743 18.2634H50.3585V19.4593H47.7932C47.5333 19.4593 47.3577 19.4593 47.2518 19.5427C47.1219 19.6679 47.0328 19.7954 47.0328 19.9831C47.0328 20.1917 47.1628 20.3191 47.3168 20.3817C47.4876 20.4234 47.6633 20.4651 47.8582 20.4651H48.6186C49.4007 20.4651 49.8988 20.6343 50.2502 20.9055C50.486 21.1998 50.6641 21.5567 50.6641 22.1222Z" fill="#0078A9"/>
</g>
<defs>
<clipPath id="clip0_4500_38279">
<rect x="0.664062" width="50" height="30" rx="4" fill="white"/>
</clipPath>
</defs>
</svg>
