<svg width="50" height="30" viewBox="0 0 50 30" fill="none" xmlns="http://www.w3.org/2000/svg">
<rect x="0.1" y="0.1" width="49.8" height="29.8" rx="3.9" fill="white"/>
<path d="M9.24858 16.7965V15.9091H13.4297V16.7965H11.8711V21H10.8072V16.7965H9.24858ZM14.1183 21V15.9091H16.1268C16.5112 15.9091 16.8394 15.9779 17.1112 16.1154C17.3846 16.2513 17.5926 16.4444 17.7351 16.6946C17.8793 16.9432 17.9513 17.2357 17.9513 17.5721C17.9513 17.9102 17.8784 18.201 17.7326 18.4446C17.5868 18.6866 17.3755 18.8722 17.0987 19.0014C16.8236 19.1307 16.4905 19.1953 16.0994 19.1953H14.7546V18.3303H15.9254C16.1309 18.3303 16.3016 18.3021 16.4375 18.2457C16.5734 18.1894 16.6745 18.1049 16.7408 17.9922C16.8087 17.8795 16.8427 17.7395 16.8427 17.5721C16.8427 17.4031 16.8087 17.2605 16.7408 17.1445C16.6745 17.0285 16.5726 16.9407 16.435 16.881C16.2991 16.8197 16.1276 16.7891 15.9205 16.7891H15.1946V21H14.1183ZM16.8675 18.6832L18.1328 21H16.9446L15.7067 18.6832H16.8675ZM19.5895 21H18.4361L20.1935 15.9091H21.5806L23.3356 21H22.1822L20.907 17.0724H20.8672L19.5895 21ZM19.5174 18.9989H22.2418V19.8391H19.5174V18.9989ZM28.2065 15.9091V21H27.2768L25.062 17.7958H25.0247V21H23.9483V15.9091H24.8929L27.0904 19.1108H27.1351V15.9091H28.2065ZM29.0958 21V15.9091H32.4665V16.7965H30.1721V18.0096H32.2428V18.897H30.1721V21H29.0958ZM33.1905 21V15.9091H36.6209V16.7965H34.2669V18.0096H36.4444V18.897H34.2669V20.1126H36.6309V21H33.1905ZM37.4767 21V15.9091H39.4852C39.8696 15.9091 40.1978 15.9779 40.4695 16.1154C40.743 16.2513 40.951 16.4444 41.0935 16.6946C41.2377 16.9432 41.3097 17.2357 41.3097 17.5721C41.3097 17.9102 41.2368 18.201 41.091 18.4446C40.9452 18.6866 40.7339 18.8722 40.4571 19.0014C40.182 19.1307 39.8489 19.1953 39.4578 19.1953H38.113V18.3303H39.2838C39.4893 18.3303 39.66 18.3021 39.7959 18.2457C39.9318 18.1894 40.0329 18.1049 40.0992 17.9922C40.1671 17.8795 40.2011 17.7395 40.2011 17.5721C40.2011 17.4031 40.1671 17.2605 40.0992 17.1445C40.0329 17.0285 39.931 16.9407 39.7934 16.881C39.6575 16.8197 39.486 16.7891 39.2789 16.7891H38.553V21H37.4767ZM40.2259 18.6832L41.4912 21H40.303L39.0651 18.6832H40.2259Z" fill="#000E2B"/>
<path d="M17.4425 14V8.90909H19.4808C19.8554 8.90909 20.1677 8.96461 20.418 9.07564C20.6682 9.18667 20.8563 9.34079 20.9822 9.538C21.1082 9.73355 21.1712 9.95893 21.1712 10.2141C21.1712 10.413 21.1314 10.5878 21.0518 10.7386C20.9723 10.8878 20.8629 11.0104 20.7237 11.1065C20.5862 11.201 20.4287 11.2681 20.2514 11.3079V11.3576C20.4453 11.3659 20.6268 11.4206 20.7958 11.5217C20.9665 11.6228 21.1049 11.7644 21.2109 11.9467C21.317 12.1274 21.37 12.3428 21.37 12.593C21.37 12.8632 21.3029 13.1043 21.1687 13.3164C21.0361 13.5269 20.8397 13.6934 20.5795 13.8161C20.3194 13.9387 19.9987 14 19.6175 14H17.4425ZM18.5188 13.12H19.3963C19.6963 13.12 19.915 13.0629 20.0526 12.9485C20.1901 12.8325 20.2589 12.6784 20.2589 12.4862C20.2589 12.3453 20.2249 12.221 20.157 12.1133C20.089 12.0056 19.9921 11.921 19.8661 11.8597C19.7418 11.7984 19.5935 11.7678 19.4212 11.7678H18.5188V13.12ZM18.5188 11.0394H19.3168C19.4643 11.0394 19.5952 11.0137 19.7095 10.9624C19.8255 10.9093 19.9167 10.8348 19.983 10.7386C20.0509 10.6425 20.0849 10.5273 20.0849 10.3931C20.0849 10.2092 20.0194 10.0608 19.8885 9.94815C19.7592 9.83546 19.5753 9.77912 19.3366 9.77912H18.5188V11.0394ZM22.9479 14H21.7945L23.5519 8.90909H24.939L26.694 14H25.5406L24.2654 10.0724H24.2256L22.9479 14ZM22.8758 11.9989H25.6002V12.8391H22.8758V11.9989ZM31.5649 8.90909V14H30.6352L28.4204 10.7958H28.3831V14H27.3067V8.90909H28.2513L30.4488 12.1108H30.4935V8.90909H31.5649ZM32.4542 14V8.90909H33.5305V11.1538H33.5977L35.4297 8.90909H36.7198L34.8306 11.1886L36.7422 14H35.4545L34.06 11.907L33.5305 12.5533V14H32.4542Z" fill="#0051FF"/>
<path d="M12.9507 13.3257C12.7164 13.5601 12.7164 13.9399 12.9507 14.1743C13.1851 14.4086 13.5649 14.4086 13.7993 14.1743L12.9507 13.3257ZM15.625 11.5L16.0493 11.9243C16.2836 11.6899 16.2836 11.3101 16.0493 11.0757L15.625 11.5ZM13.7993 8.82574C13.5649 8.59142 13.1851 8.59142 12.9507 8.82574C12.7164 9.06005 12.7164 9.43995 12.9507 9.67426L13.7993 8.82574ZM13.7993 14.1743L16.0493 11.9243L15.2007 11.0757L12.9507 13.3257L13.7993 14.1743ZM16.0493 11.0757L13.7993 8.82574L12.9507 9.67426L15.2007 11.9243L16.0493 11.0757Z" fill="#0051FF"/>
<path d="M9.95074 13.3257C9.71642 13.5601 9.71642 13.9399 9.95074 14.1743C10.1851 14.4086 10.5649 14.4086 10.7993 14.1743L9.95074 13.3257ZM12.625 11.5L13.0493 11.9243C13.2836 11.6899 13.2836 11.3101 13.0493 11.0757L12.625 11.5ZM10.7993 8.82574C10.5649 8.59142 10.1851 8.59142 9.95074 8.82574C9.71642 9.06005 9.71642 9.43995 9.95074 9.67426L10.7993 8.82574ZM10.7993 14.1743L13.0493 11.9243L12.2007 11.0757L9.95074 13.3257L10.7993 14.1743ZM13.0493 11.0757L10.7993 8.82574L9.95074 9.67426L12.2007 11.9243L13.0493 11.0757Z" fill="#0051FF"/>
<rect x="0.1" y="0.1" width="49.8" height="29.8" rx="3.9" stroke="black" stroke-width="0.2"/>
</svg>
