<svg width="51" height="31" viewBox="0 0 51 31" fill="none" xmlns="http://www.w3.org/2000/svg">
<rect x="0.85" y="0.353906" width="49.8" height="29.8" rx="3.9" fill="white"/>
<path d="M11.294 4.25391H9.12226C8.91677 4.25391 8.75 4.39835 8.75 4.57632V25.9315C8.75 26.1095 8.91677 26.2539 9.12226 26.2539H11.294C11.4995 26.2539 11.6663 26.1095 11.6663 25.9315V4.57632C11.6663 4.39835 11.4995 4.25391 11.294 4.25391Z" fill="black"/>
<path d="M31.8457 4.25391H30.2941C30.0883 4.25391 29.9219 4.39835 29.9219 4.57632V25.9315C29.9219 26.1095 30.0883 26.2539 30.2941 26.2539H31.8457C32.0516 26.2539 32.218 26.1095 32.218 25.9315V4.57632C32.218 4.39835 32.0516 4.25391 31.8457 4.25391Z" fill="black"/>
<path d="M15.08 4.25391H13.591C13.3855 4.25391 13.2188 4.39835 13.2188 4.57632V25.9315C13.2188 26.1095 13.3855 26.2539 13.591 26.2539H15.08C15.2855 26.2539 15.4523 26.1095 15.4523 25.9315V4.57632C15.4523 4.39835 15.2855 4.25391 15.08 4.25391Z" fill="black"/>
<path d="M42.3769 4.25391H40.8879C40.6824 4.25391 40.5156 4.39835 40.5156 4.57632V25.9315C40.5156 26.1095 40.6824 26.2539 40.8879 26.2539H42.3769C42.5828 26.2539 42.7492 26.1095 42.7492 25.9315V4.57632C42.7492 4.39835 42.5828 4.25391 42.3769 4.25391Z" fill="black"/>
<path d="M38.9488 4.25391H37.9348C37.7289 4.25391 37.5625 4.39835 37.5625 4.57632V25.9315C37.5625 26.1095 37.7289 26.2539 37.9348 26.2539H38.9488C39.1543 26.2539 39.321 26.1095 39.321 25.9315V4.57632C39.321 4.39835 39.1543 4.25391 38.9488 4.25391Z" fill="black"/>
<path d="M28.0566 4.25391H26.5676C26.3617 4.25391 26.1953 4.39835 26.1953 4.57632V25.9315C26.1953 26.1095 26.3617 26.2539 26.5676 26.2539H28.0566C28.2621 26.2539 28.4289 26.1095 28.4289 25.9315V4.57632C28.4289 4.39835 28.2621 4.25391 28.0566 4.25391Z" fill="black"/>
<path d="M24.4435 4.25391H23.5129C23.3074 4.25391 23.1406 4.39835 23.1406 4.57632V25.9315C23.1406 26.1095 23.3074 26.2539 23.5129 26.2539H24.4435C24.649 26.2539 24.8158 26.1095 24.8158 25.9315V4.57632C24.8158 4.39835 24.649 4.25391 24.4435 4.25391Z" fill="black"/>
<path d="M36.1107 4.25391H35.5363C35.3305 4.25391 35.1641 4.39835 35.1641 4.57632V25.9315C35.1641 26.1095 35.3305 26.2539 35.5363 26.2539H36.1107C36.3162 26.2539 36.483 26.1095 36.483 25.9315V4.57632C36.483 4.39835 36.3166 4.25391 36.1107 4.25391Z" fill="black"/>
<path d="M21.2832 4.25391H19.7941C19.5886 4.25391 19.4219 4.39835 19.4219 4.57632V25.9315C19.4219 26.1095 19.5886 26.2539 19.7941 26.2539H21.2832C21.4887 26.2539 21.6554 26.1095 21.6554 25.9315V4.57632C21.6554 4.39835 21.4887 4.25391 21.2832 4.25391Z" fill="black"/>
<path d="M17.557 4.25391H17.1848C16.9793 4.25391 16.8125 4.39835 16.8125 4.57632V25.9315C16.8125 26.1095 16.9793 26.2539 17.1848 26.2539H17.557C17.7625 26.2539 17.9293 26.1095 17.9293 25.9315V4.57632C17.9293 4.39835 17.7625 4.25391 17.557 4.25391Z" fill="black"/>
<path d="M33.773 4.25391H33.6379C33.4328 4.25391 33.2656 4.39835 33.2656 4.57632V25.9315C33.2656 26.1095 33.4328 26.2539 33.6379 26.2539H33.773C33.9781 26.2539 34.1453 26.1095 34.1453 25.9315V4.57632C34.1453 4.39835 33.9778 4.25391 33.773 4.25391Z" fill="black"/>
<rect x="0.85" y="0.353906" width="49.8" height="29.8" rx="3.9" stroke="black" stroke-width="0.2"/>
</svg>
