<svg width="50" height="30" viewBox="0 0 50 30" fill="none" xmlns="http://www.w3.org/2000/svg">
<rect x="0.1" y="0.1" width="49.8" height="29.8" rx="3.9" fill="white"/>
<path d="M10.544 4H8.37226C8.16677 4 8 4.14444 8 4.32241V25.6776C8 25.8556 8.16677 26 8.37226 26H10.544C10.7495 26 10.9163 25.8556 10.9163 25.6776V4.32241C10.9163 4.14444 10.7495 4 10.544 4Z" fill="black"/>
<path d="M31.0957 4H29.5441C29.3383 4 29.1719 4.14444 29.1719 4.32241V25.6776C29.1719 25.8556 29.3383 26 29.5441 26H31.0957C31.3016 26 31.468 25.8556 31.468 25.6776V4.32241C31.468 4.14444 31.3016 4 31.0957 4Z" fill="black"/>
<path d="M14.33 4H12.841C12.6355 4 12.4688 4.14444 12.4688 4.32241V25.6776C12.4688 25.8556 12.6355 26 12.841 26H14.33C14.5355 26 14.7023 25.8556 14.7023 25.6776V4.32241C14.7023 4.14444 14.5355 4 14.33 4Z" fill="black"/>
<path d="M41.6269 4H40.1379C39.9324 4 39.7656 4.14444 39.7656 4.32241V25.6776C39.7656 25.8556 39.9324 26 40.1379 26H41.6269C41.8328 26 41.9992 25.8556 41.9992 25.6776V4.32241C41.9992 4.14444 41.8328 4 41.6269 4Z" fill="black"/>
<path d="M38.1988 4H37.1848C36.9789 4 36.8125 4.14444 36.8125 4.32241V25.6776C36.8125 25.8556 36.9789 26 37.1848 26H38.1988C38.4043 26 38.571 25.8556 38.571 25.6776V4.32241C38.571 4.14444 38.4043 4 38.1988 4Z" fill="black"/>
<path d="M27.3066 4H25.8176C25.6117 4 25.4453 4.14444 25.4453 4.32241V25.6776C25.4453 25.8556 25.6117 26 25.8176 26H27.3066C27.5121 26 27.6789 25.8556 27.6789 25.6776V4.32241C27.6789 4.14444 27.5121 4 27.3066 4Z" fill="black"/>
<path d="M23.6935 4H22.7629C22.5574 4 22.3906 4.14444 22.3906 4.32241V25.6776C22.3906 25.8556 22.5574 26 22.7629 26H23.6935C23.899 26 24.0658 25.8556 24.0658 25.6776V4.32241C24.0658 4.14444 23.899 4 23.6935 4Z" fill="black"/>
<path d="M35.3607 4H34.7863C34.5805 4 34.4141 4.14444 34.4141 4.32241V25.6776C34.4141 25.8556 34.5805 26 34.7863 26H35.3607C35.5662 26 35.733 25.8556 35.733 25.6776V4.32241C35.733 4.14444 35.5666 4 35.3607 4Z" fill="black"/>
<path d="M20.5332 4H19.0441C18.8386 4 18.6719 4.14444 18.6719 4.32241V25.6776C18.6719 25.8556 18.8386 26 19.0441 26H20.5332C20.7387 26 20.9054 25.8556 20.9054 25.6776V4.32241C20.9054 4.14444 20.7387 4 20.5332 4Z" fill="black"/>
<path d="M16.807 4H16.4348C16.2293 4 16.0625 4.14444 16.0625 4.32241V25.6776C16.0625 25.8556 16.2293 26 16.4348 26H16.807C17.0125 26 17.1793 25.8556 17.1793 25.6776V4.32241C17.1793 4.14444 17.0125 4 16.807 4Z" fill="black"/>
<path d="M33.023 4H32.8879C32.6828 4 32.5156 4.14444 32.5156 4.32241V25.6776C32.5156 25.8556 32.6828 26 32.8879 26H33.023C33.2281 26 33.3953 25.8556 33.3953 25.6776V4.32241C33.3953 4.14444 33.2278 4 33.023 4Z" fill="black"/>
<rect x="3" y="10" width="44" height="11" rx="4" fill="white"/>
<path fill-rule="evenodd" clip-rule="evenodd" d="M11.2344 13.1426V18.0121H13.143V17.1834H12.1385V15.9159H13.0425V15.1359H12.1385V13.9713H13.143V13.1426H11.2344ZM16.5326 15.4284C16.9455 15.2009 17.2023 14.8271 17.2023 14.383C17.2023 13.6626 16.6721 13.1426 15.6787 13.1426H13.8594V18.0121H15.7122C16.7781 18.0121 17.3753 17.3513 17.3753 16.5496C17.3697 16.0405 17.0906 15.6505 16.5326 15.4284ZM15.5001 13.9713C16.0694 13.9713 16.3205 14.1988 16.3205 14.5346C16.3205 14.8976 15.9912 15.1413 15.4164 15.1413H14.7635V13.9713H15.5001ZM15.4778 17.1834H14.7635V15.9159H15.4778C16.1642 15.9159 16.4433 16.1488 16.4433 16.5171C16.4433 16.8855 16.1642 17.1834 15.4778 17.1834ZM35.5949 15.6396L39.5684 18.0663H37.8774L34.6964 16.1217L31.6716 18.0663H30.1257L33.9039 15.6396L31.5321 14.188C31.3423 14.0742 31.1582 13.9767 30.9294 13.9767C30.5555 13.9767 30.2374 14.2151 30.2374 14.6971V16.7771C30.2374 17.66 29.8132 18.115 29.0431 18.115C28.5743 18.115 28.1781 17.9038 27.7986 17.4975L24.6622 14.1122C24.5561 14.0038 24.478 13.9713 24.3887 13.9713C24.2325 13.9713 24.1097 14.0688 24.1097 14.2801V17.0425C24.1097 17.7955 23.6632 18.115 23.0828 18.115C22.5973 18.115 22.2848 17.8984 21.989 17.5192L21.5425 16.945H18.9921V18.0609H18.0936V14.2909C18.0936 13.5434 18.501 13.1426 19.1595 13.1426C19.539 13.1426 19.8683 13.3213 20.2143 13.7655L22.8652 17.1834C22.921 17.2538 22.9824 17.2863 23.0438 17.2863C23.1386 17.2863 23.2112 17.2159 23.2112 17.0859V14.3884C23.2112 13.5597 23.7358 13.148 24.3664 13.148C24.8017 13.148 25.1812 13.3647 25.4658 13.6734L28.6413 17.0967C28.7752 17.2375 28.898 17.2917 29.0096 17.2917C29.1938 17.2917 29.3333 17.1563 29.3333 16.9288V14.7838C29.3333 13.6734 29.9806 13.148 30.9405 13.148C31.3256 13.148 31.7442 13.2834 32.1348 13.5217L34.8024 15.1521L37.8495 13.1967H39.3954L35.5949 15.6396ZM18.9921 14.1663V16.1651H20.9342L19.3102 14.0742C19.26 14.0038 19.2098 13.9767 19.1428 13.9767C19.0647 13.9767 18.9921 14.0309 18.9921 14.1663Z" fill="#0051FF"/>
<rect x="0.1" y="0.1" width="49.8" height="29.8" rx="3.9" stroke="black" stroke-width="0.2"/>
</svg>
