<svg width="51" height="30" viewBox="0 0 51 30" fill="none" xmlns="http://www.w3.org/2000/svg">
<rect x="0.428125" y="0.1" width="49.8" height="29.8" rx="3.9" fill="white"/>
<path d="M10.8721 4H8.70038C8.4949 4 8.32812 4.14444 8.32812 4.32241V25.6776C8.32812 25.8556 8.4949 26 8.70038 26H10.8721C11.0776 26 11.2444 25.8556 11.2444 25.6776V4.32241C11.2444 4.14444 11.0776 4 10.8721 4Z" fill="black"/>
<path d="M31.4238 4H29.8723C29.6664 4 29.5 4.14444 29.5 4.32241V25.6776C29.5 25.8556 29.6664 26 29.8723 26H31.4238C31.6297 26 31.7961 25.8556 31.7961 25.6776V4.32241C31.7961 4.14444 31.6297 4 31.4238 4Z" fill="black"/>
<path d="M14.6582 4H13.1691C12.9636 4 12.7969 4.14444 12.7969 4.32241V25.6776C12.7969 25.8556 12.9636 26 13.1691 26H14.6582C14.8637 26 15.0304 25.8556 15.0304 25.6776V4.32241C15.0304 4.14444 14.8637 4 14.6582 4Z" fill="black"/>
<path d="M41.955 4H40.466C40.2605 4 40.0938 4.14444 40.0938 4.32241V25.6776C40.0938 25.8556 40.2605 26 40.466 26H41.955C42.1609 26 42.3273 25.8556 42.3273 25.6776V4.32241C42.3273 4.14444 42.1609 4 41.955 4Z" fill="black"/>
<path d="M38.5269 4H37.5129C37.307 4 37.1406 4.14444 37.1406 4.32241V25.6776C37.1406 25.8556 37.307 26 37.5129 26H38.5269C38.7324 26 38.8992 25.8556 38.8992 25.6776V4.32241C38.8992 4.14444 38.7324 4 38.5269 4Z" fill="black"/>
<path d="M27.6347 4H26.1457C25.9398 4 25.7734 4.14444 25.7734 4.32241V25.6776C25.7734 25.8556 25.9398 26 26.1457 26H27.6347C27.8402 26 28.007 25.8556 28.007 25.6776V4.32241C28.007 4.14444 27.8402 4 27.6347 4Z" fill="black"/>
<path d="M24.0217 4H23.091C22.8855 4 22.7188 4.14444 22.7188 4.32241V25.6776C22.7188 25.8556 22.8855 26 23.091 26H24.0217C24.2271 26 24.3939 25.8556 24.3939 25.6776V4.32241C24.3939 4.14444 24.2271 4 24.0217 4Z" fill="black"/>
<path d="M35.6888 4H35.1144C34.9086 4 34.7422 4.14444 34.7422 4.32241V25.6776C34.7422 25.8556 34.9086 26 35.1144 26H35.6888C35.8943 26 36.0611 25.8556 36.0611 25.6776V4.32241C36.0611 4.14444 35.8947 4 35.6888 4Z" fill="black"/>
<path d="M20.8613 4H19.3723C19.1668 4 19 4.14444 19 4.32241V25.6776C19 25.8556 19.1668 26 19.3723 26H20.8613C21.0668 26 21.2335 25.8556 21.2335 25.6776V4.32241C21.2335 4.14444 21.0668 4 20.8613 4Z" fill="black"/>
<path d="M17.1351 4H16.7629C16.5574 4 16.3906 4.14444 16.3906 4.32241V25.6776C16.3906 25.8556 16.5574 26 16.7629 26H17.1351C17.3406 26 17.5074 25.8556 17.5074 25.6776V4.32241C17.5074 4.14444 17.3406 4 17.1351 4Z" fill="black"/>
<path d="M33.3511 4H33.216C33.0109 4 32.8438 4.14444 32.8438 4.32241V25.6776C32.8438 25.8556 33.0109 26 33.216 26H33.3511C33.5563 26 33.7234 25.8556 33.7234 25.6776V4.32241C33.7234 4.14444 33.5559 4 33.3511 4Z" fill="black"/>
<rect x="3.32812" y="10" width="44" height="11" rx="4" fill="white"/>
<path d="M11.8469 12.9091V18H10.7706V12.9091H11.8469ZM16.9907 12.9091V18H16.061L13.8461 14.7958H13.8089V18H12.7325V12.9091H13.6771L15.8746 16.1108H15.9193V12.9091H16.9907ZM20.6417 14.3732C20.6218 14.1727 20.5365 14.0169 20.3857 13.9059C20.2348 13.7949 20.0302 13.7393 19.7717 13.7393C19.596 13.7393 19.4477 13.7642 19.3267 13.8139C19.2057 13.862 19.1129 13.9291 19.0483 14.0153C18.9853 14.1014 18.9538 14.1992 18.9538 14.3086C18.9505 14.3997 18.9696 14.4793 19.011 14.5472C19.0541 14.6152 19.1129 14.674 19.1875 14.7237C19.2621 14.7718 19.3482 14.814 19.446 14.8505C19.5438 14.8853 19.6482 14.9151 19.7592 14.94L20.2166 15.0494C20.4387 15.0991 20.6425 15.1654 20.8281 15.2482C21.0137 15.3311 21.1745 15.433 21.3104 15.554C21.4463 15.675 21.5515 15.8175 21.6261 15.9815C21.7023 16.1456 21.7412 16.3337 21.7429 16.5458C21.7412 16.8574 21.6617 17.1275 21.5043 17.3562C21.3485 17.5832 21.1231 17.7597 20.8281 17.8857C20.5348 18.0099 20.181 18.0721 19.7667 18.0721C19.3557 18.0721 18.9978 18.0091 18.6928 17.8832C18.3896 17.7572 18.1526 17.5708 17.9819 17.3239C17.8129 17.0753 17.7242 16.7679 17.7159 16.4016H18.7575C18.7691 16.5723 18.8179 16.7148 18.9041 16.8292C18.992 16.9419 19.1088 17.0272 19.2546 17.0852C19.4021 17.1416 19.5687 17.1697 19.7543 17.1697C19.9366 17.1697 20.0948 17.1432 20.229 17.0902C20.3649 17.0372 20.4702 16.9634 20.5447 16.869C20.6193 16.7745 20.6566 16.666 20.6566 16.5433C20.6566 16.429 20.6226 16.3329 20.5547 16.255C20.4884 16.1771 20.3906 16.1108 20.2614 16.0561C20.1338 16.0014 19.9772 15.9517 19.7915 15.907L19.2372 15.7678C18.808 15.6634 18.4691 15.5001 18.2205 15.2781C17.9719 15.056 17.8485 14.7569 17.8501 14.3807C17.8485 14.0724 17.9305 13.8031 18.0962 13.5728C18.2636 13.3424 18.4931 13.1626 18.7848 13.0334C19.0765 12.9041 19.4079 12.8395 19.7791 12.8395C20.157 12.8395 20.4867 12.9041 20.7685 13.0334C21.0518 13.1626 21.2723 13.3424 21.4297 13.5728C21.5871 13.8031 21.6683 14.07 21.6733 14.3732H20.6417ZM22.273 13.7965V12.9091H26.4541V13.7965H24.8955V18H23.8316V13.7965H22.273ZM27.3981 18H26.2447L28.0021 12.9091H29.3892L31.1442 18H29.9908L28.7156 14.0724H28.6758L27.3981 18ZM27.326 15.9989H30.0504V16.8391H27.326V15.9989ZM36.0151 12.9091V18H35.0854L32.8706 14.7958H32.8333V18H31.7569V12.9091H32.7015L34.899 16.1108H34.9437V12.9091H36.0151ZM36.7105 13.7965V12.9091H40.8916V13.7965H39.333V18H38.2691V13.7965H36.7105Z" fill="#0051FF"/>
<rect x="0.428125" y="0.1" width="49.8" height="29.8" rx="3.9" stroke="black" stroke-width="0.2"/>
</svg>
