<svg width="51" height="31" viewBox="0 0 51 31" fill="none" xmlns="http://www.w3.org/2000/svg">
<g clip-path="url(#clip0_4314_72566)">
<path d="M0.414062 0.253906H50.4141V30.2539H0.414062V0.253906Z" fill="#01528B"/>
<path fill-rule="evenodd" clip-rule="evenodd" d="M11.1856 10.2539L6.60264 14.5479C6.54312 14.6037 6.49567 14.671 6.46324 14.7458C6.4308 14.8207 6.41406 14.9014 6.41406 14.9829C6.41406 15.0645 6.4308 15.1451 6.46324 15.22C6.49567 15.2948 6.54312 15.3622 6.60264 15.4179L11.1856 19.7119V17.3139L9.03364 15.2589C8.99214 15.221 8.95882 15.175 8.93576 15.1237C8.91269 15.0725 8.90035 15.0171 8.89951 14.9609C8.89867 14.9046 8.90933 14.8489 8.93085 14.7969C8.95237 14.745 8.98429 14.698 9.02464 14.6589L9.03464 14.6489L11.1856 12.5949V10.2539ZM12.0296 10.2539L16.6056 14.5479C16.8576 14.7779 16.8656 15.1599 16.6236 15.3999L16.6056 15.4179L12.0296 19.7119V17.3139L14.1816 15.2589C14.2226 15.2194 14.2552 15.172 14.2774 15.1196C14.2996 15.0672 14.3111 15.0108 14.3111 14.9539C14.3111 14.897 14.2996 14.8406 14.2774 14.7882C14.2552 14.7358 14.2226 14.6885 14.1816 14.6489L12.0296 12.5949V10.2539ZM38.5946 12.0759L40.6606 17.9719H39.3766L38.9536 16.7459H36.5006L36.0706 17.9719H34.7576L36.6296 12.7259C36.6974 12.5433 36.82 12.3861 36.9806 12.2758C37.1412 12.1656 37.3319 12.1076 37.5266 12.1099L38.5946 12.0759ZM38.6456 15.7799L37.7206 12.9929L36.8166 15.7799H38.6466H38.6456ZM42.3806 16.9879V11.9879H41.8206C41.4246 11.9879 41.1036 12.2949 41.1036 12.6729V17.9939H45.1056V16.9879H42.3806ZM21.1416 12.9059H22.9496V12.4809C22.9478 12.4017 22.9304 12.3237 22.8984 12.2512C22.8664 12.1787 22.8205 12.1133 22.7632 12.0586C22.7059 12.0039 22.6384 11.961 22.5645 11.9324C22.4906 11.9038 22.4118 11.89 22.3326 11.8919H21.1426C19.5356 11.8919 18.8396 12.5359 18.8396 13.6039V16.2539C18.8396 17.3229 19.5566 17.9459 21.1416 17.9669H22.8776V17.5209C22.8737 17.3624 22.8075 17.2118 22.6933 17.1017C22.5791 16.9917 22.4262 16.931 22.2676 16.9329H21.1416C20.3596 16.9329 20.0946 16.6449 20.0946 16.0429V13.7959C20.0946 13.1929 20.3596 12.9259 21.1416 12.9059ZM33.4916 14.8969C33.7031 14.8462 33.8904 14.7235 34.0212 14.5498C34.1521 14.376 34.2183 14.1622 34.2086 13.9449V13.3289C34.2086 12.5339 33.7066 12.0759 32.4506 12.0759H29.9056V17.9719H32.6956C33.8996 17.9719 34.5026 17.4449 34.5026 16.6019V15.9719C34.5156 15.4149 34.0726 14.9439 33.4916 14.8969ZM31.1366 12.9929H32.3416C32.8016 12.9929 33.0016 13.1429 33.0016 13.4729V13.9929C33.0016 14.3419 32.8216 14.5409 32.3346 14.5409H31.1366V12.9929ZM33.2236 16.4719C33.2236 16.9099 32.9876 17.0469 32.4206 17.0469H31.1366V15.4639H32.5286C33.0306 15.4639 33.2456 15.6559 33.2456 16.0599L33.2236 16.4699V16.4719ZM27.2636 12.0759L29.3526 17.9719H28.0396L27.6236 16.7459H25.1636L24.7396 17.9719H23.4496L25.3786 12.5279C25.4304 12.3965 25.52 12.2835 25.6361 12.203C25.7521 12.1226 25.8894 12.0783 26.0306 12.0759H27.2646H27.2636ZM27.3136 15.7799L26.3886 12.9929L25.4846 15.7799H27.3136Z" fill="white"/>
</g>
<defs>
<clipPath id="clip0_4314_72566">
<rect x="0.414062" y="0.253906" width="50" height="30" rx="4" fill="white"/>
</clipPath>
</defs>
</svg>
