<svg width="51" height="31" viewBox="0 0 51 31" fill="none" xmlns="http://www.w3.org/2000/svg">
<g clip-path="url(#clip0_4286_77423)">
<path d="M0.75 0.253906H50.75V30.2539H0.75V0.253906Z" fill="#ED1C24"/>
<path d="M25.304 12.1619C31.39 12.1619 36.457 14.4119 37.451 17.3659C37.5764 17.0202 37.642 16.6556 37.645 16.2879C37.645 12.8179 32.117 9.98191 25.28 9.98191C18.467 9.98191 12.914 12.7949 12.914 16.2879C12.914 16.6629 12.987 17.0149 13.108 17.3659C14.151 14.4359 19.194 12.1619 25.304 12.1619ZM25.304 8.43391C31.39 8.43391 36.457 10.6839 37.451 13.6389C37.5763 13.2928 37.6419 12.928 37.645 12.5599C37.645 9.08991 32.117 6.25391 25.28 6.25391C18.467 6.25391 12.914 9.06691 12.914 12.5599C12.914 12.9359 12.987 13.2869 13.108 13.6389C14.151 10.6849 19.194 8.43391 25.304 8.43391ZM30.372 23.5089L27.826 20.3669H26.613V25.0329H27.777V21.9839L30.274 25.0309H31.511V20.3659H30.347L30.371 23.5079L30.372 23.5089ZM11.362 24.0709C11.12 24.2349 10.829 24.3059 10.514 24.3059C10.078 24.3059 9.69 24.1889 9.423 23.9309C9.132 23.6729 9.011 23.2509 9.011 22.6649C9.011 22.1019 9.156 21.7029 9.447 21.4689C9.738 21.2109 10.102 21.0939 10.563 21.0939C10.902 21.0939 11.169 21.1639 11.411 21.3039C11.629 21.4459 11.799 21.6339 11.871 21.8679L13.108 21.6569C12.963 21.2819 12.768 20.9999 12.478 20.7889C12.018 20.4609 11.387 20.2969 10.635 20.2969C9.762 20.2969 9.084 20.5069 8.55 20.9299C8.017 21.3519 7.75 21.9609 7.75 22.7349C7.75 23.4619 8.017 24.0479 8.55 24.4699C9.084 24.8919 9.738 25.1029 10.563 25.1029C11.217 25.1029 11.775 24.9859 12.211 24.7279C12.648 24.4699 12.939 24.0949 13.133 23.5789L11.92 23.2979C11.775 23.6729 11.605 23.9079 11.363 24.0709H11.362ZM38.179 20.3669V21.1639H40.021V25.0329H41.258V21.1639H43.076V20.3669H38.18H38.179ZM34.105 22.9929H37.209V22.1959H34.105V21.1639H37.427V20.3669H32.87V25.0329H37.55V24.2349H34.106V22.9939L34.105 22.9929ZM24.48 23.3679C24.2811 23.2053 24.0607 23.071 23.825 22.9689C24.359 22.8989 24.771 22.7589 25.037 22.5479C25.304 22.3129 25.45 22.0319 25.45 21.6799C25.45 21.3989 25.353 21.1639 25.183 20.9529C24.9991 20.7254 24.7423 20.5682 24.456 20.5079C24.165 20.4139 23.68 20.3909 23.025 20.3909H20.406V25.0559H21.643V23.1099H21.885C22.176 23.1099 22.37 23.1329 22.515 23.1569C22.651 23.1856 22.7768 23.2506 22.879 23.3449C23.001 23.4379 23.219 23.6729 23.534 24.0249L24.431 25.0329H25.934L25.183 24.1179C24.892 23.7659 24.649 23.5079 24.48 23.3679ZM22.564 22.3599H21.643V21.1639H22.613C23.122 21.1639 23.413 21.1639 23.51 21.1879C23.704 21.2109 23.874 21.2809 23.97 21.3749C24.0255 21.4199 24.0698 21.4772 24.0993 21.5423C24.1288 21.6074 24.1427 21.6785 24.14 21.7499C24.1406 21.8774 24.0984 22.0014 24.02 22.1019C23.9342 22.205 23.8129 22.2721 23.68 22.2899C23.534 22.3359 23.17 22.3599 22.564 22.3599ZM15.945 20.3669L13.545 25.0329H14.878L15.388 23.9779H17.861L18.394 25.0329H19.752L17.254 20.3669H15.945ZM15.751 23.1799L16.576 21.4459L17.424 23.1799H15.751Z" fill="white"/>
</g>
<defs>
<clipPath id="clip0_4286_77423">
<rect x="0.75" y="0.253906" width="50" height="30" rx="4" fill="white"/>
</clipPath>
</defs>
</svg>
