<svg width="51" height="31" viewBox="0 0 51 31" fill="none" xmlns="http://www.w3.org/2000/svg">
<g clip-path="url(#clip0_4314_72424)">
<path d="M0.078125 0.253906H50.0781V30.2539H0.078125V0.253906Z" fill="#292567"/>
<path fill-rule="evenodd" clip-rule="evenodd" d="M18.6434 19.7208C18.5714 20.1368 18.5354 20.4828 18.4634 20.8638H13.0764C13.4334 18.5778 13.7894 16.3268 14.1464 14.0068L12.8984 13.8338V13.7988H18.6784C18.6074 14.2138 18.5714 14.6298 18.5004 15.0108H15.5384C15.4674 15.5648 15.3604 16.0848 15.2884 16.6388H17.9284C17.8584 17.0538 17.8224 17.4348 17.7504 17.8508H15.1104C15.0034 18.4738 14.9314 19.0628 14.8244 19.6858H18.6424V19.7208H18.6434Z" fill="white"/>
<path fill-rule="evenodd" clip-rule="evenodd" d="M10.3609 7.49595C10.3259 7.80695 10.2538 8.11895 10.2189 8.46595C9.87746 8.38823 9.53189 8.33014 9.18385 8.29195C8.47086 8.22407 7.7555 8.39464 7.14985 8.77694C6.79618 9.01211 6.54189 9.36968 6.43585 9.78095C6.25785 10.4389 6.32885 11.1669 6.86385 11.5479C7.09726 11.7039 7.36084 11.8091 7.63751 11.8566C7.91419 11.9042 8.19776 11.8931 8.46985 11.8239C8.82685 11.7549 9.14785 11.6169 9.43385 11.4439C9.50385 11.3739 9.64785 11.3399 9.75385 11.3399C9.71885 11.7199 9.64785 12.1359 9.57585 12.5169C8.98427 12.7934 8.33883 12.9355 7.68585 12.9329C6.50785 12.9329 5.47285 12.1709 5.18685 11.0629C5.00884 10.3306 5.11165 9.55816 5.47501 8.89789C5.83838 8.23761 6.43593 7.73743 7.14985 7.49595C8.11999 7.18466 9.15747 7.14866 10.1469 7.39195L10.3609 7.49595Z" fill="#F3D21E"/>
<path fill-rule="evenodd" clip-rule="evenodd" d="M41.3314 20.5529C41.4024 20.1719 41.4384 19.8599 41.4744 19.5129C42.1164 19.6169 42.6874 20.0679 43.3644 19.7559C43.4724 19.4439 43.2584 19.3059 43.1154 19.1669C42.7902 18.9207 42.4803 18.6548 42.1874 18.3709C41.9374 18.1279 41.7594 17.8169 41.7594 17.5049C41.7234 16.8469 42.1874 16.2929 42.8294 16.1199C43.2056 16.0152 43.5993 15.9888 43.9861 16.0423C44.373 16.0958 44.7447 16.228 45.0784 16.4309C45.0784 16.8119 45.0424 17.1589 45.0064 17.5389C44.4364 17.4009 43.9364 16.9509 43.3294 17.2279C43.2224 17.4009 43.2934 17.6079 43.4724 17.7129C43.7224 17.9199 44.0074 18.1279 44.2574 18.3709C44.7924 18.7169 45.0074 19.3749 44.7924 19.9639C44.681 20.2569 44.4868 20.5111 44.2334 20.6956C43.98 20.8801 43.6784 20.9869 43.3654 21.0029C42.659 21.0411 41.9557 20.8855 41.3314 20.5529ZM37.7974 19.4779C38.1544 19.6159 38.5474 19.7199 38.9044 19.8239C39.0464 19.8579 39.2244 19.8939 39.3674 19.8579C39.6894 19.8239 39.7964 19.5809 39.5824 19.3739C39.4744 19.2699 39.4034 19.1659 39.2604 19.0969C38.9714 18.8851 38.6974 18.6535 38.4404 18.4039C37.6194 17.6069 38.0124 16.4639 39.0824 16.1529C39.4643 16.0472 39.8638 16.0204 40.2565 16.074C40.6491 16.1276 41.0268 16.2607 41.3664 16.4649C41.3304 16.8449 41.3304 17.1919 41.2944 17.5729C40.7244 17.4689 40.1884 16.9489 39.5464 17.3299C39.5814 17.5729 39.6894 17.7799 39.9034 17.9199C40.1174 18.0919 40.3664 18.2649 40.5814 18.4729C41.0814 18.8189 41.2944 19.4429 41.1164 19.9969C40.9384 20.5509 40.4024 20.9669 39.7964 21.0359C39.0487 21.1396 38.2874 21.0064 37.6194 20.6549C37.6904 20.2049 37.7264 19.8579 37.7974 19.4779ZM31.1614 16.6369L31.4114 16.3949C31.9814 15.8749 32.4104 15.8409 33.1234 16.3249L32.4454 17.7449C32.3384 17.6409 32.1954 17.5719 32.0894 17.4679C31.9893 17.4002 31.8712 17.364 31.7504 17.364C31.6295 17.364 31.5115 17.4002 31.4114 17.4679C31.0894 17.6419 30.8754 17.9879 30.8044 18.3339C30.6974 19.1649 30.5544 19.9969 30.4114 20.8619H28.9844C29.0564 20.2739 29.1634 19.6849 29.2344 19.1309C29.3774 18.3339 29.4844 17.5029 29.6264 16.7069C29.6264 16.4989 29.5914 16.2909 29.4844 16.1169H31.1254C31.1614 16.2909 31.1614 16.4639 31.1614 16.6369C31.0894 16.6369 31.0894 16.6719 31.1254 16.7069L31.1614 16.6369Z" fill="white"/>
<path fill-rule="evenodd" clip-rule="evenodd" d="M19.3883 12.8289H18.2812C18.3172 12.2049 18.4953 11.5819 18.5312 10.9589C18.5673 10.3349 18.8523 9.78086 18.6743 9.12286H19.8873C19.9943 9.22686 19.8873 9.36486 19.9583 9.53786C20.3863 9.01786 20.8503 8.84586 21.4573 9.29586L20.9573 10.3699C20.9223 10.3699 20.8503 10.3699 20.8503 10.3349C20.5303 10.0929 20.1003 10.1619 19.8513 10.4739C19.7803 10.5769 19.7083 10.7159 19.7083 10.8539L19.3883 12.8289Z" fill="#F3D21E"/>
<path fill-rule="evenodd" clip-rule="evenodd" d="M27.4163 18.715C27.1663 19.512 26.3102 19.927 25.5252 19.72H25.4893C25.6323 18.854 25.7752 17.988 25.8822 17.157C26.7382 16.741 27.4873 17.191 27.5233 18.092C27.4873 18.3 27.4873 18.507 27.4163 18.715ZM28.9862 17.538C28.8433 16.533 27.7013 15.841 26.6313 16.014L25.9893 16.118C26.0164 15.8263 26.0638 15.537 26.1313 15.252H23.3843C23.7773 15.391 24.2403 15.356 24.6693 15.495C24.5973 15.841 24.5972 16.222 24.4902 16.568C23.5622 16.707 22.6352 16.984 21.7782 17.365C21.4582 16.949 21.1363 16.499 20.7793 16.152H18.5312V16.187L19.6733 16.36C20.1013 16.88 20.4583 17.4 20.8503 17.988C19.8873 18.784 19.1733 19.788 18.7803 20.932H20.4583C20.6806 20.2645 21.0744 19.6672 21.6003 19.2C21.9573 19.789 22.2422 20.378 22.5282 20.966H23.8123C23.4553 20.1 22.9922 19.269 22.5282 18.438C23.1021 18.0238 23.7408 17.7078 24.4183 17.503C24.1333 19.477 23.8123 21.382 23.5273 23.321H24.9543C25.0613 22.559 25.2043 21.763 25.3113 21.001C25.7393 21.036 26.2033 21.036 26.6313 20.966C27.0075 20.9112 27.3691 20.7823 27.6952 20.5869C28.0213 20.3914 28.3054 20.1332 28.5311 19.8273C28.7568 19.5213 28.9196 19.1737 29.0101 18.8044C29.1006 18.4351 29.1169 18.0516 29.0583 17.676C28.9863 17.607 28.9862 17.572 28.9862 17.538ZM35.5522 16.984C35.9452 17.019 36.1592 17.296 36.1232 17.815H34.5173C34.5532 17.295 35.0173 16.95 35.5173 16.985H35.5522V16.984ZM37.5503 18.647C37.586 18.3012 37.586 17.9527 37.5503 17.607C37.5148 17.2272 37.3562 16.8694 37.0986 16.5881C36.841 16.3069 36.4985 16.1175 36.1232 16.049C34.4462 15.703 32.8052 16.603 32.7692 18.612C32.7332 19.789 33.3763 20.621 34.4103 20.898C35.3023 21.106 36.2303 21.002 37.0153 20.621L37.2293 19.581C37.2653 19.512 37.2653 19.478 37.2293 19.408C37.1144 19.4105 37.0028 19.4466 36.9082 19.512C36.4802 19.686 36.0163 19.824 35.5522 19.859C34.6962 19.928 34.1962 19.443 34.3032 18.647H37.5503Z" fill="white"/>
<path fill-rule="evenodd" clip-rule="evenodd" d="M15.4266 12.0329C15.4976 11.5129 15.5696 10.9929 15.6766 10.4739C15.7116 10.1969 16.1766 9.95391 16.5326 9.98991C16.8896 9.98991 16.9966 10.1969 17.0676 10.5089C17.3536 11.6519 16.2826 12.2059 15.4266 12.0329ZM18.0316 9.78191C17.7456 9.15791 16.9966 8.88191 16.3546 9.15791C16.1756 9.22791 16.0336 9.29691 15.8546 9.36591C15.9616 8.67391 16.0686 8.04991 16.1756 7.35791H15.0336C14.7486 9.15791 14.4986 10.9589 14.2136 12.7949C14.8196 12.9679 15.4626 13.0019 16.0686 12.9679C16.5686 12.9329 17.0686 12.7599 17.4966 12.4479C18.3526 11.8249 18.3886 10.5089 18.0316 9.78191ZM13.0006 11.2359C12.9793 11.421 12.9035 11.5956 12.7828 11.7375C12.6621 11.8794 12.5019 11.9822 12.3226 12.0329C11.9296 12.1369 11.7516 12.0329 11.3946 11.5829C11.3236 11.1329 11.4306 10.6469 11.7156 10.2659C11.8203 10.1469 11.9552 10.0584 12.1061 10.0096C12.2569 9.96087 12.4181 9.95371 12.5726 9.98891C12.7075 10.0387 12.8241 10.1283 12.9069 10.2458C12.9898 10.3633 13.035 10.5032 13.0366 10.6469C13.0366 10.8199 13.0366 11.0279 13.0006 11.2369V11.2359ZM12.3936 9.05391C11.4666 9.01991 10.6096 9.60791 10.3236 10.4739C9.93163 11.3399 10.3236 12.3789 11.2166 12.8289C12.3226 13.2789 13.6066 12.7589 14.0706 11.6859C14.1426 11.5129 14.1776 11.3749 14.2136 11.2009C14.3916 9.85091 13.5006 9.01991 12.3936 9.05391ZM23.8836 11.5479C23.5976 11.9979 23.3126 12.1019 22.7416 11.9979C22.0996 11.3749 22.3136 10.7509 22.7416 10.2319C22.9196 9.98891 23.2416 9.88491 23.5266 9.98891C23.8116 10.0589 24.0266 10.3009 24.0616 10.6129C24.1336 10.9239 24.0616 11.2709 23.8836 11.5479ZM24.3836 9.26191C23.0986 8.56891 21.1716 9.50391 21.2436 11.1669C21.1716 11.7899 21.5286 12.4129 22.0996 12.7249C23.1336 13.2449 24.4546 12.8639 24.9896 11.8249C25.0966 11.5819 25.2036 11.3399 25.2036 11.0969C25.2746 10.3359 25.0966 9.67691 24.3836 9.26191Z" fill="#F3D21E"/>
<path fill-rule="evenodd" clip-rule="evenodd" d="M31.1603 16.6389L31.1253 16.6729C31.0893 16.6729 31.0893 16.6389 31.1603 16.6389C31.1253 16.6389 31.1603 16.6389 31.1603 16.6389Z" fill="#292567"/>
</g>
<defs>
<clipPath id="clip0_4314_72424">
<rect x="0.078125" y="0.253906" width="50" height="30" rx="4" fill="white"/>
</clipPath>
</defs>
</svg>
