<svg width="51" height="31" viewBox="0 0 51 31" fill="none" xmlns="http://www.w3.org/2000/svg">
<g clip-path="url(#clip0_4314_74388)">
<path d="M0.414062 0.253906H50.4141V30.2539H0.414062V0.253906Z" fill="#60AA41"/>
<path d="M44.0941 21.1859L42.7141 19.7629L40.5841 17.5929L40.8761 17.5359C42.7701 17.1199 44.0371 15.9129 44.0371 13.5559C44.0371 10.7979 41.7951 9.2889 39.5811 9.2889H34.9011C34.8461 9.2889 34.8181 9.2889 34.7631 9.3179C34.7278 9.3577 34.708 9.40876 34.7071 9.4619V21.4439C34.7351 21.5299 34.7351 21.5589 34.7911 21.5879C34.8461 21.6169 34.9011 21.6169 34.9301 21.5879H34.9581L36.8791 21.2859C36.9071 21.2859 36.9351 21.2859 36.9631 21.2569C36.9981 21.2174 37.0179 21.1667 37.0191 21.1139V11.6309H39.6091C40.7231 11.6309 41.7111 12.4639 41.7111 13.5279C41.7111 14.5909 40.9311 15.1509 39.8181 15.4239C38.7041 15.6969 38.1741 16.5299 38.1741 17.4069C38.1741 17.9969 38.3971 18.5849 38.8011 19.0019C38.9961 19.2749 39.2051 19.5049 39.4281 19.7489L39.4551 19.7779L42.5611 23.0389C42.7561 23.1539 42.9931 23.2399 43.2151 23.2399C43.8701 23.2399 44.3991 22.7089 44.3991 22.0189C44.3991 21.7169 44.2881 21.4159 44.0931 21.1859H44.0941ZM18.9441 18.0679C18.7471 17.9453 18.5218 17.8757 18.2901 17.8659C17.9701 17.8659 17.6631 18.0099 17.4541 18.2539C17.3991 18.3409 17.2311 18.4839 17.1621 18.5559C15.3651 20.2369 12.6081 20.1359 10.9791 18.3119C9.34906 16.4869 9.43306 13.6279 11.2021 11.9319C12 11.1548 13.0682 10.7175 14.1821 10.7119C15.2541 10.6539 16.2841 11.0699 17.0501 11.8169L17.0781 11.8469C17.1305 11.87 17.1879 11.8796 17.2451 11.8749L19.3061 11.5449C19.5011 11.5149 19.4181 11.3429 19.4181 11.3429C19.0841 10.6529 17.5521 8.2259 13.9871 8.2539C10.2541 8.2839 7.44206 11.2999 7.41406 15.2509C7.44206 19.1019 10.4921 22.2479 14.2511 22.2199C16.0901 22.2199 17.8441 21.4149 19.1111 20.0499C19.1671 19.9639 19.2511 19.8779 19.3061 19.7479C19.4181 19.5479 19.4741 19.3029 19.4741 19.0729C19.4619 18.8774 19.4084 18.6867 19.317 18.5135C19.2257 18.3402 19.0985 18.1883 18.9441 18.0679ZM31.7281 8.7869C30.7541 8.7869 30.1971 9.4909 29.7781 10.4109L27.1341 16.2139C27.1341 16.2139 27.1061 16.2719 27.0781 16.2719C27.0501 16.2719 27.0231 16.2139 27.0231 16.2139L24.7531 12.2339L24.0701 10.9839C24.0431 10.9269 23.9871 10.8699 23.9591 10.8699H23.9031L20.8261 11.3149C20.7981 11.3149 20.7701 11.3439 20.7421 11.3439C20.7141 11.3719 20.6861 11.4009 20.6861 11.4869V21.9759C20.6899 22.1335 20.7252 22.2887 20.79 22.4325C20.8548 22.5762 20.9477 22.7054 21.0633 22.8126C21.1789 22.9198 21.3148 23.0028 21.463 23.0566C21.6112 23.1104 21.7686 23.134 21.9261 23.1259C22.5251 23.0959 23.0121 22.5939 23.0401 21.9759V13.9739L26.4101 19.7789L27.1341 21.0289C27.1341 21.0569 27.1621 21.0569 27.1901 21.0859C27.2171 21.0859 27.2451 21.0289 27.2451 21.0289L27.8161 19.7789L31.1861 12.6669V21.9479C31.1861 22.0339 31.2141 22.0629 31.2701 22.0919H31.4371L33.3871 21.7899C33.4141 21.7899 33.4701 21.7899 33.4971 21.7609C33.5261 21.7329 33.5541 21.7039 33.5541 21.6179V10.6259C33.4841 9.6209 32.7041 8.8159 31.7291 8.7869H31.7281Z" fill="white"/>
</g>
<defs>
<clipPath id="clip0_4314_74388">
<rect x="0.414062" y="0.253906" width="50" height="30" rx="4" fill="white"/>
</clipPath>
</defs>
</svg>
