<svg width="50" height="30" viewBox="0 0 50 30" fill="none" xmlns="http://www.w3.org/2000/svg">
<rect width="50" height="30" rx="4" fill="#CCECFF"/>
<path d="M27.6309 25.0936C33.4083 25.1217 38.682 20.3922 38.682 14.6384C38.682 8.34694 33.4083 3.9982 27.6309 4H22.659C16.8124 3.9982 12 8.34797 12 14.6384C12 20.3934 16.8124 25.1217 22.659 25.0936H27.6309Z" fill="#016AAB"/>
<path d="M24.875 20.2411V8.81629C27.1762 9.69722 28.8099 11.9205 28.8137 14.5283C28.8099 17.1366 27.1762 19.3586 24.875 20.2411ZM16.5493 14.5283C16.5544 11.9221 18.1855 9.70005 20.4855 8.81654V20.2387C18.1855 19.356 16.5544 17.1353 16.5493 14.5283ZM22.6806 4.87207C17.3382 4.87387 13.0091 9.1953 13.0078 14.5283C13.0091 19.8608 17.3382 24.1814 22.6806 24.183C28.0248 24.1814 32.3547 19.8608 32.3555 14.5283C32.3547 9.1953 28.0248 4.87387 22.6806 4.87207Z" fill="white"/>
</svg>
