<svg width="51" height="31" viewBox="0 0 51 31" fill="none" xmlns="http://www.w3.org/2000/svg">
<g clip-path="url(#clip0_4314_74732)">
<path d="M0.75 0.253906H50.75V30.2539H0.75V0.253906Z" fill="#E1BF36"/>
<path fill-rule="evenodd" clip-rule="evenodd" d="M2.673 7.25391H48.827C49.35 7.25391 49.75 7.64591 49.75 8.15991V22.3479C49.75 22.8619 49.35 23.2539 48.827 23.2539H2.673C2.15 23.2539 1.75 22.8619 1.75 22.3479V8.15991C1.75 7.64591 2.15 7.25391 2.673 7.25391Z" fill="#E1BF36"/>
<path fill-rule="evenodd" clip-rule="evenodd" d="M29.2867 15.0719C29.3477 14.3479 29.6867 13.7439 30.4247 13.7439C31.1637 13.7439 31.5327 14.3779 31.5327 15.0719H29.2877H29.2867ZM20.7327 15.0719C20.8247 14.3479 21.1027 13.7739 21.8717 13.7439C22.6097 13.7439 22.9787 14.3479 23.0097 15.0719H20.7327ZM24.0867 17.9099L23.7487 17.1249C23.4407 17.2149 23.2247 17.3669 22.8247 17.4269C21.7477 17.6079 20.7947 17.1249 20.7637 15.9169H24.2407C24.2407 14.7099 24.0247 13.3519 22.6707 12.9289C22.357 12.8296 22.0264 12.7944 21.6988 12.8255C21.3712 12.8566 21.0532 12.9533 20.7637 13.1099C18.8867 14.2269 18.9787 18.4539 22.2717 18.4229C22.9177 18.3929 23.7177 18.2429 24.0867 17.9099ZM33.4097 15.7669C33.4717 18.9069 36.9477 18.7249 37.9017 17.9099C37.8717 17.7899 37.6247 17.1859 37.5637 17.1249C36.9177 17.3969 36.3017 17.6689 35.5337 17.3059C34.3337 16.7329 34.4247 14.5289 35.6247 13.9859C36.0867 13.7739 36.7637 13.8049 37.2557 13.9859L37.6867 14.1959V13.1699C36.9787 12.8989 36.4567 12.7179 35.5637 12.8989C34.1787 13.2309 33.3787 14.4389 33.4097 15.7669ZM25.3797 12.9589V11.7819C25.3797 11.3589 25.7477 10.7249 26.2717 10.4839C26.7637 10.2719 27.6867 10.2419 28.1487 10.5439L27.9327 11.4799C26.5787 11.1779 26.5787 11.4199 26.5787 12.9599H28.0557L27.6867 13.8949H26.5787V18.2719C26.3637 18.3019 25.5947 18.3019 25.3787 18.2719V13.8949H24.7947L24.4247 12.9589H25.3787H25.3797ZM39.1017 13.9249V17.0949C39.1327 17.3969 39.1637 17.5779 39.2247 17.6989C39.6557 18.6349 41.1637 18.5439 42.0557 18.0009L41.6557 17.2159C41.3787 17.3359 41.0097 17.5479 40.6097 17.4269C40.2397 17.3369 40.2717 16.8839 40.2717 16.4909V13.9249H42.7017L44.6717 18.3329C44.7017 18.5129 44.2717 19.2989 44.1787 19.4199C43.5017 20.3549 42.8557 19.9629 42.3327 19.8419L42.0557 20.8079C43.1017 21.2009 44.1787 21.0499 44.7947 20.4159C45.3477 19.8419 45.6557 19.0269 45.9947 18.1519L47.8717 13.0499H46.6097L45.2867 16.9739C45.1637 16.8239 44.1167 14.3179 43.9327 13.8949C43.6867 13.3219 43.3177 13.0499 42.5177 13.0499H40.2717V11.4799C39.9947 11.5399 39.2557 11.7519 39.0717 11.8419V13.0199H38.0867V13.9549L39.1017 13.9249ZM14.3637 9.06491C16.8557 9.90991 18.3017 12.3849 17.7477 15.2529C17.1017 18.6039 13.9327 21.3819 10.5177 21.7439C10.2407 21.7439 10.2407 21.5939 10.2407 21.3519C10.2407 20.8989 10.2707 20.4159 10.2707 19.9629C10.2707 19.9029 10.2407 19.8729 10.2097 19.8729C9.85577 19.8313 9.50591 19.7604 9.16371 19.6609C8.79371 19.5109 8.42471 19.2989 8.05571 19.0879C7.87171 18.9669 7.90171 18.5739 7.90171 18.4229C7.93271 18.1519 8.14871 17.5179 8.48671 17.4869C8.88671 17.4569 9.07171 17.6689 9.47171 17.8499C10.1787 18.1819 11.1327 18.3629 11.8717 18.0299C12.2097 17.8199 12.3017 17.5479 12.1477 17.1859C11.8717 16.6119 10.5177 16.1289 9.90171 15.8569C8.42471 15.2529 7.62471 14.0159 7.87171 12.5369C8.05571 11.4499 9.10171 10.6049 10.2097 10.4539V9.93991C8.85571 10.3329 7.83971 11.0879 6.91771 11.9629C5.59471 13.2309 4.79471 14.8609 4.73271 16.9129C4.82471 19.4499 6.17871 20.5359 7.56271 21.3819C5.16271 20.4759 3.80971 18.0619 4.33271 15.2529C5.00971 11.8119 8.30271 8.97391 11.8407 8.73291C11.9947 8.82291 11.9947 8.82291 12.0557 9.00391C12.0257 9.42691 11.9947 9.87991 11.9637 10.3029C12.6717 10.4529 13.3177 10.6349 13.8407 11.0879C13.8707 12.0839 13.1017 12.5059 12.7947 12.3549C12.7947 12.2949 11.6557 11.9929 11.4097 11.9329C11.1204 11.8711 10.819 11.9026 10.5487 12.0229C10.2097 12.1739 10.0557 12.4159 10.2097 12.7779C10.3637 13.0499 10.5797 13.2309 10.8247 13.3819L13.0407 14.5589C13.6213 14.8719 14.1012 15.3431 14.4247 15.9179C14.6349 16.4455 14.6779 17.025 14.5477 17.5779C14.3947 18.0309 14.2407 18.4229 13.9637 18.6949C13.7487 18.9369 13.5017 19.1479 13.2247 19.2689C12.8557 19.4489 12.4867 19.6309 12.0867 19.6909C12.0867 19.9329 12.0567 20.1439 12.0567 20.3859C12.0867 20.4159 12.1167 20.3859 12.1477 20.3859C12.9787 20.1139 13.7177 19.6609 14.4247 19.1479C15.3487 18.3629 16.2097 17.5179 16.6717 16.4309C16.9787 15.8269 17.2247 15.1629 17.3177 14.3779C17.5947 12.2039 16.7637 10.1519 14.3637 9.06491ZM12.4247 8.12891C16.4557 8.12891 19.1017 11.2989 18.3637 15.2529C17.5937 19.1779 13.7177 22.3779 9.65571 22.3779C5.62571 22.3779 2.94871 19.2079 3.71771 15.2539C4.48671 11.3289 8.39471 8.12891 12.4247 8.12891ZM28.0867 15.8569C28.2097 17.8199 29.7787 18.7549 31.6867 18.3329C32.1167 18.2429 32.3017 18.0609 32.6407 17.9699L32.3017 17.1249C31.8097 17.2759 31.1947 17.6689 30.3017 17.3969C29.7177 17.1859 29.3177 16.7029 29.2867 15.9469H32.7637C32.7637 14.3779 32.2717 12.8689 30.4557 12.8379C28.7017 12.8079 27.9947 14.2879 28.0867 15.8579V15.8569Z" fill="#211915"/>
</g>
<defs>
<clipPath id="clip0_4314_74732">
<rect x="0.75" y="0.253906" width="50" height="30" rx="4" fill="white"/>
</clipPath>
</defs>
</svg>
