<svg width="51" height="30" viewBox="0 0 51 30" fill="none" xmlns="http://www.w3.org/2000/svg">
<rect x="0.328125" width="50" height="30" rx="2" fill="#293137"/>
<path fill-rule="evenodd" clip-rule="evenodd" d="M19.6519 17.9688C19.008 18.5912 18.1347 18.9704 17.1705 18.9568C16.5097 18.9458 15.8973 18.7492 15.3767 18.4216L14.0859 20.4652C14.9699 21.0204 16.0122 21.3488 17.1359 21.3661C18.7715 21.3903 20.2623 20.7519 21.3463 19.6977L19.6519 17.9688Z" fill="#FEFEFE"/>
<path fill-rule="evenodd" clip-rule="evenodd" d="M13.7719 15.8655C13.7573 15.7298 13.7469 15.5905 13.7508 15.45C13.7815 13.5432 15.3607 12.0216 17.2783 12.0532C18.3221 12.0671 19.2489 12.542 19.8755 13.2771L13.7719 15.8655ZM17.3151 9.63889C14.0603 9.58931 11.3779 12.1728 11.3289 15.4094C11.3098 16.6224 11.6626 17.7566 12.2832 18.6993L22.9677 14.1618C22.3665 11.6046 20.0776 9.68194 17.3151 9.63889Z" fill="#FEFEFE"/>
<path fill-rule="evenodd" clip-rule="evenodd" d="M26.3164 7V18.3177L28.2929 19.1318L27.3579 21.364L25.4033 20.5567C24.9638 20.3673 24.6663 20.0788 24.4404 19.7529C24.2234 19.4195 24.0625 18.9638 24.0625 18.3488V7H26.3164Z" fill="#FEFEFE"/>
<path fill-rule="evenodd" clip-rule="evenodd" d="M33.4488 12.2287C33.7945 12.1134 34.1645 12.0516 34.5495 12.0516C36.2292 12.0516 37.6302 13.2367 37.951 14.812L40.3317 14.3299C39.7856 11.6531 37.4042 9.63818 34.5495 9.63818C33.8953 9.63818 33.2667 9.74398 32.6797 9.93874L33.4488 12.2287Z" fill="#FFF100"/>
<path fill-rule="evenodd" clip-rule="evenodd" d="M30.6397 19.892L32.2484 18.0845C31.5299 17.4524 31.0775 16.5293 31.0775 15.5005C31.0775 14.4726 31.5299 13.5501 32.2477 12.9184L30.6379 11.1108C29.4174 12.1848 28.6484 13.7541 28.6484 15.5005C28.6484 17.249 29.418 18.8177 30.6397 19.892" fill="#00A4DF"/>
<path fill-rule="evenodd" clip-rule="evenodd" d="M37.9462 16.1931C37.6235 17.7661 36.2227 18.9502 34.5446 18.9502C34.1593 18.9502 33.7891 18.8874 33.4428 18.7724L32.6719 21.0616C33.2605 21.2572 33.8899 21.3634 34.5446 21.3634C37.3967 21.3634 39.7775 19.3512 40.3262 16.6774L37.9462 16.1931Z" fill="#EE4123"/>
</svg>
