<svg width="51" height="30" viewBox="0 0 51 30" fill="none" xmlns="http://www.w3.org/2000/svg">
<rect x="0.664062" width="50" height="30" rx="2" fill="#971B1E"/>
<mask id="mask0_4500_38326" style="mask-type:alpha" maskUnits="userSpaceOnUse" x="5" y="11" width="42" height="10">
<path fill-rule="evenodd" clip-rule="evenodd" d="M5.66406 11H46.6641V20.6909H5.66406V11Z" fill="white"/>
</mask>
<g mask="url(#mask0_4500_38326)">
<path fill-rule="evenodd" clip-rule="evenodd" d="M35.6254 17.3938C35.069 17.9315 33.5074 18.084 33.6677 16.7992C33.8006 15.7319 34.9768 15.505 36.2513 15.6586C36.1567 16.2425 36.049 16.9836 35.6254 17.3938ZM33.8667 13.229C33.8129 13.5233 33.7327 13.7904 33.6657 14.0717C34.3023 13.9145 36.2851 13.4311 36.4766 14.2703C36.54 14.5492 36.4311 14.8459 36.3497 15.0634C34.5572 14.8955 33.0973 15.1898 32.712 16.451C32.4559 17.2961 32.7419 18.127 33.29 18.3599C34.3454 18.8067 35.6306 18.2949 36.0745 17.5916C36.029 17.8351 35.9848 18.0809 35.9991 18.3847H36.9277C36.9385 17.5065 37.0677 16.795 37.2041 16.0054C37.3202 15.3317 37.5404 14.6662 37.5057 14.0717C37.4255 12.7113 35.1435 13.1923 33.8667 13.229ZM43.1758 17.8138C42.4495 17.8304 42.0869 17.3859 42.0713 16.6496C42.0426 15.3601 42.6146 13.9275 43.7765 13.7999C44.3186 13.7396 44.7111 13.8637 45.1072 13.9972C44.7434 15.4463 44.8738 17.7783 43.1758 17.8138ZM45.5869 10.9993C45.4936 11.8006 45.3703 12.5701 45.21 13.3041C42.5631 12.4767 40.9392 14.3998 40.9692 16.7743C40.9751 17.2329 41.0553 17.688 41.3461 18.013C41.8475 18.5733 43.2798 18.7068 44.0062 18.2364C44.1462 18.1454 44.2886 17.9799 44.3807 17.8641C44.4513 17.7778 44.5626 17.5521 44.5818 17.6171C44.5447 17.8688 44.4872 18.1017 44.4813 18.3854H45.4613C45.6492 15.7129 46.2331 13.4306 46.6651 10.9993H45.5869ZM17.9586 17.419C17.3831 18.023 15.9627 18.0136 15.8526 16.9971C15.8035 16.555 15.9711 16.0917 16.0524 15.6343C16.1362 15.1721 16.196 14.7277 16.2786 14.3211C16.847 13.6356 18.5175 13.5528 18.6874 14.6923C18.8346 15.6827 18.4385 16.9191 17.9586 17.419ZM18.8092 13.2292C17.8949 12.8912 16.7833 13.2954 16.2998 13.6795C16.301 13.6973 16.2891 13.6996 16.2747 13.7008C16.2831 13.6937 16.2915 13.6866 16.2998 13.6795C16.2998 13.6784 16.2998 13.6772 16.2998 13.676C16.307 13.5105 16.3668 13.3947 16.3752 13.2292H15.4466C15.0589 15.7716 14.6018 18.2431 14.1172 20.6898H15.1953C15.3521 19.7371 15.4538 18.7313 15.6728 17.8401C15.9193 18.7773 17.5276 18.5989 18.2073 18.236C19.6073 17.4878 20.6879 13.9266 18.8092 13.2292ZM23.9341 15.0141H21.3984C21.4798 14.4385 22.0039 13.8062 22.8296 13.7754C23.6074 13.7459 24.1638 14.0567 23.9341 15.0141ZM22.9051 13.13C22.125 13.1902 21.4668 13.4113 20.9965 13.8982C20.4233 14.4963 19.9579 15.8177 20.0943 17.021C20.2893 18.7384 22.454 18.6769 24.1831 18.2609C24.2143 17.9595 24.2873 17.7018 24.3339 17.4181C23.6219 17.6817 22.3834 18.0493 21.6487 17.5919C21.0959 17.2456 21.0923 16.3697 21.2741 15.6085C22.4373 15.5719 23.6471 15.579 24.8114 15.6085C24.8844 15.0696 25.0974 14.4809 24.9119 13.9479C24.6678 13.2446 23.7942 13.0626 22.9051 13.13ZM13.4196 13.229C13.3909 13.2337 13.3932 13.268 13.3956 13.3035C13.1575 15.0599 12.8356 16.7335 12.4922 18.3847H13.5703C13.83 16.6165 14.1268 14.8861 14.4989 13.229H13.4196ZM41.5693 13.2541C40.6156 12.7837 39.821 13.5733 39.5111 14.0472C39.5996 13.8049 39.6044 13.4787 39.6858 13.2293H38.7333C38.476 14.9999 38.1661 16.7173 37.8047 18.385H38.9092C38.9164 17.7019 39.0516 17.196 39.1605 16.5258C39.389 15.0956 39.7289 13.526 41.4185 13.9976C41.4747 13.7565 41.4975 13.4811 41.5693 13.2541ZM29.4551 17.1704C29.3558 16.9174 29.3295 16.4978 29.3546 16.1799C29.4097 15.4636 29.6729 14.5913 30.0822 14.1966C30.6446 13.6517 31.7551 13.7415 32.6418 14.0476C32.6681 13.7533 32.7291 13.4897 32.7662 13.2049C31.3135 12.9709 29.935 13.1162 29.2038 13.8751C28.4883 14.6162 28.0192 16.3205 28.3507 17.3938C28.7384 18.649 30.4795 18.7176 31.8891 18.2365C31.9513 17.9847 31.9836 17.7034 32.0399 17.4434C31.268 17.8382 29.7974 18.0438 29.4551 17.1704ZM28.8488 13.2296C27.8915 12.8479 27.14 13.4932 26.7906 14.0972C26.8696 13.8289 26.9019 13.5133 26.9665 13.2296H26.0128C25.7783 15.0156 25.4361 16.6916 25.1094 18.3854H26.1887C26.3395 17.3795 26.4053 16.025 26.7404 15.064C27.0084 14.2958 27.7108 13.641 28.722 13.9979C28.7375 13.7154 28.8177 13.4991 28.8488 13.2296ZM11.4605 11.1488C11.3062 12.1369 11.1326 13.1049 10.9591 14.0729C9.84148 14.0848 8.6999 14.1273 7.62174 14.0481C7.82517 13.1014 7.97116 12.0967 8.17339 11.1488H6.96958C6.5376 13.5647 6.1463 16.0196 5.66406 18.3859H6.89419C7.08565 17.172 7.26754 15.9452 7.52123 14.7916C8.56947 14.7667 9.82473 14.7218 10.8335 14.8164C10.6241 16.0161 10.374 17.172 10.1801 18.3859H11.4103C11.8051 15.9345 12.2204 13.5032 12.7146 11.1488H11.4605ZM14.5175 12.2393C14.7329 12.0927 15.0094 11.4261 14.6934 11.1483C14.5929 11.0609 14.4254 11.0349 14.1921 11.0739C13.9743 11.1105 13.8498 11.1826 13.7637 11.2973C13.6284 11.4805 13.504 12.0336 13.7134 12.2393C13.9204 12.439 14.3811 12.3315 14.5175 12.2393Z" fill="white"/>
</g>
</svg>
