<svg width="51" height="31" viewBox="0 0 51 31" fill="none" xmlns="http://www.w3.org/2000/svg">
<g clip-path="url(#clip0_4338_87712)">
<path d="M0.414062 0.253906H50.4141V30.2539H0.414062V0.253906Z" fill="#184892"/>
<path d="M11.6441 17.7219L14.7481 11.7869H27.2981C27.6181 12.1369 27.8921 12.5309 28.0891 12.9559H15.4641L14.7491 14.2759H17.5021L17.0311 15.3389H14.2141L12.8301 17.7219H11.6441ZM31.1321 11.7869H32.5771L32.8061 16.1439L35.0421 11.7869H36.2441L33.0641 17.7219H31.6341L31.4061 13.2899L28.9411 17.7069H19.9211C19.6487 17.4089 19.4319 17.0644 19.2811 16.6899H28.1811L28.1661 16.7199H28.2421L31.1321 11.7869ZM20.6201 11.3769C21.4962 10.6491 22.6 10.2517 23.7391 10.2539C24.9251 10.2539 26.0211 10.6789 26.8571 11.3769H20.6201ZM28.3331 13.5169C28.4551 13.8819 28.5311 14.2769 28.5461 14.6709H25.8071C25.7662 14.2402 25.5844 13.835 25.2901 13.5179H28.3331V13.5169ZM28.5461 15.0969C28.5297 15.4511 28.4733 15.8024 28.3781 16.1439H25.3061C25.5641 15.8549 25.7461 15.4909 25.7921 15.0959H28.5461V15.0969ZM27.0551 18.2989C26.1523 19.1323 24.9676 19.5931 23.7391 19.5889C22.5096 19.5962 21.3235 19.1349 20.4221 18.2989H27.0551ZM39.1191 17.7219H34.0531L37.0651 11.7869H48.4141L47.9731 12.7739H45.9641L43.2411 17.7069H41.8411L44.5791 12.6969H37.8551L37.1711 14.2769H39.8481L39.3611 15.3089H36.5941L35.9251 16.6139H39.5611L39.1201 17.7219H39.1191ZM5.48306 17.7219L8.58606 11.7869H10.1081L10.3511 16.3409L12.6031 11.7869H14.0331L10.8681 17.7219H9.27106L9.01206 13.6539L6.82206 17.7219H5.48306ZM3.41406 17.7219L6.63906 11.7869H7.97806L4.79806 17.7219H3.41406Z" fill="white"/>
<path d="M18.9463 15.0961C18.9623 15.4601 19.0223 15.8091 19.1143 16.1431H22.1873C21.921 15.8526 21.7509 15.4869 21.7003 15.0961H18.9453H18.9463ZM19.1593 13.5181C19.0346 13.8905 18.9629 14.2786 18.9463 14.6711H21.6853C21.7303 14.2311 21.9133 13.8211 22.2023 13.5181H19.1593Z" fill="white"/>
</g>
<defs>
<clipPath id="clip0_4338_87712">
<rect x="0.414062" y="0.253906" width="50" height="30" rx="4" fill="white"/>
</clipPath>
</defs>
</svg>
