<svg width="51" height="31" viewBox="0 0 51 31" fill="none" xmlns="http://www.w3.org/2000/svg">
<g clip-path="url(#clip0_4338_87587)">
<path d="M0.078125 0.253906H50.0781V30.2539H0.078125V0.253906Z" fill="#EFEEEE"/>
<path d="M33.0078 17.7017H35.1258C35.1858 17.7017 35.3268 17.6817 35.3878 17.6817C35.7908 17.5987 36.1338 17.2267 36.1338 16.7117C36.1349 16.4901 36.0622 16.2744 35.9271 16.0988C35.792 15.9231 35.6023 15.7975 35.3878 15.7417C35.3278 15.7207 35.2058 15.7207 35.1258 15.7207H33.0078V17.7007V17.7017Z" fill="url(#paint0_linear_4338_87587)"/>
<path d="M34.8873 4.02002C32.8693 4.02002 31.2153 5.69102 31.2153 7.77502V11.675H36.3993C36.5203 11.675 36.6613 11.675 36.7623 11.696C37.9323 11.758 38.8003 12.377 38.8003 13.45C38.8003 14.296 38.2153 15.019 37.1253 15.163V15.204C38.3153 15.287 39.2233 15.968 39.2233 17.02C39.2233 18.155 38.2153 18.898 36.8833 18.898H31.1953V26.533H36.5813C38.5983 26.533 40.2523 24.862 40.2523 22.778V4.02002H34.8873Z" fill="url(#paint1_linear_4338_87587)"/>
<path d="M35.8718 13.697C35.8779 13.4834 35.8053 13.275 35.6678 13.1114C35.5302 12.9479 35.3373 12.8406 35.1258 12.81C35.0858 12.81 34.9838 12.79 34.9238 12.79H33.0078V14.605H34.9238C34.9838 14.605 35.1048 14.605 35.1258 14.585C35.3374 14.5542 35.5303 14.4468 35.6678 14.283C35.8054 14.1193 35.878 13.9108 35.8718 13.697Z" fill="url(#paint2_linear_4338_87587)"/>
<path d="M14.5894 4.02002C12.5724 4.02002 10.9194 5.69102 10.9194 7.77502V17.041C11.9474 17.557 13.0164 17.887 14.0854 17.887C15.3564 17.887 16.0424 17.103 16.0424 16.03V11.654H19.1894V16.008C19.1894 17.7 18.1594 19.083 14.6704 19.083C12.5524 19.083 10.8984 18.608 10.8984 18.608V26.512H16.2844C18.3014 26.512 19.9554 24.84 19.9554 22.756V4.02002H14.5894Z" fill="url(#paint3_linear_4338_87587)"/>
<path d="M24.7413 4.02002C22.7243 4.02002 21.0713 5.69102 21.0713 7.77502V12.687C21.9983 11.882 23.6113 11.366 26.2143 11.49C27.6063 11.552 29.0983 11.944 29.0983 11.944V13.533C28.3523 13.141 27.4643 12.79 26.3153 12.707C24.3383 12.563 23.1483 13.553 23.1483 15.287C23.1483 17.041 24.3383 18.031 26.3153 17.867C27.4653 17.784 28.3523 17.412 29.0983 17.041V18.63C29.0983 18.63 27.6263 19.022 26.2143 19.084C23.6123 19.208 21.9983 18.692 21.0703 17.887V26.554H26.4563C28.4733 26.554 30.1273 24.882 30.1273 22.798V4.02002H24.7413Z" fill="url(#paint4_linear_4338_87587)"/>
</g>
<defs>
<linearGradient id="paint0_linear_4338_87587" x1="31.1988" y1="16.7007" x2="47.7098" y2="16.7007" gradientUnits="userSpaceOnUse">
<stop stop-color="#007940"/>
<stop offset="0.229" stop-color="#00873F"/>
<stop offset="0.743" stop-color="#40A737"/>
<stop offset="1" stop-color="#5CB531"/>
</linearGradient>
<linearGradient id="paint1_linear_4338_87587" x1="31.2023" y1="15.267" x2="47.6993" y2="15.267" gradientUnits="userSpaceOnUse">
<stop stop-color="#007940"/>
<stop offset="0.229" stop-color="#00873F"/>
<stop offset="0.743" stop-color="#40A737"/>
<stop offset="1" stop-color="#5CB531"/>
</linearGradient>
<linearGradient id="paint2_linear_4338_87587" x1="31.1988" y1="13.687" x2="47.7098" y2="13.687" gradientUnits="userSpaceOnUse">
<stop stop-color="#007940"/>
<stop offset="0.229" stop-color="#00873F"/>
<stop offset="0.743" stop-color="#40A737"/>
<stop offset="1" stop-color="#5CB531"/>
</linearGradient>
<linearGradient id="paint3_linear_4338_87587" x1="10.9044" y1="15.256" x2="27.6714" y2="15.256" gradientUnits="userSpaceOnUse">
<stop stop-color="#1F286F"/>
<stop offset="0.475" stop-color="#004E94"/>
<stop offset="0.826" stop-color="#0066B1"/>
<stop offset="1" stop-color="#006FBC"/>
</linearGradient>
<linearGradient id="paint4_linear_4338_87587" x1="21.0083" y1="15.277" x2="37.2923" y2="15.277" gradientUnits="userSpaceOnUse">
<stop stop-color="#6C2C2F"/>
<stop offset="0.173" stop-color="#882730"/>
<stop offset="0.573" stop-color="#BE1833"/>
<stop offset="0.859" stop-color="#DC0436"/>
<stop offset="1" stop-color="#E60039"/>
</linearGradient>
<clipPath id="clip0_4338_87587">
<rect width="50" height="30" fill="white" transform="translate(0.078125 0.253906)"/>
</clipPath>
</defs>
</svg>
