<svg width="51" height="31" viewBox="0 0 51 31" fill="none" xmlns="http://www.w3.org/2000/svg">
<g clip-path="url(#clip0_4338_86137)">
<path d="M0.078125 0.253906H50.0781V30.2539H0.078125V0.253906Z" fill="#BB1730"/>
<path d="M9.07812 9.25391H11.6481V18.2089C11.6481 18.8719 11.6481 19.4529 12.6431 19.4529H14.2191V22.0229H12.3121C11.0681 22.0229 9.07812 20.7789 9.07812 19.1209V9.25391ZM14.7161 13.1499H17.6181V22.1049H14.7161V13.1509V13.1499ZM17.6181 9.25391V12.1559H14.7161C15.0471 11.1609 15.3781 9.25391 17.6181 9.25391ZM37.2691 22.1069V15.7219C37.2691 15.1419 38.5131 12.8199 39.8391 12.8199H42.0791V15.3899H40.8351C40.5861 15.3899 39.8401 15.7219 39.8401 16.3029V22.1069H37.2701H37.2691ZM24.1681 9.91791V14.1469H24.0861C23.5061 13.8979 22.9251 13.7319 22.2621 13.7319C21.142 13.7366 20.0691 14.1837 19.277 14.9758C18.4849 15.7679 18.0379 16.8408 18.0331 17.9609C18.0331 20.2819 19.9401 22.1889 22.2621 22.1889C24.3351 22.1889 26.0761 20.6969 26.4071 18.7889H26.4901V9.91891H24.1691L24.1681 9.91791ZM22.3451 19.9509C21.1841 19.9509 20.1891 18.9559 20.1891 17.7949C20.1891 16.6349 21.1841 15.6389 22.3451 15.6389C23.5051 15.6389 24.5001 16.6339 24.5001 17.7949C24.5001 18.9549 23.5051 19.9509 22.3451 19.9509ZM36.1911 18.8739H33.4541C33.4541 19.4539 32.4591 19.8679 31.8791 19.8679C31.2991 19.8679 30.3041 19.8679 30.3041 19.1219C31.4641 18.7069 35.1961 17.1319 36.3561 16.5519C36.3561 14.5619 34.0351 12.8199 31.6301 12.8199C29.3091 12.8199 26.9041 14.8099 26.9041 17.2979C26.9041 19.7849 28.4791 22.1899 31.7961 22.1899C35.1131 22.1899 36.6061 18.8729 36.1911 18.8729V18.8739ZM30.9671 15.3909C32.3771 14.9759 33.1231 15.8049 33.1231 15.8049L29.9721 17.1319C29.7231 17.1319 29.5571 15.8049 30.9671 15.3909Z" fill="white"/>
</g>
<defs>
<clipPath id="clip0_4338_86137">
<rect x="0.078125" y="0.253906" width="50" height="30" rx="4" fill="white"/>
</clipPath>
</defs>
</svg>
