<svg width="51" height="31" viewBox="0 0 51 31" fill="none" xmlns="http://www.w3.org/2000/svg">
<g clip-path="url(#clip0_4314_74402)">
<path d="M0.75 0.253906H50.75V30.2539H0.75V0.253906Z" fill="#6200EE"/>
<path fill-rule="evenodd" clip-rule="evenodd" d="M16.4957 12.1899H16.8277C16.9387 12.1899 17.0497 12.2979 17.1607 12.4059C17.2707 12.5139 17.2707 12.6219 17.2707 12.7299V18.5619C17.2707 18.6699 17.1607 18.8859 17.0497 18.9939C16.9397 19.1019 16.8277 19.2099 16.6067 19.2099C16.4957 19.2099 16.2737 19.1019 16.1627 18.9939C16.0527 18.8859 15.9417 18.7779 15.9417 18.5619V14.7819L14.0577 17.8059C14.0577 17.9139 13.9477 17.9139 13.8357 18.0219H13.3927C13.2827 18.0219 13.1707 17.9139 13.1707 17.8059L11.2877 14.7819V18.5619C11.2877 18.6699 11.1767 18.8859 11.0657 18.9939C10.9557 19.1019 10.8437 19.2099 10.6227 19.2099C10.5127 19.2099 10.2897 19.1019 10.1797 18.9939C10.2897 18.8859 10.1797 18.7779 10.1797 18.6699V12.7299C10.1797 12.6219 10.1797 12.5139 10.2897 12.4059C10.4007 12.2979 10.5117 12.1899 10.6227 12.1899H10.9547C11.0657 12.1899 11.1767 12.2979 11.2877 12.4059L13.7257 16.4019L16.1627 12.4059C16.2737 12.4059 16.3847 12.2979 16.4957 12.1899ZM22.1467 12.5139C22.2577 12.4059 22.3687 12.1899 22.7007 12.1899C23.0337 12.1899 23.1447 12.4059 23.2547 12.5139L26.1357 18.3459C26.1892 18.4051 26.2189 18.4821 26.2189 18.5619C26.2189 18.6417 26.1892 18.7187 26.1357 18.7779C26.1357 18.8859 26.0257 18.9939 25.8037 19.1019C25.7417 19.1541 25.6632 19.1827 25.5822 19.1827C25.5011 19.1827 25.4227 19.1541 25.3607 19.1019C25.2497 19.1019 25.1387 18.9939 25.0277 18.7779L22.7007 14.1339L20.3737 18.8859L20.0417 19.2099H19.5977L19.2657 18.8859V18.4539L22.1467 12.5139ZM28.9067 13.2699C29.5717 12.6219 30.4577 12.1899 31.4547 12.1899C32.3417 12.1899 33.2277 12.5139 33.8927 13.0539C34.0027 13.1619 34.1147 13.2699 34.1147 13.4859C34.1147 13.5939 34.1147 13.8099 34.0037 13.9179C33.7817 14.0259 33.5607 14.1339 33.4497 14.1339C33.3397 14.1339 33.1167 14.1339 33.0067 14.0259C32.5627 13.5939 32.0087 13.3779 31.3447 13.3779C30.6797 13.3779 30.1247 13.5939 29.6817 14.0259C29.2387 14.4579 29.0167 14.9979 29.0167 15.6459C29.0167 16.2939 29.2387 16.8339 29.6817 17.2659C30.1257 17.6979 30.6797 17.9139 31.3447 17.9139C32.0087 17.9139 32.4527 17.6979 33.0067 17.2659C33.1167 17.1579 33.2277 17.1579 33.4497 17.1579C33.5597 17.1579 33.7817 17.2659 33.8927 17.3739C34.0027 17.4819 34.0027 17.5899 34.0027 17.8059C34.0027 17.9139 33.8927 18.1299 33.7827 18.2379C33.1167 18.8859 32.3417 19.1019 31.3437 19.1019C30.3467 19.1019 29.5707 18.7779 28.7957 18.0219C28.1307 17.3739 27.7987 16.5099 27.7987 15.5379C27.7987 14.7819 28.1307 13.9179 28.9067 13.2699ZM41.3167 12.4059C41.4277 12.2979 41.5387 12.1899 41.7607 12.1899C41.8707 12.1899 42.0927 12.2979 42.2037 12.4059C42.2037 12.5139 42.3137 12.6219 42.3137 12.7299V18.6699C42.3137 18.7779 42.2037 18.9939 42.0937 19.1019C41.9817 19.2099 41.8707 19.3179 41.6497 19.3179C41.5397 19.3179 41.3177 19.2099 41.2067 19.1019C41.0957 18.9939 40.9847 18.8859 40.9847 18.6699V16.2939H37.3277V18.5619C37.3277 18.6699 37.2177 18.8859 37.1067 18.9939C36.9957 19.1019 36.8847 19.2099 36.6627 19.2099C36.5527 19.2099 36.3307 19.1019 36.2197 18.9939C36.1097 18.8859 35.9987 18.7779 35.9987 18.5619V12.7299C35.9987 12.6219 36.1087 12.4059 36.2197 12.2979C36.3307 12.1899 36.4417 12.0819 36.6627 12.0819C36.7737 12.0819 36.9957 12.1899 37.1067 12.2979C37.2167 12.4059 37.3277 12.5139 37.3277 12.7299V15.2139H40.9847V12.7299L41.3177 12.4059H41.3167Z" fill="white"/>
</g>
<defs>
<clipPath id="clip0_4314_74402">
<rect width="50" height="30" fill="white" transform="translate(0.75 0.253906)"/>
</clipPath>
</defs>
</svg>
