<svg width="51" height="31" viewBox="0 0 51 31" fill="none" xmlns="http://www.w3.org/2000/svg">
<g clip-path="url(#clip0_4314_72543)">
<path d="M0.75 0.253906H50.75V30.2539H0.75V0.253906Z" fill="#EFEEEE"/>
<path d="M19.8991 25.108V23.734C19.9481 23.292 19.6041 22.9 19.1621 22.851H19.0641C18.7691 22.851 18.4741 22.998 18.2781 23.243C18.1311 22.998 17.8371 22.851 17.5421 22.851C17.4148 22.8461 17.2886 22.8754 17.1764 22.9357C17.0643 22.996 16.9702 23.0852 16.9041 23.194V22.9H16.4141V25.108H16.9041V23.881C16.8541 23.587 17.0511 23.341 17.3461 23.292H17.4441C17.7381 23.292 17.9341 23.488 17.9341 23.881V25.108H18.4261V23.881C18.3761 23.587 18.5731 23.341 18.8681 23.292H18.9661C19.3091 23.292 19.4561 23.488 19.4561 23.881V25.108H19.8981H19.8991ZM22.6481 24.028V22.9H22.1571V23.145C22.0731 23.0424 21.9684 22.9589 21.8498 22.8997C21.7312 22.8406 21.6015 22.8073 21.4691 22.802C20.8311 22.851 20.3401 23.39 20.3891 24.028C20.4391 24.617 20.8801 25.058 21.4691 25.108C21.7641 25.108 22.0091 25.01 22.1571 24.813V25.058H22.6471V24.028H22.6481ZM20.8311 24.028C20.8311 23.685 21.1751 23.39 21.5191 23.39C21.8621 23.39 22.1571 23.734 22.1571 24.077C22.1571 24.421 21.8621 24.715 21.4691 24.715C21.1261 24.715 20.7821 24.421 20.7821 24.077C20.8321 24.077 20.8321 24.028 20.8321 24.028H20.8311ZM32.9081 22.851C33.0551 22.851 33.2511 22.9 33.3981 22.949C33.5461 22.998 33.6441 23.096 33.7911 23.194C33.8891 23.292 33.9881 23.439 34.0371 23.587C34.0861 23.734 34.1351 23.881 34.1351 24.028C34.1351 24.175 34.0851 24.323 34.0371 24.47C33.9871 24.617 33.8891 24.715 33.7911 24.862C33.6799 24.9716 33.5461 25.0556 33.3991 25.108C33.2543 25.1806 33.0945 25.2185 32.9326 25.2185C32.7706 25.2185 32.6108 25.1806 32.4661 25.108C32.1711 25.01 31.9751 24.764 31.8281 24.518C31.772 24.3774 31.7386 24.2289 31.7291 24.078C31.7291 23.93 31.7791 23.783 31.8281 23.636C31.8771 23.488 31.9751 23.39 32.0731 23.243C32.1711 23.145 32.3181 23.047 32.4661 22.998C32.5953 22.9058 32.7493 22.8546 32.9081 22.851ZM32.9081 23.292C32.8091 23.292 32.7111 23.292 32.6131 23.342C32.5151 23.39 32.4661 23.439 32.3681 23.488C32.3181 23.538 32.2691 23.636 32.2201 23.734C32.171 23.9272 32.171 24.1297 32.2201 24.323C32.2701 24.421 32.3191 24.47 32.3681 24.568C32.4171 24.617 32.5151 24.666 32.6131 24.715C32.8091 24.765 33.0061 24.765 33.1531 24.715C33.2511 24.666 33.3001 24.617 33.3981 24.568C33.4481 24.518 33.4971 24.421 33.5461 24.323C33.5951 24.1294 33.5951 23.9266 33.5461 23.733C33.4961 23.636 33.4481 23.587 33.3991 23.488C33.3491 23.439 33.3001 23.39 33.2021 23.39C33.1041 23.341 33.0061 23.292 32.9081 23.292ZM25.2491 24.028C25.2991 23.439 24.8571 22.948 24.2681 22.851H24.1691C23.5801 22.851 23.0891 23.292 23.0891 23.93V24.028C23.0783 24.1732 23.0966 24.3192 23.1428 24.4573C23.189 24.5955 23.2622 24.7231 23.3581 24.8327C23.454 24.9423 23.5708 25.0317 23.7016 25.0958C23.8324 25.1599 23.9747 25.1973 24.1201 25.206H24.2191C24.5621 25.206 24.8571 25.108 25.1021 24.911L24.8571 24.568C24.6601 24.715 24.4641 24.813 24.2181 24.813C23.8751 24.863 23.5801 24.617 23.5311 24.273H25.2011C25.2491 24.126 25.2491 24.077 25.2491 24.028ZM23.5801 23.832C23.5801 23.538 23.8751 23.292 24.1701 23.292C24.4641 23.292 24.7101 23.537 24.7101 23.832H23.5801ZM27.2621 23.488C27.0661 23.39 26.8201 23.292 26.5751 23.292C26.3291 23.292 26.1331 23.39 26.1331 23.537C26.1331 23.685 26.2801 23.734 26.5261 23.783L26.7711 23.832C27.2621 23.881 27.5571 24.126 27.5571 24.47C27.5571 24.813 27.1641 25.206 26.5261 25.206C26.1768 25.2067 25.8351 25.104 25.5441 24.911L25.7891 24.519C25.9861 24.666 26.2801 24.764 26.5261 24.764C26.8691 24.764 27.0161 24.666 27.0161 24.519C27.0161 24.372 26.8691 24.323 26.6241 24.274L26.3791 24.224C25.8881 24.175 25.6421 23.93 25.6421 23.587C25.6421 23.145 25.9861 22.9 26.5751 22.9C26.8691 22.9 27.2131 22.949 27.4581 23.145L27.2621 23.488ZM29.5691 23.341H28.7841V24.323C28.7841 24.568 28.8821 24.715 29.1281 24.715C29.2865 24.7113 29.4401 24.6601 29.5691 24.568L29.7171 24.96C29.5201 25.059 29.3241 25.157 29.1271 25.108C28.5391 25.108 28.3421 24.813 28.3421 24.274V23.292H27.9001V22.9H28.3421V22.262H28.8331V22.9H29.6181L29.5691 23.341ZM31.2391 22.851C31.3371 22.851 31.4841 22.851 31.5821 22.9L31.4351 23.39C31.3371 23.341 31.2381 23.341 31.1401 23.341C30.8461 23.341 30.6501 23.538 30.6501 23.93V25.157H30.1591V22.9H30.6491V23.145C30.7157 23.0513 30.8044 22.9754 30.9073 22.9242C31.0102 22.8729 31.1241 22.8477 31.2391 22.851ZM34.5771 24.813H34.6751C34.7241 24.813 34.7241 24.863 34.7241 24.863L34.7741 24.911V25.108C34.7741 25.157 34.7241 25.157 34.7241 25.206L34.6741 25.255H34.4781C34.4291 25.255 34.4291 25.255 34.3801 25.205C34.3801 25.205 34.3311 25.157 34.3311 25.108V24.911C34.3311 24.862 34.3811 24.862 34.3811 24.862C34.3811 24.862 34.4291 24.813 34.4791 24.813H34.5771ZM34.5771 25.206H34.6261C34.6261 25.206 34.6751 25.206 34.6751 25.156L34.7241 25.108V24.96C34.7241 24.96 34.7241 24.911 34.6741 24.911L34.6261 24.862H34.5281C34.5281 24.862 34.4781 24.862 34.4781 24.912L34.4291 24.96V25.108L34.4791 25.157L34.5281 25.206H34.5771ZM34.5771 24.96H34.6261V25.059H34.5761L34.6261 25.157H34.5761L34.5281 25.059V25.157H34.4781V24.96H34.5771ZM34.5271 25.01V25.059H34.6261H34.5281V25.009L34.5271 25.01Z" fill="black"/>
<path d="M28.9322 6.02197H21.6172V19.122H28.9322V6.02197Z" fill="#7673C0"/>
<path d="M22.0601 12.5959C22.0601 10.0439 23.2381 7.63989 25.2501 6.02089C23.5053 4.65472 21.2895 4.03719 19.0896 4.30402C16.8897 4.57085 14.8857 5.70021 13.5181 7.44389C10.6701 11.0739 11.3081 16.3239 14.8921 19.1699C17.9361 21.5739 22.2071 21.5739 25.2021 19.1699C23.2371 17.5509 22.0591 15.1469 22.0591 12.5959H22.0601Z" fill="#EB001B"/>
<path d="M37.965 17.7479V17.5029H38.063V17.4529H37.769V17.5029H37.867V17.7479H37.965ZM38.505 17.7479V17.4039H38.407L38.309 17.6499L38.21 17.4039H38.112V17.7479H38.162V17.5029L38.26 17.6989H38.309L38.407 17.5019V17.7479H38.505ZM38.75 12.5949C38.7507 13.6909 38.5352 14.7762 38.1159 15.7888C37.6967 16.8014 37.0819 17.7214 36.3067 18.4962C35.5315 19.2709 34.6111 19.8851 33.5983 20.3038C32.5854 20.7224 31.5 20.9372 30.404 20.9359C28.5388 20.9283 26.7279 20.3078 25.25 19.1699C26.1156 18.4942 26.8385 17.6534 27.3769 16.6963C27.9152 15.7392 28.2582 14.6847 28.3861 13.5941C28.514 12.5034 28.4242 11.3982 28.1219 10.3425C27.8196 9.28681 27.3108 8.30159 26.625 7.44394C26.232 6.90394 25.741 6.46394 25.25 6.07094C26.9949 4.70445 29.2109 4.08673 31.4111 4.35357C33.6112 4.62041 35.6154 5.74996 36.983 7.49394C38.1272 8.94773 38.7495 10.7439 38.75 12.5939V12.5949Z" fill="#00A1DF"/>
</g>
<defs>
<clipPath id="clip0_4314_72543">
<rect x="0.75" y="0.253906" width="50" height="30" rx="4" fill="white"/>
</clipPath>
</defs>
</svg>
