<svg width="51" height="31" viewBox="0 0 51 31" fill="none" xmlns="http://www.w3.org/2000/svg">
<g clip-path="url(#clip0_4314_74385)">
<path d="M0.078125 0.253906H50.0781V30.2539H0.078125V0.253906Z" fill="#2E3092"/>
<path fill-rule="evenodd" clip-rule="evenodd" d="M3.07812 19.222L8.14513 11.302H9.78312V16.362L13.1021 11.302H14.7381V19.222H13.1021V13.636L9.78312 19.222H8.14513V13.612L4.71513 19.222H3.07812ZM15.1921 19.222L18.5551 11.302H19.7551L23.1371 19.222H21.4081L20.5901 17.197H17.8481L17.0301 19.222H15.1921ZM18.3981 15.746H19.9921L19.1721 13.6L18.3981 15.746ZM25.9631 15.131L26.1181 16.627H29.1931C28.1621 18.789 24.3091 17.982 24.3251 15.317C24.3501 12.621 27.8251 11.81 29.0391 13.844H30.8971C30.4701 12.425 29.2431 11.245 26.9701 11.254C24.4701 11.243 22.7901 12.983 22.7901 15.131C22.7901 17.679 24.8561 19.393 27.0671 19.349C28.9821 19.397 31.2471 17.805 31.2071 15.131H25.9631ZM31.7781 19.22H33.3691V13.84L36.6891 19.22H38.2831V11.3H36.6881V16.899L33.3691 11.301H31.7781V19.22ZM41.4471 17.198H44.1011L44.9651 19.222H46.6901L43.4831 11.301H42.3531L38.8351 19.222H40.5171L41.4471 17.198ZM42.8601 13.621C42.8601 13.842 42.0201 15.744 42.0201 15.744H43.6341L42.8601 13.621Z" fill="#FEFEFE"/>
</g>
<defs>
<clipPath id="clip0_4314_74385">
<rect x="0.078125" y="0.253906" width="50" height="30" rx="4" fill="white"/>
</clipPath>
</defs>
</svg>
