<svg width="50" height="30" viewBox="0 0 50 30" fill="none" xmlns="http://www.w3.org/2000/svg">
<g clip-path="url(#clip0_4500_38230)">
<rect width="50" height="30" fill="#EFEEEE"/>
<path fill-rule="evenodd" clip-rule="evenodd" d="M36.148 24.0111C36.148 23.6127 36.4153 23.2939 36.8464 23.2939C37.2589 23.2939 37.5306 23.5994 37.5306 24.0111C37.5306 24.4227 37.2589 24.7282 36.8464 24.7282C36.4153 24.7282 36.148 24.4096 36.148 24.0111ZM37.9626 24.0108V22.103H37.5125V23.2097C37.358 23.0193 37.1047 22.8999 36.7862 22.8999C36.1579 22.8999 35.68 23.3644 35.68 24.0108C35.68 24.6572 36.1579 25.1218 36.7862 25.1218C37.1047 25.1218 37.358 25.0022 37.5125 24.8121V25.0688H37.9626V24.0108ZM31.625 24.0111C31.625 23.6127 31.892 23.2939 32.3234 23.2939C32.7358 23.2939 33.0076 23.5994 33.0076 24.0111C33.0076 24.4227 32.7358 24.7282 32.3234 24.7282C31.892 24.7282 31.625 24.4096 31.625 24.0111ZM33.4395 24.0115V22.9537H32.9894V23.2103C32.8349 23.02 32.5817 22.9006 32.2629 22.9006C31.6349 22.9006 31.157 23.3651 31.157 24.0115C31.157 24.6578 31.6349 25.1225 32.2629 25.1225C32.5817 25.1225 32.8349 25.0029 32.9894 24.8128V25.0694H33.4395V24.0115ZM38.7364 24.9089V24.9611H38.7869C38.7984 24.9611 38.8078 24.9589 38.8148 24.9545C38.8216 24.9503 38.8251 24.9438 38.8251 24.9348C38.8251 24.9262 38.8216 24.9197 38.8148 24.9155C38.8078 24.9111 38.7984 24.9089 38.7869 24.9089H38.7364ZM38.7877 24.8738C38.8144 24.8738 38.835 24.8793 38.849 24.8906C38.8635 24.9016 38.8705 24.9169 38.8705 24.9361C38.8705 24.9522 38.8649 24.9655 38.8535 24.9759C38.842 24.9863 38.8258 24.9927 38.8048 24.9951L38.8722 25.0687H38.8193L38.7568 24.9958H38.7367V25.0687H38.6924V24.8738H38.7877ZM38.774 25.1348C38.7979 25.1348 38.8202 25.1304 38.841 25.122C38.8618 25.1133 38.8798 25.1016 38.8953 25.087C38.9112 25.0722 38.9231 25.055 38.9323 25.0351C38.9412 25.0152 38.9456 24.9938 38.9456 24.9712C38.9456 24.9484 38.9412 24.9272 38.9323 24.9073C38.9231 24.8874 38.9112 24.8702 38.8953 24.8554C38.8798 24.8406 38.8618 24.8291 38.841 24.8207C38.8202 24.8123 38.7979 24.8078 38.774 24.8078C38.7495 24.8078 38.7268 24.8123 38.7057 24.8207C38.6844 24.8291 38.6659 24.8406 38.65 24.8554C38.6345 24.8702 38.6221 24.8874 38.6132 24.9073C38.6043 24.9272 38.6001 24.9484 38.6001 24.9712C38.6001 24.9938 38.6043 25.0152 38.6132 25.0351C38.6221 25.055 38.6345 25.0722 38.65 25.087C38.6659 25.1016 38.6844 25.1133 38.7057 25.122C38.7268 25.1304 38.7495 25.1348 38.774 25.1348ZM38.7743 24.7617C38.8056 24.7617 38.8349 24.7674 38.8623 24.7785C38.8897 24.7891 38.9135 24.8044 38.9341 24.8234C38.9545 24.8426 38.9709 24.8647 38.9826 24.8904C38.9943 24.916 39.0006 24.9432 39.0006 24.9719C39.0006 25.0009 38.9943 25.0279 38.9826 25.0533C38.9709 25.0787 38.9545 25.1008 38.9341 25.12C38.9135 25.139 38.8897 25.1541 38.8623 25.1654C38.8349 25.1762 38.8056 25.1819 38.7743 25.1819C38.7422 25.1819 38.7122 25.1762 38.6846 25.1654C38.6568 25.1541 38.6324 25.139 38.6123 25.12C38.5917 25.1008 38.5758 25.0787 38.5641 25.0533C38.5524 25.0279 38.5463 25.0009 38.5463 24.9719C38.5463 24.9432 38.5524 24.916 38.5641 24.8904C38.5758 24.8647 38.5917 24.8426 38.6123 24.8234C38.6324 24.8044 38.6568 24.7891 38.6846 24.7785C38.7122 24.7674 38.7422 24.7617 38.7743 24.7617ZM35.1645 22.9006C34.8834 22.9006 34.6816 23.0244 34.5552 23.2103V22.9537H34.1101V25.0694H34.5599V23.8786C34.5599 23.5289 34.738 23.3032 35.0568 23.3032C35.1551 23.3032 35.2584 23.3164 35.3616 23.3565L35.5114 22.9579C35.4035 22.9183 35.263 22.9006 35.1645 22.9006ZM17.8702 24.0111C17.8702 23.6127 18.1373 23.2939 18.5686 23.2939C18.9811 23.2939 19.2528 23.5994 19.2528 24.0111C19.2528 24.4227 18.9811 24.7282 18.5686 24.7282C18.1373 24.7282 17.8702 24.4096 17.8702 24.0111ZM19.6837 24.0115V22.9537H19.2338V23.2103C19.0791 23.02 18.8261 22.9006 18.5073 22.9006C17.8793 22.9006 17.4011 23.3651 17.4011 24.0115C17.4011 24.6578 17.8793 25.1225 18.5073 25.1225C18.8261 25.1225 19.0791 25.0029 19.2338 24.8128V25.0694H19.6837V24.0115ZM25.7485 23.2939C26.0814 23.2939 26.3063 23.4978 26.3391 23.8296H25.1299C25.172 23.5196 25.3876 23.2939 25.7485 23.2939ZM25.7582 22.9006C25.1021 22.9006 24.652 23.3474 24.652 24.007C24.652 24.6797 25.1208 25.1225 25.7912 25.1225C26.1285 25.1225 26.4379 25.0429 26.7096 24.8261L26.4704 24.5117C26.2832 24.6532 26.0442 24.733 25.8193 24.733C25.5052 24.733 25.1866 24.5648 25.1302 24.1841H26.8033C26.8082 24.1266 26.8126 24.0692 26.8126 24.007C26.8082 23.3474 26.3862 22.9006 25.7582 22.9006ZM28.907 24.0115C28.907 24.6532 29.3618 25.1225 30.0836 25.1225C30.4209 25.1225 30.6458 25.0518 30.8895 24.8703L30.6552 24.5382C30.4724 24.662 30.2805 24.7286 30.0693 24.7286C29.6803 24.7242 29.3756 24.4366 29.3756 24.0115C29.3756 23.5866 29.6803 23.2988 30.0693 23.2943C30.2805 23.2943 30.4724 23.3609 30.6552 23.4847L30.8895 23.1526C30.6458 22.9714 30.4209 22.9006 30.0836 22.9006C29.3618 22.9006 28.907 23.3697 28.907 24.0115ZM22.1119 23.1219C21.8774 22.9756 21.5541 22.9006 21.1979 22.9006C20.6308 22.9006 20.2839 23.1526 20.2839 23.5733C20.2839 23.9186 20.5369 24.1266 21.0385 24.1929L21.2681 24.2239C21.5352 24.2593 21.6808 24.3477 21.6808 24.4675C21.6808 24.6313 21.4837 24.7374 21.1511 24.7374C20.7995 24.7374 20.5697 24.6355 20.4058 24.5161L20.1762 24.8482C20.5088 25.0783 20.9072 25.1225 21.1464 25.1225C21.7931 25.1225 22.1494 24.8391 22.1494 24.4366C22.1494 24.0645 21.8774 23.8742 21.3854 23.8079L21.1558 23.7767C20.9446 23.7502 20.7574 23.6883 20.7574 23.5466C20.7574 23.3918 20.9353 23.2855 21.2026 23.2855C21.4884 23.2855 21.765 23.3874 21.9008 23.467L22.1119 23.1219ZM28.3961 22.9006C28.115 22.9006 27.9132 23.0244 27.7866 23.2103V22.9537H27.3414V25.0694H27.7915V23.8786C27.7915 23.5289 27.9697 23.3032 28.2882 23.3032C28.3868 23.3032 28.4897 23.3164 28.593 23.3565L28.7428 22.9579C28.6351 22.9183 28.4947 22.9006 28.3961 22.9006ZM24.2392 22.9537H23.4235V22.3118H22.9689V22.9537H22.4954V23.3386H22.9689V24.3389C22.9689 24.8305 23.1517 25.1225 23.7282 25.1225C23.9391 25.1225 24.1828 25.0606 24.3375 24.9587L24.1968 24.5825C24.0515 24.6621 23.8923 24.7021 23.7657 24.7021C23.522 24.7021 23.4235 24.5604 23.4235 24.3477V23.3386H24.2392V22.9537ZM16.937 25.0696V23.7373C16.937 23.237 16.6185 22.905 16.0747 22.9008C15.7887 22.8962 15.4936 22.9804 15.2873 23.2768C15.1326 23.0423 14.8887 22.9008 14.5468 22.9008C14.3076 22.9008 14.0545 22.9627 13.8717 23.2105V22.9539H13.4219V25.0696H13.8764V23.8567C13.8764 23.4895 14.111 23.2945 14.4438 23.2945C14.767 23.2945 14.9498 23.4937 14.9498 23.8522V25.0696H15.4044V23.8567C15.4044 23.4895 15.6483 23.2945 15.9715 23.2945C16.3043 23.2945 16.4825 23.4937 16.4825 23.8522V25.0696H16.937Z" fill="#4A4A4A"/>
<path fill-rule="evenodd" clip-rule="evenodd" d="M21.5938 19.3673H29.7647V6.70947H21.5938V19.3673Z" fill="#FF5F00"/>
<path fill-rule="evenodd" clip-rule="evenodd" d="M22.313 13.0394C22.313 10.4748 23.5592 8.19097 25.4999 6.71887C24.0805 5.64226 22.2898 5 20.3434 5C15.7355 5 12 8.59942 12 13.0394C12 17.4794 15.7355 21.0788 20.3434 21.0788C22.2898 21.0788 24.0805 20.4366 25.4999 19.3599C23.5592 17.8878 22.313 15.6038 22.313 13.0394Z" fill="#EB001B"/>
<path fill-rule="evenodd" clip-rule="evenodd" d="M38.9993 18.1776V17.656H38.9138L38.8154 18.0145L38.7172 17.656H38.6317V18.1776H38.6919V17.7841L38.7842 18.1231H38.8468L38.9389 17.783V18.1776H38.9993ZM38.4582 18.1774V17.7447H38.5676V17.6562H38.2891V17.7447H38.3985V18.1774H38.4582Z" fill="#F79E1B"/>
<path fill-rule="evenodd" clip-rule="evenodd" d="M38.9999 13.0394C38.9999 17.4794 35.2643 21.0788 30.6564 21.0788C28.7101 21.0788 26.9192 20.4366 25.5 19.3599C27.4407 17.8878 28.6869 15.6038 28.6869 13.0394C28.6869 10.4748 27.4407 8.19097 25.5 6.71887C26.9192 5.64226 28.7101 5 30.6564 5C35.2643 5 38.9999 8.59942 38.9999 13.0394Z" fill="#F79E1B"/>
</g>
<defs>
<clipPath id="clip0_4500_38230">
<rect width="50" height="30" rx="4" fill="white"/>
</clipPath>
</defs>
</svg>
