<svg width="50" height="30" viewBox="0 0 50 30" fill="none" xmlns="http://www.w3.org/2000/svg">
<rect x="0.1" y="0.1" width="49.8" height="29.8" rx="3.9" fill="white"/>
<path d="M44.4945 8.54041C44.0354 7.97109 43.3375 7.67725 42.4009 7.67725C41.4643 7.67725 40.7664 7.97109 40.3073 8.54041C39.8481 9.10973 39.6094 9.78924 39.6094 10.5789C39.6094 11.387 39.8481 12.0665 40.3073 12.6358C40.7664 13.2052 41.4643 13.4806 42.4009 13.4806C43.3375 13.4806 44.0354 13.2052 44.4945 12.6358C44.9536 12.0665 45.1924 11.387 45.1924 10.5789C45.1924 9.80761 44.9536 9.1281 44.4945 8.54041ZM43.3559 11.8461C43.1355 12.14 42.8049 12.2869 42.4009 12.2869C41.9785 12.2869 41.6663 12.14 41.4459 11.8461C41.2255 11.5523 41.1153 11.1299 41.1153 10.5789C41.1153 10.028 41.2255 9.60559 41.4459 9.31175C41.6663 9.0179 41.9968 8.87098 42.4009 8.87098C42.8233 8.87098 43.1355 9.0179 43.3559 9.31175C43.5763 9.60559 43.6864 10.028 43.6864 10.5789C43.6864 11.1299 43.5763 11.5523 43.3559 11.8461Z" fill="#253E8A"/>
<path d="M32.7572 8.06281C32.298 7.82406 31.7654 7.71387 31.1594 7.71387C30.2411 7.71387 29.58 7.95262 29.2127 8.43011C28.9739 8.74232 28.8454 9.12799 28.8087 9.60548H30.186C30.2228 9.40347 30.2962 9.21981 30.3881 9.10962C30.535 8.94433 30.7737 8.85251 31.1227 8.85251C31.4349 8.85251 31.6553 8.88924 31.8205 8.98107C31.9858 9.07289 32.0593 9.21981 32.0593 9.4402C32.0593 9.62385 31.9491 9.7524 31.7471 9.84423C31.6369 9.89933 31.4349 9.93606 31.1778 9.97279L30.6819 10.0279C30.1309 10.1013 29.7085 10.2115 29.4147 10.3768C28.9005 10.6707 28.625 11.1665 28.625 11.8277C28.625 12.3419 28.7903 12.7459 29.1209 13.0214C29.4514 13.2969 29.8555 13.4254 30.3513 13.4438C33.4734 13.5907 33.4367 11.7909 33.4734 11.4236V9.36673C33.455 8.74232 33.2163 8.30155 32.7572 8.06281ZM32.0226 11.1849C32.0042 11.6624 31.8756 11.993 31.6185 12.1766C31.3614 12.3603 31.0676 12.4521 30.7554 12.4521C30.5533 12.4521 30.3881 12.397 30.2595 12.2868C30.1309 12.1766 30.0575 11.993 30.0575 11.7542C30.0575 11.4787 30.1677 11.2767 30.3881 11.1482C30.5166 11.0747 30.737 11.0012 31.0492 10.9461L31.3798 10.891C31.5451 10.8543 31.6736 10.836 31.7654 10.7992C31.8573 10.7625 31.9491 10.7258 32.0409 10.6707V11.1849H32.0226Z" fill="#253E8A"/>
<path d="M25.627 8.92597C25.976 8.92597 26.2515 9.03616 26.4167 9.25654C26.5269 9.42183 26.6004 9.60548 26.6371 9.8075H28.1798C28.088 9.03616 27.8309 8.48521 27.3717 8.173C26.9126 7.86079 26.3249 7.71387 25.6087 7.71387C24.7639 7.71387 24.1027 7.97098 23.6069 8.4852C23.1294 8.99943 22.8906 9.73404 22.8906 10.6707C22.8906 11.4971 23.111 12.1766 23.5518 12.6908C23.9925 13.2051 24.6721 13.4622 25.5903 13.4622C26.5086 13.4622 27.2064 13.15 27.6839 12.5255C27.9778 12.1399 28.1431 11.7358 28.1798 11.2951H26.6371C26.6004 11.5889 26.5086 11.8093 26.3617 11.993C26.2147 12.1766 25.9576 12.2684 25.6087 12.2684C25.1128 12.2684 24.7822 12.0481 24.5986 11.5889C24.5068 11.3502 24.4517 11.0196 24.4517 10.6339C24.4517 10.2115 24.5068 9.88096 24.5986 9.62385C24.7822 9.16472 25.1312 8.92597 25.627 8.92597Z" fill="#253E8A"/>
<path d="M22.485 7.73223C19.3262 7.73223 19.5098 10.5237 19.5098 10.5237V13.3703H20.9423V10.7074C20.9423 10.2666 20.9974 9.95442 21.1076 9.73404C21.3096 9.36673 21.6953 9.16472 22.2646 9.16472C22.3013 9.16472 22.3564 9.16472 22.4299 9.16472C22.5033 9.16472 22.5768 9.18308 22.6686 9.18308V7.71387C22.6135 7.71387 22.5584 7.71387 22.5401 7.71387C22.5217 7.73223 22.5033 7.73223 22.485 7.73223Z" fill="#253E8A"/>
<path d="M17.2028 11.883C17.1477 11.9748 17.0742 12.0482 17.0008 12.1033C16.7987 12.2686 16.5233 12.3237 16.1927 12.3237C15.8805 12.3237 15.6417 12.2686 15.4214 12.1401C15.054 11.9197 14.8704 11.5524 14.8337 11.0014H18.8005C18.8005 10.5239 18.7822 10.175 18.7455 9.91788C18.672 9.49548 18.5434 9.10981 18.3047 8.7976C18.0659 8.4303 17.7354 8.15482 17.3681 7.98953C16.9824 7.82425 16.56 7.73242 16.0825 7.73242C15.2744 7.73242 14.6316 7.98953 14.1358 8.48539C13.6399 8.98125 13.3828 9.71586 13.3828 10.6525C13.3828 11.6626 13.6583 12.3972 14.2092 12.8379C14.7602 13.2787 15.403 13.5175 16.1376 13.5175C17.0191 13.5175 17.6986 13.2603 18.1945 12.7278C18.4516 12.4523 18.6169 12.1768 18.6904 11.9013H17.2028V11.883ZM15.2561 9.22C15.4581 9.01799 15.7336 8.90779 16.1009 8.90779C16.4314 8.90779 16.7253 8.99962 16.9457 9.20164C17.166 9.40365 17.2946 9.67913 17.3313 10.0648H14.8704C14.9439 9.6975 15.0724 9.42202 15.2561 9.22Z" fill="#253E8A"/>
<path d="M12.8236 13.3703H11.5196V10.0646C11.5196 9.77077 11.4278 9.05453 10.5463 9.05453C9.97697 9.05453 9.55457 9.47693 9.55457 10.0646V13.3703H8.25064V10.0646C8.25064 9.77077 8.15881 9.05453 7.29565 9.05453C6.70796 9.05453 6.30393 9.47693 6.30393 10.0646V13.3703H5V10.1013C5 8.74232 5.8999 7.71387 7.31402 7.71387C8.01189 7.71387 8.58121 8.00771 8.94852 8.46684C9.33419 8.00771 9.90351 7.71387 10.583 7.71387C12.0155 7.71387 12.8603 8.70559 12.8603 10.1013V13.3703H12.8236Z" fill="#253E8A"/>
<path d="M39.2009 6.00603C39.2009 6.00603 37.7501 5.85911 37.7501 7.01611V8.55879C37.5848 8.30168 37.3827 8.09966 37.1256 7.95274C36.8685 7.80582 36.5747 7.73236 36.2441 7.73236C35.5279 7.73236 34.9585 8.00783 34.5178 8.54042C34.0954 9.07301 33.875 9.84435 33.875 10.781C33.875 11.589 34.0954 12.2502 34.5361 12.7644C34.9769 13.2786 35.8217 13.499 36.5747 13.499C39.2193 13.499 39.1825 11.2401 39.1825 11.2401L39.2009 6.00603ZM37.4746 11.8645C37.2726 12.1584 36.9604 12.3237 36.5563 12.3237C36.1523 12.3237 35.8584 12.1767 35.6564 11.8645C35.4544 11.5707 35.3626 11.1299 35.3626 10.6157C35.3626 10.1566 35.4544 9.75253 35.6564 9.44032C35.8584 9.12811 36.1523 8.96282 36.5747 8.96282C36.8502 8.96282 37.0889 9.05465 37.2909 9.21994C37.6215 9.51378 37.8052 10.028 37.8052 10.6892C37.8052 11.1666 37.695 11.5707 37.4746 11.8645Z" fill="#253E8A"/>
<path d="M15.4899 22.4795C15.4899 22.6815 15.4165 22.8468 15.2695 22.9754C15.1226 23.1223 14.9573 23.1774 14.7553 23.1774H14.0391V18.182C14.0391 17.2087 14.3696 16.6026 14.9022 16.1986C15.2512 15.9231 15.7838 15.666 16.7755 15.666C17.4366 15.666 18.2263 15.9231 18.6487 16.4374C19.1262 17.025 19.3282 17.6678 19.3282 18.5126C19.3282 19.3942 19.1262 20.092 18.7038 20.643C18.2814 21.1756 17.7488 21.4327 17.0877 21.4327C16.7387 21.4327 16.4265 21.3776 16.1511 21.249C15.8756 21.1021 15.6368 20.9001 15.4715 20.6063V22.4795H15.4899ZM17.8958 18.6044C17.8958 18.0719 17.7856 17.6495 17.5835 17.3556C17.3815 17.0618 17.0693 16.9148 16.6836 16.9148C16.298 16.9148 16.0041 17.0618 15.8021 17.3556C15.6001 17.6127 15.5083 18.0351 15.5083 18.6044C15.5083 19.137 15.6185 19.5227 15.8205 19.7982C16.0225 20.092 16.3347 20.2389 16.7204 20.2389C17.0877 20.2389 17.3815 20.092 17.5835 19.7982C17.7856 19.486 17.8958 19.1003 17.8958 18.6044Z" fill="#00AEEF"/>
<path d="M28.8508 20.992V20.643C28.5937 21.0287 28.2631 21.2674 27.8407 21.3776C27.4183 21.4694 26.9959 21.4327 26.5919 21.2674C26.1695 21.1021 25.8205 20.7899 25.5267 20.3492C25.2329 19.89 25.0859 19.3024 25.0859 18.5677C25.0859 17.7046 25.288 17.0067 25.6736 16.4741C26.0593 15.9415 26.7021 15.7028 27.5652 15.666C28.4284 15.6477 28.9243 15.8313 29.4018 16.1986C29.9343 16.6027 30.2466 17.2271 30.2466 18.2004V21.1389C30.2466 22.0755 29.6038 23.8018 27.5469 23.6549C26.2797 23.5631 25.5818 23.0489 25.1778 21.8735H26.6837C26.7939 22.0755 26.9592 22.2224 27.1979 22.3142C27.4183 22.4244 27.6571 22.4428 27.8774 22.4061C28.0978 22.351 28.3182 22.2224 28.5019 22.002C28.7222 21.7633 28.8324 21.4327 28.8508 20.992ZM26.4817 18.6045C26.4817 19.5595 26.7572 20.0921 27.3081 20.2023C27.8591 20.3124 28.2631 20.1839 28.5386 19.8166C28.6671 19.6697 28.759 19.4309 28.8141 19.1003C28.8692 18.7698 28.8692 18.4576 28.8324 18.127C28.7773 17.8148 28.6672 17.5209 28.4835 17.2822C28.2998 17.0251 28.0427 16.9149 27.6938 16.9149C27.2163 16.9149 26.9041 17.0802 26.7388 17.4291C26.5735 17.7597 26.4817 18.1454 26.4817 18.6045Z" fill="#00AEEF"/>
<path d="M23.8665 16.0518C23.4074 15.8131 22.8565 15.7029 22.2688 15.7029C21.3505 15.7029 20.6894 15.9416 20.3221 16.4191C20.0833 16.7313 19.9548 17.117 19.918 17.5945H21.2954C21.3321 17.3741 21.4056 17.2088 21.4974 17.0986C21.6444 16.9334 21.8831 16.8415 22.232 16.8415C22.5443 16.8415 22.7646 16.8783 22.9299 16.9701C23.0952 17.0619 23.1687 17.2088 23.1687 17.4292C23.1687 17.6129 23.0585 17.7414 22.8565 17.8332C22.7463 17.8883 22.5442 17.9251 22.2871 17.9618L21.7913 18.0169C21.2403 18.0904 20.8179 18.2005 20.5241 18.3658C20.0099 18.6597 19.7344 19.1555 19.7344 19.8167C19.7344 20.3309 19.8997 20.7349 20.2302 21.0104C20.5608 21.2859 20.9648 21.4145 21.4607 21.4328C24.5828 21.5797 24.5461 19.78 24.5828 19.4126V17.3557C24.5644 16.7497 24.3257 16.2906 23.8665 16.0518ZM23.1319 19.1739C23.1319 19.6514 22.985 19.982 22.7279 20.1656C22.4708 20.3493 22.1769 20.4411 21.8647 20.4411C21.6627 20.4411 21.4974 20.386 21.3689 20.2758C21.222 20.1656 21.1669 19.982 21.1669 19.7432C21.1669 19.4677 21.2771 19.2657 21.4974 19.1372C21.626 19.0637 21.8464 18.9903 22.1586 18.9352L22.4892 18.8801C22.6544 18.8433 22.783 18.825 22.8748 18.7882C22.9667 18.7515 23.0585 18.7148 23.1503 18.6597V19.1739H23.1319Z" fill="#00AEEF"/>
<path d="M35.682 16.5109C35.2229 15.9415 34.525 15.6477 33.5884 15.6477C32.6518 15.6477 31.9539 15.9415 31.4948 16.5109C31.0356 17.0802 30.7969 17.7597 30.7969 18.5494C30.7969 19.3575 31.0356 20.037 31.4948 20.6063C31.9539 21.1756 32.6518 21.4511 33.5884 21.4511C34.525 21.4511 35.2229 21.1756 35.682 20.6063C36.1411 20.037 36.3799 19.3575 36.3799 18.5494C36.3799 17.7597 36.1411 17.0802 35.682 16.5109ZM34.5434 19.8166C34.323 20.1104 33.9924 20.2574 33.5884 20.2574C33.166 20.2574 32.8538 20.1104 32.6334 19.8166C32.413 19.5228 32.3028 19.1004 32.3028 18.5494C32.3028 17.9985 32.413 17.5761 32.6334 17.2822C32.8538 16.9884 33.1844 16.8414 33.5884 16.8414C34.0108 16.8414 34.323 16.9884 34.5434 17.2822C34.7638 17.5761 34.874 17.9985 34.874 18.5494C34.8923 19.1004 34.7638 19.5228 34.5434 19.8166Z" fill="#00AEEF"/>
<rect x="0.1" y="0.1" width="49.8" height="29.8" rx="3.9" stroke="black" stroke-width="0.2"/>
</svg>
