<svg width="51" height="31" viewBox="0 0 51 31" fill="none" xmlns="http://www.w3.org/2000/svg">
<g clip-path="url(#clip0_4338_86103)">
<path d="M0.75 0.253906H50.75V30.2539H0.75V0.253906Z" fill="#EFEEEE"/>
<mask id="mask0_4338_86103" style="mask-type:alpha" maskUnits="userSpaceOnUse" x="12" y="5" width="14" height="15">
<path fill-rule="evenodd" clip-rule="evenodd" d="M22.4703 6.19991C21.7333 7.42991 20.9963 8.59391 20.3263 9.75691L19.3203 11.3979C19.1863 11.2609 19.1203 11.1249 19.0523 10.9879C18.0454 9.40696 17.0626 7.81077 16.1043 6.19991C15.9703 5.92591 15.7693 5.85791 15.5013 5.85791H13.2223C13.0883 5.85791 12.9543 5.85791 12.8203 5.92591V19.1959H15.6353V10.7139H15.7023C16.9083 12.5609 18.0473 14.4079 19.3203 16.3239C19.7903 15.6389 20.1923 15.0239 20.5943 14.3399L21.8003 12.4929C22.1353 11.8089 22.4703 11.1929 22.9393 10.6459C23.0063 13.5189 22.9393 16.3229 22.9393 19.1279H25.7533V5.85791H23.0733C22.8053 5.85791 22.6713 5.99391 22.4703 6.19991Z" fill="white"/>
</mask>
<g mask="url(#mask0_4338_86103)">
<path fill-rule="evenodd" clip-rule="evenodd" d="M22.4703 6.19991C21.7333 7.42991 20.9963 8.59391 20.3263 9.75691L19.3203 11.3979C19.1863 11.2609 19.1203 11.1249 19.0523 10.9879C18.0454 9.40696 17.0626 7.81077 16.1043 6.19991C15.9703 5.92591 15.7693 5.85791 15.5013 5.85791H13.2223C13.0883 5.85791 12.9543 5.85791 12.8203 5.92591V19.1959H15.6353V10.7139H15.7023C16.9083 12.5609 18.0473 14.4079 19.3203 16.3239C19.7903 15.6389 20.1923 15.0239 20.5943 14.3399L21.8003 12.4929C22.1353 11.8089 22.4703 11.1929 22.9393 10.6459C23.0063 13.5189 22.9393 16.3229 22.9393 19.1279H25.7533V5.85791H23.0733C22.8053 5.85791 22.6713 5.99391 22.4703 6.19991Z" fill="url(#paint0_linear_4338_86103)"/>
</g>
<mask id="mask1_4338_86103" style="mask-type:alpha" maskUnits="userSpaceOnUse" x="28" y="5" width="11" height="15">
<path fill-rule="evenodd" clip-rule="evenodd" d="M36.4069 5.24197C35.9369 5.24197 35.9369 5.24197 35.9369 5.72197V10.099C35.8709 10.099 35.8039 10.099 35.8039 10.031L35.6029 9.82497C34.7319 9.07297 33.7259 8.66197 32.5869 8.73097C30.6439 8.86797 29.3039 9.89397 28.5669 11.741C28.0969 13.041 28.0309 14.34 28.3659 15.64C28.5609 16.6089 29.0526 17.4932 29.7729 18.17C31.3139 19.676 34.1959 19.95 35.6699 17.965C35.6699 17.897 35.7369 17.897 35.8699 17.829V19.129H38.6849V5.24097H36.4069V5.24197ZM31.5149 15.708C30.9119 14.614 30.9119 13.519 31.4479 12.425C31.8499 11.604 32.5879 11.262 33.3909 11.193C34.3299 11.193 34.9999 11.603 35.4009 12.356C36.0709 13.519 36.0709 14.682 35.4009 15.776C35.2002 16.1116 34.9154 16.3891 34.5747 16.5812C34.2339 16.7732 33.849 16.8731 33.4579 16.871C32.7209 16.871 31.9839 16.529 31.5149 15.708Z" fill="white"/>
</mask>
<g mask="url(#mask1_4338_86103)">
<path fill-rule="evenodd" clip-rule="evenodd" d="M36.4069 5.24197C35.9369 5.24197 35.9369 5.24197 35.9369 5.72197V10.099C35.8709 10.099 35.8039 10.099 35.8039 10.031L35.6029 9.82497C34.7319 9.07297 33.7259 8.66197 32.5869 8.73097C30.6439 8.86797 29.3039 9.89397 28.5669 11.741C28.0969 13.041 28.0309 14.34 28.3659 15.64C28.5609 16.6089 29.0526 17.4932 29.7729 18.17C31.3139 19.676 34.1959 19.95 35.6699 17.965C35.6699 17.897 35.7369 17.897 35.8699 17.829V19.129H38.6849V5.24097H36.4069V5.24197ZM31.5149 15.708C30.9119 14.614 30.9119 13.519 31.4479 12.425C31.8499 11.604 32.5879 11.262 33.3909 11.193C34.3299 11.193 34.9999 11.603 35.4009 12.356C36.0709 13.519 36.0709 14.682 35.4009 15.776C35.2002 16.1116 34.9154 16.3891 34.5747 16.5812C34.2339 16.7732 33.849 16.8731 33.4579 16.871C32.7209 16.871 31.9839 16.529 31.5149 15.708Z" fill="url(#paint1_linear_4338_86103)"/>
</g>
<mask id="mask2_4338_86103" style="mask-type:alpha" maskUnits="userSpaceOnUse" x="19" y="21" width="20" height="6">
<path fill-rule="evenodd" clip-rule="evenodd" d="M23.7406 22.479H24.6786V21.659H23.7406V22.479ZM21.9976 21.659V23.163C21.8636 23.095 21.7976 23.095 21.7976 23.026C21.1936 22.616 20.4576 22.684 19.9206 23.232C19.4506 23.779 19.4506 24.462 19.5856 25.078C19.8536 26.241 21.1936 26.515 21.8636 25.831H21.9306C21.9306 25.899 21.9976 26.036 21.9976 26.173H22.8016V21.658H21.9976V21.659ZM20.4576 24.463C20.4576 23.984 20.7916 23.573 21.2606 23.573C21.6626 23.573 21.9976 23.984 21.9976 24.463C21.9976 24.942 21.6626 25.353 21.2606 25.353C20.7916 25.353 20.4566 25.01 20.4566 24.463H20.4576ZM34.3276 22.89C34.1936 22.958 34.0596 23.095 33.9256 23.232C33.8586 23.095 33.8586 22.958 33.7916 22.89H32.9206V26.105H33.8586V25.215C33.8586 24.942 33.8586 24.668 33.9256 24.395C33.9926 24.052 34.1936 23.847 34.5286 23.779C34.8636 23.642 34.8636 23.642 34.8636 23.3C34.8636 23.163 34.8636 22.958 34.7966 22.684C34.6626 22.821 34.4616 22.821 34.3276 22.89ZM27.1576 22.821C26.9576 22.89 26.7556 23.026 26.4876 23.163C26.3536 22.821 26.0856 22.753 25.5496 22.958V26.105H26.4206V24.531C26.4206 24.326 26.4206 24.189 26.4876 23.984C26.5546 23.71 26.8226 23.574 27.0236 23.642C27.2916 23.642 27.4256 23.847 27.4936 24.121V25.763C27.4936 25.899 27.4936 26.036 27.5596 26.173H28.4306C28.4306 25.353 28.4976 24.6 28.4306 23.779C28.3636 23.163 27.9616 22.753 27.4256 22.753C27.3586 22.753 27.2256 22.821 27.1576 22.821ZM29.2346 23.779C28.8996 24.599 29.1676 25.557 29.9046 26.036C30.6426 26.446 31.7146 26.241 32.1836 25.557C32.1166 25.489 31.9826 25.42 31.9156 25.352C31.8486 25.284 31.7146 25.215 31.6476 25.147C30.8436 25.626 30.3076 25.489 30.1066 24.805H32.2506C32.3846 23.847 31.9156 23.026 31.1786 22.821C31.0446 22.821 30.8436 22.753 30.7086 22.753C30.1066 22.753 29.5026 23.163 29.2346 23.779ZM30.7096 23.574C31.0446 23.574 31.2456 23.779 31.3126 24.258H30.1056C30.1726 23.778 30.3746 23.574 30.7096 23.574ZM35.1996 24.531C35.1996 25.489 36.0026 26.241 36.9416 26.241C37.8796 26.241 38.6836 25.489 38.6836 24.531C38.6836 23.574 37.9466 22.821 36.9416 22.821C36.0026 22.821 35.1986 23.505 35.1986 24.531H35.1996ZM36.1376 24.531C36.1376 23.984 36.4716 23.642 36.9416 23.642C37.4106 23.642 37.7456 23.984 37.7456 24.532C37.7456 25.079 37.4106 25.421 36.9416 25.421C36.5386 25.352 36.2036 25.011 36.1366 24.531H36.1376ZM23.7406 26.105H24.6786V22.89H23.7406V26.105Z" fill="white"/>
</mask>
<g mask="url(#mask2_4338_86103)">
<path fill-rule="evenodd" clip-rule="evenodd" d="M23.7406 22.479H24.6786V21.659H23.7406V22.479ZM21.9976 21.659V23.163C21.8636 23.095 21.7976 23.095 21.7976 23.026C21.1936 22.616 20.4576 22.684 19.9206 23.232C19.4506 23.779 19.4506 24.462 19.5856 25.078C19.8536 26.241 21.1936 26.515 21.8636 25.831H21.9306C21.9306 25.899 21.9976 26.036 21.9976 26.173H22.8016V21.658H21.9976V21.659ZM20.4576 24.463C20.4576 23.984 20.7916 23.573 21.2606 23.573C21.6626 23.573 21.9976 23.984 21.9976 24.463C21.9976 24.942 21.6626 25.353 21.2606 25.353C20.7916 25.353 20.4566 25.01 20.4566 24.463H20.4576ZM34.3276 22.89C34.1936 22.958 34.0596 23.095 33.9256 23.232C33.8586 23.095 33.8586 22.958 33.7916 22.89H32.9206V26.105H33.8586V25.215C33.8586 24.942 33.8586 24.668 33.9256 24.395C33.9926 24.052 34.1936 23.847 34.5286 23.779C34.8636 23.642 34.8636 23.642 34.8636 23.3C34.8636 23.163 34.8636 22.958 34.7966 22.684C34.6626 22.821 34.4616 22.821 34.3276 22.89ZM27.1576 22.821C26.9576 22.89 26.7556 23.026 26.4876 23.163C26.3536 22.821 26.0856 22.753 25.5496 22.958V26.105H26.4206V24.531C26.4206 24.326 26.4206 24.189 26.4876 23.984C26.5546 23.71 26.8226 23.574 27.0236 23.642C27.2916 23.642 27.4256 23.847 27.4936 24.121V25.763C27.4936 25.899 27.4936 26.036 27.5596 26.173H28.4306C28.4306 25.353 28.4976 24.6 28.4306 23.779C28.3636 23.163 27.9616 22.753 27.4256 22.753C27.3586 22.753 27.2256 22.821 27.1576 22.821ZM29.2346 23.779C28.8996 24.599 29.1676 25.557 29.9046 26.036C30.6426 26.446 31.7146 26.241 32.1836 25.557C32.1166 25.489 31.9826 25.42 31.9156 25.352C31.8486 25.284 31.7146 25.215 31.6476 25.147C30.8436 25.626 30.3076 25.489 30.1066 24.805H32.2506C32.3846 23.847 31.9156 23.026 31.1786 22.821C31.0446 22.821 30.8436 22.753 30.7086 22.753C30.1066 22.753 29.5026 23.163 29.2346 23.779ZM30.7096 23.574C31.0446 23.574 31.2456 23.779 31.3126 24.258H30.1056C30.1726 23.778 30.3746 23.574 30.7096 23.574ZM35.1996 24.531C35.1996 25.489 36.0026 26.241 36.9416 26.241C37.8796 26.241 38.6836 25.489 38.6836 24.531C38.6836 23.574 37.9466 22.821 36.9416 22.821C36.0026 22.821 35.1986 23.505 35.1986 24.531H35.1996ZM36.1376 24.531C36.1376 23.984 36.4716 23.642 36.9416 23.642C37.4106 23.642 37.7456 23.984 37.7456 24.532C37.7456 25.079 37.4106 25.421 36.9416 25.421C36.5386 25.352 36.2036 25.011 36.1366 24.531H36.1376ZM23.7406 26.105H24.6786V22.89H23.7406V26.105Z" fill="url(#paint2_linear_4338_86103)"/>
</g>
<mask id="mask3_4338_86103" style="mask-type:alpha" maskUnits="userSpaceOnUse" x="12" y="21" width="7" height="6">
<path fill-rule="evenodd" clip-rule="evenodd" d="M17.91 22.411H18.78V21.658H17.91V22.411ZM15.698 22.205C15.564 22.548 15.296 22.821 15.095 23.163C15.0169 23.3286 14.9273 23.4887 14.827 23.642C14.492 23.095 14.224 22.616 13.889 22.137C13.822 22 13.689 21.864 13.554 21.864C13.286 21.795 13.018 21.864 12.75 21.864V26.104H13.621V23.505H13.688C14.023 24.052 14.358 24.6 14.76 25.147C15.23 24.6 15.564 23.984 15.967 23.505C16.1 24.395 15.967 25.284 16.033 26.105H16.905C17.039 25.215 16.972 22.137 16.838 21.864H16.235C15.967 21.864 15.833 21.932 15.698 22.205ZM17.977 22.89C17.91 23.368 17.91 25.83 17.977 26.105H18.781V22.89H17.977Z" fill="white"/>
</mask>
<g mask="url(#mask3_4338_86103)">
<path fill-rule="evenodd" clip-rule="evenodd" d="M17.91 22.411H18.78V21.658H17.91V22.411ZM15.698 22.205C15.564 22.548 15.296 22.821 15.095 23.163C15.0169 23.3286 14.9273 23.4887 14.827 23.642C14.492 23.095 14.224 22.616 13.889 22.137C13.822 22 13.689 21.864 13.554 21.864C13.286 21.795 13.018 21.864 12.75 21.864V26.104H13.621V23.505H13.688C14.023 24.052 14.358 24.6 14.76 25.147C15.23 24.6 15.564 23.984 15.967 23.505C16.1 24.395 15.967 25.284 16.033 26.105H16.905C17.039 25.215 16.972 22.137 16.838 21.864H16.235C15.967 21.864 15.833 21.932 15.698 22.205ZM17.977 22.89C17.91 23.368 17.91 25.83 17.977 26.105H18.781V22.89H17.977Z" fill="url(#paint3_linear_4338_86103)"/>
</g>
</g>
<defs>
<linearGradient id="paint0_linear_4338_86103" x1="19.2833" y1="5.84491" x2="19.2833" y2="19.1699" gradientUnits="userSpaceOnUse">
<stop stop-color="#B5BA67"/>
<stop offset="1" stop-color="#56623D"/>
</linearGradient>
<linearGradient id="paint1_linear_4338_86103" x1="33.4599" y1="5.24297" x2="33.4599" y2="19.382" gradientUnits="userSpaceOnUse">
<stop stop-color="#4D70A3"/>
<stop offset="1" stop-color="#1A3172"/>
</linearGradient>
<linearGradient id="paint2_linear_4338_86103" x1="29.1216" y1="21.661" x2="29.1216" y2="26.241" gradientUnits="userSpaceOnUse">
<stop stop-color="#4D70A3"/>
<stop offset="1" stop-color="#1A3172"/>
</linearGradient>
<linearGradient id="paint3_linear_4338_86103" x1="15.778" y1="21.671" x2="15.778" y2="26.141" gradientUnits="userSpaceOnUse">
<stop stop-color="#B5BA67"/>
<stop offset="1" stop-color="#56623D"/>
</linearGradient>
<clipPath id="clip0_4338_86103">
<rect x="0.75" y="0.253906" width="50" height="30" rx="4" fill="white"/>
</clipPath>
</defs>
</svg>
