<svg width="51" height="31" viewBox="0 0 51 31" fill="none" xmlns="http://www.w3.org/2000/svg">
<g clip-path="url(#clip0_4314_74358)">
<path d="M0.75 0.253906H50.75V30.2539H0.75V0.253906Z" fill="#EFEEEE"/>
<path d="M3.75 18.456C4.05 16.456 4.348 14.556 4.647 12.606C5.345 12.606 5.943 12.556 6.542 12.606C6.692 12.606 6.94 12.806 6.99 12.956C7.24 13.706 7.389 14.456 7.638 15.206C7.688 15.356 7.738 15.456 7.788 15.656C8.037 14.706 8.336 13.856 8.535 13.006C8.635 12.706 8.785 12.556 9.084 12.606H10.878C11.178 14.606 11.526 16.556 11.825 18.556H9.782C9.682 17.506 9.582 16.456 9.482 15.456C9.432 15.456 9.432 15.456 9.382 15.406C9.283 15.756 9.134 16.106 9.034 16.506C8.884 17.006 8.685 17.456 8.585 17.956C8.485 18.406 8.236 18.506 7.788 18.506C7.289 18.506 7.04 18.356 6.94 17.856C6.74 17.056 6.442 16.256 6.143 15.306C6.043 16.456 5.893 17.456 5.793 18.456H3.75ZM15.963 12.554H17.956V16.854C17.956 17.054 17.856 17.254 17.757 17.404C17.209 18.354 15.863 18.804 14.417 18.454C13.37 18.204 12.672 17.404 12.672 16.304C12.622 15.054 12.672 13.854 12.672 12.604H14.816V16.054C14.816 16.404 14.966 16.704 15.364 16.704C15.764 16.704 15.962 16.454 15.962 16.054V12.554H15.963ZM27.627 12.604V14.404H26.481V18.454H24.337V14.404H23.141V12.554C24.586 12.604 26.081 12.604 27.627 12.604ZM19.203 12.554H21.297V16.554H23.141V18.454H19.253C19.203 16.504 19.203 14.554 19.203 12.554ZM28.325 12.554H30.369V18.404H28.325V12.554Z" fill="black"/>
<path d="M42.1302 12.5559C41.6312 12.5059 41.4822 12.6559 41.3822 13.1559C41.0822 14.8559 40.7842 16.5559 40.4352 18.2059C40.2352 19.2059 40.0352 19.4059 39.1892 19.5559L39.0392 20.6059C40.2352 21.0059 41.1832 20.6559 41.6812 19.6059C41.9312 19.0559 42.0802 18.4059 42.2292 17.8059C42.5792 16.0559 42.9272 14.3559 43.2762 12.5559C42.8272 12.5559 42.4792 12.6059 42.1302 12.5559ZM34.6522 14.0559C34.8022 13.6559 34.9022 13.2559 35.0522 12.8059C34.2042 12.5059 33.3562 12.6559 32.6592 13.2059C31.4622 14.0559 31.0632 15.3059 31.1632 16.7059C31.2632 18.3559 32.3592 18.8059 33.7552 18.6059C33.9052 18.6059 34.0552 18.4059 34.0552 18.2559C34.1052 17.9059 34.1052 17.5059 34.1542 17.1059C33.1572 17.3059 32.8082 17.1559 32.7582 16.3559C32.5582 15.0559 33.4062 14.0559 34.6522 14.0559ZM42.5782 12.0059C43.1272 12.0059 43.5252 11.5559 43.5252 11.0059C43.5252 10.5059 43.2262 10.2059 42.7282 10.2559C42.1792 10.3059 41.8302 10.7059 41.8302 11.3059C41.7802 11.7559 42.0802 12.0059 42.5782 12.0059ZM48.0612 12.7539C45.1212 12.2039 42.8772 14.6039 43.5252 17.5539C43.7752 18.7039 44.8712 19.0539 45.7682 18.2539C45.9182 18.1039 46.0682 17.9039 46.2172 17.7039C46.2672 17.7539 46.3172 17.7539 46.3172 17.8039V18.6539C46.8152 18.6039 47.2642 18.5539 47.6632 18.5039C47.9622 16.6039 48.3112 14.7539 48.6102 12.9039C48.4102 12.8539 48.2602 12.8039 48.0612 12.7539ZM46.6662 15.5539C46.4162 16.5039 45.8682 17.1539 45.5192 17.0539C45.1702 16.9539 45.1202 16.1039 45.3692 15.1539C45.6192 14.2039 46.1672 13.5539 46.5162 13.6539C46.8662 13.7539 46.9152 14.6539 46.6662 15.5539ZM37.7422 12.7549C35.6992 13.1049 34.2532 16.0049 35.1502 17.9049C35.5002 18.6049 36.2472 18.8549 36.9452 18.4549C37.2442 18.2549 37.4932 18.0049 37.7922 17.7049V18.6049C38.2912 18.5549 38.7392 18.5049 39.1382 18.4549C39.4382 16.5549 39.7362 14.7049 40.0852 12.7049C39.2882 12.7549 38.4902 12.6549 37.7422 12.7549ZM38.4402 15.5549C38.1912 16.5049 37.6432 17.1549 37.2942 17.0549C36.9442 16.9549 36.8952 16.1049 37.1442 15.1549C37.3942 14.2049 37.9422 13.5549 38.2912 13.6549C38.6402 13.7549 38.6902 14.6549 38.4412 15.5549H38.4402Z" fill="#BD2026"/>
</g>
<defs>
<clipPath id="clip0_4314_74358">
<rect x="0.75" y="0.253906" width="50" height="30" rx="4" fill="white"/>
</clipPath>
</defs>
</svg>
