<svg width="51" height="31" viewBox="0 0 51 31" fill="none" xmlns="http://www.w3.org/2000/svg">
<g clip-path="url(#clip0_4314_72538)">
<path d="M0.414062 0.253906H50.4141V30.2539H0.414062V0.253906Z" fill="#EFEEEE"/>
<path d="M25.6761 13.9569L21.9351 7.38292C21.7737 7.08792 21.6917 6.75611 21.6971 6.41992V12.0629C21.6951 12.4639 21.6561 12.8629 21.5771 13.2579C21.4942 13.6558 21.3737 14.0449 21.2171 14.4199C21.0571 14.7889 20.8631 15.1419 20.6351 15.4749C20.4091 15.8099 20.1451 16.1209 19.8501 16.4009C19.5618 16.6899 19.2426 16.9461 18.8981 17.1649C18.5583 17.3893 18.1964 17.5783 17.8181 17.7289C17.4365 17.8826 17.0415 18.0004 16.6381 18.0809C16.2344 18.1565 15.8247 18.1953 15.4141 18.1969V22.2569C16.0161 22.2569 16.6161 22.2059 17.2081 22.1039C18.3927 21.8957 19.5338 21.4889 20.5831 20.9009C21.6237 20.3161 22.5585 19.5602 23.3481 18.6649C23.7401 18.2069 24.0891 17.7149 24.3911 17.1969C24.6951 16.6869 24.9561 16.1549 25.1711 15.6049C25.3781 15.0549 25.5371 14.4899 25.6471 13.9149" fill="url(#paint0_linear_4314_72538)"/>
<path fill-rule="evenodd" clip-rule="evenodd" d="M25.6756 13.9589L21.9336 7.36192V7.37192C21.7721 7.07516 21.6901 6.74171 21.6956 6.40392C21.6919 5.95206 21.8469 5.51324 22.1336 5.16392C22.4195 4.80089 22.8181 4.54336 23.2666 4.43192C23.7155 4.31954 24.1889 4.3582 24.6136 4.54192C25.0376 4.71892 25.3866 5.03192 25.6036 5.42692L31.6916 16.1169V23.9869C31.6916 24.3469 31.7916 24.6999 31.9816 25.0089L31.9386 24.9489L25.6756 13.9589Z" fill="#9B282D"/>
<path d="M31.9732 24.997C32.0452 25.129 32.1352 25.25 32.2402 25.358L32.2832 25.409C32.3992 25.519 32.5292 25.615 32.6682 25.696L32.7922 25.766C32.9052 25.822 33.0223 25.868 33.1443 25.905L33.2732 25.951C33.4292 25.984 33.5883 26.004 33.7483 26.011C33.8955 26.0083 34.0422 25.9916 34.1863 25.961L34.3202 25.923C34.4352 25.893 34.5472 25.851 34.6532 25.798L34.7962 25.719L34.9812 25.599L35.1342 25.483L35.2722 25.34L35.4002 25.183L35.5053 25.021C35.5053 24.965 35.5762 24.909 35.6002 24.849L35.6762 24.664L35.7332 24.474C35.7332 24.412 35.7462 24.351 35.7712 24.294C35.7761 24.2214 35.7761 24.1486 35.7712 24.076V6.396C35.7891 6.02413 35.7039 5.65456 35.5252 5.32797C35.3465 5.00138 35.0811 4.73045 34.7582 4.545C34.4307 4.3545 34.0586 4.25415 33.6798 4.25415C33.3009 4.25415 32.9288 4.3545 32.6012 4.545C32.2789 4.73832 32.0144 5.01459 31.8352 5.345C31.6572 5.673 31.5752 6.041 31.5972 6.411V24.002C31.6192 24.37 31.7462 24.724 31.9642 25.025" fill="#F15623"/>
</g>
<defs>
<linearGradient id="paint0_linear_4314_72538" x1="25.6761" y1="6.39492" x2="15.4141" y2="6.39492" gradientUnits="userSpaceOnUse">
<stop stop-color="#E32725"/>
<stop offset="1" stop-color="#FF9E16"/>
</linearGradient>
<clipPath id="clip0_4314_72538">
<rect x="0.414062" y="0.253906" width="50" height="30" rx="4" fill="white"/>
</clipPath>
</defs>
</svg>
