<svg width="51" height="31" viewBox="0 0 51 31" fill="none" xmlns="http://www.w3.org/2000/svg">
<g clip-path="url(#clip0_4314_74752)">
<path d="M0.75 0.253906H50.75V30.2539H0.75V0.253906Z" fill="#EFEEEE"/>
<path fill-rule="evenodd" clip-rule="evenodd" d="M46.7513 12.9889C46.7513 12.8909 46.6853 12.8259 46.5863 12.8259H46.0233C45.9233 12.8259 45.8573 12.8909 45.8573 12.9889V18.6019C45.8573 18.6989 45.9243 18.7639 46.0233 18.7639H46.5863C46.6853 18.7639 46.7513 18.6989 46.7513 18.6019V12.9889ZM43.4743 12.9889C43.4743 12.8909 43.4083 12.8259 43.3083 12.8259H42.7463C42.6463 12.8259 42.5803 12.8909 42.5803 12.9889V16.3309C42.5803 16.8499 42.5473 17.1089 42.3823 17.3369C42.1833 17.6939 41.7523 17.9209 41.2893 17.9209C40.8263 17.9209 40.3963 17.6929 40.1973 17.3369C40.0643 17.0769 39.9983 16.8499 39.9983 16.3309V12.9879C39.9983 12.8909 39.9323 12.8259 39.8333 12.8259H39.2703C39.1703 12.8259 39.1043 12.8909 39.1043 12.9889V16.5579C39.1043 17.1419 39.2373 17.5639 39.5683 17.9209C39.9653 18.4399 40.6283 18.7309 41.2893 18.7309C41.6181 18.7311 41.9429 18.6586 42.2405 18.5186C42.538 18.3786 42.8009 18.1745 43.0103 17.9209C43.3185 17.5342 43.4825 17.0523 43.4743 16.5579V12.9879V12.9889ZM37.0193 18.5369C37.1523 18.6669 37.1193 18.7969 36.9203 18.7969H36.3243C36.2583 18.7969 36.1263 18.7639 36.0923 18.6989L34.1393 16.7849C34.0073 16.6549 34.1063 16.4279 34.2723 16.4279H34.7023C34.7683 16.4279 34.9013 16.4599 34.9343 16.5249L37.0193 18.5369Z" fill="#140F38" fill-opacity="0.94"/>
<path fill-rule="evenodd" clip-rule="evenodd" d="M35.7255 17.2389C36.1215 16.8169 36.2875 16.4279 36.2875 15.8109C36.2875 14.5789 35.3605 13.6369 34.1355 13.6369C32.9115 13.6369 32.0175 14.5789 32.0175 15.8119C32.0175 16.4279 32.2155 16.9469 32.6465 17.3369C33.0337 17.7232 33.5557 17.944 34.1025 17.9529C34.4665 17.9529 34.8305 17.8559 35.1285 17.6929L35.7245 17.2389H35.7255ZM35.7255 18.3099C35.2482 18.6066 34.6975 18.7639 34.1355 18.7639C33.3085 18.7639 32.4475 18.3739 31.8515 17.7579C31.3766 17.2212 31.1172 16.5276 31.1235 15.8109C31.1218 15.4189 31.1977 15.0303 31.3467 14.6677C31.4958 14.3051 31.7152 13.9756 31.9922 13.6981C32.2692 13.4207 32.5983 13.2008 32.9607 13.0511C33.3231 12.9014 33.7114 12.8248 34.1035 12.8259C35.7575 12.8259 37.1155 14.1889 37.1155 15.8759C37.1155 16.6559 36.8505 17.2389 36.2875 17.8559M28.7405 18.7639H28.9725C29.0725 18.7639 29.1375 18.6989 29.1375 18.6019V18.0819C29.1375 17.9859 29.0715 17.9209 28.9725 17.9209H26.7545V16.0709H28.9725C29.0725 16.0709 29.1375 16.0059 29.1375 15.9089V15.3889C29.1375 15.2919 29.0715 15.2269 28.9725 15.2269H26.7545V13.6699H28.9725C29.0725 13.6699 29.1375 13.6049 29.1375 13.5079V12.9879C29.1375 12.8909 29.0715 12.8259 28.9725 12.8259H26.0255C25.9255 12.8259 25.8595 12.8909 25.8595 12.9889V18.6019C25.8595 18.6989 25.9255 18.7639 26.0255 18.7639H28.7395H28.7405ZM23.3115 12.8259H22.7485C22.6485 12.8259 22.5835 12.9239 22.5835 12.9889V16.9149L18.8425 12.9239C18.8425 12.9239 18.7765 12.8589 18.6765 12.8589H18.4785C18.3785 12.8259 18.3125 12.8909 18.3125 12.9889V18.6019C18.3125 18.6989 18.3795 18.7639 18.4785 18.7639H19.0415C19.1405 18.7639 19.2065 18.6669 19.2065 18.6019V14.5789L23.0795 18.7319C23.0795 18.7319 23.1455 18.7969 23.2125 18.7969H23.3445C23.4445 18.7969 23.5105 18.7319 23.5105 18.6349V13.0209C23.4765 12.9239 23.4105 12.8259 23.3105 12.8259H23.3115Z" fill="#140F38" fill-opacity="0.94"/>
<path fill-rule="evenodd" clip-rule="evenodd" d="M4.97713 12.8509L10.0081 10.3519C10.3061 10.1899 10.7041 10.2549 10.9021 10.5139L15.2381 15.1869C15.5031 15.4789 15.5031 15.9009 15.2381 16.1599L10.5381 20.9629C10.0751 21.3849 9.31313 21.3529 8.94913 20.8649L4.41413 15.0249C3.85113 14.2779 4.11613 13.2729 4.97713 12.8509Z" fill="#FF2F73"/>
<path fill-rule="evenodd" clip-rule="evenodd" d="M4.04695 15.1219L7.32395 10.8389C7.42828 10.7094 7.57185 10.6172 7.73307 10.5763C7.8943 10.5353 8.06445 10.5478 8.21795 10.6119L14.3749 13.0129C14.7389 13.1429 14.9379 13.5329 14.8379 13.8889L13.0509 20.1189C12.8519 20.6709 12.1569 20.9629 11.5609 20.7039L4.60995 17.2959C3.74895 16.8749 3.48395 15.8689 4.04695 15.1219Z" fill="#2FCAD7"/>
<path fill-rule="evenodd" clip-rule="evenodd" d="M6.26725 12.2019L8.91625 10.9039L12.5562 12.2999L14.6423 14.5389L13.7153 17.7189L11.0672 20.4439L7.12825 18.5299L4.41425 15.0249C4.35895 14.9685 4.31394 14.9028 4.28125 14.8309L6.26725 12.2019Z" fill="#1A1446"/>
</g>
<defs>
<clipPath id="clip0_4314_74752">
<rect x="0.75" y="0.253906" width="50" height="30" rx="4" fill="white"/>
</clipPath>
</defs>
</svg>
