<svg width="51" height="30" viewBox="0 0 51 30" fill="none" xmlns="http://www.w3.org/2000/svg">
<g clip-path="url(#clip0_4500_38471)">
<rect x="0.328125" width="50" height="30" rx="4" fill="white"/>
<path d="M24.4489 11.4545C24.4489 12.0097 24.3436 12.482 24.1332 12.8714C23.9244 13.2609 23.6393 13.5584 23.2781 13.7638C22.9184 13.9677 22.5141 14.0696 22.065 14.0696C21.6126 14.0696 21.2066 13.9669 20.8469 13.7614C20.4873 13.5559 20.2031 13.2584 19.9943 12.869C19.7855 12.4795 19.6811 12.008 19.6811 11.4545C19.6811 10.8994 19.7855 10.4271 19.9943 10.0376C20.2031 9.6482 20.4873 9.35156 20.8469 9.14773C21.2066 8.94223 21.6126 8.83949 22.065 8.83949C22.5141 8.83949 22.9184 8.94223 23.2781 9.14773C23.6393 9.35156 23.9244 9.6482 24.1332 10.0376C24.3436 10.4271 24.4489 10.8994 24.4489 11.4545ZM23.3576 11.4545C23.3576 11.0949 23.3037 10.7917 23.196 10.5447C23.09 10.2978 22.94 10.1106 22.7461 9.98295C22.5522 9.85535 22.3252 9.79155 22.065 9.79155C21.8048 9.79155 21.5778 9.85535 21.3839 9.98295C21.19 10.1106 21.0392 10.2978 20.9315 10.5447C20.8254 10.7917 20.7724 11.0949 20.7724 11.4545C20.7724 11.8142 20.8254 12.1174 20.9315 12.3643C21.0392 12.6113 21.19 12.7985 21.3839 12.9261C21.5778 13.0537 21.8048 13.1175 22.065 13.1175C22.3252 13.1175 22.5522 13.0537 22.7461 12.9261C22.94 12.7985 23.09 12.6113 23.196 12.3643C23.3037 12.1174 23.3576 11.8142 23.3576 11.4545ZM29.5044 8.90909V14H28.5747L26.3598 10.7958H26.3225V14H25.2462V8.90909H26.1908L28.3882 12.1108H28.433V8.90909H29.5044ZM30.3936 14V8.90909H31.47V13.1126H33.6525V14H30.3936ZM35.4417 8.90909V14H34.3653V8.90909H35.4417ZM40.5854 8.90909V14H39.6557L37.4409 10.7958H37.4036V14H36.3272V8.90909H37.2718L39.4693 12.1108H39.514V8.90909H40.5854ZM41.4747 14V8.90909H44.9051V9.79652H42.551V11.0096H44.7286V11.897H42.551V13.1126H44.915V14H41.4747Z" fill="#0051FF"/>
<path d="M21.5753 21H19.7706V15.9091H21.5902C22.1023 15.9091 22.5431 16.011 22.9126 16.2148C23.2822 16.417 23.5664 16.7079 23.7653 17.0874C23.9658 17.4669 24.0661 17.9209 24.0661 18.4496C24.0661 18.9799 23.9658 19.4356 23.7653 19.8168C23.5664 20.1979 23.2805 20.4904 22.9077 20.6942C22.5365 20.8981 22.0923 21 21.5753 21ZM20.8469 20.0778H21.5305C21.8487 20.0778 22.1164 20.0214 22.3335 19.9087C22.5522 19.7944 22.7163 19.6179 22.8256 19.3793C22.9367 19.139 22.9922 18.8291 22.9922 18.4496C22.9922 18.0734 22.9367 17.766 22.8256 17.5273C22.7163 17.2887 22.553 17.113 22.3359 17.0004C22.1188 16.8877 21.8512 16.8313 21.533 16.8313H20.8469V20.0778ZM24.8634 21V15.9091H28.2938V16.7965H25.9397V18.0096H28.1173V18.897H25.9397V20.1126H28.3037V21H24.8634ZM29.1495 21V15.9091H31.1879C31.5624 15.9091 31.8748 15.9646 32.125 16.0756C32.3752 16.1867 32.5633 16.3408 32.6893 16.538C32.8152 16.7335 32.8782 16.9589 32.8782 17.2141C32.8782 17.413 32.8384 17.5878 32.7589 17.7386C32.6793 17.8878 32.57 18.0104 32.4308 18.1065C32.2932 18.201 32.1358 18.2681 31.9585 18.3079V18.3576C32.1523 18.3659 32.3338 18.4206 32.5028 18.5217C32.6735 18.6228 32.8119 18.7644 32.918 18.9467C33.024 19.1274 33.0771 19.3428 33.0771 19.593C33.0771 19.8632 33.0099 20.1043 32.8757 20.3164C32.7431 20.5269 32.5468 20.6934 32.2866 20.8161C32.0264 20.9387 31.7057 21 31.3246 21H29.1495ZM30.2259 20.12H31.1033C31.4033 20.12 31.622 20.0629 31.7596 19.9485C31.8971 19.8325 31.9659 19.6784 31.9659 19.4862C31.9659 19.3453 31.9319 19.221 31.864 19.1133C31.796 19.0056 31.6991 18.921 31.5732 18.8597C31.4489 18.7984 31.3005 18.7678 31.1282 18.7678H30.2259V20.12ZM30.2259 18.0394H31.0238C31.1713 18.0394 31.3022 18.0137 31.4165 17.9624C31.5326 17.9093 31.6237 17.8348 31.69 17.7386C31.7579 17.6425 31.7919 17.5273 31.7919 17.3931C31.7919 17.2092 31.7264 17.0608 31.5955 16.9482C31.4663 16.8355 31.2823 16.7791 31.0437 16.7791H30.2259V18.0394ZM34.8538 15.9091V21H33.7774V15.9091H34.8538ZM35.5455 16.7965V15.9091H39.7266V16.7965H38.168V21H37.104V16.7965H35.5455Z" fill="#000E2B"/>
<g clip-path="url(#clip1_4500_38471)">
<path d="M15.3281 7H7.32812C6.77584 7 6.32812 7.44772 6.32812 8V22C6.32812 22.5523 6.77584 23 7.32812 23H15.3281C15.8804 23 16.3281 22.5523 16.3281 22V8C16.3281 7.44772 15.8804 7 15.3281 7Z" stroke="#0051FF" stroke-width="1.2" stroke-linecap="round" stroke-linejoin="round"/>
<path d="M10.3281 8H12.3281" stroke="#0051FF" stroke-width="1.2" stroke-linecap="round" stroke-linejoin="round"/>
<path d="M11.3281 20V20.01" stroke="#0051FF" stroke-width="1.2" stroke-linecap="round" stroke-linejoin="round"/>
</g>
</g>
<rect x="0.428125" y="0.1" width="49.8" height="29.8" rx="3.9" stroke="black" stroke-width="0.2"/>
<defs>
<clipPath id="clip0_4500_38471">
<rect x="0.328125" width="50" height="30" rx="4" fill="white"/>
</clipPath>
<clipPath id="clip1_4500_38471">
<rect width="24" height="24" fill="white" transform="translate(-0.671875 3)"/>
</clipPath>
</defs>
</svg>
