<svg width="51" height="31" viewBox="0 0 51 31" fill="none" xmlns="http://www.w3.org/2000/svg">
<g clip-path="url(#clip0_4286_73934)">
<path d="M0.75 0.253906H50.75V30.2539H0.75V0.253906Z" fill="#EFEEEE"/>
<path fill-rule="evenodd" clip-rule="evenodd" d="M9.75 8.32391C9.75 7.73991 10.212 7.25391 10.765 7.25391H41.688C42.242 7.25391 42.704 7.73991 42.704 8.32391V22.1839C42.704 22.7679 42.242 23.2539 41.688 23.2539H10.765C10.212 23.2539 9.75 22.7679 9.75 22.1839V8.32391Z" fill="#EFA616"/>
<path fill-rule="evenodd" clip-rule="evenodd" d="M9.75 8.81104H42.75V21.698H9.75V8.81104Z" fill="white"/>
<path fill-rule="evenodd" clip-rule="evenodd" d="M37.7218 12.166C36.1978 12.166 34.9978 13.479 34.9978 15.036C34.9978 16.64 36.2438 17.905 37.7208 17.905C39.2438 17.905 40.4438 16.592 40.4438 15.035C40.4438 13.431 39.1978 12.166 37.7208 12.166H37.7218ZM15.1058 12.166C13.5828 12.166 12.3828 13.43 12.3828 15.036C12.3828 16.64 13.5828 17.953 15.1058 17.953C16.6288 17.953 17.8288 16.689 17.8288 15.084V15.035C17.8748 13.431 16.6288 12.166 15.1058 12.166Z" fill="#E20613"/>
<path fill-rule="evenodd" clip-rule="evenodd" d="M37.489 9.63606C34.95 9.58806 33.75 11.2901 32.042 13.3811L30.427 15.3751L33.011 18.6331C33.335 18.9731 33.288 19.5571 32.965 19.8491C32.642 20.1891 32.088 20.1411 31.811 19.8011C31.811 19.7511 31.765 19.7511 31.765 19.7031L29.365 16.6881L27.058 19.5581C26.781 19.9471 26.273 19.9951 25.904 19.6551C25.534 19.3631 25.488 18.8281 25.811 18.4391L28.304 15.3261L26.642 13.2361L27.704 11.8251L29.411 13.9651L30.842 12.1651C31.535 11.2901 32.273 10.1231 33.242 9.53906H9.75V20.8701H15.242C17.781 20.8701 18.935 19.2661 20.596 17.1261L22.166 15.0831L19.488 11.8731C19.3327 11.7089 19.2462 11.4915 19.2462 11.2656C19.2462 11.0396 19.3327 10.8222 19.488 10.6581C19.5611 10.5777 19.6502 10.5135 19.7496 10.4695C19.8489 10.4256 19.9564 10.4029 20.065 10.4029C20.1736 10.4029 20.2811 10.4256 20.3804 10.4695C20.4798 10.5135 20.5689 10.5777 20.642 10.6581L20.735 10.7551L23.181 13.7211L25.442 10.8041C25.719 10.4141 26.273 10.3661 26.596 10.6581C26.966 10.9491 27.012 11.5331 26.735 11.8741L24.288 15.0341L25.996 17.0771L24.981 18.4391L23.273 16.4451L21.843 18.2451C21.15 19.1201 20.458 20.2871 19.535 20.8701H42.704V9.63606H37.489ZM19.442 15.0351C19.442 17.5631 17.504 19.6061 15.104 19.6061C12.704 19.6061 10.765 17.5631 10.765 15.0351C10.765 12.5051 12.704 10.4631 15.104 10.4631C17.504 10.4631 19.442 12.5061 19.442 15.0351ZM37.673 19.6061C35.273 19.6061 33.335 17.5631 33.335 15.0351C33.335 12.5051 35.273 10.4631 37.673 10.4631C40.073 10.4631 42.011 12.5061 42.011 15.0351C42.011 17.5631 40.073 19.6061 37.673 19.6061Z" fill="#E20613"/>
</g>
<defs>
<clipPath id="clip0_4286_73934">
<rect x="0.75" y="0.253906" width="50" height="30" rx="4" fill="white"/>
</clipPath>
</defs>
</svg>
