<svg width="51" height="31" viewBox="0 0 51 31" fill="none" xmlns="http://www.w3.org/2000/svg">
<g clip-path="url(#clip0_4286_73948)">
<path d="M0.078125 0.253906H50.0781V30.2539H0.078125V0.253906Z" fill="#EFEEEE"/>
<path d="M26.7176 11.2539H26.2656V21.2539H26.7176V11.2539ZM35.4606 14.2969C35.4606 13.8979 35.1136 13.4269 34.6606 13.2099C34.2436 12.9919 34.0006 12.9919 34.0006 12.9919H30.3506L28.5766 19.5869H30.5936L31.0796 17.7389C31.5316 17.8839 32.8536 17.7389 33.4096 17.5579C33.9306 17.3759 34.4176 17.2309 34.9746 16.2529C35.5306 15.2749 35.4606 14.6949 35.4606 14.2969ZM33.0966 15.9999C32.8186 16.2899 32.7136 16.3619 32.5746 16.3619C32.2966 16.3979 31.4276 16.3619 31.4276 16.3619L31.9146 14.6589C31.9146 14.6589 32.6446 14.6229 32.8876 14.6589C33.0276 14.6949 33.2706 14.8039 33.3396 15.0579C33.4446 15.3109 33.4096 15.6729 33.0966 15.9989V15.9999ZM41.2666 13.0669L42.5536 17.3419L41.8936 19.5879H44.0136L44.5696 17.3419L48.1166 13.0659H45.8216L44.1186 15.3129L43.4576 13.0669H41.2676H41.2666ZM40.0146 12.9919H37.9646L33.6176 19.5139H35.7736L36.3636 18.5719H38.6936L38.7636 19.5859H40.8836L40.0156 12.9919H40.0146ZM37.1986 17.2679L38.3116 15.4919L38.5546 17.2679H37.1986Z" fill="#03517F"/>
<path fill-rule="evenodd" clip-rule="evenodd" d="M3.07827 11.9419C3.07827 11.5439 3.35627 11.2539 3.73827 11.2539H23.2443C23.5923 11.2539 23.9043 11.5439 23.9043 11.9419V20.6019C23.9043 20.9639 23.6273 21.2899 23.2443 21.2899H3.73927C3.65067 21.2882 3.56327 21.2691 3.48208 21.2336C3.40088 21.1981 3.32749 21.1469 3.26609 21.083C3.2047 21.0191 3.15651 20.9437 3.12428 20.8611C3.09205 20.7786 3.07642 20.6905 3.07827 20.6019V11.9419Z" fill="#EFA717"/>
<path fill-rule="evenodd" clip-rule="evenodd" d="M3.07812 12.2329H23.9051V20.2759H3.07812V12.2329Z" fill="white"/>
<path fill-rule="evenodd" clip-rule="evenodd" d="M20.709 14.334C19.77 14.334 18.971 15.131 18.971 16.146C18.971 17.16 19.736 17.957 20.709 17.957C21.648 17.957 22.448 17.16 22.448 16.146C22.448 15.131 21.683 14.334 20.709 14.334ZM6.488 14.334C5.55 14.334 4.75 15.131 4.75 16.146C4.75 17.16 5.515 17.957 6.488 17.957C7.462 17.957 8.227 17.16 8.227 16.146C8.192 15.131 7.427 14.334 6.488 14.334Z" fill="#E30613"/>
<path fill-rule="evenodd" clip-rule="evenodd" d="M20.5671 12.7387C18.9671 12.7027 18.2031 13.7537 17.1251 15.0937L16.0821 16.3257L17.7161 18.3557C18.0981 18.9707 17.3681 19.5867 16.9161 19.0437L15.4211 17.1597L13.9611 18.9347C13.5091 19.5147 12.7441 18.8617 13.1611 18.2457L14.7611 16.3257L13.7181 15.0217L14.3781 14.1517L15.4561 15.4917L16.3601 14.3697C16.8121 13.8257 17.2641 13.1017 17.8551 12.7397H3.07812V19.7677H6.52012C8.12012 19.7677 8.85012 18.7897 9.89312 17.4127L10.9011 16.1447L9.23213 14.1517C8.81513 13.5357 9.54513 12.8837 10.0321 13.4637L11.5961 15.3117L13.0221 13.4997C13.4741 12.9197 14.2391 13.5357 13.8561 14.1517L12.2921 16.1087L13.3701 17.3767L12.7101 18.2097L11.6311 16.9417L10.7271 18.1377C10.2751 18.6807 9.85813 19.4057 9.26713 19.8037H23.9051V12.7387H20.5671ZM9.19713 16.1087C9.19713 17.6667 7.98013 18.9707 6.45113 18.9707C4.92113 18.9707 3.70412 17.7027 3.70412 16.1087C3.70412 14.5147 4.92113 13.2457 6.45113 13.2457C7.98112 13.2457 9.19713 14.5507 9.19713 16.1087ZM20.7071 18.9707C19.2111 18.9707 17.9591 17.7027 17.9591 16.1087C17.9591 14.5147 19.1761 13.2457 20.7061 13.2457C22.2361 13.2457 23.4531 14.5147 23.4531 16.1087C23.4531 17.7027 22.2361 18.9707 20.7061 18.9707H20.7071Z" fill="#E30613"/>
</g>
<defs>
<clipPath id="clip0_4286_73948">
<rect x="0.078125" y="0.253906" width="50" height="30" rx="4" fill="white"/>
</clipPath>
</defs>
</svg>
