<svg width="51" height="31" viewBox="0 0 51 31" fill="none" xmlns="http://www.w3.org/2000/svg">
<g clip-path="url(#clip0_4322_75070)">
<path d="M0.75 0.253906H50.75V30.2539H0.75V0.253906Z" fill="#FFCE00"/>
<path fill-rule="evenodd" clip-rule="evenodd" d="M18.31 16.9419C17.427 17.7349 16.454 18.4369 15.45 19.1079C13.381 20.4499 11.038 21.5789 8.75602 22.4949C7.99602 22.7999 7.08302 22.9519 6.32202 22.5549C5.83602 22.2809 5.50102 21.8539 5.31802 21.3049C5.19702 20.9079 5.13602 20.4499 5.07502 20.0539C4.49702 16.7579 4.74002 12.8839 5.41002 9.5879C5.56202 8.7639 5.95702 7.6659 6.84002 7.3609C7.26602 7.2079 7.72202 7.2389 8.14802 7.3309C8.30002 7.3609 8.42202 7.3909 8.54302 7.4519C11.373 8.5199 13.929 9.8319 16.302 11.7239C16.972 12.2429 17.732 12.8219 18.34 13.4019C18.736 13.7989 19.131 14.2259 19.223 14.8059C19.253 14.9579 19.253 15.1109 19.253 15.2629C19.162 15.8729 18.827 16.5449 18.31 16.9409V16.9419Z" fill="#FEFEFE"/>
<path fill-rule="evenodd" clip-rule="evenodd" d="M5.87086 21.1229C6.08386 21.7329 6.69186 22.6479 8.54786 21.9459C11.2259 20.9089 15.1809 19.0169 17.9499 16.5159C17.9499 16.5159 18.5579 16.0879 18.6499 15.2339C18.7099 14.3799 18.0399 13.8609 15.9419 12.1829C13.8719 10.5349 11.5299 9.19291 8.33486 8.00291C8.21386 7.97191 8.15286 7.94091 8.03086 7.91091C7.69959 7.83037 7.35273 7.84074 7.02686 7.94091C6.47886 8.12391 6.14486 8.91791 5.99286 9.71091C5.83986 10.4739 4.86686 15.3859 5.65786 19.9629C5.68786 20.2679 5.77986 20.8179 5.87086 21.1229Z" fill="#FFB700"/>
<path fill-rule="evenodd" clip-rule="evenodd" d="M6.22762 8.79591C6.10693 9.21345 6.03578 9.64374 6.01562 10.0779C6.56262 9.89491 7.32362 9.83391 8.41862 9.95591C11.9176 10.3829 15.4776 12.3659 17.4246 13.5259L17.9416 13.8309C17.7896 13.7089 17.6376 13.5559 17.4546 13.4029L17.4246 13.3729L17.3946 13.3429C17.3646 13.3119 17.3026 13.2809 17.2726 13.2509V13.2209L17.2426 13.1899L17.2116 13.1599L17.1816 13.1289L17.1516 13.0989L17.1206 13.0679L17.0906 13.0379L17.0596 13.0069L17.0296 12.9769L16.9986 12.9459L16.9386 12.9759L16.9076 12.9459L16.8776 12.9159L16.8466 12.8849L16.8166 12.8549L16.7856 12.8239L16.7256 12.7939L16.6946 12.7629L16.6646 12.7329L16.6336 12.7019L16.6036 12.6719L16.5426 12.6409L16.5126 12.6109L16.5726 12.6709L16.5426 12.6409L16.5126 12.6109L16.4816 12.5799L16.4516 12.5499L16.4206 12.5189L16.3906 12.4889L16.3606 12.4579L16.3296 12.4279L16.2996 12.3969L16.2686 12.3669L16.2386 12.3359L16.2076 12.3059L16.1776 12.3659L16.1476 12.3359L16.1166 12.3059H16.0866L16.0556 12.2749L16.0256 12.2449L15.9946 12.2139L15.9646 12.1839L15.9346 12.1529L15.9036 12.1219C13.8336 10.4739 11.4916 9.13191 8.29662 7.94191C8.17562 7.91191 8.11462 7.88091 7.99262 7.84991C7.66136 7.76937 7.31449 7.77973 6.98863 7.87991H6.65462L6.62462 7.91091L6.59363 7.94091L6.56362 7.97191L6.53262 8.00191L6.50262 8.03291L6.47162 8.06291L6.44162 8.09391L6.41162 8.12491L6.38062 8.15491L6.35063 8.18591L6.31962 8.21591V8.27691L6.28962 8.30791L6.22862 8.79591H6.22762ZM6.53262 8.46091C6.50262 8.46091 6.50262 8.49091 6.53262 8.46091V8.46091ZM6.31962 8.67391C6.31962 8.67391 6.28962 8.70391 6.31962 8.67391V8.67391ZM6.25863 8.73491C6.25863 8.73491 6.25863 8.76491 6.25863 8.73491V8.73491ZM6.25863 8.76491C6.25863 8.76491 6.25863 8.79591 6.25863 8.76491L6.22862 8.79591V9.13091L6.25863 8.76591V8.76491Z" fill="#FFDF77"/>
<path fill-rule="evenodd" clip-rule="evenodd" d="M6.02273 10.0469C6.57073 9.86389 7.33073 9.80289 8.42573 9.92489C11.9257 10.3519 15.4857 12.3349 17.4317 13.4949C15.8197 18.1939 8.69973 21.5799 8.69973 21.5799C7.84773 20.7259 7.02673 19.9329 6.23573 14.0439C5.96173 12.2439 5.93173 10.9619 6.02273 10.0469Z" fill="#FFCE00"/>
<path d="M22.5977 8.24791C23.3587 8.15591 24.1497 8.15591 24.9107 8.15591C25.4277 8.15591 25.9447 8.30891 26.3707 8.61391C26.7357 8.88891 26.7357 9.37691 26.7057 9.77391C26.6757 10.4439 26.5227 11.2079 26.0357 11.6959C25.6107 12.1229 25.0327 12.3669 24.4237 12.4279C23.8495 12.5142 23.2665 12.5243 22.6897 12.4579C22.5399 13.0132 22.4078 13.5732 22.2937 14.1369C22.2637 14.2889 22.2027 14.5029 22.0207 14.5329C21.8077 14.5629 21.5937 14.5329 21.3507 14.5329C21.2287 14.5329 21.0767 14.5629 20.9557 14.5029C20.8337 14.4419 20.9257 14.2889 20.9257 14.1669C21.0724 13.3805 21.2345 12.597 21.4117 11.8169C21.4717 11.6039 21.5027 11.3599 21.5637 11.1469H23.4197C23.5181 11.149 23.6136 11.1808 23.6937 11.2379C23.6637 11.4209 23.6327 11.6039 23.6327 11.7879C23.9367 11.6039 24.2107 11.3599 24.5147 11.1459C24.8197 10.8719 25.1547 10.5969 25.4277 10.2919L24.1497 8.73591C24.0277 8.91891 24.0897 9.19391 23.8757 9.31591C23.5717 9.37591 23.2677 9.34591 22.9637 9.34591C22.5977 9.31591 22.2337 9.40691 21.8987 9.31591C21.8987 9.04091 21.9287 8.73591 22.0807 8.49191C22.2327 8.27791 22.4157 8.27791 22.5987 8.24791H22.5977ZM27.6177 10.0779C28.2277 9.92591 28.8657 9.86491 29.4437 10.1089C29.7477 10.2309 29.9917 10.4749 30.0527 10.8109C30.2047 11.3609 29.9917 11.9089 29.9007 12.4579C29.8087 13.0379 29.7177 13.5879 29.6267 14.1369C29.5967 14.3199 29.5047 14.5639 29.2917 14.5939C28.7137 14.7469 28.1057 14.7769 27.4967 14.7469C27.0707 14.7169 26.5837 14.6249 26.3407 14.2589C26.0667 13.8929 26.1277 13.4039 26.2497 13.0079C26.3397 12.6109 26.6147 12.2449 27.0097 12.0919C27.4967 11.9089 28.0137 11.9399 28.5307 11.9089C28.6527 11.8789 28.8047 11.9089 28.9267 11.8179C29.0177 11.6039 29.0487 11.3599 28.9867 11.1469C28.8967 10.9019 28.5917 10.8719 28.3787 10.9019C27.8927 10.9019 27.4657 11.0549 27.0097 11.1769C26.9497 10.9329 26.8877 10.6579 27.0397 10.4449C27.1007 10.2009 27.3747 10.1399 27.6187 10.0789L27.6177 10.0779ZM27.3137 13.0679C27.2537 13.2519 27.1927 13.4649 27.2837 13.6479C27.4967 13.9229 27.8917 13.9539 28.1967 13.9229C28.3487 13.8929 28.5917 13.8629 28.5917 13.6489C28.6217 13.3129 28.7437 12.9769 28.6827 12.6719C28.3177 12.6419 27.9827 12.6419 27.6187 12.7019C27.5425 12.7346 27.4751 12.785 27.4221 12.8488C27.3691 12.9126 27.3319 12.988 27.3137 13.0689V13.0679ZM31.8477 10.1099C32.6077 9.83591 33.4297 9.95791 34.2207 10.0799C34.3727 10.1099 34.5247 10.1099 34.6467 10.2319C34.7377 10.3539 34.6767 10.4759 34.6767 10.5979C34.4037 12.0629 34.1597 13.5279 33.8867 14.9919C33.7947 15.4189 33.5817 15.8769 33.1867 16.0899C32.6997 16.3649 32.1217 16.3349 31.6037 16.3349C31.1177 16.3349 30.5997 16.2429 30.2347 15.8769C30.1437 15.6629 30.2957 15.4499 30.3567 15.2369C30.4787 15.2369 30.5997 15.2369 30.6917 15.2669C31.2568 15.4194 31.8477 15.4504 32.4257 15.3579C32.7297 15.2979 32.7907 14.9309 32.8207 14.6559C32.2737 14.7169 31.6957 14.7779 31.2087 14.5039C30.7827 14.3209 30.5087 13.8939 30.4787 13.4359C30.4261 12.613 30.5611 11.7889 30.8737 11.0259C31.0257 10.6289 31.3907 10.2629 31.8477 10.1099ZM32.6687 10.8419C32.514 10.8742 32.3672 10.9368 32.2368 11.026C32.1063 11.1153 31.9948 11.2294 31.9087 11.3619C31.7567 11.5749 31.7257 11.8489 31.6647 12.0929C31.5737 12.5509 31.4827 13.0089 31.5737 13.4969C31.6037 13.7099 31.7867 13.8019 31.9687 13.8329C32.2737 13.8929 32.6087 13.8629 32.9127 13.7719C33.0027 13.7409 33.0337 13.6189 33.0337 13.5579C33.1557 12.7949 33.3077 12.0319 33.4297 11.2699C33.4297 11.1779 33.4597 11.0559 33.4297 10.9639C33.2167 10.8119 32.9427 10.7809 32.6697 10.8419H32.6687ZM36.8677 9.95791C37.3547 9.86591 37.8417 9.92691 38.2677 10.1709C38.6927 10.4149 38.9677 10.8729 38.9677 11.3609C38.9977 11.9109 38.8757 12.4589 38.7537 13.0089C38.6327 13.4659 38.4497 13.8939 38.1147 14.2289C37.5067 14.8089 36.5947 14.9309 35.8027 14.6869C35.5966 14.6121 35.4129 14.486 35.2691 14.3204C35.1253 14.1549 35.026 13.9555 34.9807 13.7409C34.7687 13.0089 34.9507 12.2149 35.1637 11.5139C35.2771 11.1229 35.4962 10.7708 35.7968 10.4962C36.0975 10.2217 36.468 10.0354 36.8677 9.95791ZM36.8677 10.9639C36.7167 11.0101 36.5794 11.0927 36.468 11.2045C36.3566 11.3163 36.2744 11.4538 36.2287 11.6049C36.0788 12.0907 35.9868 12.5925 35.9547 13.0999C35.9547 13.2829 35.9847 13.5279 36.1677 13.6499C36.3807 13.8329 36.6847 13.8019 36.9587 13.7409C37.2027 13.7109 37.4147 13.4969 37.5067 13.2829C37.7497 12.7649 37.8407 12.1849 37.8717 11.6359C37.8717 11.4219 37.8417 11.1469 37.6277 11.0259C37.4147 10.8729 37.1107 10.9029 36.8677 10.9639ZM8.29769 12.7039C8.45069 12.2759 8.60269 11.8189 8.72469 11.3919H12.1627C12.7407 11.3919 13.3487 11.5439 13.8057 11.9099C14.1707 12.1849 14.3527 12.6119 14.4447 13.0399C14.5368 13.511 14.5159 13.9971 14.3836 14.4585C14.2513 14.9199 14.0114 15.3433 13.6837 15.6939C13.0757 16.3339 12.2237 16.6699 11.3717 16.7619C10.6417 16.8219 9.91169 16.7619 9.18169 16.7319C8.97098 17.5922 8.77794 18.4567 8.60269 19.3249C8.05469 19.2949 7.50769 19.2639 6.92969 19.2639C7.20269 17.9209 7.50769 16.5789 7.78169 15.2059H10.5197V16.0599C11.2797 15.4199 12.0407 14.7169 12.8017 14.0769C12.2244 13.3724 11.6563 12.6603 11.0977 11.9409C11.0087 12.2001 10.9376 12.465 10.8847 12.7339C10.0627 12.7039 9.18069 12.6739 8.29869 12.7039H8.29769ZM25.7627 15.3889C26.2487 15.1449 26.8577 15.1449 27.3747 15.2969C27.3747 15.5409 27.4047 15.7849 27.2537 15.9989C26.9797 16.1209 26.6747 16.0289 26.4017 16.1819C26.1887 16.3649 26.2497 16.6699 26.2187 16.9139C26.4927 16.9439 26.7667 16.9139 27.0407 16.9749C27.0707 17.2189 27.1007 17.5249 26.9187 17.7079C26.6747 17.8599 26.3707 17.7989 26.0967 17.8299C26.0281 17.9325 25.9767 18.0457 25.9447 18.1649C25.7317 19.3249 25.5497 20.4849 25.3367 21.6439C25.2457 22.0399 25.1537 22.4979 24.8197 22.7419C24.4847 23.0169 23.9977 23.0169 23.6027 23.0169C23.4197 22.9869 23.2067 23.0169 23.1157 22.8639C23.0857 22.6499 23.1457 22.4369 23.2067 22.2239C23.4497 22.1619 23.6937 22.2239 23.9367 22.1619C24.1807 22.0709 24.2417 21.7959 24.2717 21.5819C24.4237 20.5759 24.6067 19.5989 24.7887 18.5919C24.8187 18.3479 24.8797 18.1349 24.8797 17.8909C24.6667 17.7989 24.3627 17.8909 24.1797 17.6769C24.0287 17.4939 24.0897 17.2499 24.2107 17.0669C24.3937 16.8529 24.7277 17.0369 24.9707 16.9449C25.1537 16.8529 25.1537 16.6089 25.1847 16.4569C25.2447 15.9989 25.3977 15.5719 25.7627 15.3889ZM38.3587 15.8159C38.4187 15.6329 38.4187 15.3579 38.6017 15.2659C38.9057 15.2359 39.2107 15.2659 39.5147 15.2359C39.6367 15.5719 39.4847 15.9379 39.4237 16.2729C39.1187 16.3649 38.8147 16.3349 38.5107 16.3039C38.2667 16.2429 38.3277 15.9679 38.3587 15.8159ZM21.5637 15.4499C22.3237 15.3279 23.0847 15.3579 23.8157 15.4499C23.9093 15.4556 24.0014 15.4758 24.0887 15.5099C24.1187 15.7549 24.1187 15.9989 24.0287 16.2119C23.9677 16.3649 23.7847 16.3959 23.6327 16.3959H22.1427C21.9287 16.3959 21.6547 16.4559 21.5637 16.7009C21.3817 17.0969 21.3817 17.5239 21.3207 17.9509H23.3587C23.4807 17.9509 23.6627 17.9819 23.6327 18.1349C23.6327 18.3179 23.6027 18.5309 23.5417 18.7149C23.4807 18.8669 23.3287 18.9279 23.1767 18.9279H21.4117C21.3753 18.9213 21.338 18.9226 21.3021 18.9317C21.2663 18.9407 21.2328 18.9574 21.204 18.9805C21.1752 19.0037 21.1517 19.0327 21.135 19.0658C21.1184 19.0988 21.1091 19.135 21.1077 19.1719C21.0467 19.5689 20.9247 19.9959 20.9857 20.3919C21.0157 20.6059 21.2287 20.6669 21.4117 20.6669H23.1457C23.2677 20.6669 23.2677 20.8199 23.2677 20.9109C23.2977 21.1549 23.2377 21.5209 22.9327 21.5519C22.0807 21.6439 21.1987 21.7959 20.4077 21.4609C20.0117 21.3079 19.8597 20.8809 19.7987 20.4839C19.7387 20.1489 19.8287 19.8439 19.8907 19.5079C20.0427 18.6529 20.1947 17.8299 20.3467 17.0059C20.4067 16.6089 20.5297 16.2429 20.8027 15.9379C20.9557 15.6939 21.2287 15.5109 21.5637 15.4499ZM35.9237 16.1509C36.2587 15.9679 36.6237 15.9379 36.9897 15.9679C36.9897 16.2739 36.8977 16.5779 36.8977 16.8839C37.1417 16.9139 37.3847 16.8839 37.6277 16.9749C37.7807 17.0359 37.7497 17.2189 37.7197 17.3409C37.6897 17.5249 37.5977 17.7689 37.3847 17.7689C37.1417 17.8289 36.7767 17.6769 36.6847 18.0129C36.5327 18.6839 36.4417 19.3549 36.3197 20.0569C36.2897 20.3009 36.2287 20.5449 36.2287 20.7589C36.4717 20.8499 36.7157 20.8189 36.9887 20.7889C37.2027 21.1249 36.9887 21.6439 36.5937 21.6439C36.1987 21.6439 35.7417 21.7349 35.4077 21.4609C35.1337 21.2779 35.1027 20.9109 35.1337 20.6059C35.2547 19.6599 35.4677 18.7449 35.5897 17.7989C35.3157 17.7389 35.0117 17.7989 34.7987 17.5859C34.7077 17.4029 34.7077 17.1279 34.8587 16.9759C35.1027 16.8229 35.4377 16.9449 35.7117 16.8529C35.8937 16.6699 35.7717 16.3649 35.9247 16.1519L35.9237 16.1509ZM28.6537 16.8839C29.1097 16.8229 29.5957 16.7919 29.9917 17.0359C30.5087 17.3719 30.7217 18.0129 30.7217 18.5919C30.6917 18.9279 30.7217 19.2639 30.6307 19.5989C30.1737 19.6909 29.6877 19.6289 29.2007 19.6599C28.7437 19.6599 28.2877 19.6299 27.8307 19.6599C27.7097 19.9649 27.7707 20.3929 28.0747 20.6059C28.3177 20.7279 28.5917 20.6979 28.8347 20.6979C29.3227 20.6979 29.7787 20.5449 30.2347 20.4539C30.2347 20.7589 30.3257 21.1239 30.0217 21.3379C29.7177 21.5219 29.3517 21.5829 29.0177 21.6739C28.5007 21.7959 27.9527 21.7659 27.4967 21.4909C27.1007 21.2779 26.7667 20.8809 26.7367 20.4229C26.6447 19.5163 26.8247 18.6029 27.2537 17.7989C27.5267 17.2799 28.1057 16.9749 28.6537 16.8839ZM28.4097 18.0129C28.1657 18.2259 28.0747 18.5309 28.0137 18.8359C28.5617 18.8359 29.1397 18.8669 29.6877 18.8359C29.7357 18.7143 29.7498 18.5819 29.7283 18.453C29.7068 18.324 29.6506 18.2034 29.5657 18.1039C29.2917 17.7379 28.7137 17.7379 28.4097 18.0129ZM31.7257 17.6159C32.0907 17.0659 32.7907 16.8229 33.4297 16.8529C33.7947 16.8829 34.1597 16.9449 34.4947 17.1279C34.7377 17.2799 34.5547 17.5849 34.5247 17.8299C34.4947 18.0429 34.2507 17.9819 34.0987 17.9819C33.7647 18.0119 33.4597 17.7379 33.1257 17.8299C32.9841 17.8663 32.8528 17.9348 32.7418 18.03C32.6309 18.1251 32.5432 18.2445 32.4857 18.3789C32.2427 18.9589 32.1517 19.5989 32.1517 20.2089C32.1517 20.3929 32.2427 20.6059 32.4557 20.6669C32.9427 20.8199 33.4597 20.6369 33.9467 20.5149C33.9767 20.7889 34.0067 21.0639 33.8557 21.3079C33.7337 21.4909 33.4907 21.5219 33.2777 21.5519C33.0037 21.5819 32.7607 21.6129 32.4867 21.6439C31.8777 21.6439 31.2387 21.2169 31.0867 20.6059C30.9957 20.1179 31.0567 19.5989 31.1167 19.1109C31.2697 18.5919 31.4217 18.0739 31.7267 17.6159H31.7257ZM45.3257 16.8839C45.7517 16.8229 46.2387 16.8229 46.6337 17.0059C47.0907 17.2189 47.4557 17.7079 47.4557 18.2559C47.5157 18.8979 47.3337 19.5379 47.1517 20.1479C47.0297 20.5759 46.8167 20.9719 46.4517 21.2169C45.8737 21.6739 45.0517 21.7969 44.3517 21.5829C43.9567 21.4909 43.6517 21.1249 43.4697 20.7589C43.2267 20.2089 43.3477 19.5989 43.4697 19.0189C43.5917 18.4089 43.8047 17.7389 44.2917 17.3109C44.6257 17.0969 44.9607 16.9449 45.3257 16.8839ZM45.4477 17.8599C45.1127 17.9209 44.8697 18.1959 44.7477 18.4999C44.5647 18.9589 44.5047 19.4769 44.4737 19.9649C44.4737 20.1479 44.5037 20.3929 44.6567 20.5149C44.9297 20.7589 45.3567 20.7279 45.6907 20.5749C45.9347 20.4539 46.0867 20.1789 46.1477 19.9349C46.2687 19.4469 46.4517 18.9589 46.3907 18.4399C46.392 18.3493 46.3705 18.2598 46.328 18.1797C46.2855 18.0996 46.2235 18.0316 46.1477 17.9819C46.0476 17.9104 45.9328 17.8623 45.8116 17.8412C45.6904 17.82 45.566 17.8264 45.4477 17.8599ZM38.2067 16.9749C38.5107 16.8839 38.8447 16.8839 39.1497 16.9449C39.3317 16.9749 39.2407 17.1889 39.2407 17.3109C39.0277 18.5609 38.7847 19.8429 38.5707 21.0939C38.5407 21.2779 38.5407 21.5829 38.2667 21.6439C37.9937 21.6739 37.7197 21.7039 37.4767 21.6139C37.4147 21.4909 37.4457 21.3379 37.4457 21.2159L37.9937 17.9209C38.0837 17.5549 38.1147 17.2499 38.2067 16.9749ZM39.7267 16.9749C39.7887 16.9149 39.9097 16.9149 40.0017 16.8839C40.2147 16.8839 40.4577 16.8539 40.6707 16.9139C40.7927 16.9439 40.7617 17.0969 40.7927 17.1889C40.8227 17.9519 40.8527 18.7139 40.9137 19.4469C40.9437 19.8739 40.9437 20.3319 41.0357 20.7589C41.3397 20.4539 41.4317 20.0569 41.5837 19.6599C41.9487 18.7449 42.2837 17.8299 42.7097 16.9139C43.0374 16.8281 43.3804 16.8179 43.7127 16.8839C43.8657 16.9139 43.8047 17.1279 43.7427 17.2189C43.1657 18.4699 42.6177 19.7519 42.0397 21.0029C41.7967 21.5829 41.0657 21.7349 40.5187 21.5529C40.2447 21.4609 40.1227 21.1549 40.0927 20.8809L39.7277 17.3409C39.6968 17.2209 39.6968 17.095 39.7277 16.9749H39.7267Z" fill="black"/>
</g>
<defs>
<clipPath id="clip0_4322_75070">
<rect width="50" height="30" fill="white" transform="translate(0.75 0.253906)"/>
</clipPath>
</defs>
</svg>
