<svg width="51" height="31" viewBox="0 0 51 31" fill="none" xmlns="http://www.w3.org/2000/svg">
<g clip-path="url(#clip0_4314_71828)">
<path d="M0.75 0.253906H50.75V30.2539H0.75V0.253906Z" fill="#EFEEEE"/>
<path fill-rule="evenodd" clip-rule="evenodd" d="M31.9309 17.9029C31.9309 17.9029 31.7479 17.9399 31.7479 17.6089C31.7479 17.2769 31.8579 17.3139 32.0399 17.2039C32.2229 17.0939 32.3319 16.8729 32.3319 17.1299C32.3689 17.3509 32.2959 17.5349 32.1499 17.7189C32.1038 17.807 32.0247 17.8731 31.9299 17.9029H31.9309ZM27.6939 19.0799C27.9499 18.7859 28.2049 18.4549 28.3879 18.1239C28.4609 17.9029 28.8629 17.8659 28.8259 18.1239C28.7899 18.3809 28.1689 18.8959 28.1689 18.8959C28.1689 18.8959 27.8759 19.2639 27.7299 19.2639C27.5839 19.2639 27.6939 19.0799 27.6939 19.0799ZM16.1889 8.15391L31.1999 4.25391L33.8299 13.9659L39.5999 12.4949L34.0489 19.7049H33.9759C33.9759 19.7049 33.4649 19.8529 33.3189 19.7419C33.1719 19.6319 33.5009 19.0069 33.6839 18.5649C33.8659 18.1239 34.1949 17.0939 34.5239 16.5049C34.7061 16.0718 34.9951 15.692 35.3639 15.4009C35.4739 15.3639 35.5469 14.9599 35.5099 14.7759C35.4739 14.5919 35.5099 14.4079 35.3269 14.4079C35.1449 14.4079 34.9989 14.9599 34.7429 15.2909C34.2613 16.0634 33.8223 16.8615 33.4279 17.6819C32.9247 18.6291 32.2845 19.4968 31.5279 20.2569C31.0179 20.6619 31.4189 19.8899 31.4919 19.6689C31.6019 19.3739 31.7119 19.0799 31.8219 18.8229C31.8219 18.8229 32.2219 18.3809 31.7119 18.5279C31.1999 18.6749 30.6889 19.4479 30.6889 19.4479C30.6889 19.4479 29.3739 21.0669 28.9359 21.3979C28.4969 21.7279 28.6069 21.2139 28.6799 20.6979C28.8259 20.2939 29.0449 19.8899 29.3369 19.5949L29.5569 19.5219C29.5569 19.5219 29.4109 20.0369 29.5199 19.9999C29.6299 19.9629 29.7759 19.7799 29.8119 19.5949C29.8489 19.4109 29.8119 18.6749 29.6659 18.7489C29.2747 19.0637 28.9083 19.4081 28.5699 19.7789C28.3509 20.0369 27.5109 21.0669 27.2199 21.5449C26.9269 22.0229 27.1829 21.2509 27.1829 21.2509C27.2559 21.0669 27.2929 20.8459 27.3289 20.6619C27.3649 20.4779 27.1089 20.5879 27.1089 20.5879L26.7809 20.9199C26.7809 20.9199 26.7079 20.9929 26.7079 21.2499C26.7079 21.5079 26.3789 21.9129 26.0139 22.1339C25.6479 22.3539 25.7939 21.9129 25.7939 21.9129C25.8953 21.5521 26.0429 21.2059 26.2329 20.8829C26.4159 20.5149 26.7439 20.2939 27.1459 20.1829C27.3659 20.1099 27.2559 19.9629 27.1829 19.8529C27.1099 19.7429 26.8899 19.8159 26.8169 19.8899C26.6709 19.9999 24.1139 22.1339 24.0049 22.5009C23.8949 22.8689 24.2609 22.5749 24.2609 22.5749L25.2829 21.4709L25.3199 21.4349L25.2829 21.6919C25.1379 21.9636 25.0627 22.267 25.0639 22.5749C25.1369 22.8689 25.3559 22.7949 25.5389 22.7949C25.7219 22.7949 26.0139 22.3179 26.2329 22.1699C26.4529 22.0229 26.4529 22.2069 26.5249 22.3179C26.5979 22.4279 26.8899 22.2809 26.8899 22.2809C26.8899 22.2809 27.5839 21.3609 27.7299 21.1409C27.8029 21.0299 27.9499 20.9559 28.0959 20.9199C28.0589 21.1399 28.0959 21.3609 28.2419 21.5449C28.4609 21.9129 28.8989 21.6179 29.1179 21.4709C29.5569 21.0299 29.9949 20.5509 30.3599 20.0729C30.4639 19.9235 30.6202 19.8186 30.7979 19.7789C30.7249 20.1099 30.6879 20.4409 30.7249 20.7719C30.7619 20.9929 31.1269 21.0299 31.5289 20.6249C32.0039 20.1099 32.4059 19.5579 32.8069 18.9699C32.6969 19.3379 32.6249 19.7049 32.6609 20.0729C32.7339 20.5519 33.1359 20.4049 33.3189 20.3679C33.5009 20.3309 33.6109 20.1839 33.7569 20.1099L29.0449 26.2539L22.6539 23.4579L23.6039 20.6619L24.9909 20.2209C25.0639 19.9999 25.1739 19.7789 25.2829 19.5579C25.4289 19.3009 25.0639 19.3379 25.0639 19.3379C24.7719 19.5579 24.4799 19.7419 24.1509 19.8899C23.7859 20.0729 23.9309 19.6689 23.9309 19.6689C23.9309 19.6689 24.4799 18.5649 24.6619 18.0869C24.8449 17.6089 25.3559 17.6449 25.7949 17.4609C26.2329 17.2769 29.1179 16.3579 29.5929 16.2109C30.0679 16.0629 29.9949 15.2909 29.9949 15.2909C29.7007 15.4475 29.3956 15.5826 29.0819 15.6949C28.6799 15.8049 26.0139 16.8349 25.7219 16.9829C25.4289 17.1299 25.5749 16.8729 25.5749 16.6519C25.5749 16.4319 25.4289 16.5419 25.4289 16.5419C25.2469 16.6519 25.0279 16.7259 24.8089 16.7989C24.5529 16.8729 24.4069 17.2769 24.4069 17.2769C24.4069 17.2769 21.9969 18.3809 21.4849 18.9699C20.9739 19.5579 21.7769 19.2999 21.7769 19.2999C21.7769 19.2999 24.0779 17.9399 23.8949 18.2699C23.7129 18.6019 22.9449 20.4409 22.9449 20.4409C22.9449 20.4409 22.1789 20.9559 21.9229 21.1769C21.6669 21.3969 21.7769 21.8029 21.7769 21.8029C21.7769 21.8029 22.8729 20.9199 22.7629 21.2129C22.6529 21.5079 22.3249 22.7959 22.1789 23.2369L13.0469 19.2639L18.5979 17.7919L16.1879 8.15391H16.1889Z" fill="#DF315F"/>
<path fill-rule="evenodd" clip-rule="evenodd" d="M34.6354 8.70589C33.6494 8.96289 33.3574 9.69889 33.7594 10.9499C34.0154 11.5389 34.7094 11.8329 35.3294 11.6119C35.566 11.5765 35.7877 11.4747 35.9687 11.3184C36.1498 11.1622 36.2828 10.9577 36.3524 10.7289C36.4624 10.2879 36.4254 9.80889 36.2064 9.40489C36.0798 9.13005 35.8603 8.90872 35.5864 8.77989C35.2934 8.63189 34.9284 8.63189 34.6364 8.70589H34.6354ZM34.3434 7.49189C35.1834 7.23389 36.0964 7.19789 36.9364 7.45489C37.2664 7.56489 37.5574 7.74889 37.8494 7.93289L38.1794 8.26389C38.2884 8.41189 38.3614 8.52189 38.4344 8.66889L38.5444 8.92689L38.6164 9.14689C38.7634 9.62589 38.7264 10.1409 38.5444 10.5819C38.3244 11.1339 37.9594 11.5759 37.5214 11.9069C36.949 12.3402 36.2879 12.6417 35.5854 12.7899C34.7312 13.0594 33.8167 13.0719 32.9554 12.8259C32.6424 12.7332 32.3516 12.5778 32.1006 12.3691C31.8496 12.1604 31.6437 11.9027 31.4954 11.6119L31.4214 11.4279L31.3484 11.2439L31.2754 11.0599C31.1662 10.5818 31.2045 10.0818 31.3854 9.62589C31.5996 9.11951 31.9547 8.6853 32.4084 8.37489C32.9806 7.94175 33.6413 7.64024 34.3434 7.49189ZM20.4294 14.7389L21.8894 14.3719L20.7214 12.7519L20.4294 14.7389ZM19.1874 11.5019L21.5244 10.9129L25.2504 15.3649L22.9494 15.9529L22.5104 15.3649L20.2104 15.9529L20.1004 16.6889L17.8724 17.2409L19.1874 11.5009V11.5019ZM14.3664 14.0039L14.6214 15.1439L15.6074 14.8869C15.8634 14.8499 16.0824 14.7029 16.2654 14.5189C16.3379 14.4485 16.3846 14.3557 16.3978 14.2556C16.4111 14.1554 16.3902 14.0537 16.3384 13.9669C16.1924 13.6729 15.7544 13.6359 15.0604 13.8199L14.3664 14.0039ZM25.1764 10.1409C25.2504 10.1039 25.3234 10.0309 25.3964 9.99389C25.8714 9.73589 26.3824 9.51489 26.9304 9.40389C27.2224 9.33089 27.4784 9.29389 27.7704 9.25789C28.0264 9.22089 28.2814 9.22089 28.5734 9.22089C29.0124 9.22089 29.4874 9.33089 29.8524 9.55189C30.2174 9.73589 30.5094 10.0299 30.6924 10.3979V10.4349L29.4504 10.7659V11.3549L30.9114 10.9869L31.5684 13.7829L30.1084 14.1509L29.8884 13.6719C29.7784 13.8199 29.6334 13.9669 29.4504 14.1139C29.0098 14.4556 28.4983 14.6944 27.9534 14.8129C27.1772 15.0337 26.3547 15.0337 25.5784 14.8129C24.9584 14.6289 24.4104 14.2239 24.1184 13.6359L23.9724 13.3409L23.9354 13.0839C23.7524 12.3109 23.8984 11.5019 24.4104 10.8769C24.6294 10.5819 24.8854 10.3249 25.1774 10.1409H25.1764ZM11.7734 13.4139L15.1334 12.5679C15.6319 12.4229 16.1483 12.3488 16.6674 12.3479C17.042 12.3156 17.4187 12.3786 17.7624 12.5309C18.0554 12.6779 18.2744 12.8989 18.4204 13.1559C18.4934 13.3039 18.5304 13.4139 18.5664 13.5609C18.8224 14.7009 17.9824 15.5109 16.0824 15.9889L14.9144 16.2839L15.2794 17.8659L12.9414 18.4909L11.7734 13.4139Z" fill="#FEFEFE"/>
<path d="M34.6354 8.70589C33.6494 8.96289 33.3574 9.69889 33.7594 10.9499C34.0154 11.5389 34.7094 11.8329 35.3294 11.6119C35.566 11.5765 35.7877 11.4747 35.9687 11.3184C36.1498 11.1622 36.2828 10.9577 36.3524 10.7289C36.4624 10.2879 36.4254 9.80889 36.2064 9.40489C36.0797 9.13015 35.8601 8.90886 35.5864 8.77989C35.2934 8.63189 34.9284 8.63189 34.6364 8.70589H34.6354ZM34.3434 7.49189C35.1834 7.23389 36.0964 7.19789 36.9364 7.45489C37.2664 7.56489 37.5574 7.74889 37.8494 7.93289L38.1794 8.26389C38.2884 8.41189 38.3614 8.52189 38.4344 8.66889L38.5444 8.92689L38.6164 9.14689C38.7634 9.62589 38.7264 10.1409 38.5444 10.5819C38.3244 11.1339 37.9594 11.5759 37.5214 11.9069C36.949 12.3402 36.2879 12.6417 35.5854 12.7899C34.7312 13.0594 33.8167 13.0719 32.9554 12.8259C32.6424 12.7332 32.3516 12.5778 32.1006 12.3691C31.8496 12.1604 31.6437 11.9027 31.4954 11.6119L31.4214 11.4279L31.3484 11.2439L31.2754 11.0599C31.1662 10.5818 31.2045 10.0818 31.3854 9.62589C31.5996 9.11951 31.9547 8.6853 32.4084 8.37489C32.9806 7.94175 33.6413 7.64024 34.3434 7.49189V7.49189ZM20.4294 14.7389L21.8894 14.3719L20.7214 12.7519L20.4294 14.7389V14.7389ZM19.1874 11.5019L21.5244 10.9129L25.2504 15.3649L22.9494 15.9529L22.5104 15.3649L20.2104 15.9529L20.1004 16.6889L17.8724 17.2409L19.1874 11.5009V11.5019ZM14.3664 14.0039L14.6214 15.1439L15.6074 14.8869C15.8634 14.8499 16.0824 14.7029 16.2654 14.5189C16.3379 14.4485 16.3846 14.3557 16.3978 14.2556C16.4111 14.1554 16.3902 14.0537 16.3384 13.9669C16.1924 13.6729 15.7544 13.6359 15.0604 13.8199L14.3664 14.0039V14.0039ZM25.1764 10.1409C25.2504 10.1039 25.3234 10.0309 25.3964 9.99389C25.8714 9.73589 26.3824 9.51489 26.9304 9.40389C27.2224 9.33089 27.4784 9.29389 27.7704 9.25789C28.0264 9.22089 28.2814 9.22089 28.5734 9.22089C29.0124 9.22089 29.4874 9.33089 29.8524 9.55189C30.2174 9.73589 30.5094 10.0299 30.6924 10.3979V10.4349L29.4504 10.7659V11.3549L30.9114 10.9869L31.5684 13.7829L30.1084 14.1509L29.8884 13.6719C29.7784 13.8199 29.6334 13.9669 29.4504 14.1139C29.0098 14.4556 28.4983 14.6944 27.9534 14.8129C27.1772 15.0337 26.3547 15.0337 25.5784 14.8129C24.9584 14.6289 24.4104 14.2239 24.1184 13.6359L23.9724 13.3409L23.9354 13.0839C23.7524 12.3109 23.8984 11.5019 24.4104 10.8769C24.6294 10.5819 24.8844 10.3249 25.1774 10.1409H25.1764ZM11.7734 13.4139L15.1334 12.5679C15.6319 12.4229 16.1483 12.3488 16.6674 12.3479C17.042 12.3156 17.4187 12.3786 17.7624 12.5309C18.0554 12.6779 18.2744 12.8989 18.4204 13.1559C18.4934 13.3039 18.5304 13.4139 18.5664 13.5609C18.8224 14.7009 17.9824 15.5109 16.0824 15.9889L14.9144 16.2839L15.2794 17.8659L12.9414 18.4909L11.7734 13.4139V13.4139Z" stroke="#FEFEFE" stroke-width="2.56" stroke-linecap="round" stroke-linejoin="round"/>
<path fill-rule="evenodd" clip-rule="evenodd" d="M34.6364 8.70589C33.6504 8.96289 33.3584 9.69889 33.7604 10.9499C34.0164 11.5389 34.7104 11.8329 35.3304 11.6119C35.567 11.5765 35.7887 11.4747 35.9697 11.3184C36.1508 11.1622 36.2838 10.9577 36.3534 10.7289C36.4634 10.2879 36.4264 9.80889 36.2074 9.40489C36.0808 9.13005 35.8613 8.90872 35.5874 8.77989C35.2944 8.63189 34.9294 8.63189 34.6374 8.70589H34.6364ZM34.3444 7.49189C35.1844 7.23389 36.0974 7.19789 36.9374 7.45489C37.2674 7.56489 37.5584 7.74889 37.8504 7.93289L38.1804 8.26389C38.2894 8.41189 38.3624 8.52189 38.4354 8.66889L38.5454 8.92689L38.6174 9.14689C38.7644 9.62589 38.7274 10.1409 38.5454 10.5819C38.3254 11.1339 37.9604 11.5759 37.5224 11.9069C36.95 12.3402 36.2889 12.6417 35.5864 12.7899C34.7322 13.0594 33.8177 13.0719 32.9564 12.8259C32.6434 12.7332 32.3526 12.5778 32.1016 12.3691C31.8506 12.1604 31.6447 11.9027 31.4964 11.6119L31.4224 11.4279L31.3494 11.2439L31.2764 11.0599C31.1672 10.5818 31.2055 10.0818 31.3864 9.62589C31.6006 9.11951 31.9557 8.6853 32.4094 8.37489C32.9816 7.94175 33.6423 7.64024 34.3444 7.49189ZM28.0624 12.8259L27.8064 11.7229L30.9484 10.9129L31.6054 13.7089L30.1444 14.0769L29.9244 13.5989C29.4215 14.1803 28.7417 14.5807 27.9894 14.7389C27.2135 14.9595 26.3914 14.9595 25.6154 14.7389C24.9954 14.5559 24.4464 14.1509 24.1554 13.5619L24.0084 13.2679L23.9354 13.0839C23.7524 12.3109 23.8984 11.5019 24.4104 10.8769C24.6874 10.516 25.0352 10.2156 25.4324 9.99389C25.9074 9.73589 26.4194 9.51489 26.9664 9.40389C27.2431 9.33744 27.5236 9.28867 27.8064 9.25789C28.0624 9.22089 28.3184 9.22089 28.6104 9.22089C29.0484 9.22089 29.5234 9.33089 29.8884 9.55189C30.2544 9.73589 30.5464 10.0299 30.7284 10.3979V10.4349L28.5374 10.9869C28.2454 10.6189 27.8074 10.4719 27.1864 10.6559C26.1634 10.9129 25.9074 11.6489 26.3464 12.9359C26.6744 13.5259 27.2224 13.7089 28.0264 13.4889C28.2814 13.4149 28.5004 13.3049 28.7204 13.1209C28.8158 13.0587 28.8973 12.9776 28.9601 12.8827C29.0229 12.7878 29.0655 12.681 29.0854 12.5689L28.0624 12.8259ZM20.4294 14.7389L21.8894 14.3719L20.7214 12.7519L20.4294 14.7389ZM19.1874 11.5019L21.5244 10.9129L25.2504 15.3649L22.9494 15.9529L22.5104 15.3649L20.2104 15.9529L20.1004 16.6889L17.8724 17.2409L19.1874 11.5009V11.5019ZM14.3664 14.0039L14.6214 15.1439L15.6074 14.8869C15.8634 14.8499 16.0824 14.7029 16.2654 14.5189C16.3379 14.4485 16.3846 14.3557 16.3978 14.2556C16.4111 14.1554 16.3902 14.0537 16.3384 13.9669C16.1924 13.6729 15.7544 13.6359 15.0604 13.8199L14.3664 14.0039ZM11.7734 13.4149L15.1334 12.5689C15.6319 12.4239 16.1483 12.3498 16.6674 12.3489C17.042 12.3166 17.4187 12.3796 17.7624 12.5319C18.0554 12.6789 18.2744 12.8999 18.4204 13.1569C18.4934 13.3049 18.5304 13.4149 18.5664 13.5619C18.8224 14.7019 17.9824 15.5119 16.0824 15.9899L14.9144 16.2849L15.2794 17.8669L12.9414 18.4919L11.7734 13.4149Z" fill="#4F6184"/>
</g>
<defs>
<clipPath id="clip0_4314_71828">
<rect x="0.75" y="0.253906" width="50" height="30" rx="4" fill="white"/>
</clipPath>
</defs>
</svg>
