<svg width="51" height="31" viewBox="0 0 51 31" fill="none" xmlns="http://www.w3.org/2000/svg">
<g clip-path="url(#clip0_4338_85361)">
<path d="M0.75 0.253906H50.75V30.2539H0.75V0.253906Z" fill="#0B2577"/>
<path d="M7.336 12.8419C6.474 12.8419 5.9 13.2249 5.516 13.7999V12.9379H4.75V20.8879H5.612V16.9609C5.995 17.5359 6.57 17.9189 7.432 17.9189C8.773 17.9189 9.827 16.7689 9.827 15.4289C9.827 13.8959 8.677 12.8419 7.337 12.8419H7.336ZM7.241 17.0569C7.01426 17.0579 6.78955 17.0141 6.57985 16.9278C6.37015 16.8416 6.17961 16.7146 6.01924 16.5543C5.85886 16.394 5.73181 16.2036 5.64544 15.9939C5.55907 15.7843 5.51507 15.5596 5.516 15.3329C5.516 14.3749 6.283 13.6079 7.241 13.6079C8.199 13.6079 8.965 14.3749 8.965 15.3329C8.965 16.2899 8.199 17.0569 7.241 17.0569ZM14.425 13.7999C14.042 13.2249 13.467 12.8419 12.605 12.8419C11.264 12.8419 10.21 13.9919 10.21 15.3319C10.21 16.7699 11.264 17.8229 12.605 17.8229C13.467 17.8229 14.042 17.4399 14.425 16.8649V17.7269H15.287V12.9369H14.425V13.7999ZM12.701 17.0569C12.4743 17.0579 12.2496 17.0141 12.0399 16.9278C11.8302 16.8416 11.6396 16.7146 11.4792 16.5543C11.3189 16.394 11.1918 16.2036 11.1054 15.9939C11.0191 15.7843 10.9751 15.5596 10.976 15.3329C10.976 14.3749 11.743 13.6079 12.701 13.6079C13.659 13.6079 14.425 14.3749 14.425 15.3329C14.425 16.2899 13.755 17.0569 12.701 17.0569ZM19.982 13.7999C19.599 13.2249 19.024 12.8419 18.162 12.8419C16.82 12.8419 15.671 13.9919 15.671 15.3319C15.671 16.7699 16.725 17.8229 18.161 17.8229C18.5198 17.8253 18.8736 17.7391 19.1911 17.572C19.5086 17.4049 19.7799 17.162 19.981 16.8649V18.5899C19.981 19.4519 19.407 20.0269 18.449 20.0269V20.7929C19.694 20.7929 20.844 20.0259 20.844 18.4929V12.8419H19.982V13.7999ZM18.257 17.0569C18.0303 17.0578 17.8057 17.0138 17.5962 16.9275C17.3866 16.8412 17.1962 16.7143 17.0359 16.554C16.8756 16.3937 16.7487 16.2033 16.6623 15.9937C16.576 15.7841 16.5321 15.5595 16.533 15.3329C16.533 14.3749 17.299 13.6079 18.257 13.6079C19.215 13.6079 19.982 14.3749 19.982 15.3329C19.982 16.2899 19.215 17.0569 18.257 17.0569ZM23.909 12.8419C23.5813 12.8395 23.2564 12.9022 22.9531 13.0265C22.6499 13.1508 22.3744 13.3341 22.1426 13.5658C21.9108 13.7975 21.7274 14.0729 21.603 14.3761C21.4786 14.6793 21.4157 15.0042 21.418 15.3319C21.4156 15.6596 21.4784 15.9845 21.6026 16.2877C21.7269 16.591 21.9102 16.8665 22.1419 17.0982C22.3736 17.33 22.649 17.5134 22.9522 17.6378C23.2554 17.7622 23.5803 17.8251 23.908 17.8229C25.346 17.8229 26.495 16.6729 26.495 15.3329C26.495 13.8959 25.345 12.8419 23.909 12.8419ZM23.909 17.0569C23.6823 17.0579 23.4576 17.0141 23.2479 16.9278C23.0382 16.8416 22.8476 16.7146 22.6872 16.5543C22.5269 16.394 22.3998 16.2036 22.3134 15.9939C22.2271 15.7843 22.1831 15.5596 22.184 15.3329C22.184 14.3749 22.951 13.6079 23.909 13.6079C24.867 13.6079 25.633 14.3749 25.633 15.3329C25.633 16.2899 24.867 17.0569 23.909 17.0569Z" fill="white"/>
<path d="M35.0179 12.9359C34.2519 12.9359 33.6769 13.2229 33.2939 13.7979V13.0309H32.3359V17.9169H33.2939V15.5219C33.2939 14.2769 33.9639 13.7979 34.8269 13.7979C35.6889 13.7979 36.1669 14.2769 36.1669 15.1379V17.9169H37.1259V15.0429C37.0299 13.7019 36.2639 12.9359 35.0179 12.9359ZM40.3829 12.8419C38.9459 12.8419 37.8929 13.8959 37.8929 15.3319C37.8929 16.7699 38.9459 17.8229 40.3829 17.8229C40.9579 17.8229 41.3409 17.7269 41.7239 17.4399L41.2449 16.7699C40.9639 16.9643 40.6286 17.0648 40.2869 17.0569C39.4249 17.0569 38.7549 16.5769 38.5629 15.7159H42.4909V15.3329C42.7779 14.0869 41.8209 12.8419 40.3829 12.8419ZM38.7549 15.0449C38.8509 14.1829 39.5209 13.7039 40.3829 13.7039C41.0529 13.7039 41.7239 14.1829 41.9159 15.0449H38.7549ZM44.8849 12.6489V10.2539H44.0229V12.6489H43.1609V13.7029H44.0229V17.9179H44.8849V13.7029H45.7479V12.6489H44.8849Z" fill="#BEE73F"/>
<path d="M29.8485 15.0439H28.2195C27.9325 15.0439 27.5495 14.8539 27.5495 14.4699C27.5495 14.1829 27.8365 13.8949 28.1235 13.8949H30.9015V13.1289H28.2205C27.3585 13.1289 26.6875 13.7989 26.6875 14.5659C26.6875 15.3319 27.3585 15.9069 28.3165 15.9069L29.8495 16.0029C30.1365 16.0029 30.5195 16.1939 30.5195 16.5779C30.5195 16.8649 30.2325 17.1519 29.9455 17.1519H27.1675V17.9189H29.9455C30.8075 17.9189 31.4775 17.2489 31.4775 16.4819C31.3825 15.7149 30.7115 15.1409 29.8495 15.0449L29.8485 15.0439Z" fill="white"/>
</g>
<defs>
<clipPath id="clip0_4338_85361">
<rect width="50" height="30" fill="white" transform="translate(0.75 0.253906)"/>
</clipPath>
</defs>
</svg>
