<svg width="51" height="30" viewBox="0 0 51 30" fill="none" xmlns="http://www.w3.org/2000/svg">
<rect x="0.428125" y="0.1" width="49.8" height="29.8" rx="3.9" fill="white"/>
<path fill-rule="evenodd" clip-rule="evenodd" d="M9.69341 9.0022C11.0631 9.0022 12.3269 9.7452 12.154 11.5969C11.9444 13.7976 10.7655 15.0154 8.90534 15.0206H7.27996C7.04626 15.0206 6.93309 15.2113 6.87231 15.6022L6.55792 17.6007C6.51076 17.9025 6.35566 18.0513 6.12721 18.0513H4.61501C4.37398 18.0513 4.29014 17.8972 4.34359 17.5525L5.5917 9.54294C5.65353 9.14891 5.80129 9.0022 6.07062 9.0022H9.69026H9.69341ZM7.23071 13.2904H8.46206C9.2323 13.2611 9.7437 12.7277 9.79505 11.7657C9.82649 11.1715 9.42513 10.746 8.78692 10.7491L7.62788 10.7544L7.23071 13.2904ZM16.2651 17.4382C16.4035 17.3125 16.5439 17.2475 16.524 17.4026L16.4747 17.7736C16.4496 17.9675 16.5261 18.0702 16.7063 18.0702H18.0498C18.2762 18.0702 18.3862 17.979 18.4417 17.629L19.2696 12.4332C19.3115 12.1723 19.2476 12.0444 19.0496 12.0444H17.5719C17.4388 12.0444 17.3739 12.1188 17.3393 12.3221L17.2848 12.6417C17.2565 12.8084 17.18 12.8377 17.1087 12.67C16.8583 12.0769 16.219 11.8107 15.3272 11.8317C13.2554 11.8746 11.8585 13.4476 11.7086 15.4639C11.5933 17.0233 12.7105 18.2483 14.1839 18.2483C15.2528 18.2483 15.7307 17.9339 16.2693 17.4414L16.2651 17.4382ZM15.1396 16.6387C14.2478 16.6387 13.6264 15.9271 13.7553 15.0552C13.8842 14.1833 14.7184 13.4717 15.6102 13.4717C16.502 13.4717 17.1234 14.1833 16.9945 15.0552C16.8656 15.9271 16.0325 16.6387 15.1396 16.6387ZM21.8989 12.0276H20.5366C20.2558 12.0276 20.1415 12.2372 20.2306 12.495L21.922 17.4477L20.2631 19.8045C20.1237 20.0015 20.2317 20.1807 20.4276 20.1807H21.9587C22.0479 20.1911 22.1382 20.1755 22.2189 20.1359C22.2995 20.0964 22.3671 20.0344 22.4135 19.9575L27.6155 12.4961C27.7759 12.2666 27.7004 12.0256 27.4374 12.0256H25.9881C25.7397 12.0256 25.6402 12.1241 25.4976 12.3305L23.3284 15.4744L22.359 12.3232C22.3024 12.1324 22.1609 12.0276 21.9 12.0276H21.8989Z" fill="#113984"/>
<path fill-rule="evenodd" clip-rule="evenodd" d="M33.0595 9.0021C34.4292 9.0021 35.6931 9.7451 35.5201 11.5968C35.3106 13.7975 34.1316 15.0153 32.2715 15.0205H30.6471C30.4135 15.0205 30.3003 15.2112 30.2395 15.6021L29.9251 17.6006C29.8779 17.9024 29.7229 18.0512 29.4944 18.0512H27.9822C27.7412 18.0512 27.6573 17.8972 27.7108 17.5524L28.961 9.54075C29.0228 9.14671 29.1706 9 29.4399 9H33.0595V9.0021ZM30.5968 13.2903H31.8282C32.5984 13.261 33.1098 12.7276 33.1612 11.7656C33.1926 11.1714 32.7913 10.7459 32.1531 10.749L30.994 10.7543L30.5968 13.2903ZM39.6313 17.4381C39.7696 17.3124 39.91 17.2474 39.8901 17.4025L39.8409 17.7735C39.8157 17.9674 39.8922 18.0701 40.0725 18.0701H41.4159C41.6423 18.0701 41.7523 17.9789 41.8079 17.6289L42.6358 12.4331C42.6777 12.1722 42.6138 12.0443 42.4157 12.0443H40.9402C40.8071 12.0443 40.7421 12.1187 40.7075 12.322L40.653 12.6416C40.6247 12.8083 40.5482 12.8376 40.477 12.6699C40.2265 12.0768 39.5873 11.8106 38.6955 11.8316C36.6236 11.8745 35.2267 13.4475 35.0769 15.4638C34.9616 17.0232 36.0787 18.2482 37.5521 18.2482C38.621 18.2482 39.0989 17.9338 39.6376 17.4413L39.6313 17.4381ZM38.5068 16.6386C37.615 16.6386 36.9936 15.927 37.1225 15.0551C37.2514 14.1832 38.0855 13.4716 38.9774 13.4716C39.8692 13.4716 40.4906 14.1832 40.3617 15.0551C40.2328 15.927 39.3986 16.6386 38.5068 16.6386ZM44.7034 18.0784H43.1524C43.1254 18.0797 43.0985 18.0749 43.0736 18.0645C43.0487 18.0541 43.0264 18.0383 43.0082 18.0183C42.9901 17.9983 42.9766 17.9745 42.9688 17.9487C42.9609 17.9228 42.9588 17.8956 42.9627 17.8689L44.3251 9.23789C44.3381 9.17898 44.3706 9.12621 44.4174 9.08816C44.4642 9.05011 44.5225 9.02901 44.5829 9.0283H46.1338C46.1608 9.02709 46.1877 9.03186 46.2127 9.04225C46.2376 9.05265 46.2599 9.06842 46.278 9.08845C46.2961 9.10847 46.3096 9.13225 46.3175 9.15808C46.3253 9.18391 46.3274 9.21116 46.3235 9.23789L44.9612 17.8689C44.9486 17.9281 44.9162 17.9814 44.8694 18.0199C44.8225 18.0583 44.764 18.0797 44.7034 18.0805V18.0784Z" fill="#009EE3"/>
<rect x="0.428125" y="0.1" width="49.8" height="29.8" rx="3.9" stroke="black" stroke-width="0.2"/>
</svg>
