<svg width="51" height="30" viewBox="0 0 51 30" fill="none" xmlns="http://www.w3.org/2000/svg">
<rect x="0.764063" y="0.1" width="49.8" height="29.8" rx="3.9" fill="white"/>
<path fill-rule="evenodd" clip-rule="evenodd" d="M14.0788 8H17.9426V11.8353H14.0788V8ZM14.7371 8.65829H17.2844V11.177H14.7371V8.65829ZM15.3667 9.25934H16.6833V10.5759H15.3667V9.25934ZM7.69618 10.0607H9.78554C11.5028 10.0607 12.9053 11.4632 12.9053 13.1805C12.9053 14.8978 11.5028 16.2716 9.78554 16.2716H7.69618V18.6472H5.66406V16.2716V11.5777H7.69618V10.0607ZM7.69618 11.6063V14.7547H9.41347C10.3007 14.7547 11.0163 14.0391 11.0163 13.1805C11.0163 12.2932 10.3007 11.6063 9.41347 11.6063H7.69618ZM14.0788 13.1519H16.1109V18.6472H14.0788V13.1519ZM26.9012 10.0607H28.9905C30.7078 10.0607 32.1103 11.4632 32.1103 13.1805C32.1103 14.8978 30.7078 16.2716 28.9905 16.2716H26.9012V18.6472H24.869V16.2716V11.5777H26.9012V10.0607ZM26.9012 11.6063V14.7547H28.6184C29.5057 14.7547 30.2212 14.0391 30.2212 13.1805C30.2212 12.2932 29.5057 11.6063 28.6184 11.6063H26.9012ZM20.8334 11.9784C21.9783 11.9784 23.0086 12.5222 23.6383 13.3522L22.5507 14.4398C22.2359 13.8674 21.6634 13.4953 21.0051 13.4953C20.032 13.4953 19.2306 14.3253 19.2306 15.3843C19.2306 16.4147 20.032 17.2733 21.0051 17.2733C21.6634 17.2733 22.2359 16.8726 22.5507 16.3288L23.6383 17.4164C23.0086 18.2465 21.9783 18.7903 20.8334 18.7903C18.9158 18.7903 17.3416 17.2733 17.3416 15.4129C17.313 13.4953 18.8872 11.9784 20.8334 11.9784ZM40.9543 21.2231H42.9291L46.5641 12.0929H44.5892L42.9291 16.3002L41.2691 12.0929H39.2942L41.956 18.7903L40.9543 21.2231ZM38.779 18.5327H36.9473V18.0175C34.772 19.4486 32.9403 18.5041 32.7113 17.1016C32.4537 15.5561 33.4268 14.4112 37.119 14.726C37.119 13.3236 35.0296 13.1519 33.5986 14.125L32.9403 12.8084C35.5448 11.4346 38.779 11.8639 38.779 14.1536V18.5327ZM37.1762 15.785H35.6021C34.0279 15.785 34.3713 17.8171 35.8883 17.5023C36.6611 17.3306 37.1476 16.8154 37.1762 15.785Z" fill="#3FAD57"/>
<rect x="0.764063" y="0.1" width="49.8" height="29.8" rx="3.9" stroke="black" stroke-width="0.2"/>
</svg>
