<svg width="51" height="30" viewBox="0 0 51 30" fill="none" xmlns="http://www.w3.org/2000/svg">
<rect x="0.764063" y="0.1" width="49.8" height="29.8" rx="3.9" fill="white"/>
<g clip-path="url(#clip0_4500_38482)">
<path d="M22.1406 21.0488V12.8136C22.1406 12.086 22.4296 11.3882 22.9441 10.8738C23.4586 10.3593 24.1563 10.0703 24.8839 10.0703L27.3151 10.0737C28.0408 10.0752 28.7362 10.3645 29.2487 10.8782C29.7613 11.3918 30.0491 12.0879 30.049 12.8136V14.5661C30.049 15.2937 29.76 15.9915 29.2456 16.506C28.7311 17.0205 28.0334 17.3096 27.3058 17.3097H23.8694" stroke="#939598" stroke-width="0.265379" stroke-linecap="round" stroke-linejoin="round"/>
<path d="M30.7266 10.0698H31.7813C32.0799 10.0698 32.3663 10.1885 32.5775 10.3996C32.7886 10.6108 32.9072 10.8972 32.9072 11.1958V17.347" stroke="#939598" stroke-width="0.265379" stroke-linecap="round" stroke-linejoin="round"/>
<path d="M32.6766 9.11691L32.1984 8.6383C32.1702 8.61011 32.1478 8.57664 32.1325 8.53979C32.1172 8.50295 32.1094 8.46346 32.1094 8.42358C32.1094 8.3837 32.1172 8.3442 32.1325 8.30736C32.1478 8.27052 32.1702 8.23705 32.1984 8.20886L32.6766 7.73067C32.7336 7.67364 32.811 7.6416 32.8917 7.6416C32.9724 7.6416 33.0498 7.67364 33.1068 7.73067L33.5846 8.20886C33.6128 8.23705 33.6352 8.27052 33.6505 8.30736C33.6657 8.3442 33.6736 8.3837 33.6736 8.42358C33.6736 8.46346 33.6657 8.50295 33.6505 8.53979C33.6352 8.57664 33.6128 8.61011 33.5846 8.6383L33.1047 9.11691C33.0765 9.14514 33.043 9.16753 33.0061 9.1828C32.9692 9.19808 32.9297 9.20594 32.8898 9.20594C32.8499 9.20594 32.8104 9.19808 32.7735 9.1828C32.7366 9.16753 32.7031 9.14514 32.6749 9.11691" fill="#32BCAD"/>
<path d="M34.9297 10.0645H35.9755C36.5135 10.0642 37.0295 10.2777 37.4101 10.658L39.8566 13.1044C39.9319 13.1799 40.0213 13.2397 40.1198 13.2805C40.2183 13.3213 40.3238 13.3423 40.4304 13.3423C40.5369 13.3423 40.6425 13.3213 40.7409 13.2805C40.8394 13.2397 40.9288 13.1799 41.0042 13.1044L43.4417 10.6673C43.6301 10.479 43.8537 10.3296 44.0998 10.2278C44.3458 10.126 44.6096 10.0736 44.8759 10.0738H45.7263" stroke="#939598" stroke-width="0.265379" stroke-linecap="round" stroke-linejoin="round"/>
<path d="M34.9297 17.2931H35.9755C36.5135 17.2933 37.0295 17.0798 37.4101 16.6996L39.8566 14.2531C40.0088 14.1011 40.2152 14.0156 40.4304 14.0156C40.6456 14.0156 40.8519 14.1011 41.0042 14.2531L43.4417 16.6907C43.8222 17.0709 44.3381 17.2844 44.8759 17.2842H45.7263" stroke="#939598" stroke-width="0.265379" stroke-linecap="round" stroke-linejoin="round"/>
<path d="M15.9007 18.8557C15.6427 18.8566 15.387 18.8064 15.1485 18.7079C14.91 18.6095 14.6933 18.4647 14.5111 18.2821L12.5038 16.2735C12.4328 16.2056 12.3383 16.1677 12.2401 16.1677C12.1418 16.1677 12.0474 16.2056 11.9764 16.2735L9.96231 18.2876C9.78016 18.4705 9.56358 18.6155 9.32506 18.7143C9.08654 18.813 8.83082 18.8635 8.57267 18.8629H8.17969L10.7233 21.4064C11.1047 21.7871 11.6217 22.0009 12.1606 22.0009C12.6995 22.0009 13.2164 21.7871 13.5979 21.4064L16.1466 18.8573L15.9007 18.8557Z" fill="#32BCAD"/>
<path d="M8.57309 11.7576C8.83124 11.7569 9.08697 11.8074 9.32549 11.9061C9.56402 12.0049 9.7806 12.1499 9.96273 12.3328L11.9768 14.3474C12.0468 14.4171 12.1416 14.4563 12.2405 14.4563C12.3393 14.4563 12.4342 14.4171 12.5042 14.3474L14.5111 12.3405C14.693 12.1573 14.9096 12.0121 15.1481 11.9133C15.3867 11.8144 15.6425 11.764 15.9007 11.7648H16.1423L13.5937 9.21612C13.4049 9.02733 13.1809 8.87756 12.9343 8.77538C12.6876 8.6732 12.4233 8.62061 12.1563 8.62061C11.8894 8.62061 11.6251 8.6732 11.3784 8.77538C11.1318 8.87756 10.9077 9.02733 10.719 9.21612L8.17969 11.7576H8.57309Z" fill="#32BCAD"/>
<path d="M18.2537 13.8733L16.7136 12.3332C16.6788 12.3474 16.6417 12.3549 16.6042 12.3552H15.9039C15.5394 12.3562 15.1901 12.5009 14.9318 12.758L12.9249 14.7636C12.7442 14.944 12.4992 15.0453 12.2439 15.0453C11.9885 15.0453 11.7436 14.944 11.5628 14.7636L9.54833 12.7503C9.2901 12.4931 8.94075 12.3482 8.57626 12.3472H7.71654C7.6811 12.3464 7.64609 12.3394 7.6131 12.3264L6.06322 13.8733C5.68254 14.2548 5.46875 14.7717 5.46875 15.3107C5.46875 15.8496 5.68254 16.3665 6.06322 16.748L7.60971 18.2945C7.64263 18.2813 7.67769 18.2743 7.71314 18.2737H8.57626C8.94074 18.2726 9.29008 18.1278 9.54833 17.8705L11.5624 15.8565C11.9266 15.4927 12.5612 15.4927 12.9249 15.8565L14.9318 17.8629C15.1901 18.12 15.5394 18.2647 15.9039 18.2657H16.6042C16.6417 18.2659 16.6789 18.2734 16.7136 18.2877L18.2537 16.7476C18.4425 16.5588 18.5923 16.3348 18.6944 16.0881C18.7966 15.8415 18.8492 15.5772 18.8492 15.3102C18.8492 15.0433 18.7966 14.7789 18.6944 14.5323C18.5923 14.2857 18.4425 14.0616 18.2537 13.8729" fill="#32BCAD"/>
<path d="M24.2351 20.3489C24.1078 20.3545 23.9814 20.3737 23.8582 20.4062V20.9081C23.9525 20.9412 24.0517 20.9578 24.1516 20.9573C24.4034 20.9573 24.5225 20.8725 24.5225 20.6508C24.5225 20.4422 24.425 20.3489 24.2351 20.3489ZM23.7734 21.2816V20.2883H23.8425L23.8497 20.3307C23.9782 20.2966 24.1097 20.2754 24.2423 20.2676C24.3342 20.2611 24.4254 20.2876 24.4996 20.3422C24.5844 20.4125 24.6132 20.5262 24.6132 20.6499C24.6132 20.7737 24.5708 20.9018 24.4521 20.9692C24.3616 21.0144 24.2613 21.0366 24.1601 21.034C24.0577 21.0334 23.9561 21.0178 23.8582 20.9878V21.2799L23.7734 21.2816Z" fill="#939598"/>
<path d="M25.2435 20.3459C24.9921 20.3459 24.8798 20.4247 24.8798 20.6465C24.8798 20.8605 24.9904 20.9572 25.2435 20.9572C25.4966 20.9572 25.606 20.8792 25.606 20.6579C25.606 20.4438 25.4953 20.3459 25.2435 20.3459ZM25.5674 20.9572C25.4826 21.0174 25.3715 21.0348 25.2435 21.0348C25.1155 21.0348 25.0006 21.0161 24.9188 20.9572C24.8268 20.8923 24.7891 20.7876 24.7891 20.6524C24.7891 20.5172 24.8268 20.412 24.9188 20.3459C25.0006 20.287 25.1129 20.2683 25.2435 20.2683C25.3741 20.2683 25.4839 20.287 25.5674 20.3459C25.6607 20.412 25.6967 20.5197 25.6967 20.6507C25.6967 20.7817 25.6594 20.8923 25.5674 20.9572Z" fill="#939598"/>
<path d="M26.7494 21.0145L26.4687 20.4121H26.4632L26.1868 21.0145H26.1092L25.8125 20.2883H25.9058L26.1546 20.8979H26.1605L26.431 20.2883H26.5086L26.7858 20.8979H26.7918L27.0347 20.2883H27.1267L26.8274 21.0145H26.7494Z" fill="#939598"/>
<path d="M27.6762 20.3441C27.4431 20.3441 27.3642 20.448 27.3498 20.5985H28.0027C27.9954 20.4332 27.9107 20.3441 27.6762 20.3441ZM27.6733 21.0347C27.5338 21.0347 27.4431 21.0144 27.371 20.9542C27.2862 20.8808 27.2578 20.7744 27.2578 20.6523C27.2578 20.5302 27.2964 20.412 27.393 20.3416C27.4776 20.2884 27.5765 20.2628 27.6762 20.2683C27.7779 20.2621 27.879 20.2866 27.9666 20.3386C28.0713 20.409 28.0917 20.5328 28.0917 20.6735H27.3477C27.3507 20.8232 27.3994 20.9554 27.6813 20.9554C27.8074 20.9521 27.9329 20.9379 28.0565 20.9131V20.9894C27.9308 21.0152 27.8032 21.0301 27.675 21.0339" fill="#939598"/>
<path d="M28.3281 21.0143V20.2881H28.3968L28.404 20.3305C28.5579 20.2915 28.63 20.2673 28.7652 20.2673H28.7754V20.3479H28.755C28.6414 20.3479 28.5723 20.3636 28.4129 20.4051V21.0134L28.3281 21.0143Z" fill="#939598"/>
<path d="M29.27 20.3441C29.0372 20.3441 28.958 20.448 28.9436 20.5985H29.5964C29.5892 20.4332 29.5044 20.3441 29.27 20.3441ZM29.267 21.0347C29.1275 21.0347 29.0372 21.0144 28.9652 20.9542C28.8804 20.8808 28.8516 20.7744 28.8516 20.6523C28.8516 20.5302 28.8906 20.412 28.9868 20.3416C29.0714 20.2885 29.1703 20.2629 29.27 20.2683C29.3716 20.2621 29.4728 20.2866 29.5604 20.3386C29.6655 20.409 29.6876 20.5328 29.6876 20.6735H28.9406C28.9436 20.8232 28.9923 20.9554 29.2742 20.9554C29.4004 20.9521 29.5261 20.938 29.6498 20.9131V20.9894C29.5242 21.0152 29.3965 21.0301 29.2683 21.0339" fill="#939598"/>
<path d="M30.6144 20.3947C30.5201 20.3618 30.4209 20.3453 30.321 20.3459C30.0692 20.3459 29.9501 20.4307 29.9501 20.6524C29.9501 20.8623 30.048 20.9542 30.2375 20.9542C30.3647 20.9483 30.491 20.9295 30.6144 20.8979V20.3947ZM30.6305 21.0144L30.6229 20.9721C30.4945 21.0066 30.363 21.0279 30.2303 21.0356C30.1383 21.0426 30.0469 21.0159 29.973 20.9606C29.8882 20.8902 29.8594 20.7766 29.8594 20.6533C29.8594 20.5235 29.9018 20.4014 30.0205 20.3353C30.1112 20.2891 30.212 20.2663 30.3138 20.2692C30.4156 20.2706 30.5168 20.286 30.6144 20.315V19.9822H30.6992V21.0144H30.6305Z" fill="#939598"/>
<path d="M31.946 20.3489C31.8187 20.3545 31.6924 20.3736 31.5692 20.4061V20.9068C31.6632 20.9407 31.7625 20.9578 31.8625 20.9572C32.1143 20.9572 32.2335 20.8724 32.2335 20.6507C32.2335 20.4421 32.136 20.3489 31.946 20.3489ZM32.1631 20.9699C32.0726 21.0151 31.9725 21.0374 31.8714 21.0348C31.7608 21.0341 31.651 21.0156 31.5463 20.9801L31.542 21.0144H31.4844V19.9822H31.5692V20.3285C31.695 20.2963 31.8236 20.2762 31.9532 20.2683C32.0451 20.2619 32.1364 20.2883 32.2106 20.3429C32.2953 20.4133 32.3242 20.5269 32.3242 20.6507C32.3242 20.7745 32.2818 20.9025 32.1631 20.9699Z" fill="#939598"/>
<path d="M32.441 21.292V21.2131C32.4833 21.2174 32.5215 21.2204 32.5486 21.2204C32.6538 21.2204 32.7182 21.1898 32.7759 21.0707L32.8034 21.0131L32.4219 20.2869H32.5202L32.8454 20.9139H32.8509L33.1599 20.2869H33.2566L32.8479 21.1025C32.7733 21.2505 32.6928 21.2992 32.5444 21.2992C32.5094 21.299 32.4744 21.2966 32.4397 21.292" fill="#939598"/>
<path d="M34.4247 20.6001H34.1432V20.8545H34.4247C34.6188 20.8545 34.6922 20.8329 34.6922 20.7273C34.6922 20.6137 34.5913 20.6001 34.423 20.6001M34.3721 20.1898H34.1423V20.4484H34.3738C34.565 20.4484 34.6413 20.4255 34.6413 20.3178C34.6413 20.2025 34.5446 20.1906 34.3721 20.1906M34.8096 20.9486C34.7057 21.0147 34.5807 21.0173 34.3522 21.0173H33.9219V20.0295H34.342C34.5391 20.0295 34.6599 20.0321 34.7604 20.0927C34.7938 20.1126 34.8209 20.1415 34.8388 20.176C34.8566 20.2105 34.8644 20.2494 34.8613 20.2881C34.8613 20.3916 34.8189 20.4607 34.7057 20.5069V20.5124C34.8329 20.5412 34.9143 20.6061 34.9143 20.7456C34.9175 20.7854 34.9093 20.8253 34.8908 20.8607C34.8723 20.8961 34.8441 20.9256 34.8096 20.9456" fill="#939598"/>
<path d="M35.7748 20.7095C35.69 20.7023 35.6052 20.6981 35.5132 20.6981C35.3653 20.6981 35.3131 20.7282 35.3131 20.796C35.3131 20.8638 35.3555 20.8935 35.47 20.8935C35.5728 20.8901 35.6749 20.8759 35.7748 20.8511V20.7095ZM35.8172 21.0143L35.8117 20.9719C35.6831 21.0081 35.5508 21.0295 35.4174 21.0355C35.3403 21.0407 35.2635 21.0221 35.1974 20.9821C35.169 20.9582 35.1469 20.9277 35.1332 20.8933C35.1194 20.8588 35.1144 20.8215 35.1186 20.7846C35.1228 20.7477 35.1361 20.7125 35.1572 20.682C35.1784 20.6515 35.2067 20.6267 35.2398 20.6099C35.3161 20.5738 35.4182 20.5709 35.5119 20.5709C35.5878 20.5709 35.69 20.5751 35.7748 20.5811V20.5679C35.7748 20.4543 35.7002 20.417 35.4958 20.417C35.417 20.417 35.3203 20.4212 35.2283 20.4297V20.283C35.3305 20.2746 35.4458 20.269 35.5408 20.269C35.6679 20.269 35.7981 20.2788 35.8799 20.3364C35.9617 20.3941 35.9791 20.4776 35.9791 20.5853V21.0152L35.8172 21.0143Z" fill="#939598"/>
<path d="M36.922 21.0143V20.6137C36.922 20.4815 36.8546 20.434 36.7338 20.434C36.6335 20.4384 36.534 20.4538 36.437 20.4798V21.0148H36.2344V20.2882H36.3997L36.4069 20.3344C36.5333 20.2972 36.6636 20.275 36.7952 20.2682C36.8846 20.2611 36.9734 20.2877 37.0441 20.3428C37.1013 20.3946 37.1229 20.4666 37.1229 20.5701V21.0143H36.922Z" fill="#939598"/>
<path d="M37.7057 21.0348C37.612 21.0348 37.5098 21.0216 37.4352 20.9585C37.3462 20.8864 37.3203 20.7732 37.3203 20.6507C37.3203 20.5358 37.3576 20.4103 37.4683 20.34C37.559 20.281 37.6709 20.2683 37.7875 20.2683C37.8723 20.2683 37.9528 20.2738 38.0418 20.2823V20.4379C37.9685 20.4307 37.8807 20.4252 37.8104 20.4252C37.6175 20.4252 37.5268 20.4854 37.5268 20.6524C37.5268 20.8088 37.5946 20.8766 37.7527 20.8766C37.8552 20.8733 37.9572 20.8608 38.0575 20.8393V20.9886C37.9415 21.0156 37.8231 21.0311 37.704 21.0348" fill="#939598"/>
<path d="M38.6503 20.4205C38.4574 20.4205 38.3726 20.4811 38.3726 20.6465C38.3726 20.8118 38.4574 20.8822 38.6503 20.8822C38.8432 20.8822 38.925 20.8232 38.925 20.6579C38.925 20.4926 38.8432 20.4205 38.6503 20.4205ZM38.9984 20.9585C38.9093 21.0187 38.7927 21.0348 38.6503 21.0348C38.5079 21.0348 38.3887 21.0174 38.301 20.9585C38.2001 20.8923 38.1641 20.783 38.1641 20.6524C38.1641 20.5218 38.2001 20.4103 38.301 20.3442C38.3887 20.2853 38.5049 20.2683 38.6503 20.2683C38.7957 20.2683 38.9093 20.2853 38.9984 20.3442C39.0988 20.4103 39.1336 20.5214 39.1336 20.6507C39.1336 20.78 39.0976 20.8923 38.9984 20.9585Z" fill="#939598"/>
<path d="M40.3043 21.0348C40.1822 21.0348 40.05 21.0144 39.9508 20.9326C39.8329 20.8347 39.7969 20.6837 39.7969 20.5214C39.7969 20.376 39.8431 20.2034 39.9965 20.103C40.1161 20.0254 40.264 20.0093 40.4137 20.0093C40.5231 20.0093 40.6354 20.0165 40.7575 20.0267V20.2034C40.6528 20.195 40.5231 20.1878 40.4226 20.1878C40.142 20.1878 40.0228 20.2942 40.0228 20.5214C40.0228 20.7486 40.1335 20.8563 40.3404 20.8563C40.4882 20.8512 40.6352 20.8314 40.7791 20.7974V20.9729C40.6232 21.0089 40.4642 21.0296 40.3043 21.0348Z" fill="#939598"/>
<path d="M41.3767 20.3977C41.2072 20.3977 41.1436 20.4583 41.1304 20.5672H41.6197C41.6137 20.4494 41.5446 20.3977 41.3767 20.3977ZM41.3462 21.0336C41.2271 21.0336 41.119 21.0191 41.0385 20.953C40.9579 20.8869 40.9219 20.7733 40.9219 20.6495C40.9219 20.5388 40.9579 20.415 41.0588 20.343C41.1478 20.2798 41.2614 20.2671 41.3767 20.2671C41.4802 20.2671 41.6023 20.2785 41.6913 20.3404C41.8079 20.4222 41.8185 20.549 41.8185 20.6982H41.1292C41.1334 20.8093 41.1923 20.8809 41.3967 20.8809C41.5264 20.8781 41.6558 20.8656 41.7837 20.8436V20.9861C41.6394 21.0135 41.4931 21.0294 41.3462 21.0336Z" fill="#939598"/>
<path d="M42.7267 21.0143V20.6137C42.7267 20.4815 42.6593 20.434 42.5385 20.434C42.4382 20.4384 42.3387 20.4538 42.2417 20.4798V21.0148H42.0391V20.2882H42.2044L42.2116 20.3344C42.338 20.2972 42.4683 20.275 42.5999 20.2682C42.6893 20.2611 42.7781 20.2877 42.8488 20.3428C42.906 20.3946 42.9276 20.4666 42.9276 20.5701V21.0143H42.7267Z" fill="#939598"/>
<path d="M43.4983 21.0347C43.4004 21.0347 43.3113 21.0071 43.2626 20.9308C43.2226 20.8648 43.204 20.7882 43.2092 20.7112V20.4391H43.0625V20.2881H43.2092L43.2308 20.0681H43.4097V20.2881H43.6958V20.4391H43.4097V20.6722C43.407 20.7192 43.4138 20.7662 43.4296 20.8104C43.4512 20.8592 43.4987 20.8778 43.5623 20.8778C43.6109 20.8769 43.6594 20.8721 43.7073 20.8634V21.0088C43.6383 21.0238 43.568 21.0324 43.4975 21.0347" fill="#939598"/>
<path d="M43.8906 21.0143V20.2881H44.056L44.0632 20.3343C44.1791 20.295 44.3002 20.2727 44.4227 20.2682C44.4313 20.2677 44.4399 20.2677 44.4485 20.2682V20.4441C44.4256 20.4441 44.3981 20.4441 44.3781 20.4441C44.282 20.4445 44.1863 20.4571 44.0933 20.4814V21.0177L43.8906 21.0143Z" fill="#939598"/>
<path d="M45.1899 20.7095C45.1052 20.7023 45.0204 20.6981 44.928 20.6981C44.78 20.6981 44.7283 20.7282 44.7283 20.796C44.7283 20.8638 44.7707 20.8935 44.8847 20.8935C44.9877 20.8901 45.09 20.8759 45.1899 20.8511V20.7095ZM45.2323 21.0143L45.2264 20.9719C45.0979 21.0081 44.9656 21.0295 44.8321 21.0355C44.7551 21.0407 44.6782 21.0221 44.6121 20.9821C44.5854 20.9616 44.5641 20.9349 44.5501 20.9043C44.536 20.8737 44.5297 20.8402 44.5316 20.8066C44.5296 20.7652 44.5403 20.7243 44.5622 20.6891C44.5841 20.654 44.6161 20.6264 44.6541 20.6099C44.7304 20.5738 44.8321 20.5709 44.9258 20.5709C45.0021 20.5709 45.1043 20.5751 45.1891 20.5811V20.5679C45.1891 20.4543 45.1141 20.417 44.9101 20.417C44.8309 20.417 44.7346 20.4212 44.6426 20.4297V20.283C44.7448 20.2746 44.8597 20.269 44.9547 20.269C45.0818 20.269 45.212 20.2788 45.2938 20.3364C45.3756 20.3941 45.393 20.4776 45.393 20.5853V21.0152L45.2323 21.0143Z" fill="#939598"/>
<path d="M45.6484 19.9822H45.8515V21.0144H45.6484V19.9822Z" fill="#939598"/>
</g>
<rect x="0.764063" y="0.1" width="49.8" height="29.8" rx="3.9" stroke="black" stroke-width="0.2"/>
<defs>
<clipPath id="clip0_4500_38482">
<rect width="40.3906" height="14.3584" fill="white" transform="translate(5.46875 7.6416)"/>
</clipPath>
</defs>
</svg>
