<svg width="51" height="31" viewBox="0 0 51 31" fill="none" xmlns="http://www.w3.org/2000/svg">
<g clip-path="url(#clip0_4338_86122)">
<path d="M0.078125 0.253906H50.0781V30.2539H0.078125V0.253906Z" fill="#699AD2"/>
<path fill-rule="evenodd" clip-rule="evenodd" d="M7.14762 6.25391C7.93562 7.23191 8.78962 8.01391 9.83962 8.73191C11.6796 9.97191 13.7146 10.8189 15.8816 11.1449C16.5386 11.2749 17.1946 11.2749 17.8516 11.2749C18.5746 11.2749 18.8366 11.5369 18.8366 12.3189V20.2759C18.8366 20.9929 18.5746 21.2539 17.8516 21.2539H16.8016C15.9476 21.3189 15.0936 21.1239 14.3056 20.7319C11.9416 19.6889 9.70863 18.4499 7.80363 16.7539L7.73863 16.6889C7.21263 16.2979 7.01562 15.8409 7.08162 15.1239C7.14762 12.5139 7.08162 9.90591 7.08162 7.29691C7.01562 6.97091 7.01562 6.64491 7.01562 6.25391H7.14762ZM22.1856 16.0359C22.9076 16.0359 23.5656 16.1019 24.2216 16.0359C25.0756 15.9709 25.4696 15.3839 25.4696 14.5359C25.4696 14.4059 25.4036 14.2759 25.4036 14.1449C25.2726 13.6229 24.9436 13.2969 24.4186 13.2969C23.6956 13.2319 22.9736 13.2969 22.1856 13.2969V16.0369V16.0359ZM22.1196 17.7969V21.2539H20.1496V12.7099C20.1496 12.0579 20.5436 11.4709 21.3316 11.5359C22.4486 11.6019 23.5646 11.5359 24.6156 11.5359C25.3376 11.5359 25.9946 11.7319 26.5856 12.3189C27.0456 12.7749 27.3076 13.4279 27.3736 14.0789C27.4396 14.6019 27.4396 15.1229 27.3076 15.6449C27.0456 17.0799 26.1256 17.7969 24.6816 17.8619H22.1196V17.7969ZM37.0276 16.5589C37.0276 16.0369 36.8976 15.5809 36.3716 15.2549C35.7806 14.9279 35.1896 14.9279 34.6636 15.3199C34.2036 15.5799 34.0066 16.0369 34.0736 16.5589H37.0276ZM39.1956 17.8629H34.2046C34.0726 18.5809 34.4016 19.2329 34.9926 19.4929C35.5826 19.7539 36.4366 19.6889 36.8966 19.2329C37.1596 18.9069 37.4876 18.8409 37.8816 18.8409H39.1296C39.0105 19.3715 38.7621 19.8644 38.4066 20.2759C37.2246 21.5809 34.5986 21.6459 33.4166 20.6019C32.9566 20.2109 32.6276 19.8199 32.4306 19.2979C31.9706 18.0579 31.9706 16.8849 32.3656 15.6459C32.8256 14.3409 33.8756 13.5589 35.3206 13.4939C35.9776 13.4279 36.6336 13.5589 37.2246 13.7539C37.8156 13.9499 38.2756 14.3409 38.6696 14.8639C39.1296 15.7109 39.2606 16.6889 39.1956 17.8639V17.8629Z" fill="#294176"/>
<path fill-rule="evenodd" clip-rule="evenodd" d="M42.1531 15.6439C42.2831 15.4489 42.4151 15.3189 42.4811 15.1879C43.1381 14.1449 43.8601 13.1009 44.5171 11.9929C44.7791 11.6659 45.1071 11.4709 45.6331 11.4709H47.0781C46.9471 11.6659 46.9471 11.7969 46.8151 11.8619C45.6996 13.5728 44.5612 15.2686 43.4001 16.9489C43.2031 17.2749 43.2031 17.4709 43.4001 17.7969L45.3701 20.7319C45.4361 20.8619 45.5021 20.9919 45.6331 21.1879H43.6631C43.5321 21.1879 43.3351 21.0579 43.2691 20.9279C42.9411 20.4709 42.6781 19.9489 42.4151 19.4919C42.2841 19.2969 42.3501 19.1659 42.4151 18.9709C42.5471 18.7099 42.6781 18.4489 42.7441 18.1229C42.6781 18.1229 42.6781 18.1229 42.6121 18.0579C42.5471 18.1879 42.4811 18.3179 42.3501 18.4489C41.8901 19.2319 41.4301 20.0139 40.9701 20.7319C40.8401 20.9919 40.6421 21.1229 40.3141 21.0579H38.3441C39.1971 19.6879 40.0511 18.4489 40.9041 17.1449C40.1171 15.9709 39.3291 14.7319 38.4751 13.4929H40.5771C40.7071 13.4929 40.8391 13.6229 40.9051 13.7529C41.1681 14.1449 41.4301 14.6009 41.6931 15.0579C41.9561 15.3839 42.0871 15.5139 42.1531 15.6449V15.6439ZM14.2421 21.2539H4.12913C3.34113 21.2539 3.07812 20.9939 3.07812 20.1469V12.1899C3.14412 11.6689 3.53813 11.4079 4.12813 11.5379V17.7989C4.12813 18.1239 4.19413 18.3189 4.52313 18.4499C7.47813 19.7549 10.4991 20.7329 13.7171 21.1239C13.8481 21.1239 14.0451 21.1239 14.1771 21.1889C14.2421 21.1889 14.2421 21.1889 14.2421 21.2549V21.2539Z" fill="#294176"/>
<path fill-rule="evenodd" clip-rule="evenodd" d="M14.2409 20.6018C13.6499 20.4718 13.1239 20.4068 12.5329 20.2758C10.6949 19.8198 9.05288 19.1018 7.34488 18.2538C6.68888 17.9278 6.03188 17.6018 5.37488 17.3408C5.17788 17.2108 5.04688 17.0808 5.04688 16.8198V7.75384C5.04688 7.68884 5.04688 7.62384 5.11188 7.55884C5.44088 7.68884 5.76888 7.81884 6.09688 8.01484C6.22888 8.07984 6.29388 8.27584 6.29388 8.40684V15.3848C6.29388 15.7108 6.42588 15.9058 6.62288 16.1018C8.92088 17.9278 11.2859 19.6238 14.1089 20.4718C14.1749 20.4718 14.2409 20.5368 14.2409 20.5368V20.6018Z" fill="white"/>
<path fill-rule="evenodd" clip-rule="evenodd" d="M29.542 21.254H27.44C27.44 21.123 27.375 20.992 27.375 20.862V17.275C27.375 16.753 27.506 16.232 27.637 15.775C27.966 14.732 28.688 14.015 29.805 13.688C30.461 13.492 31.184 13.362 31.972 13.428V15.449C31.578 15.514 31.249 15.514 30.922 15.579C30.002 15.709 29.608 16.166 29.608 17.014V20.927C29.542 20.992 29.542 21.123 29.542 21.253V21.254Z" fill="#294176"/>
</g>
<defs>
<clipPath id="clip0_4338_86122">
<rect x="0.078125" y="0.253906" width="50" height="30" rx="4" fill="white"/>
</clipPath>
</defs>
</svg>
