<svg width="51" height="31" viewBox="0 0 51 31" fill="none" xmlns="http://www.w3.org/2000/svg">
<g clip-path="url(#clip0_4314_74736)">
<path d="M0.75 0.253906H50.75V30.2539H0.75V0.253906Z" fill="#194072"/>
<path fill-rule="evenodd" clip-rule="evenodd" d="M12.1709 23.4199C12.4599 23.0739 12.3449 22.5539 11.9989 22.3229C11.8482 22.2054 11.6599 22.1464 11.4691 22.1571C11.2782 22.1678 11.0977 22.2473 10.9609 22.3809C11.1339 22.8429 11.3639 23.3049 11.5949 23.7659C11.8249 23.7089 12.0559 23.5929 12.1719 23.4199H12.1709Z" fill="#F7B916"/>
<path fill-rule="evenodd" clip-rule="evenodd" d="M28.7159 20.3619H26.3529C26.1229 20.3619 25.8919 20.4189 25.8919 20.0719C25.8919 19.5529 26.0069 19.3799 26.4099 19.3219H30.7919C31.3679 19.3219 31.5409 19.2069 31.6559 18.5719C31.7719 18.1099 31.8289 17.5899 31.8859 17.1279C31.9449 16.6659 31.8289 16.4349 31.3099 16.4349H28.0819C27.7939 16.4349 27.5629 16.4349 27.2749 16.3769C26.6409 16.2619 26.3529 15.9729 26.3529 15.3379C26.4099 14.4139 26.5259 13.4899 26.8139 12.5669C26.9289 11.9889 27.5059 11.5269 28.0819 11.5849H33.1549C33.3849 11.5849 33.4429 11.7009 33.4429 11.9319C33.3279 12.5669 33.3859 12.5669 32.7519 12.5669H28.8319C28.0239 12.5669 27.8519 12.6819 27.7359 13.4899C27.6789 13.8949 27.5629 14.3569 27.5059 14.7599C27.4479 15.1649 27.6209 15.4539 28.1399 15.4539H31.4259C31.5989 15.4539 31.8289 15.4539 32.0019 15.5109C32.8669 15.6269 33.0969 15.9159 33.0399 16.7809C32.9819 17.6479 32.8669 18.4559 32.6359 19.2639C32.5732 19.5499 32.423 19.8093 32.2062 20.006C31.9894 20.2028 31.7167 20.3272 31.4259 20.3619C30.3879 20.4189 29.4079 20.3039 28.7159 20.3619ZM22.6039 11.5839H24.9679C25.7179 11.5839 26.1209 11.9299 26.0629 12.7379C26.0059 13.8929 25.7169 15.0479 25.5439 16.2019C25.4289 17.0679 25.2559 17.9349 25.1409 18.8009C24.9109 20.0129 24.4489 20.3599 23.2389 20.3599H18.9729C18.6839 20.3599 18.6269 20.4169 18.5689 20.7059C18.4539 21.5139 18.3389 22.2659 18.2229 23.0729C18.1079 23.4779 17.7629 23.6509 17.3589 23.5929C17.3009 23.5929 17.2429 23.5349 17.1859 23.5349C17.0129 23.4199 17.0699 23.2469 17.1279 23.0739C17.3579 21.7449 17.5319 20.3599 17.7619 19.0319C18.0499 17.0689 18.3959 15.1049 18.6839 13.1419C18.7419 12.8539 18.7999 12.5649 18.9149 12.2759C19.1449 11.8139 19.6069 11.5259 20.1249 11.5259C20.9329 11.5829 21.7399 11.5829 22.6049 11.5829L22.6039 11.5839Z" fill="#F6F1F1"/>
<path fill-rule="evenodd" clip-rule="evenodd" d="M18.7422 19.3199C19.0882 17.2999 19.3762 15.2199 19.7222 13.2569C19.7802 12.7369 19.9522 12.6219 20.4722 12.5639H24.3922C24.8522 12.5639 24.9682 12.7949 24.9102 13.3149C24.6802 14.8749 24.3922 16.4329 24.1612 17.9349C24.1032 18.1649 24.1032 18.4539 24.0462 18.6849C24.0462 19.0309 23.7002 19.2619 23.4122 19.2619H23.3542L18.7422 19.3199Z" fill="#194072"/>
<path fill-rule="evenodd" clip-rule="evenodd" d="M37.0181 20.3609C36.2101 20.3029 35.2881 20.4179 34.3081 20.3029C33.7891 20.3029 33.3281 19.8989 33.3281 19.3789C33.3281 19.2639 33.3281 19.1489 33.3861 19.0899C33.4431 18.4549 33.5591 17.8199 33.6741 17.1849L34.3661 12.8549C34.3793 12.6724 34.4288 12.4944 34.5117 12.3312C34.5945 12.1681 34.7091 12.0232 34.8487 11.9049C34.9883 11.7866 35.1501 11.6974 35.3247 11.6424C35.4992 11.5875 35.6829 11.5679 35.8651 11.5849H40.5921C41.4561 11.5849 41.8021 11.9309 41.7451 12.7969C41.6892 13.8334 41.5147 14.8601 41.2251 15.8569C41.0531 16.5499 40.4191 17.0119 39.6691 16.9539H35.1731C34.8271 16.9539 34.7121 17.0689 34.7121 17.3579C34.6541 17.8199 34.5961 18.2239 34.5391 18.6859C34.4811 19.1479 34.5961 19.2639 35.0581 19.3209H39.8421C40.0721 19.3209 40.3031 19.2639 40.3031 19.6099C40.3031 20.1299 40.1881 20.3029 39.7851 20.3029C38.9201 20.3609 38.1131 20.3609 37.0181 20.3609Z" fill="#F6F1F1"/>
<path fill-rule="evenodd" clip-rule="evenodd" d="M37.3052 15.9719H35.2872C35.0572 15.9719 34.9412 15.9719 34.9992 15.6829C35.1722 14.9329 35.2292 14.1239 35.4032 13.3729C35.5182 12.7959 35.6912 12.6229 36.2672 12.6229H40.0152C40.5332 12.6229 40.6492 12.7959 40.5912 13.3159C40.4762 14.0659 40.3612 14.7599 40.2452 15.5099C40.1872 15.9139 39.8992 16.0879 39.3802 16.0879C38.6302 15.9719 37.9392 15.9719 37.3052 15.9719Z" fill="#194072"/>
<path fill-rule="evenodd" clip-rule="evenodd" d="M19.6105 9.5049V9.3319H20.6475C20.7055 9.3319 20.7635 9.3899 20.7635 9.5049C20.7635 9.5629 20.7635 9.6789 20.7055 9.7939L20.6475 10.5439V10.6019C20.6475 10.7179 20.5325 10.7759 20.4175 10.7759H19.5525C19.5225 10.7738 19.4944 10.7608 19.4732 10.7395C19.452 10.7182 19.4394 10.6899 19.4375 10.6599V10.3719C19.4375 10.2559 19.4375 10.1399 19.4945 10.0819C19.4945 9.9669 19.6105 9.8519 19.7245 9.8519H20.4745C20.5325 9.8519 20.5325 9.8519 20.5325 9.7939V9.5639C20.5325 9.5049 20.5325 9.4479 20.4175 9.4479L19.6105 9.5049ZM20.5325 10.0829H19.7255C19.6675 10.0829 19.6105 10.1399 19.6105 10.1399C19.6105 10.2559 19.5525 10.4299 19.5525 10.5449C19.5525 10.6599 19.5525 10.6599 19.6105 10.6599H20.3015C20.3595 10.6599 20.4175 10.6599 20.4175 10.5449C20.4745 10.3709 20.5325 10.1979 20.5325 10.0829ZM23.4725 10.7769H23.2985L23.3565 10.4309C23.4145 10.1419 23.4145 9.8529 23.4715 9.6219C23.4715 9.5649 23.4715 9.5069 23.4145 9.5069H22.6645L22.4345 10.7769H22.2615C22.3765 10.0839 22.4915 9.3909 22.6075 8.6409H22.7805C22.7225 8.8709 22.7225 9.1029 22.6645 9.2759H23.4145C23.6445 9.2759 23.7025 9.3339 23.6445 9.5649C23.5875 10.0259 23.5295 10.3729 23.4715 10.7769H23.4725ZM22.2035 9.5059H21.4535C21.3385 9.5059 21.2815 9.5059 21.2815 9.6789C21.2235 9.9689 21.1655 10.2569 21.1655 10.5449C21.1655 10.6609 21.1655 10.6609 21.2815 10.6609H22.0305V10.8339H21.1085C20.9925 10.8339 20.9355 10.7769 20.9925 10.6609C21.0505 10.5449 20.9925 10.4299 21.0505 10.3149L21.1655 9.6789C21.2235 9.5059 21.2815 9.3909 21.4545 9.3909H22.2615C22.2035 9.3909 22.2035 9.4479 22.2035 9.5059Z" fill="#F6F1F1"/>
<path fill-rule="evenodd" clip-rule="evenodd" d="M20.532 10.0839C20.532 10.2559 20.475 10.3719 20.475 10.5449C20.4731 10.575 20.4602 10.6035 20.4389 10.6248C20.4175 10.6462 20.3891 10.659 20.359 10.6609H19.668C19.61 10.6609 19.552 10.6609 19.61 10.5449L19.668 10.1409C19.668 10.0829 19.725 10.0249 19.783 10.0249L20.533 10.0829L20.532 10.0839Z" fill="#194072"/>
<path fill-rule="evenodd" clip-rule="evenodd" d="M13.1543 19.6109C13.6153 19.6109 13.9612 19.9569 13.9612 20.4189C13.964 20.5257 13.945 20.632 13.9054 20.7312C13.8659 20.8305 13.8066 20.9207 13.7311 20.9963C13.6556 21.072 13.5656 21.1315 13.4664 21.1713C13.3673 21.2111 13.2611 21.2304 13.1543 21.2279C12.6933 21.2279 12.3472 20.8239 12.3472 20.4189C12.3472 19.9569 12.6933 19.5529 13.1543 19.6109ZM12.8652 9.67789C13.2692 9.56289 13.7303 9.79389 13.8453 10.1979C13.9603 10.6019 13.7872 11.0639 13.3842 11.2379C12.9802 11.3529 12.5193 11.1219 12.4043 10.7179C12.2313 10.2559 12.4622 9.79389 12.8652 9.67789ZM10.7322 9.90789C10.6742 10.0819 10.6162 10.2549 10.5592 10.4859C10.5592 10.4859 10.5592 10.5429 10.5012 10.5429C10.5012 10.7169 10.4432 10.8329 10.3862 10.9479V11.0629C10.5012 11.0049 10.6162 10.8899 10.7322 10.7739C10.9622 10.5439 10.9622 10.1969 10.7322 9.90789ZM10.1562 19.7239L10.2142 20.0139C10.2722 20.3019 10.3873 20.5909 10.4443 20.8789V20.9949L10.5022 20.9369C10.6165 20.7657 10.6621 20.5579 10.6301 20.3546C10.598 20.1513 10.4906 19.9676 10.3292 19.8399C10.2722 19.7819 10.2142 19.7249 10.1562 19.7249V19.7239ZM10.9622 18.5709C10.6172 18.2249 10.6172 17.7629 10.9622 17.4159C11.3082 17.0699 11.7702 17.0699 12.1152 17.4159C12.4612 17.7629 12.4612 18.2249 12.1152 18.5709C11.9623 18.7233 11.7552 18.8089 11.5392 18.8089C11.3233 18.8089 11.1162 18.7233 10.9633 18.5709H10.9622Z" fill="#F7B916"/>
<path fill-rule="evenodd" clip-rule="evenodd" d="M14.0704 18.1089H12.3984V17.8189H13.9554L15.2814 15.2789L15.5114 15.3949L14.0714 18.1089H14.0704Z" fill="#F7B916"/>
<path fill-rule="evenodd" clip-rule="evenodd" d="M14.1331 18.1639H12.2891V17.7599H13.8461L15.2291 15.1619L15.5751 15.3349L14.1341 18.1649L14.1331 18.1639ZM12.4631 17.9919H14.0181L15.4021 15.3929L15.3441 15.3349L13.9611 17.8759H12.4621V17.9919H12.4631Z" fill="#F7B916"/>
<path fill-rule="evenodd" clip-rule="evenodd" d="M9.86719 15.4519H17.7652V15.2209H9.86719V15.4509V15.4519Z" fill="#F7B916"/>
<path fill-rule="evenodd" clip-rule="evenodd" d="M9.75 15.5659H17.82V15.1619H9.75V15.5659ZM9.923 15.3929H17.648V15.3349H9.923V15.3929Z" fill="#F7B916"/>
<path fill-rule="evenodd" clip-rule="evenodd" d="M13.9557 15.3949L12.3997 13.1429H10.0938V12.9129H12.5138L14.1287 15.2789L13.9557 15.3949Z" fill="#F7B916"/>
<path fill-rule="evenodd" clip-rule="evenodd" d="M13.9011 15.5089L12.3451 13.1989H10.0391V12.7949H12.5761L14.3051 15.2779L13.9011 15.5079V15.5089ZM10.1541 13.0839H12.4031L13.9591 15.2779L14.0171 15.2199L12.4601 12.9679H10.1541V13.0839ZM11.9981 7.31191L11.9411 7.25391L11.8261 7.42691V7.48491L11.7681 7.54291C11.6531 7.77291 11.5381 8.06291 11.4221 8.29291C11.3641 8.40891 11.3641 8.46691 11.3071 8.58191V8.63991C11.7101 8.81291 12.1711 8.63991 12.3441 8.23591C12.5171 7.88891 12.3441 7.48491 12.0561 7.25391" fill="#F7B916"/>
</g>
<defs>
<clipPath id="clip0_4314_74736">
<rect x="0.75" y="0.253906" width="50" height="30" rx="4" fill="white"/>
</clipPath>
</defs>
</svg>
