<svg width="51" height="31" viewBox="0 0 51 31" fill="none" xmlns="http://www.w3.org/2000/svg">
<g clip-path="url(#clip0_4314_72500)">
<path d="M0.414062 0.253906H50.4141V30.2539H0.414062V0.253906Z" fill="#EF3344"/>
<path d="M27.349 14.8369C27.097 15.5039 27.012 15.7539 27.012 15.7539C27.012 15.7539 26.928 16.2539 26.17 16.2539H25.075L25.917 14.4209H26.928C27.012 14.4209 27.602 14.3369 27.349 14.8369ZM28.023 13.0039H23.812L23.306 14.3369H23.728C24.148 14.3369 23.896 14.8369 23.896 14.8369L22.125 19.2539H23.895L24.569 17.5039H26.592C28.362 17.4209 28.614 16.0869 28.614 16.0869C28.614 16.0869 28.951 15.2539 29.372 14.0869C29.962 13.0039 28.024 13.0039 28.024 13.0039H28.023ZM32.742 16.2539H31.478C30.973 16.2539 31.225 15.7539 31.225 15.7539C31.225 15.7539 31.394 15.2539 31.647 14.7539C31.815 14.3359 32.405 14.4199 32.405 14.4199H33.415L32.742 16.2529V16.2539ZM34.848 16.2539C34.427 16.1699 34.764 15.5859 34.764 15.5859L35.774 13.0029H32.826C30.804 12.9199 30.13 13.9199 30.13 13.9199C30.13 13.9199 29.709 14.6699 29.203 16.2529C28.698 17.7529 30.551 17.5859 30.551 17.5859H34.848L35.354 16.3359C35.354 16.3359 35.269 16.2539 34.848 16.2539Z" fill="#1D2877"/>
<path d="M39.3126 15.1709C38.8926 15.4209 37.8816 16.0039 37.8816 16.0039L37.2916 15.3369C37.2916 15.3369 36.9546 15.0039 37.3756 14.6709L38.0496 14.2539C38.0496 14.2539 38.6396 13.8369 38.9766 14.1709C39.3136 14.5039 39.3976 14.5039 39.3976 14.5039C39.3976 14.5039 39.7346 14.8369 39.3136 15.1709H39.3126ZM41.0826 14.0869C41.0826 14.0869 41.0826 14.0039 40.6616 13.6709C40.3246 13.3369 40.6616 13.0869 40.6616 13.0869L40.9986 12.9209L40.1556 12.0039C40.1556 12.0039 36.5336 14.0039 35.8596 14.4209C35.0166 15.0039 35.6066 15.8369 35.6066 15.8369L37.0386 17.2539C37.0386 17.2539 37.2076 17.3369 37.2076 17.6709C37.2076 17.9209 36.7016 17.9209 36.7016 17.9209H35.6916L35.1016 19.1709H36.7016C37.0386 19.1709 37.2916 19.0869 37.2916 19.0869C37.2916 19.0869 38.5556 18.5039 39.0616 17.9209C39.5666 17.3369 38.9766 16.7539 38.9766 16.7539L40.4926 15.8369C40.4926 15.8369 40.8296 15.5869 41.1666 15.2539C41.7566 14.6709 41.0826 14.0869 41.0826 14.0869ZM46.0536 15.5039C46.0536 15.5039 45.4636 15.8369 44.8736 16.0869C44.3686 16.4199 44.1156 16.0869 44.1156 16.0869C44.1156 16.0869 43.8636 15.9199 43.6106 15.5869C43.3576 15.2529 43.8636 15.0029 43.8636 15.0029C43.8636 15.0029 44.3686 14.6699 44.7896 14.5029C45.0323 14.4028 45.3048 14.4028 45.5476 14.5029L45.8846 14.8369L45.9696 14.9199C46.4746 15.3369 46.0536 15.5029 46.0536 15.5029V15.5039ZM48.1596 14.5039L46.8126 13.1689C46.8126 13.1689 45.9706 12.6689 45.1276 13.0019C44.2856 13.4189 42.0946 14.6689 42.0946 14.6689C42.0946 14.6689 40.9146 15.3359 41.6746 16.1689C42.3476 16.9189 43.0216 17.4189 43.0216 17.4189C43.0216 17.4189 43.6956 18.0859 45.0436 17.4189C46.3916 16.7519 47.7396 15.9189 47.7396 15.9189C47.7396 15.9189 48.9196 15.2519 48.1606 14.5019L48.1596 14.5039Z" fill="#1D2877"/>
<path d="M2.41406 17.5859L4.18406 13.0859H7.97406L7.46906 14.4189H6.20406C6.20406 14.4189 5.53006 14.3359 5.27706 14.9189C5.02506 15.5029 4.18206 17.5859 4.18206 17.5859H2.41406ZM10.6701 16.2539H9.40606C8.98606 16.2539 9.15406 15.7539 9.15406 15.7539C9.15406 15.7539 9.40606 15.2539 9.57406 14.8359C9.82806 14.3359 10.4171 14.4199 10.4171 14.4199H11.4281L10.6701 16.2529V16.2539ZM12.7761 15.5859L13.7871 13.0029H10.8391C8.81706 12.9199 8.14306 13.9199 8.14306 13.9199C8.14306 13.9199 7.72106 14.6699 7.21606 16.2529C6.71006 17.7529 8.64806 17.5859 8.64806 17.5859H12.9451L13.4501 16.3359C13.4501 16.3359 13.3661 16.3359 12.9451 16.2529C12.4391 16.1699 12.7761 15.5859 12.7761 15.5859Z" fill="white"/>
<path d="M17.9174 14.837C17.6644 15.504 17.5804 15.754 17.5804 15.754C17.5804 15.754 17.4964 16.254 16.7384 16.254H15.6424L16.4854 14.421H17.4954C17.4954 14.421 18.0854 14.337 17.9174 14.837ZM18.5074 13.004H14.2944L13.7894 14.337H14.2104C14.6314 14.337 14.3794 14.837 14.3794 14.837L12.6094 19.254H14.4634L15.1374 17.504H17.1594C18.8444 17.421 19.1814 16.087 19.1814 16.087C19.1814 16.087 19.5184 15.254 19.9394 14.087C20.4444 13.004 18.5074 13.004 18.5074 13.004ZM21.2024 13.086H23.0564L21.9614 15.753C21.9614 15.753 21.7084 16.253 22.2134 16.336C22.5504 16.336 22.6354 16.419 22.6354 16.419L22.1294 17.669C22.1294 17.669 21.0344 17.753 20.5294 17.586C20.0234 17.419 19.7704 17.003 19.9394 16.419C20.1074 15.669 21.2024 13.086 21.2024 13.086ZM23.3924 12.004C23.2244 12.42 22.6344 12.754 22.0444 12.67C21.4544 12.67 21.2024 12.336 21.3704 11.92C21.5394 11.503 22.1294 11.17 22.7194 11.253C23.3094 11.253 23.5614 11.586 23.3934 12.003L23.3924 12.004Z" fill="white"/>
</g>
<defs>
<clipPath id="clip0_4314_72500">
<rect x="0.414062" y="0.253906" width="50" height="30" rx="4" fill="white"/>
</clipPath>
</defs>
</svg>
