<svg width="51" height="31" viewBox="0 0 51 31" fill="none" xmlns="http://www.w3.org/2000/svg">
<g clip-path="url(#clip0_4314_72419)">
<path d="M0.75 0.253906H50.75V30.2539H0.75V0.253906Z" fill="#024890"/>
<path d="M32.6331 18.9839C28.5811 19.1739 24.8311 19.3259 21.0801 19.5399C18.1211 19.7109 15.1631 19.9499 12.2101 20.1699C10.9641 20.2599 9.72407 20.3889 8.48406 20.5109C7.86406 20.5719 7.69206 20.4129 7.76606 19.8029C7.78406 19.6199 7.81606 19.4429 7.84606 19.2589C7.95606 18.6299 8.33106 18.2939 8.97606 18.2759C11.9221 18.1719 14.8621 18.0129 17.8081 17.9829C24.0141 17.9099 30.2261 17.8849 36.4321 17.8789C39.0721 17.8789 41.7121 17.9769 44.3441 18.0319C44.6941 18.0379 44.7561 18.1049 44.7501 18.4529C44.7501 18.5139 44.7431 18.5749 44.7431 18.6359C44.7251 18.9959 44.6701 19.0459 44.2951 19.0389C42.9245 19.0188 41.5538 19.0048 40.1831 18.9969C37.5681 18.9779 34.9471 18.9839 32.6331 18.9839Z" fill="#F9E000"/>
<path d="M14.0721 13.2688C14.5201 14.1238 14.9621 14.9608 15.3981 15.7978C15.6381 16.2498 15.5391 16.4078 15.0291 16.4148H13.8631C13.5931 16.4148 13.4091 16.2988 13.2861 16.0478C12.913 15.2797 12.5262 14.5183 12.1261 13.7638C12.0918 13.7095 12.046 13.6634 11.9919 13.6286C11.9379 13.5939 11.8768 13.5715 11.8131 13.5628C10.9721 13.5198 10.9721 13.5328 10.8191 14.3378C10.7201 14.8698 10.6291 15.4008 10.5361 15.9258C10.4691 16.3168 10.3581 16.4088 9.96614 16.4148C9.5875 16.4208 9.20878 16.4208 8.83014 16.4148C8.40014 16.4088 8.32614 16.3288 8.40014 15.9018C8.67014 14.3508 8.94614 12.7988 9.21614 11.2478C9.40614 10.1298 9.60314 9.01785 9.80014 7.90785C9.87314 7.49185 9.96514 7.40085 10.3831 7.40685C11.5921 7.41885 12.7951 7.40685 13.9981 7.46685C14.4771 7.49185 14.9681 7.63885 15.4101 7.83385C16.2631 8.20685 16.5951 8.93985 16.5831 9.83685C16.5521 11.5528 15.7351 12.7318 14.1831 13.2018C14.1521 13.2138 14.1271 13.2318 14.0721 13.2688ZM11.2791 11.7428C11.8621 11.7428 12.4211 11.7848 12.9611 11.7298C13.9121 11.6328 14.3851 11.0458 14.3481 10.0998C14.3361 9.75785 14.1821 9.50685 13.8581 9.39785C13.1581 9.15885 12.4331 9.28785 11.7211 9.25085C11.5681 10.1238 11.4211 10.9308 11.2791 11.7428ZM23.4521 13.8808C23.3221 14.5948 23.2001 15.2728 23.0711 15.9508C22.9971 16.3298 22.8991 16.4088 22.5121 16.4088C22.1132 16.4149 21.7141 16.4149 21.3151 16.4088C20.9531 16.4028 20.8731 16.2988 20.9351 15.9568C21.4011 13.3068 21.8621 10.6498 22.3281 7.99885C22.4261 7.44885 22.4821 7.39485 23.0401 7.40085C24.1641 7.41285 25.2871 7.41885 26.4101 7.45585C26.7231 7.46785 27.0361 7.53585 27.3431 7.62585C28.4971 7.95585 29.0251 8.64085 29.0371 9.82585C29.045 10.5504 28.8985 11.2684 28.6071 11.9318C28.0801 13.1228 27.0861 13.6418 25.8641 13.8018C25.3181 13.8738 24.7651 13.8618 24.2131 13.8808C23.9731 13.8868 23.7281 13.8808 23.4521 13.8808ZM23.7771 12.0418C24.2251 12.0418 24.6301 12.0478 25.0351 12.0418C26.2321 12.0178 26.8091 11.4248 26.8091 10.2348C26.8091 9.72785 26.6131 9.42785 26.1091 9.35485C25.5451 9.27485 24.9741 9.28785 24.4031 9.27485C24.3531 9.27485 24.2621 9.36085 24.2491 9.42185C24.0891 10.2768 23.9361 11.1318 23.7771 12.0418ZM41.9041 14.6838C40.9401 14.6838 40.0141 14.6788 39.0801 14.6908C39.0001 14.6908 38.8901 14.7948 38.8471 14.8808C38.6441 15.2528 38.4471 15.6368 38.2641 16.0218C38.1341 16.2908 37.9381 16.4188 37.6311 16.4118C37.1901 16.4008 36.7541 16.4128 36.3111 16.4068C35.9011 16.4008 35.8151 16.2668 36.0111 15.8938C37.4351 13.1698 38.8591 10.4458 40.2771 7.72185C40.323 7.61855 40.3993 7.53165 40.4957 7.47271C40.5922 7.41377 40.7043 7.38556 40.8171 7.39185C41.3821 7.39885 41.9411 7.39185 42.5051 7.39185C42.8001 7.39185 42.9531 7.53885 43.0031 7.81985L44.3471 15.8198C44.4211 16.2718 44.3101 16.3998 43.8561 16.3998H42.6901C42.2411 16.3998 42.1621 16.3268 42.0941 15.8878C42.0331 15.4968 41.9711 15.0998 41.9041 14.6848V14.6838ZM41.7991 12.8458C41.6521 11.7658 41.5051 10.7028 41.3641 9.63985H41.2961C40.7621 10.7028 40.2341 11.7648 39.6881 12.8528C40.4181 12.8458 41.0881 12.8458 41.7991 12.8458ZM31.6891 16.5968C30.8601 16.4928 30.0491 16.4068 29.2831 16.0898C28.8031 15.8888 28.7731 15.7788 29.0131 15.3328C29.1481 15.0948 29.2771 14.8508 29.4121 14.6128C29.6081 14.2698 29.7181 14.2398 30.0871 14.3798C31.0071 14.7338 31.9471 14.8378 32.9041 14.5448C33.0521 14.5018 33.1931 14.4408 33.3221 14.3548C33.7521 14.0628 33.7641 13.4948 33.3221 13.2078C33.0521 13.0308 32.7451 12.9078 32.4501 12.7678C32.0821 12.5968 31.6951 12.4568 31.3391 12.2678C30.1731 11.6378 29.6941 10.8258 30.1541 9.17685C30.3571 8.45685 30.8841 7.99185 31.5541 7.68685C32.5051 7.25285 33.5121 7.18685 34.5241 7.30785C35.0841 7.37485 35.6421 7.53385 36.1821 7.71085C36.5571 7.83285 36.5871 7.99785 36.3971 8.34585C36.2621 8.59585 36.1211 8.84685 35.9801 9.09085C35.7901 9.42085 35.6971 9.45785 35.3351 9.34085C34.6051 9.10985 33.8551 9.02385 33.0951 9.15885C32.9101 9.18885 32.7141 9.25585 32.5551 9.35385C32.1001 9.63485 32.0941 10.2398 32.5551 10.5138C32.8921 10.7158 33.2661 10.8688 33.6221 11.0458C33.9971 11.2288 34.3901 11.3878 34.7401 11.6078C35.7771 12.2548 36.0841 13.0478 35.7901 14.2398C35.4891 15.4668 34.5801 16.0598 33.4451 16.3468C32.8741 16.4988 32.2721 16.5168 31.6891 16.5968ZM18.0081 16.4138H17.4551C16.9761 16.4138 16.9091 16.3338 16.9891 15.8758C17.1731 14.8058 17.3631 13.7318 17.5531 12.6628C17.8361 11.0748 18.1121 9.48085 18.3941 7.89285C18.4621 7.49685 18.5601 7.40485 18.9531 7.40485C19.3641 7.39885 19.7691 7.39885 20.1801 7.40485C20.5921 7.41085 20.6651 7.49685 20.5981 7.90485C20.3711 9.21885 20.1381 10.5248 19.9041 11.8388C19.6711 13.1758 19.4321 14.5188 19.1981 15.8568C19.1121 16.3398 19.0331 16.4128 18.5351 16.4128H18.0081V16.4138Z" fill="white"/>
<path d="M23.0663 23.516C23.2493 22.649 23.4213 21.806 23.6123 20.969C23.6243 20.909 23.7473 20.835 23.8273 20.829C24.1033 20.81 24.3793 20.817 24.6553 20.823C25.1833 20.841 25.5083 21.116 25.4723 21.641C25.4413 22.087 25.3123 22.533 25.1463 22.954C24.9993 23.314 24.6493 23.485 24.2563 23.51C23.8823 23.534 23.5013 23.516 23.0663 23.516ZM23.7903 23.003C23.8083 23.033 23.8333 23.07 23.8513 23.101C24.0663 23.033 24.3423 23.033 24.4773 22.893C24.8273 22.52 24.9073 22.032 24.8393 21.537C24.8023 21.287 24.5693 21.281 24.3793 21.305C24.2873 21.317 24.1393 21.397 24.1213 21.47C23.9923 21.977 23.8943 22.49 23.7903 23.003ZM26.5693 23.512C26.7533 22.65 26.9253 21.814 27.1163 20.983C27.1283 20.922 27.2513 20.837 27.3243 20.837C27.6013 20.818 27.8773 20.824 28.1533 20.83C28.6813 20.849 29.0193 21.117 28.9823 21.637C28.9513 22.088 28.8103 22.547 28.6443 22.974C28.5153 23.304 28.1903 23.474 27.8403 23.505C27.4293 23.535 27.0173 23.511 26.5703 23.511L26.5693 23.512ZM27.2633 23.108C27.5393 23.041 27.7733 23.035 27.9503 22.925C28.2393 22.755 28.4543 21.838 28.3373 21.521C28.2453 21.264 28.0173 21.282 27.8273 21.313C27.7423 21.325 27.6253 21.453 27.6013 21.551C27.4843 22.027 27.3913 22.516 27.2633 23.108ZM20.0393 22.437C20.1563 22.779 20.2723 23.121 20.4013 23.505C20.2483 23.511 20.1313 23.511 20.0143 23.524C19.8183 23.542 19.7203 23.469 19.6713 23.274C19.6193 23.0566 19.5494 22.8439 19.4623 22.638C19.4373 22.571 19.3453 22.492 19.2783 22.492C19.2233 22.492 19.1373 22.583 19.1183 22.65C19.0453 22.925 18.9893 23.206 18.9223 23.5H18.3203C18.5103 22.602 18.7003 21.722 18.8913 20.824C19.2963 20.824 19.6833 20.812 20.0703 20.83C20.3343 20.843 20.5423 20.977 20.6163 21.246C20.7203 21.594 20.6343 21.911 20.3833 22.174C20.2913 22.278 20.1623 22.345 20.0393 22.437ZM19.2593 21.997C19.4133 21.997 19.5423 22.009 19.6713 21.997C19.9353 21.96 20.0333 21.759 20.0143 21.539C20.0083 21.453 19.8493 21.337 19.7383 21.301C19.5113 21.234 19.3513 21.313 19.3393 21.588C19.3333 21.722 19.2903 21.844 19.2593 21.997ZM42.1313 21.807C42.0213 22.161 41.9463 22.533 41.7933 22.876C41.5533 23.406 41.0323 23.651 40.4493 23.566C39.9643 23.492 39.6693 23.181 39.7123 22.643C39.7423 22.228 39.8533 21.801 40.0253 21.422C40.2463 20.922 40.7193 20.756 41.2473 20.787C41.8113 20.824 42.0943 21.177 42.1313 21.807ZM41.5173 21.678C41.4253 21.556 41.3513 21.348 41.2163 21.288C41.1649 21.2623 41.1086 21.2477 41.0512 21.2453C40.9937 21.2429 40.9364 21.2527 40.8831 21.2741C40.8297 21.2954 40.7814 21.3279 40.7415 21.3692C40.7015 21.4106 40.6708 21.4599 40.6513 21.514C40.5062 21.9003 40.4056 22.3019 40.3513 22.711C40.3143 23.041 40.6083 23.199 40.9153 23.041C41.048 22.9684 41.1536 22.8547 41.2163 22.717C41.3263 22.405 41.4003 22.081 41.5163 21.678H41.5173ZM39.5103 20.939C39.4303 21.227 39.3203 21.379 38.9823 21.294C38.4723 21.165 38.1293 21.367 37.9573 21.868C37.8773 22.094 37.8213 22.338 37.8093 22.582C37.7853 22.955 38.0793 23.169 38.4423 23.077C38.4973 23.065 38.5583 22.997 38.5773 22.943C38.6263 22.778 38.6503 22.613 38.6813 22.43C38.5403 22.424 38.4173 22.411 38.3013 22.405C38.2393 22.002 38.2813 21.947 38.6693 21.947H39.3383C39.2333 22.436 39.1353 22.9 39.0313 23.357C39.0253 23.394 38.9693 23.443 38.9263 23.456C38.4963 23.584 38.0673 23.663 37.6443 23.456C37.2633 23.266 37.1843 22.9 37.2023 22.521C37.2126 22.3182 37.2475 22.1174 37.3063 21.923C37.5823 20.927 38.5343 20.506 39.5103 20.939ZM34.2923 23.479C34.5013 23.089 34.7033 22.703 34.9063 22.325C35.1393 21.885 35.3783 21.452 35.6183 21.012C35.7163 20.835 36.2933 20.737 36.4343 20.865C36.4618 20.8957 36.4792 20.9341 36.4843 20.975L36.7413 23.455C36.7413 23.461 36.7293 23.473 36.7113 23.497H36.1953C36.1653 23.327 36.1403 23.162 36.1033 22.947C35.8333 22.947 35.5503 22.936 35.2683 22.954C35.1943 22.96 35.1143 23.064 35.0653 23.144C34.8253 23.571 34.8073 23.583 34.2923 23.479ZM35.9743 21.549C35.9553 21.549 35.9373 21.543 35.9193 21.543C35.7593 21.848 35.5993 22.16 35.4273 22.49H36.0603C36.0303 22.16 35.9983 21.855 35.9743 21.55V21.549ZM32.8673 20.83C33.2673 20.83 33.6473 20.818 34.0213 20.836C34.3963 20.855 34.6113 21.099 34.6233 21.472C34.6413 22.1 34.2243 22.534 33.5923 22.546C33.4383 22.552 33.2853 22.546 33.1193 22.546C33.0763 22.73 33.0333 22.894 32.9963 23.066C32.8923 23.578 32.8613 23.596 32.3033 23.481C32.4933 22.601 32.6773 21.721 32.8673 20.831V20.83ZM33.2173 22.04C33.4753 22.094 33.7273 22.137 33.8743 21.917C33.9603 21.783 34.0213 21.508 33.9483 21.429C33.8383 21.313 33.5983 21.313 33.3893 21.258C33.3223 21.557 33.2723 21.789 33.2173 22.039V22.04ZM44.4823 20.902C44.3843 21.323 44.3473 21.342 43.9663 21.299C43.786 21.2753 43.6029 21.2855 43.4263 21.329C43.3343 21.354 43.2233 21.482 43.2053 21.579C43.1933 21.641 43.3153 21.745 43.4013 21.806C43.4813 21.861 43.5863 21.886 43.6843 21.922C44.0583 22.068 44.2243 22.282 44.2303 22.612C44.2363 22.997 44.0343 23.327 43.6963 23.461C43.1993 23.656 42.7023 23.601 42.2163 23.418C42.2663 22.997 42.3393 22.948 42.7083 23.003C42.9163 23.033 43.1383 23.046 43.3463 23.003C43.4443 22.985 43.5733 22.844 43.5983 22.74C43.6163 22.667 43.4943 22.545 43.4083 22.478C43.3153 22.404 43.1803 22.386 43.0703 22.331C42.7943 22.203 42.5853 22.02 42.5913 21.69C42.5973 21.354 42.7263 21.06 43.0453 20.914C43.5123 20.701 43.9973 20.731 44.4823 20.902ZM31.4183 20.842C31.4063 21.269 31.4003 21.282 31.0073 21.282H30.8233C30.2153 21.282 30.2153 21.282 30.1783 21.935H30.9883C30.9953 22.363 30.9643 22.399 30.5963 22.399H30.5653C29.9703 22.399 29.9643 22.411 29.9453 23.071H30.9643C30.9823 23.505 30.9643 23.529 30.6083 23.529H29.1963C29.3933 22.613 29.5763 21.734 29.7673 20.842H31.4183ZM21.5923 23.064H22.5803C22.6543 23.474 22.6103 23.529 22.2433 23.529H20.8363C21.0323 22.613 21.2163 21.734 21.4063 20.842H23.0273C23.0893 21.227 23.0463 21.275 22.6773 21.282H22.4323C21.8553 21.282 21.8553 21.282 21.8183 21.929H22.5913C22.6653 22.332 22.6103 22.399 22.2543 22.405H22.1923C21.6093 22.399 21.5853 22.43 21.5913 23.065L21.5923 23.064Z" fill="#F9E000"/>
</g>
<defs>
<clipPath id="clip0_4314_72419">
<rect x="0.75" y="0.253906" width="50" height="30" rx="4" fill="white"/>
</clipPath>
</defs>
</svg>
