<svg width="51" height="31" viewBox="0 0 51 31" fill="none" xmlns="http://www.w3.org/2000/svg">
<g clip-path="url(#clip0_4322_75086)">
<path d="M0.078125 0.253906H50.0781V30.2539H0.078125V0.253906Z" fill="#285C9F"/>
<path fill-rule="evenodd" clip-rule="evenodd" d="M28.0161 11.2909C28.7046 11.3127 29.3775 11.5012 29.977 11.8404C30.5765 12.1795 31.0848 12.6591 31.4581 13.2379C31.9189 13.9153 32.1796 14.7087 32.2104 15.5274C32.2411 16.3461 32.0407 17.1568 31.6321 17.8669C30.8671 19.2989 29.6161 19.9969 28.0161 20.1069V18.8949C28.1201 18.8949 28.2601 18.8589 28.3641 18.8589C28.845 18.7822 29.3008 18.5922 29.6937 18.3046C30.0867 18.017 30.4056 17.6401 30.6241 17.2049C30.8321 16.7649 30.9721 16.2869 30.9721 15.8089C31.0061 14.2289 29.9281 12.8339 28.4331 12.5769C28.2941 12.5399 28.1901 12.5399 28.0511 12.5399C28.0161 12.5399 27.9811 12.5399 27.9811 12.4669C27.9811 12.0989 27.9811 11.7319 28.0161 11.2909C27.9811 11.3279 27.9811 11.3279 28.0161 11.2909ZM21.0281 13.3109H21.9661C22.0011 13.3109 22.0361 13.3469 22.0361 13.3839C22.2441 13.9349 22.4531 14.4859 22.6611 15.0739C22.8701 15.6619 23.0791 16.2129 23.2871 16.7639C23.3221 16.9109 23.3571 17.0209 23.3921 17.1679C23.4261 17.0939 23.4261 17.0209 23.4621 16.9479C23.6351 16.4699 23.7741 15.9919 23.9481 15.5149C24.1911 14.8169 24.4351 14.1189 24.6781 13.3849C24.6781 13.3469 24.7481 13.3109 24.7821 13.3109H25.6521C25.6521 13.3469 25.6521 13.3839 25.6171 13.3839C24.9211 15.2209 24.2261 17.0939 23.5311 18.9309C23.4292 19.2247 23.2762 19.4983 23.0791 19.7389C22.5571 20.3269 21.7231 20.3999 21.0971 19.9589L21.0621 19.9229C21.1661 19.6659 21.2711 19.4449 21.3751 19.2249C21.4791 19.2979 21.6181 19.3349 21.7231 19.3719C22.0361 19.4819 22.3831 19.2979 22.5571 19.0049C22.6611 18.8209 22.7311 18.5999 22.8701 18.3799C22.9045 18.2986 22.9222 18.2112 22.9222 18.1229C22.9222 18.0346 22.9045 17.9472 22.8701 17.8659C22.2441 16.3599 21.6531 14.8539 21.0271 13.3469C21.0621 13.3469 21.0621 13.3469 21.0271 13.3109H21.0281ZM48.0781 13.3109L47.6611 14.0449C46.7221 15.6979 45.8181 17.3509 44.8791 19.0049C44.7061 19.3719 44.4271 19.6649 44.1491 19.9229C43.6281 20.3269 42.8981 20.3629 42.3761 19.9599L42.3061 19.9229L42.6891 19.2979C42.8291 19.3349 42.9321 19.4079 43.0711 19.4449C43.3841 19.5189 43.7321 19.3719 43.9411 19.0779C44.0801 18.8939 44.2191 18.7109 44.3231 18.4899C44.4015 18.4055 44.4608 18.3052 44.4971 18.1959C44.4971 18.0859 44.4621 17.9759 44.4271 17.8659C44.1141 16.4329 43.8021 15.0369 43.4891 13.6049C43.4891 13.5309 43.4541 13.4579 43.4191 13.3469H44.2891C44.3231 13.3469 44.3581 13.3469 44.3581 13.4209C44.5671 14.5599 44.7751 15.6609 44.9841 16.8009C45.0191 16.9469 45.0191 17.1309 45.0541 17.3149C45.1231 17.1679 45.1581 17.0579 45.2271 16.9469L46.8971 13.7509L47.0701 13.4209C47.0701 13.3839 47.1051 13.3839 47.1401 13.3839H48.0441L48.0781 13.3109ZM2.49513 16.8749C2.73913 17.0949 3.01713 17.2789 3.33013 17.3529C3.60813 17.4259 3.88612 17.4629 4.16412 17.3889C4.29919 17.3513 4.4202 17.2748 4.51213 17.1689C4.68613 16.9849 4.65112 16.7289 4.51213 16.5439L4.44212 16.4709C4.27659 16.3592 4.10236 16.2608 3.92112 16.1769C3.64312 16.0299 3.33012 15.9199 3.01712 15.7729C2.78261 15.6665 2.57918 15.502 2.42613 15.2949C2.2448 15.0443 2.16542 14.7342 2.20403 14.4274C2.24265 14.1205 2.39638 13.8397 2.63412 13.6419C2.70412 13.6059 2.73913 13.5689 2.80813 13.5319C3.12112 13.3849 3.43412 13.3119 3.78212 13.3119C4.26813 13.2749 4.75512 13.3849 5.17212 13.6059C5.24212 13.6419 5.34612 13.7159 5.41612 13.7889C5.45112 13.7889 5.45113 13.8259 5.45113 13.8629L5.10313 14.4869C4.75486 14.2184 4.32582 14.076 3.88613 14.0829C3.67713 14.0829 3.46913 14.1199 3.33013 14.2669C3.12113 14.3769 3.08613 14.6709 3.19012 14.8549L3.29513 14.9649C3.43412 15.0749 3.60812 15.1849 3.78212 15.2589C4.09512 15.4059 4.44213 15.5529 4.75513 15.6989C4.99913 15.8089 5.17213 15.9569 5.34613 16.1769C5.51366 16.4348 5.58141 16.745 5.53668 17.0493C5.49194 17.3536 5.3378 17.6311 5.10313 17.8299C4.82225 18.0524 4.485 18.1923 4.12913 18.2339C3.5206 18.3025 2.90699 18.1599 2.39112 17.8299L2.07812 17.6099V17.5359C2.21813 17.2789 2.35613 17.0589 2.49513 16.8749ZM19.8101 13.8619V16.3959C19.8101 17.0949 20.2971 17.4259 20.8881 17.3889H20.9931V18.1229C20.9931 18.1599 20.9931 18.1969 20.9231 18.1969C20.5751 18.2339 20.1581 18.1599 19.8101 18.0499C19.3581 17.8659 19.0101 17.3889 18.9411 16.8739C18.9061 16.7279 18.9061 16.5439 18.9061 16.3599V13.8619H18.3161V13.0909H18.9411V11.2539H19.8111V13.0909H20.8541C20.9231 13.0909 20.9231 13.0909 20.9231 13.1639V13.7889C20.9231 13.8619 20.9231 13.8619 20.8531 13.8619H19.8101ZM12.0921 18.1969H11.1881V13.8639H10.5971V13.0919H11.1531C11.1531 12.9449 11.1881 12.7979 11.1881 12.6519C11.2186 12.3194 11.3575 12.0061 11.5836 11.7603C11.8097 11.5146 12.1103 11.35 12.4391 11.2919C12.6831 11.2559 12.9611 11.2559 13.2041 11.2919C13.2391 11.2919 13.2741 11.2919 13.2741 11.3659V12.0999H12.9961C12.8911 12.0999 12.7871 12.1369 12.6831 12.1369C12.2651 12.2469 12.0231 12.6879 12.0921 13.1289H13.1001C13.1701 13.0919 13.2041 13.1289 13.2041 13.2019V13.7539C13.2041 13.8639 13.2041 13.8639 13.1001 13.8639H12.0921V18.1979V18.1969Z" fill="white"/>
<path fill-rule="evenodd" clip-rule="evenodd" d="M29.1284 15.9559L26.7984 17.7929V14.1189L29.1284 15.9559ZM37.2994 16.9469C37.0487 17.2383 36.7043 17.4331 36.3254 17.4979C35.8044 17.6449 35.2474 17.2779 35.1084 16.7269V16.6899C34.9344 15.7719 35.3174 14.8169 36.0824 14.3019C36.3604 14.1189 36.7084 14.0449 37.0214 14.1189C37.4384 14.1919 37.7854 14.5229 37.8214 14.9639C37.8554 15.0739 37.8554 15.2209 37.8554 15.2939C37.8923 15.8963 37.6928 16.4893 37.2994 16.9469ZM38.7944 14.7799C38.7549 14.4091 38.5963 14.061 38.3424 13.7879C38.0402 13.4956 37.6479 13.3144 37.2294 13.2739C36.6394 13.1999 36.0824 13.4209 35.6644 13.8619C35.5604 13.9349 35.4914 14.0449 35.4214 14.1549C35.4914 13.8619 35.5264 13.6049 35.5954 13.3099H34.7614C34.7614 13.3099 34.7264 13.3469 34.7264 13.3839C34.6914 13.4939 34.6914 13.6409 34.6564 13.7509C34.4824 14.7429 34.2744 15.7709 34.1004 16.7639C33.8914 17.8289 33.7174 18.8569 33.5094 19.9229C33.4744 20.0329 33.4744 20.1429 33.4394 20.2529H34.2744C34.3084 20.2529 34.3084 20.2169 34.3444 20.2169C34.4134 19.8129 34.4824 19.3719 34.5874 18.9669L34.8654 17.5349L34.9004 17.5719C35.0394 17.8289 35.2474 18.0489 35.5264 18.1959C35.9084 18.3799 36.3604 18.4159 36.7774 18.3059C37.4134 18.158 37.9714 17.7783 38.3424 17.2409C38.6894 16.5059 38.8984 15.6249 38.7944 14.7799ZM14.2124 15.1839C14.2124 15.1469 14.2124 15.1109 14.2464 15.0739C14.4204 14.3389 15.1164 13.8619 15.8114 14.0449C15.8464 14.0449 15.8464 14.0449 15.8814 14.0819C16.2634 14.1919 16.5414 14.4859 16.6114 14.8899C16.6454 14.9999 16.6454 15.1099 16.6454 15.1839H14.2124ZM17.4454 14.7069C17.3773 14.4188 17.2406 14.1515 17.047 13.9276C16.8534 13.7037 16.6086 13.5299 16.3334 13.4209C15.9575 13.2686 15.5423 13.2426 15.1504 13.3469C14.4554 13.4569 13.8644 13.9349 13.5514 14.5969C13.3416 15.0562 13.269 15.5663 13.3424 16.0659C13.3774 16.5429 13.5514 16.9839 13.8644 17.3519C14.0865 17.6269 14.3672 17.8487 14.6861 18.0012C15.005 18.1536 15.3539 18.2328 15.7074 18.2329C16.2377 18.2335 16.7569 18.0807 17.2024 17.7929L17.5154 17.5719C17.3754 17.3519 17.2714 17.1309 17.1674 16.9109H17.1324C17.1324 16.9109 17.0974 16.9109 17.0974 16.9469C16.8912 17.131 16.648 17.269 16.3841 17.3514C16.1202 17.4338 15.8418 17.4589 15.5674 17.4249C15.0464 17.3879 14.6294 17.0579 14.3854 16.5799C14.286 16.361 14.2384 16.1222 14.2464 15.8819H17.5494C17.5494 15.4779 17.5494 15.0739 17.4454 14.7069ZM8.75339 16.7279C8.61339 17.0589 8.33539 17.3159 8.02339 17.4259C7.8879 17.4784 7.74216 17.4991 7.59741 17.4865C7.45265 17.4738 7.31272 17.4281 7.18839 17.3529C7.03749 17.2606 6.92801 17.1136 6.88275 16.9426C6.83748 16.7716 6.85992 16.5898 6.94539 16.4349C7.00751 16.3329 7.09028 16.245 7.18839 16.1769C7.39739 16.0669 7.60539 15.9569 7.84839 15.9569C8.19639 15.9199 8.57839 15.8839 8.92639 15.9199H8.96139C8.96139 16.1399 8.89139 16.4349 8.75339 16.7279ZM9.79639 15.1859C9.79639 15.0019 9.79639 14.8179 9.76139 14.6709C9.72821 14.3691 9.60396 14.0845 9.40515 13.8549C9.20635 13.6254 8.9424 13.4618 8.64839 13.3859C7.98426 13.1986 7.27328 13.2775 6.66639 13.6059L6.24939 13.8259L6.63239 14.4879C6.72803 14.4129 6.8333 14.351 6.94539 14.3039C7.32739 14.0839 7.81439 14.0099 8.23139 14.0839C8.68339 14.1569 8.99639 14.6339 8.89139 15.1119C8.57939 15.1119 8.30139 15.1489 7.98839 15.1489C7.57039 15.1859 7.18839 15.2589 6.80539 15.4059C6.52629 15.5019 6.28654 15.6871 6.12315 15.9329C5.95977 16.1787 5.88184 16.4714 5.90139 16.7659C5.90139 17.1689 6.11139 17.5729 6.45839 17.7939C6.80539 18.0509 7.22339 18.1609 7.64039 18.1239C8.05739 18.0879 8.44039 17.9039 8.71839 17.5739L8.92639 17.2429V18.1239H9.76139V18.0139C9.79639 17.0959 9.79639 16.1409 9.79639 15.1859ZM41.8534 16.3229C41.6804 16.7629 41.3674 17.0939 40.9844 17.3149C40.8721 17.3868 40.7458 17.4338 40.6138 17.4527C40.4819 17.4717 40.3474 17.4622 40.2194 17.4249C40.0637 17.4039 39.9223 17.3232 39.8251 17.1998C39.7279 17.0765 39.6824 16.9202 39.6984 16.7639C39.6984 16.6539 39.7334 16.5439 39.8024 16.4699C39.9251 16.2577 40.1239 16.1001 40.3584 16.0289C40.7414 15.8819 41.1584 15.8449 41.5754 15.8449H41.9934C41.9584 15.9919 41.9234 16.1749 41.8534 16.3229ZM43.0364 14.4859C43.0233 14.3215 42.9764 14.1616 42.8986 14.0162C42.8209 13.8708 42.7139 13.743 42.5844 13.6409C42.2674 13.423 41.8911 13.3078 41.5064 13.3109C40.9504 13.3109 40.3934 13.4209 39.9064 13.6779C39.8364 13.7149 39.7674 13.7519 39.6634 13.7879L39.9064 14.4859L40.3244 14.2659C40.7064 14.0819 41.1244 14.0089 41.5414 14.0459C41.8194 14.0459 42.0624 14.2659 42.0974 14.5599C42.1377 14.7429 42.1256 14.9335 42.0624 15.1099H41.9924C41.6804 15.1099 41.3324 15.1099 41.0194 15.1469C40.5972 15.1835 40.185 15.2956 39.8024 15.4779C39.5207 15.576 39.2729 15.7526 39.0881 15.9868C38.9033 16.221 38.7893 16.5031 38.7594 16.7999C38.7244 17.1679 38.8634 17.5719 39.1424 17.7919C39.3854 17.9759 39.6634 18.1219 39.9764 18.1219C40.2312 18.1402 40.4871 18.1039 40.7268 18.0154C40.9665 17.927 41.1845 17.7884 41.3664 17.6089C41.5064 17.4989 41.6104 17.3509 41.7144 17.2409C41.6444 17.5349 41.6104 17.8289 41.5414 18.1229H42.3414L42.3754 18.0859C42.4104 17.9019 42.4454 17.7559 42.4794 17.5719C42.6194 16.8739 42.7584 16.1389 42.8974 15.4419C43.0014 15.1839 43.0364 14.8539 43.0364 14.4859Z" fill="white"/>
</g>
<defs>
<clipPath id="clip0_4322_75086">
<rect width="50" height="30" fill="white" transform="translate(0.078125 0.253906)"/>
</clipPath>
</defs>
</svg>
