<svg width="51" height="31" viewBox="0 0 51 31" fill="none" xmlns="http://www.w3.org/2000/svg">
<g clip-path="url(#clip0_4314_74363)">
<path d="M0.078125 0.253906H50.0781V30.2539H0.078125V0.253906Z" fill="#EFEEEE"/>
<path d="M40.8203 16.3989C40.8203 14.7889 42.1443 13.4989 43.9503 13.4989C45.7543 13.4989 47.0783 14.7889 47.0783 16.3759V16.3989C47.0783 17.9629 45.7543 19.2769 43.9253 19.2769C42.1443 19.2539 40.8203 17.9629 40.8203 16.3989Z" fill="#2A317E"/>
<path d="M37.9801 14.6319H36.9201V13.4539H37.9801C37.9801 13.1139 38.0041 12.7969 37.9801 12.4789C37.9801 12.2749 38.0521 12.1849 38.2451 12.1389C38.5581 12.0709 38.8951 11.9809 39.2801 11.8669V13.4309H40.7481V14.6319H39.2801V17.3519C39.3041 17.8499 39.4481 18.0089 39.9781 18.0539C40.2181 18.0769 40.4591 18.0539 40.7241 18.0539V19.1419C40.2421 19.1419 39.7851 19.1869 39.3281 19.1419C38.5581 19.0519 38.0761 18.5979 38.0041 17.8719C37.9321 16.9659 37.9561 16.0819 37.9561 15.1759C37.9801 14.9949 37.9801 14.8359 37.9801 14.6319ZM3.07812 18.4159L3.68012 17.5549C4.33012 18.0079 5.00412 18.2349 5.60512 18.2349C6.18313 18.2349 6.52012 18.0079 6.52012 17.6449V17.5999C6.52012 17.1699 5.89412 17.0339 5.19613 16.8299C4.33013 16.6029 3.36613 16.2629 3.36613 15.1979V15.1749C3.36613 14.1329 4.28212 13.4979 5.46112 13.4979C6.20712 13.4979 7.00112 13.7479 7.62712 14.1329L7.09713 15.0389C6.52012 14.7219 5.91813 14.5179 5.43713 14.5179C4.90713 14.5179 4.61812 14.7449 4.61812 15.0619V15.0849C4.61812 15.4929 5.24412 15.6509 5.94212 15.8779C6.80912 16.1269 7.77212 16.4899 7.77212 17.4869V17.5099C7.77212 18.6639 6.80813 19.2539 5.58213 19.2539C4.68269 19.2299 3.81086 18.9381 3.07812 18.4159ZM8.25313 16.3759C8.25313 14.7659 9.43312 13.4749 11.1171 13.4749C12.9951 13.4749 13.9331 14.8569 13.9331 16.4429C13.9331 16.5569 13.9331 16.6699 13.9091 16.8059H9.60112C9.74512 17.7129 10.4191 18.2109 11.2861 18.2109C11.9361 18.2109 12.4161 17.9849 12.8741 17.5539L13.6691 18.2109C13.1151 18.8459 12.3451 19.2539 11.2621 19.2539C9.55212 19.2539 8.25212 18.0979 8.25212 16.3759H8.25313ZM12.6091 15.9679C12.5131 15.1519 12.0081 14.5179 11.1171 14.5179C10.2991 14.5179 9.72112 15.1059 9.60112 15.9679H12.6091ZM14.7281 13.5889H16.0751V14.4279C16.4611 13.9069 16.9901 13.4529 17.9051 13.4529C19.2281 13.4529 19.9991 14.2919 19.9991 15.5609V19.0959H18.6511V15.9919C18.6511 15.1299 18.1941 14.6319 17.3991 14.6319C16.6291 14.6319 16.0751 15.1519 16.0751 16.0139V19.1419H14.7281V13.5889ZM20.7451 16.3989C20.7451 14.8129 22.0451 13.4989 23.8021 13.4989C24.9091 13.4989 25.5831 13.8829 26.1611 14.4499L25.3181 15.2879C24.9091 14.8809 24.4761 14.5859 23.8021 14.5859C22.8151 14.5859 22.0921 15.3789 22.0921 16.3539V16.3759C22.0921 17.3509 22.8151 18.1439 23.8501 18.1439C24.4761 18.1439 24.9571 17.8719 25.3661 17.4639L26.1851 18.2119C25.6071 18.8239 24.9331 19.2549 23.7781 19.2549C22.0451 19.2549 20.7451 17.9629 20.7451 16.3989ZM26.9551 13.5879H28.3031V19.1179H26.9551V13.5879ZM29.5791 11.2539H30.9271V19.1179H29.5781V11.2539H29.5791ZM32.2031 11.2539H33.5511V19.1179H32.2031V11.2539ZM34.8261 13.5879H36.1741V19.1179H34.8261V13.5879ZM36.3181 12.1139C36.3181 12.5219 35.9341 12.8839 35.5001 12.8839C35.0431 12.8839 34.6581 12.4999 34.6581 12.0919C34.6821 11.6619 35.0431 11.3439 35.5011 11.3439C35.9581 11.3439 36.3431 11.7059 36.3191 12.1139H36.3181ZM28.4001 12.1139C28.4001 12.5219 28.0151 12.8839 27.5821 12.8839C27.1241 12.8839 26.7391 12.4999 26.7391 12.0919C26.7631 11.6619 27.1241 11.3439 27.5821 11.3439C28.0391 11.3439 28.4241 11.7059 28.4001 12.1139Z" fill="#E0211C"/>
<path d="M45.7316 16.9649H45.4426V16.1719C45.4429 16.1242 45.4295 16.0774 45.404 16.0372C45.3784 15.9969 45.3418 15.9649 45.2986 15.9449C45.2026 15.9219 45.0816 15.9219 45.0096 16.0129C44.9616 16.0579 44.9376 16.1489 44.9136 16.2169C44.8896 16.4209 44.9136 16.6469 44.9136 16.8519V16.9419H44.6236V15.6959H44.8896C44.8896 15.7409 44.8896 15.7639 44.9136 15.8089C45.2026 15.5829 45.4436 15.6049 45.6596 15.8549C45.7008 15.8037 45.7519 15.7612 45.8097 15.73C45.8676 15.6987 45.9311 15.6793 45.9966 15.6729C46.2856 15.6499 46.5266 15.8089 46.5496 16.1029V16.9649H46.2616V16.1939C46.2616 16.0359 46.1646 15.9679 46.0206 15.9449C45.8766 15.9449 45.7556 16.0129 45.7316 16.1489C45.7076 16.2169 45.7076 16.2849 45.7076 16.3529C45.7316 16.5569 45.7316 16.7609 45.7316 16.9649ZM44.5036 16.3529C44.5036 16.7149 44.1906 17.0099 43.8056 17.0099C43.4206 17.0099 43.1076 16.7149 43.1076 16.3529C43.1076 15.9899 43.4206 15.6949 43.8056 15.6949C44.1916 15.6949 44.5036 15.9899 44.5036 16.3529ZM43.8056 16.7379C44.0466 16.7379 44.2156 16.5569 44.2156 16.3529C44.2156 16.1259 44.0226 15.9669 43.8056 15.9669C43.7533 15.965 43.7011 15.9735 43.6522 15.992C43.6032 16.0104 43.5584 16.0384 43.5204 16.0744C43.4823 16.1103 43.4518 16.1534 43.4305 16.2012C43.4093 16.249 43.3977 16.3006 43.3966 16.3529C43.3726 16.5789 43.5656 16.7379 43.8066 16.7379H43.8056ZM43.0596 16.0139C42.9876 16.0589 42.8916 16.1039 42.8196 16.1499C42.7848 16.0982 42.7391 16.0547 42.6856 16.0226C42.6322 15.9905 42.5724 15.9705 42.5105 15.964C42.4485 15.9575 42.3858 15.9647 42.3269 15.9851C42.268 16.0054 42.2143 16.0385 42.1696 16.0819C42.1322 16.119 42.1026 16.1632 42.0824 16.2119C42.0622 16.2605 42.0517 16.3127 42.0517 16.3654C42.0517 16.4181 42.0622 16.4702 42.0824 16.5189C42.1026 16.5675 42.1322 16.6117 42.1696 16.6489C42.3616 16.8069 42.6026 16.7849 42.8196 16.5579C42.8916 16.6029 42.9636 16.6479 43.0596 16.6939C42.9396 16.9439 42.6266 17.0789 42.2896 17.0109C42.1401 16.9849 42.0046 16.907 41.907 16.791C41.8093 16.6749 41.7558 16.5281 41.7558 16.3764C41.7558 16.2247 41.8093 16.0779 41.907 15.9618C42.0046 15.8457 42.1401 15.7678 42.2896 15.7419C42.6026 15.6519 42.9396 15.7649 43.0596 16.0139ZM41.3516 16.8299C41.3516 16.7159 41.4476 16.6489 41.5436 16.6489C41.6636 16.6489 41.7366 16.7159 41.7366 16.8289C41.7366 16.9429 41.6396 17.0339 41.5436 17.0109C41.4476 17.0109 41.3516 16.9209 41.3516 16.8299Z" fill="white"/>
</g>
<defs>
<clipPath id="clip0_4314_74363">
<rect x="0.078125" y="0.253906" width="50" height="30" rx="4" fill="white"/>
</clipPath>
</defs>
</svg>
