<svg width="51" height="31" viewBox="0 0 51 31" fill="none" xmlns="http://www.w3.org/2000/svg">
<g clip-path="url(#clip0_4314_74369)">
<path d="M0.414062 0.253906H50.4141V30.2539H0.414062V0.253906Z" fill="#EFEEEE"/>
<path d="M46.6571 11.1299L46.5571 10.8809H43.0241C41.5611 8.69491 39.0881 7.25391 36.2641 7.25391C33.4381 7.25391 30.9151 8.69491 29.5021 10.8809H4.32206L4.22206 11.1299C3.66506 12.4219 3.41406 13.8129 3.41406 15.2539C3.41406 16.6949 3.66606 18.0859 4.22106 19.3779L4.32206 19.6269H29.4511C30.9141 21.8129 33.3861 23.2539 36.2121 23.2539C39.0381 23.2539 41.5611 21.8129 42.9741 19.6269H46.5061L46.6061 19.3779C47.1631 18.0859 47.4141 16.6949 47.4141 15.2539C47.4641 13.8129 47.1621 12.4219 46.6571 11.1299Z" fill="white"/>
<path d="M36.2169 22.8069C31.9779 22.8069 28.5469 19.4279 28.5469 15.2539C28.5469 11.0799 31.9779 7.70093 36.2169 7.70093C40.4549 7.70093 43.8869 11.0809 43.8869 15.2539C43.8869 19.4279 40.4549 22.8069 36.2169 22.8069Z" fill="#FBDB00"/>
<path d="M29.1482 11.2789H4.62419C4.11919 12.5219 3.86719 13.8139 3.86719 15.2549C3.86719 16.6449 4.11919 17.9869 4.62419 19.2299H29.1972C28.5412 18.0369 28.1372 16.6959 28.1372 15.2549C28.0872 13.8139 28.4912 12.4719 29.1472 11.2789H29.1482ZM43.2762 19.2299H46.2532C46.7582 17.9879 47.0102 16.6459 47.0102 15.2549C47.0102 13.8629 46.7582 12.5219 46.2532 11.2789H43.2762C43.9672 12.4904 44.3325 13.8603 44.3362 15.2549C44.3362 16.6949 43.9322 18.0369 43.2762 19.2299Z" fill="#7B868C"/>
<path d="M28.9922 17.6389H30.4552V15.9989H31.0102C32.3732 15.9989 33.2302 15.4029 33.2302 14.4589C33.2302 13.3649 32.4232 12.9189 30.7582 12.9189H28.9922V17.6389ZM30.5062 13.7629H30.9102C31.4142 13.7629 31.8182 13.9119 31.8182 14.4089C31.8182 14.9059 31.4142 15.0549 30.9092 15.0549H30.5062V13.7629ZM32.3732 17.6389H33.8872L34.3412 16.6459H36.4102L36.8132 17.6389H38.4282L36.3082 12.8689H34.4922L32.3722 17.6389H32.3732ZM36.0562 15.7509H34.6942L35.4002 13.8629L36.0562 15.7509ZM43.3732 17.4899C42.4142 17.6889 41.7592 17.6889 41.2532 17.6889C39.7912 17.6889 38.0752 17.0429 38.0752 15.2539C38.0752 13.4649 39.5382 12.7699 41.5572 12.7699C41.9102 12.7699 42.7172 12.8199 43.2222 12.9679L43.1212 14.0119C42.6672 13.7629 42.1112 13.7139 41.7592 13.7139C40.5482 13.7139 39.5892 14.1609 39.5892 15.2539C39.5892 16.1979 40.3462 16.7439 41.4562 16.7439C41.6582 16.7439 41.8592 16.6949 41.9602 16.6449V15.7509H41.1032V14.8569H43.3732V17.4899Z" fill="#7B868C"/>
<path d="M6.69419 16.4469C7.04719 16.6449 7.60219 16.7449 8.20819 16.7449C8.66219 16.7449 9.11619 16.6449 9.11619 16.2979C9.11619 15.4029 6.49219 15.9499 6.49219 14.2109C6.49219 13.0679 7.80419 12.7699 8.91419 12.7699C9.41919 12.7699 9.97419 12.8199 10.3272 12.9679L10.2272 13.9619C9.83802 13.8236 9.42713 13.7565 9.01419 13.7639C8.66119 13.7639 8.00419 13.8139 8.00419 14.2119C8.00419 15.0069 10.6292 14.4599 10.6292 16.1989C10.6292 17.4409 9.41819 17.7889 8.20719 17.7889C7.70219 17.7889 7.04719 17.7389 6.54219 17.5909L6.69319 16.4479L6.69419 16.4469ZM11.0842 12.8689H14.9692V13.7639H12.5472V14.7569H14.8172V15.6519H12.5472V16.7449H15.0702V17.6389H11.0842V12.8689ZM15.5752 17.6389H17.0382V15.7499H17.3412C17.8962 15.7499 18.0982 15.9499 18.4012 16.7939L18.7042 17.6389H20.2682L19.7132 16.3469C19.4612 15.7499 19.4102 15.4029 18.9562 15.3029C19.6622 15.1539 20.0162 14.7569 20.0162 14.1109C20.0162 13.3159 19.2082 12.9179 18.2492 12.9179H15.6262L15.5762 17.6379L15.5752 17.6389ZM17.0892 13.7629H17.4932C18.0482 13.7629 18.5532 13.8629 18.5532 14.3089C18.5532 14.8559 17.9472 14.8559 17.4932 14.8559H17.0892V13.7629ZM20.0142 12.8689H21.6292L22.8402 16.5959L24.1022 12.8689H25.6162L23.7482 17.6389H21.8822L20.0152 12.8689H20.0142ZM27.4322 12.8689H25.9692V17.6389H27.4322V12.8689Z" fill="white"/>
</g>
<defs>
<clipPath id="clip0_4314_74369">
<rect x="0.414062" y="0.253906" width="50" height="30" rx="4" fill="white"/>
</clipPath>
</defs>
</svg>
