<svg width="51" height="31" viewBox="0 0 51 31" fill="none" xmlns="http://www.w3.org/2000/svg">
<g clip-path="url(#clip0_4286_77449)">
<path d="M0.75 0.253906H50.75V30.2539H0.75V0.253906Z" fill="#333085"/>
<path d="M38.0924 17.645V20.05H28.7734V9.45996H37.8814V12.017H32.2154V13.092H37.5104V15.292H32.2154C32.1624 15.701 32.1624 16.11 32.1624 16.519V17.696H38.0924V17.646V17.645Z" fill="#FE9300"/>
<path d="M17.4402 12.4239L14.2102 12.6299C14.1909 12.2705 14.0398 11.9308 13.7857 11.6759C13.5317 11.4209 13.1926 11.2685 12.8332 11.2479C12.5713 11.1733 12.2925 11.1826 12.0361 11.2744C11.7796 11.3662 11.5583 11.536 11.4032 11.7599C11.3504 11.9261 11.3504 12.1047 11.4032 12.2709C11.5632 12.5269 11.7742 12.6809 12.0922 12.7309C12.6742 12.8849 13.2572 12.9879 13.7862 13.1409C14.5812 13.2949 15.3752 13.6009 16.1162 13.9599C16.9632 14.3689 17.5462 15.0849 17.7052 15.9549C17.9162 16.9779 17.6522 18.0529 16.9102 18.8199C16.2675 19.5392 15.3812 19.9952 14.4222 20.0999C13.1184 20.3056 11.7869 20.2533 10.5032 19.9459C9.93657 19.8189 9.41127 19.5506 8.97624 19.1659C8.54121 18.7813 8.21061 18.2927 8.01523 17.7459C7.83558 17.3798 7.74479 16.9766 7.75023 16.5689C7.80323 16.5689 7.80323 16.5179 7.85623 16.5179L10.5562 16.3639H10.9802C11.0332 16.5179 11.0862 16.6709 11.0862 16.8759C11.2452 17.6439 11.9332 18.1559 12.7272 18.1559C13.0452 18.2059 13.3632 18.1559 13.6802 18.0529C14.1042 17.8989 14.4222 17.5409 14.4222 17.1319C14.4222 16.7739 14.2622 16.4669 13.9982 16.2619C13.6282 16.0569 13.2042 15.8519 12.7802 15.8019C12.2502 15.6479 11.6682 15.5459 11.1392 15.3919C10.6073 15.241 10.0926 15.0353 9.60323 14.7779C9.27162 14.6042 8.97869 14.3651 8.74218 14.075C8.50567 13.7848 8.33048 13.4497 8.22723 13.0899C7.90923 11.8619 8.49123 10.5829 9.60323 9.91789C10.1332 9.61089 10.7152 9.40589 11.2982 9.35489C12.1452 9.25289 12.9922 9.20189 13.8392 9.30389C14.3828 9.34957 14.9176 9.47003 15.4282 9.66189C15.9252 9.8515 16.3632 10.1691 16.6979 10.5825C17.0326 10.9959 17.2521 11.4904 17.3342 12.0159C17.3342 12.1689 17.3872 12.2709 17.4402 12.4249V12.4239ZM39.2552 20.0489V15.1889H40.4732V17.2349L40.5262 17.2859L42.6962 14.5239V20.0999H39.2552V20.0499V20.0489ZM42.7502 13.7059L40.5262 10.7889V12.9389C40.1032 12.9889 39.6792 12.9889 39.3092 12.9889V9.45889H42.7502V13.7059ZM27.8182 11.8129C27.7371 11.3619 27.5445 10.9383 27.2579 10.5808C26.9713 10.2233 26.5998 9.94315 26.1772 9.76589C25.6358 9.56063 25.0613 9.45657 24.4822 9.45889H18.8172C18.7112 9.45889 18.6572 9.45889 18.5522 9.50989V20.0999H21.9942V16.1609H23.9532C24.4292 16.1609 24.9062 16.1109 25.3832 16.0079C26.4942 15.8029 27.3942 15.0359 27.7132 13.9609C27.9232 13.2449 27.9772 12.5289 27.8182 11.8129ZM23.9532 13.8079C23.7412 13.9099 23.5822 13.9609 23.3702 13.9609H22.0472V11.6079C22.6292 11.5569 23.2112 11.6079 23.7942 11.7099C24.2702 11.8639 24.5882 12.2729 24.5882 12.7339C24.6412 13.1939 24.3762 13.6039 23.9532 13.8079Z" fill="white"/>
</g>
<defs>
<clipPath id="clip0_4286_77449">
<rect x="0.75" y="0.253906" width="50" height="30" rx="4" fill="white"/>
</clipPath>
</defs>
</svg>
