<svg width="51" height="31" viewBox="0 0 51 31" fill="none" xmlns="http://www.w3.org/2000/svg">
<g clip-path="url(#clip0_4338_87596)">
<path d="M0.414062 0.253906H50.4141V30.2539H0.414062V0.253906Z" fill="#EFEEEE"/>
<path d="M14.0479 3.25391H23.7859C25.1449 3.25391 25.9839 4.39591 25.6789 5.78791L21.1449 25.7349C20.8249 27.1279 19.4669 28.2699 18.1079 28.2699H8.36893C7.01093 28.2699 6.17093 27.1279 6.47693 25.7349L11.0099 5.78791C11.3299 4.39591 12.6899 3.25391 14.0479 3.25391Z" fill="#E21836"/>
<path d="M22.9759 3.25391H34.1629C35.5219 3.25391 34.9109 4.39591 34.5909 5.78791L30.0729 25.7349C29.7529 27.1279 29.8599 28.2699 28.4859 28.2699H17.2969C15.9389 28.2699 15.0989 27.1279 15.4199 25.7349L19.9379 5.78791C20.2579 4.39591 21.6169 3.25391 22.9759 3.25391Z" fill="#00447C"/>
<path d="M33.7251 3.25391H43.4631C44.8221 3.25391 45.6771 4.39591 45.3561 5.78791L40.8231 25.7349C40.5021 27.1279 39.1431 28.2699 37.7851 28.2699H28.0621C26.7031 28.2699 25.8481 27.1279 26.1691 25.7349L30.6861 5.78791C31.0071 4.39591 32.3671 3.25391 33.7261 3.25391H33.7251Z" fill="#007B84"/>
<path d="M16.5969 9.65284C15.5899 9.66784 15.2999 9.65284 15.2079 9.63684C15.1779 9.80884 14.4909 13.0008 14.4909 13.0168C14.3379 13.6568 14.2469 14.1268 13.8809 14.4238C13.6807 14.5931 13.4249 14.6822 13.1629 14.6738C12.7199 14.6738 12.4609 14.4548 12.4149 14.0168L12.3999 13.8768C12.3999 13.8768 12.5369 13.0168 12.5369 12.9998C12.5369 12.9998 13.2389 10.0898 13.3769 9.69984C13.3769 9.68384 13.3919 9.66784 13.3919 9.65284C12.0179 9.66784 11.7739 9.65284 11.7429 9.63684C11.7234 9.7089 11.708 9.78202 11.6969 9.85584L10.9799 13.1408L10.9189 13.4228L10.7969 14.3298C10.7969 14.5958 10.8429 14.8148 10.9489 15.0028C11.2849 15.5968 12.2159 15.6758 12.7509 15.6758C13.4379 15.6758 14.0789 15.5188 14.5209 15.2528C15.2689 14.7998 15.4679 14.0798 15.6509 13.4538L15.7269 13.1098C15.7269 13.1098 16.4599 10.0898 16.5819 9.69984C16.5819 9.66784 16.5969 9.65284 16.5969 9.65284ZM19.0849 12.0768C18.9019 12.0768 18.5819 12.1238 18.2919 12.2648C18.1849 12.3278 18.0929 12.3898 17.9859 12.4528L18.0779 12.1088L18.0319 12.0458C17.4219 12.1708 17.2839 12.1858 16.7189 12.2658L16.6739 12.2958C16.6129 12.8598 16.5519 13.2818 16.3069 14.3768C16.2159 14.7838 16.1239 15.1908 16.0169 15.5968L16.0469 15.6438C16.6269 15.6138 16.8109 15.6138 17.3149 15.6288L17.3609 15.5818C17.4209 15.2528 17.4369 15.1588 17.5739 14.4868C17.6349 14.1578 17.7729 13.4538 17.8489 13.2038C17.9709 13.1408 18.0929 13.0788 18.2149 13.0788C18.5049 13.0788 18.4599 13.3288 18.4599 13.4388C18.4439 13.6108 18.3369 14.1588 18.2459 14.6268L18.1699 14.9398C18.1239 15.1598 18.0629 15.3778 18.0169 15.6128L18.0319 15.6598C18.5969 15.6288 18.7799 15.6288 19.2679 15.6438L19.3289 15.5968C19.4209 15.0658 19.4359 14.9248 19.6039 14.1738L19.6809 13.8298C19.8329 13.1408 19.9099 12.7968 19.7879 12.5148C19.6499 12.1548 19.3449 12.0768 19.0849 12.0768ZM21.8629 12.7968C21.5579 12.8598 21.3599 12.8908 21.1769 12.9218C20.9779 12.9538 20.7949 12.9848 20.5049 13.0158L20.4749 13.0318L20.4589 13.0628C20.4289 13.2828 20.4129 13.4848 20.3679 13.7048C20.3369 13.9388 20.2759 14.2048 20.1999 14.5958C20.1389 14.8928 20.0929 14.9868 20.0619 15.0958C20.0319 15.2058 19.9859 15.2998 19.9099 15.5968L19.9249 15.6288L19.9399 15.6598C20.2149 15.6438 20.3979 15.6438 20.5809 15.6288H21.2529L21.2829 15.6128L21.3129 15.5818C21.3599 15.3158 21.3599 15.2528 21.3899 15.1278C21.4199 14.9878 21.4659 14.7998 21.5729 14.2978C21.6189 14.0638 21.6799 13.8298 21.7409 13.5788C21.8019 13.3448 21.8479 13.0938 21.9089 12.8588L21.8939 12.8288L21.8639 12.7968H21.8629ZM21.8629 11.8268C21.5889 11.6548 21.0999 11.7168 20.7799 11.9368C20.4599 12.1558 20.4129 12.4838 20.6879 12.6568C20.9629 12.8128 21.4509 12.7658 21.7719 12.5308C22.0919 12.3118 22.1379 11.9988 21.8629 11.8268ZM23.5429 15.7068C24.1069 15.7068 24.6719 15.5508 25.0989 15.0808C25.4349 14.7058 25.5879 14.1428 25.6339 13.9078C25.8019 13.1408 25.6639 12.7808 25.4959 12.5618C25.2359 12.2338 24.7939 12.1238 24.3209 12.1238C24.0459 12.1238 23.3749 12.1558 22.8559 12.6408C22.4739 13.0008 22.3059 13.4848 22.1989 13.9388C22.0919 14.4088 21.9699 15.2688 22.7329 15.5818C22.9779 15.6758 23.3129 15.7068 23.5429 15.7068ZM23.4969 13.9698C23.6189 13.3918 23.7709 12.8898 24.1679 12.8898C24.4739 12.8898 24.4879 13.2498 24.3669 13.8448C24.3369 13.9698 24.2289 14.4548 24.0769 14.6588C23.9699 14.8148 23.8469 14.9088 23.7099 14.9088C23.6649 14.9088 23.4199 14.9088 23.4199 14.5338C23.4049 14.3618 23.4499 14.1738 23.4969 13.9698ZM27.0379 15.6288L27.0839 15.5818C27.1439 15.2528 27.1599 15.1588 27.2969 14.4868C27.3579 14.1578 27.5109 13.4538 27.5719 13.2038C27.6939 13.1408 27.8159 13.0788 27.9389 13.0788C28.2129 13.0788 28.1829 13.3288 28.1679 13.4388C28.1519 13.6108 28.0609 14.1588 27.9539 14.6268L27.8929 14.9398C27.8469 15.1598 27.7859 15.3778 27.7399 15.6128L27.7549 15.6598C28.3349 15.6288 28.5029 15.6288 28.9919 15.6438L29.0519 15.5968C29.1439 15.0658 29.1599 14.9248 29.3279 14.1738L29.4039 13.8298C29.5559 13.1408 29.6329 12.7968 29.5259 12.5148C29.4039 12.2028 29.0989 12.1248 28.8389 12.1248C28.6559 12.1248 28.3349 12.1708 28.0449 12.3118C27.9379 12.3748 27.8469 12.4368 27.7399 12.4998L27.8319 12.1558L27.7859 12.0928C27.1759 12.2178 27.0379 12.2328 26.4729 12.3128L26.4269 12.3428C26.3669 12.9068 26.3049 13.3288 26.0609 14.4238C25.9699 14.8308 25.8779 15.2378 25.7709 15.6438L25.8009 15.6908C26.3509 15.6128 26.5339 15.6128 27.0379 15.6288ZM31.2509 15.6438C31.2809 15.4568 31.4949 14.3928 31.5109 14.3928C31.5109 14.3928 31.6939 13.6108 31.7089 13.5788C31.7089 13.5788 31.7689 13.5008 31.8309 13.4688H31.9219C32.7159 13.4688 33.6169 13.4688 34.3189 12.9378C34.7919 12.5778 35.1279 12.0308 35.2809 11.3728C35.3109 11.2168 35.3409 11.0288 35.3409 10.8258C35.3409 10.5758 35.2959 10.3258 35.1429 10.1378C34.7769 9.62084 34.0749 9.60584 33.2349 9.60584H32.8229C31.7699 9.62084 31.3429 9.62084 31.1589 9.58984C31.1439 9.66784 31.1139 9.80884 31.1139 9.80884L30.7319 11.6088C30.7319 11.6088 29.8319 15.4408 29.7849 15.6128C30.7009 15.6288 31.0829 15.6288 31.2509 15.6438ZM31.9529 12.4528C31.9529 12.4528 32.3499 10.6528 32.3499 10.6688L32.3649 10.5758V10.5128L32.5329 10.5288C32.5329 10.5288 33.3569 10.6068 33.3879 10.6068C33.7079 10.7318 33.8459 11.0768 33.7539 11.5138C33.6629 11.9208 33.4179 12.2498 33.0829 12.4058C32.8079 12.5458 32.4869 12.5618 32.1509 12.5618H31.9379L31.9529 12.4518V12.4528ZM34.4559 14.0018C34.3499 14.4708 34.2269 15.3158 34.9909 15.6128C35.2349 15.7228 35.4479 15.7528 35.6769 15.7378C35.9069 15.7228 36.1199 15.6128 36.3189 15.4408C36.3029 15.5188 36.2889 15.5808 36.2579 15.6598L36.2879 15.7068C36.8379 15.6758 37.0059 15.6758 37.6009 15.6908L37.6609 15.6438C37.7529 15.1278 37.8299 14.6118 38.0589 13.6258C38.1649 13.1558 38.2719 12.6718 38.3939 12.2028L38.3789 12.1558C37.7689 12.2658 37.6009 12.2958 37.0209 12.3748L36.9749 12.4058C36.9749 12.4528 36.9599 12.4998 36.9599 12.5458C36.863 12.3801 36.7118 12.2529 36.5319 12.1858C36.2719 12.0768 35.6619 12.2178 35.1279 12.7028C34.7309 13.0628 34.5629 13.5328 34.4559 14.0018ZM35.7379 14.0328C35.8759 13.4538 36.0129 12.9688 36.4099 12.9688C36.6539 12.9688 36.7919 13.2038 36.7609 13.5948C36.7459 13.6888 36.7159 13.7978 36.6849 13.9238C36.6389 14.0958 36.6089 14.2678 36.5629 14.4398C36.5169 14.5498 36.4709 14.6588 36.4249 14.7368C36.3653 14.8052 36.2929 14.8611 36.2118 14.9014C36.1306 14.9417 36.0423 14.9657 35.9519 14.9718C35.9059 14.9718 35.6769 14.9718 35.6619 14.6118C35.6619 14.4238 35.6919 14.2358 35.7379 14.0328ZM42.4389 12.1398L42.3939 12.0768C41.7839 12.2028 41.6759 12.2178 41.1269 12.2968L41.0809 12.3428V12.3748V12.3588C40.6689 13.3288 40.6839 13.1258 40.3479 13.8918V13.7978L40.2569 12.1238L40.2109 12.0618C39.5849 12.1868 39.5699 12.2018 38.9749 12.2808L38.9289 12.3278C38.9289 12.3428 38.9289 12.3748 38.9139 12.3898V12.4058C38.9899 12.7808 38.9739 12.7028 39.0359 13.3128C39.0659 13.6108 39.1119 13.9078 39.1429 14.2048C39.2029 14.6898 39.2339 14.9398 39.3099 15.6908C38.9139 16.3638 38.8219 16.6138 38.4399 17.1928L38.1649 17.6308C38.143 17.6694 38.1117 17.7017 38.0739 17.7248C38.0203 17.7456 37.9633 17.7561 37.9059 17.7558H37.7529L37.5399 18.5068L38.3029 18.5228C38.7459 18.5228 39.0199 18.3038 39.1729 18.0228L39.6459 17.1928L39.6919 17.1308C40.0119 16.4108 42.4389 12.1398 42.4389 12.1398ZM34.4559 22.0118H34.1359L35.3259 17.9918H35.7229L35.8449 17.5688L35.8609 18.0218C35.8449 18.3038 36.0589 18.5538 36.6389 18.5228H37.3109L37.5399 17.7408H37.2949C37.1579 17.7408 37.0819 17.7098 37.0969 17.6308L37.0819 17.1608H35.8449C35.4479 17.1778 34.2579 17.2088 34.0139 17.2708C33.7239 17.3498 33.4179 17.5688 33.4179 17.5688L33.5399 17.1458H32.3959L32.1509 17.9758L30.9459 22.0588H30.7159L30.4879 22.8248H32.7779L32.7009 23.0748H33.8309L33.9069 22.8248H34.2269L34.4569 22.0118H34.4559ZM33.5259 18.8048C33.3437 18.8618 33.165 18.9296 32.9909 19.0078L33.2959 17.9748H34.2119L33.9979 18.7258C33.9829 18.7258 33.7079 18.7418 33.5249 18.8048H33.5259ZM33.5399 20.2598C33.5399 20.2598 33.2499 20.2898 33.0669 20.3378C32.8839 20.3998 32.5329 20.5718 32.5329 20.5718L32.8529 19.5088H33.7689L33.5399 20.2588V20.2598ZM33.0209 22.0118H32.1059L32.3659 21.1038H33.2809L33.0209 22.0118ZM35.2349 19.5238H36.5629L36.3799 20.1498H35.0359L34.8379 20.8378H36.0129L35.1279 22.1208C35.084 22.1903 35.0202 22.245 34.9449 22.2778C34.87 22.3186 34.7861 22.3399 34.7009 22.3398H34.3799L34.1509 23.0908H35.0059C35.4479 23.0908 35.7079 22.8878 35.9059 22.6208L36.5169 21.7608L36.6539 22.6208C36.6839 22.7778 36.7919 22.8718 36.8679 22.9188C36.9599 22.9658 37.0359 23.0438 37.1579 23.0438C37.2959 23.0438 37.3879 23.0598 37.4479 23.0598H37.8599L38.1039 22.2148H37.9369C37.8449 22.2148 37.6769 22.1998 37.6469 22.1678C37.6159 22.1368 37.6159 22.0738 37.6009 21.9798L37.4629 21.1038H36.9439L37.1889 20.8068H38.5319L38.7299 20.1188H37.4939L37.6919 19.4928H38.9289L39.1579 18.7108H35.4789L35.2349 19.5238ZM24.0609 22.1838L24.3669 21.1358H25.6339L25.8629 20.3528H24.5959L24.7939 19.7118H26.0299L26.2599 18.9608H23.1599L22.9319 19.7118H23.6339L23.4509 20.3528H22.7489L22.5189 21.1508H23.2219L22.8099 22.5438C22.7489 22.7308 22.8399 22.7938 22.8859 22.8878C22.9319 22.9658 22.9929 23.0278 23.1159 23.0598C23.2369 23.0908 23.3289 23.1068 23.4359 23.1068H24.8699L25.1299 22.2468L24.4889 22.3398C24.3669 22.3248 24.0309 22.3088 24.0609 22.1838ZM24.2139 17.1458L23.8939 17.7408C23.8417 17.8306 23.78 17.9144 23.7099 17.9908C23.6649 18.0218 23.5579 18.0378 23.4199 18.0378H23.2519L23.0239 18.8048H23.5879C23.8629 18.8048 24.0609 18.7108 24.1529 18.6478C24.2599 18.5858 24.2899 18.6168 24.3669 18.5378L24.5499 18.3668H26.2899L26.5189 17.5688H25.2519L25.4809 17.1308H24.2139V17.1458ZM26.7789 22.1988C26.7479 22.1518 26.7629 22.0738 26.8089 21.9178L27.2819 20.3058H28.9769C29.2209 20.3058 29.4039 20.3058 29.5109 20.2908C29.6329 20.2748 29.7709 20.2278 29.9229 20.1498C30.0473 20.0894 30.149 19.9906 30.2129 19.8678C30.2889 19.7578 30.4109 19.5398 30.5029 19.1958L31.0979 17.1618L29.3429 17.1768C29.3429 17.1768 28.8089 17.2558 28.5639 17.3498C28.3199 17.4428 27.9839 17.7248 27.9839 17.7248L28.1369 17.1618H27.0529L25.5429 22.3248C25.4933 22.4662 25.4623 22.6135 25.4509 22.7628C25.4509 22.8558 25.5729 22.9498 25.6489 23.0128C25.7399 23.0758 25.8779 23.0758 25.9999 23.0758C26.1369 23.0908 26.3199 23.0908 26.5949 23.0908H27.4349L27.6949 22.1988L26.9459 22.2778C26.8549 22.2928 26.7939 22.2458 26.7779 22.1988H26.7789ZM27.6029 19.2268H29.3729L29.2659 19.5868C29.2509 19.6028 29.2059 19.5708 29.0379 19.5868H27.4809L27.6029 19.2268ZM27.9529 18.0068H29.7399L29.6179 18.4448C29.6179 18.4448 28.7779 18.4288 28.6409 18.4598C28.0449 18.5698 27.6939 18.8988 27.6939 18.8988L27.9539 18.0068H27.9529ZM29.2969 20.7908C29.2819 20.8378 29.2669 20.8848 29.2209 20.9008C29.1909 20.9318 29.1289 20.9318 29.0379 20.9318H28.7779L28.7929 20.4938H27.7399L27.6939 22.6538C27.6939 22.8098 27.7099 22.9038 27.8159 22.9658C27.9229 23.0598 28.2739 23.0598 28.7319 23.0598H29.3889L29.6329 22.2458L29.0529 22.2778L28.8539 22.2928C28.8239 22.2778 28.8089 22.2778 28.7779 22.2458C28.7479 22.2158 28.7169 22.2308 28.7169 22.0738V21.5268L29.3119 21.4948C29.6319 21.4948 29.7699 21.3848 29.8919 21.2758C29.9989 21.1828 30.0449 21.0568 30.0909 20.9158L30.1979 20.4318H29.3729L29.2969 20.7918V20.7908Z" fill="#FEFEFE"/>
</g>
<defs>
<clipPath id="clip0_4338_87596">
<rect x="0.414062" y="0.253906" width="50" height="30" rx="4" fill="white"/>
</clipPath>
</defs>
</svg>
