<svg width="51" height="30" viewBox="0 0 51 30" fill="none" xmlns="http://www.w3.org/2000/svg">
<g clip-path="url(#clip0_4500_38263)">
<rect x="0.328125" width="50" height="30" rx="4" fill="#E8E8E8"/>
<rect x="0.328125" width="50" height="30" fill="#1A1F71"/>
<mask id="mask0_4500_38263" style="mask-type:alpha" maskUnits="userSpaceOnUse" x="7" y="9" width="36" height="12">
<path fill-rule="evenodd" clip-rule="evenodd" d="M7.32812 9H42.3281V20.3032H7.32812V9Z" fill="white"/>
</mask>
<g mask="url(#mask0_4500_38263)">
<path fill-rule="evenodd" clip-rule="evenodd" d="M24.6585 9.20094L22.3202 20.1329H19.492L21.8305 9.20094H24.6585ZM36.5559 16.2583L38.0448 12.1528L38.9012 16.2583H36.5559ZM39.7124 20.1329H42.3276L40.0428 9.20094H37.6304C37.0867 9.20094 36.6286 9.51622 36.4257 10.0023L32.1819 20.1329H35.1521L35.7418 18.5004H39.3698L39.7124 20.1329ZM32.3292 16.5626C32.3417 13.6776 28.3412 13.5177 28.3677 12.2287C28.3764 11.8369 28.7499 11.4197 29.5668 11.313C29.972 11.2607 31.0893 11.2187 32.3562 11.8023L32.8516 9.48313C32.1711 9.2371 31.2956 9 30.2063 9C27.4104 9 25.4435 10.4851 25.4278 12.6135C25.4099 14.1873 26.8327 15.0648 27.9025 15.5889C29.0055 16.1247 29.3752 16.4685 29.3699 16.9471C29.3622 17.6805 28.4901 18.0052 27.6785 18.0175C26.2555 18.0396 25.4312 17.6329 24.7738 17.3266L24.2605 19.7231C24.9223 20.026 26.1418 20.2897 27.4047 20.3033C30.3769 20.3033 32.3205 18.8354 32.3292 16.5626ZM20.6166 9.20094L16.0342 20.1329H13.0449L10.7897 11.4084C10.6531 10.8719 10.5339 10.6747 10.1181 10.4481C9.43803 10.0786 8.3152 9.73314 7.32812 9.51813L7.39484 9.20094H12.2074C12.8203 9.20094 13.3719 9.60885 13.5121 10.3148L14.7033 16.6414L17.6454 9.20094H20.6166Z" fill="white"/>
</g>
</g>
<defs>
<clipPath id="clip0_4500_38263">
<rect x="0.328125" width="50" height="30" rx="4" fill="white"/>
</clipPath>
</defs>
</svg>
